<svg width="21" height="20" viewBox="0 0 21 20" fill="none" xmlns="http://www.w3.org/2000/svg">
<path d="M8.67398 15.9933V12.8483C7.93343 12.7956 7.20148 12.7206 6.47815 12.6233C5.75482 12.5261 5.03676 12.3956 4.32398 12.2317C4.1951 12.1983 4.08787 12.1333 4.00232 12.0367C3.91676 11.9406 3.8926 11.8306 3.92982 11.7067C3.9676 11.5828 4.04315 11.4919 4.15648 11.4342C4.26982 11.3764 4.39148 11.3647 4.52148 11.3992C5.50315 11.6242 6.49371 11.7839 7.49315 11.8783C8.4926 11.9728 9.4951 12.0197 10.5007 12.0192C11.5062 12.0186 12.509 11.9714 13.509 11.8775C14.509 11.7836 15.4993 11.6242 16.4798 11.3992C16.6126 11.3647 16.7348 11.3758 16.8465 11.4325C16.9587 11.4892 17.0337 11.5781 17.0715 11.6992C17.1087 11.8281 17.0837 11.9406 16.9965 12.0367C16.9093 12.1328 16.8009 12.1981 16.6715 12.2325C15.9487 12.3958 15.2276 12.5261 14.5082 12.6233C13.7887 12.7206 13.0618 12.7969 12.3273 12.8525V15.9942C12.3273 16.1847 12.2629 16.3444 12.134 16.4733C12.0051 16.6022 11.8451 16.6667 11.654 16.6667H9.34732C9.15621 16.6667 8.99621 16.6022 8.86732 16.4733C8.73843 16.3439 8.67398 16.1839 8.67398 15.9933ZM10.5032 10.6733C10.1043 10.6733 9.76898 10.5386 9.49732 10.2692C9.22621 9.99972 9.09065 9.66583 9.09065 9.2675C9.09065 8.88083 9.22537 8.54833 9.49482 8.27C9.76426 7.99167 10.0982 7.8525 10.4965 7.8525C10.8832 7.8525 11.2154 7.99056 11.4932 8.26667C11.7715 8.54222 11.9107 8.87361 11.9107 9.26083C11.9107 9.65972 11.7729 9.99472 11.4973 10.2658C11.2218 10.5369 10.8904 10.6728 10.5032 10.6733ZM4.66732 8.33333C4.43398 8.33333 4.23676 8.25278 4.07565 8.09167C3.91454 7.93056 3.83398 7.73194 3.83398 7.49583C3.83398 7.26917 3.91454 7.07417 4.07565 6.91083C4.23676 6.74806 4.43565 6.66667 4.67232 6.66667C4.89954 6.66667 5.09454 6.74778 5.25732 6.91C5.41954 7.07167 5.50065 7.26833 5.50065 7.5C5.50065 7.73333 5.41954 7.93056 5.25732 8.09167C5.09565 8.25278 4.89898 8.33333 4.66732 8.33333ZM16.334 8.33333C16.1007 8.33333 15.9034 8.25278 15.7423 8.09167C15.5812 7.93056 15.5007 7.73194 15.5007 7.49583C15.5007 7.26917 15.5812 7.07417 15.7423 6.91083C15.9034 6.74806 16.102 6.66667 16.3382 6.66667C16.5654 6.66667 16.7604 6.74778 16.9232 6.91C17.0859 7.07167 17.1673 7.26833 17.1673 7.5C17.1673 7.73333 17.0862 7.93056 16.924 8.09167C16.7623 8.25278 16.5657 8.33333 16.334 8.33333ZM6.70232 5.28833C6.46954 5.28833 6.27232 5.20778 6.11065 5.04667C5.94954 4.88556 5.86898 4.68694 5.86898 4.45083C5.86898 4.22417 5.94954 4.02944 6.11065 3.86667C6.27232 3.70333 6.47121 3.62167 6.70732 3.62167C6.93398 3.62167 7.12871 3.70278 7.29148 3.865C7.45426 4.02722 7.53565 4.22389 7.53565 4.455C7.53565 4.68833 7.45482 4.88556 7.29315 5.04667C7.13093 5.20778 6.93398 5.28833 6.70232 5.28833ZM14.299 5.28833C14.0657 5.28833 13.8684 5.20778 13.7073 5.04667C13.5462 4.88556 13.4657 4.68694 13.4657 4.45083C13.4657 4.22417 13.5462 4.02944 13.7073 3.86667C13.8684 3.70333 14.067 3.62167 14.3032 3.62167C14.5298 3.62167 14.7248 3.70278 14.8882 3.865C15.0509 4.02722 15.1323 4.22389 15.1323 4.455C15.1323 4.68833 15.0512 4.88556 14.889 5.04667C14.7268 5.20778 14.5301 5.28833 14.299 5.28833ZM10.5007 4.16667C10.2673 4.16667 10.0701 4.08611 9.90898 3.925C9.74787 3.76389 9.66732 3.56528 9.66732 3.32917C9.66732 3.10194 9.74787 2.90694 9.90898 2.74417C10.0701 2.58139 10.269 2.5 10.5057 2.5C10.7323 2.5 10.9273 2.58111 11.0907 2.74333C11.2529 2.905 11.334 3.10167 11.334 3.33333C11.334 3.56667 11.2529 3.76389 11.0907 3.925C10.929 4.08611 10.7323 4.16667 10.5007 4.16667Z" fill="black"/>
</svg>
