<svg width="21" height="20" viewBox="0 0 21 20" fill="none" xmlns="http://www.w3.org/2000/svg">
<g clip-path="url(#clip0_3594_5498)">
<path d="M19.2937 11.654C18.9042 13.7075 17.8021 15.5126 16.2542 16.8064C14.6979 18.1064 12.6917 18.8889 10.5042 18.8889C8.44792 18.8889 6.55208 18.1975 5.03958 17.0361C3.49583 15.85 2.35208 14.1732 1.84583 12.2398L2.9625 11.9521C3.40208 13.635 4.39792 15.0965 5.74375 16.1295C7.05833 17.1397 8.70833 17.74 10.5021 17.74C12.4125 17.74 14.1583 17.0589 15.5104 15.9307C16.8042 14.8502 17.7396 13.3576 18.1125 11.656H16.9208L18.7104 9.49074L20.5 11.654H19.2937ZM13.2812 6.74789C13.2708 6.73754 13.2625 6.73133 13.2542 6.72512C13.2458 6.71891 13.2354 6.71477 13.2271 6.71063L13.225 6.70856C13.2188 6.70442 13.2104 6.70235 13.2 6.70028C13.1917 6.70028 13.1812 6.70028 13.1687 6.70028C13.1562 6.70028 13.1437 6.70028 13.1333 6.70235C13.1229 6.70442 13.1146 6.70649 13.1083 6.71063L13.1042 6.7127C13.0979 6.71684 13.0896 6.72098 13.0812 6.72512C13.0729 6.73133 13.0646 6.73754 13.0542 6.74789L12.5708 7.22815C12.5208 7.27783 12.4583 7.30474 12.3938 7.31095C12.3292 7.31716 12.2625 7.3006 12.2062 7.26127C12.1812 7.24471 12.1521 7.22815 12.1229 7.21159C12.0875 7.19089 12.0583 7.17432 12.0333 7.1619L12.0292 7.15983C12 7.14327 11.9688 7.12671 11.9375 7.11222C11.9062 7.09566 11.8729 7.08117 11.8417 7.06875L11.8396 7.06668C11.8104 7.05219 11.7771 7.0377 11.7417 7.02321C11.7062 7.00872 11.6729 6.9963 11.6396 6.98388L11.6333 6.98181C11.5917 6.96525 11.5396 6.94869 11.4854 6.93006L11.4312 6.90729C11.3729 6.88866 11.325 6.85139 11.2937 6.80585C11.2583 6.75824 11.2396 6.69821 11.2396 6.63818V5.9033C11.2396 5.89088 11.2396 5.87846 11.2375 5.86811V5.86604C11.2354 5.85776 11.2333 5.84948 11.2312 5.8412C11.2271 5.83292 11.2229 5.82257 11.2167 5.81429C11.2104 5.80601 11.2042 5.79773 11.1958 5.78945C11.1875 5.78117 11.1792 5.77496 11.1708 5.76875C11.1625 5.76254 11.1542 5.7584 11.1438 5.75426C11.1354 5.75012 11.1271 5.74805 11.1167 5.74598C11.1062 5.74391 11.0958 5.74391 11.0813 5.74391H10.1542C10.1417 5.74391 10.1312 5.74391 10.1208 5.74598C10.1125 5.74805 10.1042 5.75012 10.0958 5.75426L10.0917 5.75633C10.0833 5.76047 10.075 5.76461 10.0687 5.76875C10.0604 5.77496 10.05 5.78117 10.0417 5.79152C10.0333 5.7998 10.0271 5.80808 10.0208 5.81636C10.0146 5.82464 10.0104 5.83292 10.0063 5.84327C10.0021 5.85155 10 5.85983 9.99792 5.86811C9.99583 5.87846 9.99583 5.88881 9.99583 5.9033V6.574C9.99583 6.64232 9.97083 6.70649 9.92917 6.75617C9.8875 6.80585 9.82708 6.84311 9.76042 6.85346C9.70417 6.86588 9.65208 6.88038 9.60417 6.89487L9.55833 6.90729C9.49375 6.92592 9.42708 6.95076 9.36042 6.9756L9.35417 6.97767C9.35 6.97974 9.34583 6.97974 9.33958 6.98181C9.30417 6.99423 9.26875 7.01079 9.23125 7.02735C9.20625 7.0377 9.18333 7.04805 9.15833 7.0584C9.09375 7.08738 9.03333 7.11843 8.97917 7.14741C8.92292 7.17847 8.86042 7.18882 8.80208 7.18054C8.74167 7.17226 8.68333 7.14534 8.63958 7.0998C8.47292 6.92178 8.27708 6.74375 8.10208 6.56986C8.09375 6.56158 8.08333 6.5533 8.075 6.54709L8.07083 6.54502C8.06667 6.54295 8.0625 6.54088 8.06042 6.53881C8.05625 6.53674 8.05417 6.53674 8.05 6.53467C8.04583 6.5326 8.0375 6.53053 8.03125 6.52846C8.02292 6.52639 8.01042 6.52639 8 6.52639C7.9875 6.52639 7.97708 6.52639 7.96667 6.52846H7.96458C7.95625 6.53053 7.94792 6.5326 7.94167 6.53467L7.93958 6.53674C7.93125 6.54088 7.92292 6.54502 7.91458 6.55123C7.90417 6.55951 7.89375 6.56779 7.88125 6.58021L7.2375 7.22401C7.22708 7.23436 7.21667 7.24471 7.21042 7.25299C7.20417 7.26127 7.2 7.26955 7.19583 7.27783L7.19375 7.28197C7.19167 7.28818 7.18958 7.29646 7.1875 7.30474C7.18542 7.31509 7.18542 7.32544 7.18542 7.33786C7.18542 7.3627 7.18958 7.38133 7.19583 7.39789C7.20417 7.41445 7.21667 7.43308 7.23542 7.45171L7.71875 7.93197C7.76875 7.98165 7.79583 8.04376 7.80208 8.10793C7.80833 8.1721 7.79167 8.23834 7.75208 8.29423C7.73542 8.32115 7.71875 8.34806 7.70208 8.37704C7.68125 8.41223 7.66458 8.44121 7.65208 8.46605L7.65 8.47019C7.63333 8.49917 7.61667 8.53022 7.60208 8.56127C7.58542 8.59233 7.57292 8.62545 7.55833 8.6565L7.55625 8.65857C7.54167 8.68755 7.52708 8.72067 7.5125 8.75586C7.49792 8.79105 7.48542 8.82417 7.47292 8.85729L7.47083 8.8635C7.45417 8.90491 7.4375 8.95666 7.41875 9.01048L7.4 9.0643C7.38125 9.12433 7.34375 9.17194 7.29583 9.20507C7.24792 9.24026 7.1875 9.25889 7.12708 9.25889H6.3875C6.37292 9.25889 6.3625 9.25889 6.35208 9.26096C6.34375 9.26303 6.33333 9.2651 6.325 9.26924C6.31667 9.27338 6.30625 9.27752 6.29792 9.28373C6.28958 9.28994 6.28125 9.29615 6.27292 9.30443C6.26458 9.31271 6.25833 9.32099 6.25208 9.32927C6.24583 9.33755 6.24167 9.34583 6.2375 9.35411C6.23333 9.36446 6.23125 9.37274 6.22917 9.38309C6.22708 9.39344 6.22708 9.40379 6.22708 9.41828V10.3395C6.22708 10.3602 6.23125 10.3809 6.2375 10.3954C6.24167 10.4036 6.24583 10.414 6.25417 10.4243C6.26042 10.4347 6.26875 10.443 6.27708 10.4512C6.28542 10.4595 6.29375 10.4657 6.30208 10.472C6.31042 10.4782 6.31875 10.4823 6.32917 10.4864C6.3375 10.4906 6.34583 10.4927 6.35417 10.4947H6.35625C6.36667 10.4968 6.37708 10.4968 6.38958 10.4968H7.06458C7.13333 10.4968 7.19792 10.5216 7.24792 10.563C7.29792 10.6044 7.33542 10.6645 7.34583 10.7307C7.35833 10.7866 7.37292 10.8384 7.3875 10.886L7.4 10.9294C7.40833 10.9584 7.41875 10.9915 7.43125 11.0247C7.44583 11.064 7.45625 11.095 7.46875 11.124C7.48125 11.1571 7.49583 11.1882 7.50833 11.2234C7.52083 11.2565 7.5375 11.2896 7.55208 11.3269C7.57292 11.3745 7.59375 11.418 7.61458 11.4573L7.64792 11.5235C7.675 11.5774 7.68333 11.6374 7.675 11.6933C7.66667 11.7533 7.6375 11.8071 7.59375 11.8506C7.42917 12.0017 7.21458 12.2108 7.06458 12.3743C7.05417 12.3847 7.04583 12.393 7.03958 12.4013C7.03542 12.4075 7.03125 12.4116 7.03125 12.4157C7.02917 12.4199 7.02917 12.422 7.02708 12.4261C7.025 12.4302 7.02292 12.4364 7.02083 12.4447L7.01875 12.4489C7.01667 12.4571 7.01667 12.4654 7.01667 12.4758C7.01667 12.4882 7.01667 12.4986 7.01875 12.5089V12.511C7.02083 12.5193 7.02292 12.5255 7.025 12.5337L7.02708 12.5379C7.02917 12.5441 7.03542 12.5524 7.04167 12.5607C7.05 12.571 7.05833 12.5834 7.07083 12.5958L7.70833 13.2396C7.71875 13.2479 7.72917 13.2562 7.7375 13.2624C7.74583 13.2686 7.75625 13.2728 7.76458 13.2769C7.775 13.281 7.78333 13.2831 7.79375 13.2852C7.80417 13.2872 7.81667 13.2872 7.82917 13.2872C7.84375 13.2872 7.85625 13.2872 7.86667 13.2852H7.86875C7.87708 13.2831 7.88542 13.281 7.89167 13.279C7.9 13.2748 7.91042 13.2707 7.92083 13.2645C7.92917 13.2583 7.9375 13.2521 7.94792 13.2438L8.42292 12.7635C8.47083 12.7138 8.53542 12.6849 8.6 12.6786C8.66667 12.6724 8.73333 12.689 8.78958 12.7283C8.81667 12.7449 8.84375 12.7614 8.87292 12.778C8.90833 12.7987 8.9375 12.8153 8.9625 12.8277L8.96667 12.8298C9.02708 12.865 9.08958 12.8939 9.15417 12.9208L9.16042 12.9229C9.18958 12.9374 9.22083 12.9498 9.25417 12.9643C9.28958 12.9788 9.32292 12.9912 9.35625 13.0036L9.3625 13.0057C9.40417 13.0223 9.45625 13.0409 9.51042 13.0575L9.5625 13.0761C9.62292 13.0947 9.67083 13.132 9.70417 13.1796C9.73958 13.2272 9.75833 13.2872 9.75833 13.3473V14.0822C9.75833 14.107 9.7625 14.1277 9.76875 14.1463C9.77292 14.1546 9.77708 14.1629 9.78333 14.1712C9.78958 14.1794 9.79583 14.1877 9.80417 14.196C9.82083 14.2126 9.8375 14.2229 9.85417 14.2312C9.87292 14.2395 9.89375 14.2416 9.91667 14.2416H10.8438C10.8646 14.2416 10.8854 14.2374 10.9 14.2312C10.9083 14.2271 10.9187 14.2229 10.9292 14.2146C10.9375 14.2084 10.9479 14.2022 10.9562 14.1919C10.9646 14.1836 10.9708 14.1753 10.9771 14.167C10.9833 14.1587 10.9875 14.1505 10.9917 14.1401C10.9958 14.1318 10.9979 14.1236 11 14.1153C11.0021 14.1049 11.0021 14.0946 11.0021 14.0801V13.4094C11.0021 13.3411 11.0271 13.2769 11.0687 13.2272C11.1104 13.1775 11.1708 13.1403 11.2375 13.1279C11.2937 13.1154 11.3458 13.1009 11.3938 13.0865L11.4375 13.074C11.5021 13.0554 11.5687 13.0306 11.6354 13.0057C11.7 12.9809 11.7667 12.9519 11.8375 12.9208C11.8854 12.9001 11.9292 12.8794 11.9688 12.8587L12.0354 12.8256C12.0896 12.7987 12.15 12.7904 12.2062 12.7987C12.2667 12.807 12.3208 12.836 12.3646 12.8794C12.5167 13.043 12.7271 13.2562 12.8917 13.4052C12.9021 13.4156 12.9104 13.4239 12.9187 13.4301C12.925 13.4342 12.9292 13.4384 12.9333 13.4384C12.9375 13.4404 12.9396 13.4404 12.9437 13.4425C12.9479 13.4446 12.9542 13.4466 12.9625 13.4487C12.9729 13.4508 12.9833 13.4508 12.9979 13.4508C13.0104 13.4508 13.0229 13.4508 13.0333 13.4487C13.0417 13.4466 13.0479 13.4446 13.0521 13.4425L13.0562 13.4404C13.0625 13.4363 13.0708 13.4322 13.0771 13.428C13.0854 13.4218 13.0938 13.4135 13.1021 13.4073C13.1021 13.4073 13.7021 12.8194 13.7583 12.7635C13.7667 12.7532 13.775 12.7428 13.7812 12.7345C13.7875 12.7263 13.7917 12.7159 13.7958 12.7076C13.8 12.6973 13.8021 12.689 13.8042 12.6786C13.8062 12.6683 13.8062 12.6559 13.8062 12.6435C13.8062 12.6186 13.8021 12.5958 13.7958 12.5814C13.7917 12.5731 13.7875 12.5627 13.7812 12.5524C13.775 12.5441 13.7688 12.5358 13.7604 12.5255L13.2771 12.0535C13.2271 12.0059 13.1979 11.9417 13.1917 11.8775C13.1854 11.8113 13.2021 11.745 13.2417 11.6892C13.2583 11.6622 13.275 11.6353 13.2917 11.6063C13.3104 11.5753 13.3271 11.5442 13.3417 11.5173L13.3438 11.5132C13.3792 11.4532 13.4083 11.3911 13.4354 11.3269L13.4375 11.3207C13.4521 11.2917 13.4646 11.2606 13.4792 11.2275C13.4937 11.1923 13.5063 11.1592 13.5188 11.1261L13.5208 11.1199C13.5375 11.0785 13.5542 11.0267 13.5729 10.9729L13.5917 10.9191C13.6104 10.8591 13.6479 10.8114 13.6958 10.7783C13.7437 10.7431 13.8042 10.7245 13.8646 10.7245H14.6042C14.6292 10.7245 14.65 10.7204 14.6687 10.7141C14.6771 10.71 14.6854 10.7059 14.6937 10.6997C14.7021 10.6934 14.7104 10.6872 14.7188 10.679C14.7271 10.6707 14.7333 10.6624 14.7396 10.6541C14.7458 10.6458 14.75 10.6376 14.7542 10.6272C14.7583 10.6189 14.7604 10.6106 14.7625 10.6024C14.7646 10.592 14.7646 10.5817 14.7646 10.5672V9.64599C14.7646 9.63357 14.7646 9.62322 14.7625 9.61287C14.7604 9.60459 14.7583 9.59631 14.7562 9.58803L14.7542 9.58389C14.75 9.57561 14.7458 9.56733 14.7396 9.55905L14.7375 9.55491C14.7312 9.54663 14.725 9.54042 14.7167 9.53214C14.7083 9.52386 14.7 9.51765 14.6917 9.51144C14.6833 9.50523 14.675 9.50109 14.6646 9.49695C14.6562 9.49281 14.6479 9.49074 14.6396 9.48867C14.6292 9.4866 14.6187 9.4866 14.6042 9.4866H13.9292C13.8583 9.4866 13.7937 9.45969 13.7437 9.41828C13.6937 9.37481 13.6583 9.31685 13.6458 9.25061C13.6292 9.18644 13.6125 9.12226 13.5937 9.05809C13.5854 9.03118 13.575 8.99806 13.5625 8.9608C13.55 8.92561 13.5375 8.89249 13.525 8.85936L13.5229 8.85315C13.5208 8.84901 13.5188 8.8428 13.5188 8.83659C13.4979 8.78277 13.4729 8.72688 13.45 8.67306L13.4417 8.65443C13.4146 8.59232 13.3854 8.53436 13.3521 8.4764L13.35 8.47226C13.3208 8.41637 13.3104 8.35634 13.3187 8.29837C13.3271 8.23834 13.3542 8.18038 13.4 8.13691C13.5771 7.95888 13.7542 7.77879 13.9333 7.60283C13.9438 7.59248 13.9521 7.5842 13.9583 7.57592L13.9604 7.57178C13.9625 7.56764 13.9646 7.5635 13.9667 7.56143C13.9688 7.55729 13.9688 7.55522 13.9708 7.55108C13.9729 7.54694 13.975 7.54073 13.9771 7.53245C13.9792 7.52417 13.9792 7.51175 13.9792 7.5014C13.9792 7.48898 13.9792 7.47863 13.9771 7.46828V7.46621C13.975 7.45793 13.9729 7.45171 13.9708 7.44343L13.9688 7.44136C13.9646 7.43308 13.9604 7.4248 13.9542 7.41652C13.9458 7.40617 13.9375 7.39582 13.925 7.3834L13.2812 6.74789ZM13.45 6.18276C13.4937 6.20139 13.5354 6.22209 13.575 6.249C13.6146 6.27591 13.6521 6.30697 13.6875 6.34216L14.3396 6.99009C14.375 7.02528 14.4062 7.06254 14.4333 7.10187C14.4604 7.1412 14.4833 7.18261 14.5 7.22608V7.22815C14.5187 7.27162 14.5333 7.31509 14.5417 7.3627C14.5521 7.41031 14.5562 7.45792 14.5562 7.50554C14.5562 7.55315 14.5521 7.60283 14.5417 7.65044C14.5312 7.69805 14.5167 7.7436 14.4979 7.78707C14.4792 7.83054 14.4562 7.86987 14.4271 7.9092C14.4 7.94853 14.3687 7.98372 14.3333 8.01684L13.9583 8.39774C13.9625 8.40809 13.9687 8.41844 13.9729 8.42672C14.0021 8.48882 14.0292 8.55299 14.0542 8.6151L14.0625 8.6358C14.0687 8.64408 14.0708 8.65443 14.0729 8.66478V8.66892C14.0854 8.70204 14.0979 8.73723 14.1104 8.77242C14.1229 8.80968 14.1375 8.85108 14.15 8.89456C14.1521 8.90284 14.1562 8.91112 14.1583 8.9194H14.6146C14.6625 8.9194 14.7104 8.92354 14.7583 8.93389C14.8063 8.94217 14.8521 8.95666 14.8958 8.97529C14.9396 8.99392 14.9812 9.01462 15.0208 9.0436C15.0604 9.07051 15.0958 9.10156 15.1313 9.13468L15.1375 9.14089L15.1417 9.1471C15.1729 9.18023 15.2042 9.21749 15.2292 9.25475C15.2562 9.29408 15.2771 9.33548 15.2937 9.37688C15.3125 9.42035 15.325 9.4659 15.3354 9.51144C15.3437 9.55698 15.35 9.60252 15.35 9.65013V10.5713C15.35 10.621 15.3458 10.6686 15.3354 10.7141C15.3271 10.7597 15.3125 10.8052 15.2958 10.8487C15.2771 10.8922 15.2562 10.9336 15.2292 10.9729C15.2021 11.0122 15.1708 11.0495 15.1354 11.0847C15.1 11.1199 15.0625 11.1509 15.0229 11.1778C14.9833 11.2048 14.9417 11.2275 14.8979 11.2441C14.8542 11.2606 14.8104 11.2751 14.7625 11.2834C14.7146 11.2917 14.6667 11.2979 14.6167 11.2979H14.0813C14.0771 11.3103 14.0729 11.3207 14.0687 11.3331C14.0437 11.3973 14.0146 11.4635 13.9854 11.5298C13.9708 11.5608 13.9563 11.5981 13.9396 11.6271C13.9125 11.6829 13.8875 11.7368 13.8583 11.7906L13.8479 11.8092C13.9604 11.9189 14.075 12.0286 14.1854 12.1404C14.2188 12.1756 14.2479 12.2108 14.2729 12.2501C14.3 12.2895 14.3208 12.3309 14.3375 12.3743C14.3542 12.4157 14.3667 12.4613 14.3771 12.5068C14.3854 12.5544 14.3896 12.6021 14.3896 12.6476C14.3896 12.6952 14.3854 12.7428 14.3771 12.7884C14.3687 12.8339 14.3562 12.8794 14.3375 12.9208C14.3208 12.9622 14.3 13.0036 14.275 13.043C14.2521 13.0802 14.2229 13.1175 14.1917 13.1506C14.1833 13.163 14.1771 13.1713 14.1646 13.1775L13.5271 13.8027C13.4937 13.8379 13.4563 13.871 13.4146 13.8979C13.375 13.9248 13.3333 13.9476 13.2896 13.9662H13.2875C13.2458 13.9849 13.2 13.9973 13.1542 14.0076C13.1062 14.018 13.0562 14.0221 13.0062 14.0221C12.9583 14.0221 12.9083 14.018 12.8604 14.0076C12.8125 13.9973 12.7667 13.9828 12.7208 13.9642C12.6771 13.9455 12.6333 13.9228 12.5938 13.8938C12.5562 13.8669 12.5187 13.8358 12.4854 13.8027L12.1083 13.428L12.0771 13.4425C12.0062 13.4736 11.9292 13.5046 11.8479 13.5377L11.8417 13.5398C11.8042 13.5543 11.7667 13.5667 11.7292 13.5812C11.6854 13.5957 11.6438 13.6102 11.6062 13.6205L11.5833 13.6288V14.0822C11.5833 14.1298 11.5792 14.1774 11.5688 14.225C11.5604 14.2726 11.5458 14.3181 11.5271 14.3616C11.5083 14.4051 11.4875 14.4465 11.4583 14.4858C11.4312 14.5252 11.4 14.5603 11.3667 14.5955L11.3562 14.6059C11.3229 14.6369 11.2854 14.6659 11.2479 14.6908C11.2083 14.7156 11.1687 14.7384 11.1271 14.757C11.0833 14.7756 11.0375 14.7881 10.9917 14.7984C10.9458 14.8067 10.9 14.8129 10.8521 14.8129H9.925C9.82292 14.8129 9.72917 14.7943 9.64167 14.7591C9.55417 14.7239 9.47708 14.6701 9.40625 14.5997C9.37083 14.5645 9.33958 14.5272 9.3125 14.4879C9.28542 14.4486 9.2625 14.4072 9.24583 14.3637C9.22917 14.3202 9.21458 14.2767 9.20625 14.2291C9.19792 14.1815 9.19167 14.1339 9.19167 14.0842V13.5522C9.17917 13.5481 9.16875 13.5439 9.15625 13.5398C9.08958 13.515 9.025 13.486 8.95833 13.457C8.925 13.4425 8.89375 13.428 8.8625 13.4115C8.80625 13.3845 8.75 13.3597 8.69583 13.3307L8.67708 13.3245C8.56667 13.4363 8.45625 13.5501 8.34375 13.6599C8.30833 13.693 8.27292 13.722 8.23333 13.7468C8.19375 13.7737 8.15208 13.7944 8.10833 13.811C8.06667 13.8275 8.02083 13.84 7.975 13.8503C7.92708 13.8586 7.87917 13.8627 7.83333 13.8627C7.7875 13.8627 7.7375 13.8586 7.69167 13.8503C7.64583 13.842 7.6 13.8296 7.55833 13.811C7.51667 13.7944 7.475 13.7737 7.43542 13.7489L7.42917 13.7447C7.39167 13.722 7.35833 13.6951 7.32708 13.6661C7.31458 13.6578 7.30625 13.6516 7.3 13.6392L6.66667 13.0016C6.63125 12.9664 6.6 12.9291 6.57292 12.8898C6.54583 12.8505 6.52292 12.8091 6.50625 12.7656V12.7635C6.4875 12.72 6.47292 12.6766 6.46458 12.631C6.45417 12.5834 6.45 12.5358 6.45 12.4861C6.45 12.4385 6.45417 12.3888 6.46458 12.3412C6.475 12.2936 6.48958 12.2481 6.50833 12.2046C6.52708 12.1611 6.55 12.1218 6.57917 12.0825C6.60625 12.0452 6.6375 12.0079 6.67083 11.9769L7.04792 11.6022L7.03333 11.5712C7.01667 11.5339 7 11.4966 6.98542 11.4614L6.98333 11.4573C6.96875 11.42 6.95208 11.3828 6.9375 11.3435L6.93542 11.3372C6.92083 11.3 6.90833 11.2627 6.89375 11.2255C6.87917 11.182 6.86458 11.1406 6.85417 11.1033C6.85208 11.095 6.85 11.0888 6.84792 11.0806H6.39167C6.34375 11.0806 6.29583 11.0764 6.24792 11.0661C6.2 11.0578 6.15417 11.0433 6.11042 11.0247C6.06667 11.006 6.025 10.9833 5.98542 10.9563C5.94583 10.9294 5.91042 10.8984 5.875 10.8653L5.86875 10.8591C5.83542 10.8239 5.80625 10.7866 5.77917 10.7473C5.75417 10.7079 5.73125 10.6686 5.7125 10.6272C5.69375 10.5837 5.68125 10.5382 5.67083 10.4927C5.6625 10.4471 5.65625 10.4016 5.65625 10.354V9.43277C5.65625 9.38309 5.66042 9.33548 5.67083 9.28994C5.67917 9.2444 5.69375 9.19886 5.71042 9.15538C5.72917 9.11191 5.75 9.07051 5.77708 9.03118C5.80417 8.99185 5.83542 8.95459 5.87083 8.9194C5.94167 8.84901 6.02083 8.79519 6.10833 8.76C6.15208 8.74344 6.19583 8.72895 6.24375 8.72067C6.29167 8.71239 6.33958 8.70618 6.38958 8.70618H6.925C6.92917 8.69376 6.93333 8.68341 6.9375 8.67099C6.9625 8.60475 6.99167 8.54057 7.02083 8.47433C7.03542 8.44121 7.05 8.41016 7.06667 8.37704C7.09375 8.32115 7.12083 8.26525 7.14792 8.21143L7.15833 8.1928L6.83542 7.87194C6.80208 7.83882 6.77083 7.80156 6.74375 7.76223C6.71667 7.72289 6.69375 7.68149 6.67292 7.63802C6.65417 7.59455 6.63958 7.54901 6.62917 7.5014C6.61875 7.45379 6.61458 7.40617 6.61458 7.35856C6.61458 7.31095 6.61875 7.26127 6.62917 7.21366C6.63958 7.16604 6.65417 7.1205 6.67292 7.07703C6.69167 7.03149 6.71458 6.99009 6.74167 6.95283C6.76875 6.9135 6.8 6.8783 6.83542 6.84311C7.05 6.6299 7.27083 6.39391 7.49167 6.19104C7.525 6.15792 7.5625 6.12687 7.6 6.10203C7.63958 6.07512 7.68125 6.05235 7.725 6.03579H7.72708C7.77083 6.01716 7.81458 6.00266 7.8625 5.99438C7.91042 5.98403 7.95833 5.97989 8.00625 5.97989C8.05417 5.97989 8.10417 5.98403 8.15208 5.99438C8.2 6.00473 8.24583 6.01922 8.28958 6.03786C8.33333 6.05649 8.375 6.08133 8.4125 6.10824L8.41667 6.11238C8.45417 6.13929 8.4875 6.16827 8.52083 6.20139L8.90417 6.574C8.9125 6.56986 8.92083 6.56572 8.93542 6.55951L8.96042 6.54709C9.01875 6.52225 9.07917 6.49534 9.13958 6.4705C9.15417 6.46015 9.16458 6.45808 9.17917 6.45601C9.2125 6.44359 9.24792 6.43117 9.28333 6.41875C9.32708 6.40426 9.36875 6.38977 9.40625 6.37942L9.42917 6.37114V5.91365C9.42917 5.86604 9.43333 5.81843 9.44375 5.77082C9.45208 5.7232 9.46667 5.67766 9.48542 5.63419C9.50417 5.59072 9.525 5.54932 9.55417 5.50999C9.58125 5.47066 9.6125 5.43546 9.64583 5.40027L9.65417 5.39406C9.68958 5.36094 9.72708 5.33196 9.76458 5.30505C9.80417 5.28021 9.84375 5.25744 9.88542 5.23881C9.92917 5.22018 9.975 5.20776 10.0208 5.19741C10.0667 5.18913 10.1125 5.18292 10.1604 5.18292H11.0875C11.1375 5.18292 11.1854 5.18706 11.2312 5.19741C11.2771 5.20569 11.3229 5.22018 11.3667 5.23674C11.4104 5.2533 11.4521 5.27607 11.4917 5.30298C11.5312 5.32989 11.5688 5.36094 11.6062 5.39613L11.6083 5.3982C11.6437 5.43339 11.675 5.47066 11.7021 5.50999C11.7292 5.54932 11.7521 5.59072 11.7688 5.63419C11.7854 5.67766 11.8 5.72113 11.8083 5.76875C11.8167 5.81636 11.8229 5.86397 11.8229 5.91365V6.44566C11.8354 6.4498 11.8458 6.45394 11.8583 6.45808C11.8979 6.47257 11.9375 6.48706 11.9771 6.50569L11.9812 6.50776C12.0208 6.52432 12.0583 6.54088 12.0958 6.55951L12.1562 6.58849C12.2125 6.61541 12.2667 6.64025 12.3208 6.66923L12.3396 6.67958L12.6625 6.35872C12.6958 6.3256 12.7333 6.29454 12.7729 6.26763C12.8125 6.24072 12.8542 6.21795 12.8979 6.19725C12.9417 6.17862 12.9875 6.16413 13.0354 6.15378C13.0833 6.14343 13.1312 6.13929 13.1812 6.13929C13.2292 6.13929 13.2792 6.14343 13.325 6.15378C13.3562 6.15999 13.3875 6.16827 13.4187 6.17862C13.4271 6.17655 13.4375 6.17862 13.45 6.18276ZM10.5 7.89885C10.5687 7.89885 10.6396 7.90299 10.7125 7.9092C10.7833 7.91541 10.8521 7.92576 10.9187 7.94025C10.9854 7.95267 11.0521 7.9713 11.1208 7.992C11.1875 8.0127 11.2542 8.03755 11.3187 8.06446L11.3229 8.06653C11.3854 8.09344 11.4479 8.12242 11.5063 8.15554C11.5646 8.18659 11.6208 8.22178 11.675 8.26111L11.6771 8.26318C11.7896 8.33771 11.8875 8.42051 11.9812 8.51159L11.9833 8.51366C12.0312 8.56127 12.075 8.61096 12.1167 8.66064C12.1583 8.71239 12.1979 8.76621 12.2354 8.82003L12.2396 8.82624C12.275 8.88213 12.3104 8.93596 12.3396 8.99185C12.3729 9.04981 12.4021 9.10984 12.4312 9.17194C12.4333 9.17608 12.4354 9.18023 12.4375 9.18437C12.4396 9.18851 12.4417 9.19472 12.4417 9.19886C12.4937 9.32306 12.5312 9.44726 12.5542 9.57147C12.5667 9.63771 12.5771 9.70602 12.5854 9.77641C12.5917 9.84679 12.5958 9.91717 12.5958 9.98755C12.5958 10.0559 12.5917 10.1262 12.5854 10.1987C12.5792 10.2691 12.5687 10.3374 12.5542 10.4036C12.5417 10.4699 12.5229 10.5361 12.5021 10.6044C12.4812 10.6707 12.4562 10.7369 12.4292 10.8011L12.4271 10.8052C12.3729 10.9274 12.3083 11.0454 12.2333 11.1551L12.2312 11.1592C12.1938 11.2151 12.1542 11.2669 12.1146 11.3165C12.0729 11.3662 12.0292 11.4159 11.9812 11.4635L11.9792 11.4614C11.9312 11.5091 11.8812 11.5525 11.8312 11.5939C11.7792 11.6374 11.725 11.6747 11.6708 11.7119L11.6646 11.7161C11.6083 11.7513 11.5542 11.7864 11.4979 11.8154C11.4396 11.8485 11.3792 11.8775 11.3167 11.9065L11.3146 11.9086C11.3062 11.9127 11.2979 11.9169 11.2875 11.9189C11.1625 11.9707 11.0396 12.0059 10.9125 12.0307C10.8458 12.0431 10.7771 12.0535 10.7063 12.0618C10.6354 12.068 10.5646 12.0721 10.4937 12.0721C10.425 12.0721 10.3542 12.068 10.2812 12.0618C10.2104 12.0556 10.1417 12.0452 10.075 12.0307C10.0083 12.0183 9.94167 11.9997 9.87292 11.979C9.80625 11.9583 9.73958 11.9334 9.675 11.9065L9.67083 11.9044C9.54792 11.8506 9.42917 11.7864 9.31875 11.7119L9.31458 11.7099C9.25833 11.6726 9.20625 11.6333 9.15625 11.5939C9.10625 11.5525 9.05625 11.5091 9.00833 11.4614L9.00625 11.4594C8.95833 11.4118 8.91458 11.3621 8.87292 11.3124C8.83125 11.2606 8.79167 11.2068 8.75417 11.153L8.75 11.1468C8.67708 11.0371 8.6125 10.9212 8.55833 10.8011L8.55625 10.799C8.55208 10.7907 8.54792 10.7825 8.54583 10.7721C8.52083 10.7121 8.49792 10.652 8.48125 10.592C8.4625 10.5299 8.44583 10.4657 8.43542 10.4016C8.42292 10.3353 8.4125 10.267 8.40417 10.1966C8.39792 10.1262 8.39375 10.0559 8.39375 9.98548C8.39375 9.91717 8.39792 9.84679 8.40417 9.77434C8.41042 9.70395 8.42083 9.63564 8.43542 9.5694C8.44792 9.50316 8.46667 9.43691 8.4875 9.3686C8.50833 9.30236 8.53333 9.23612 8.56042 9.17194L8.5625 9.1678C8.58958 9.10777 8.61875 9.04774 8.65 8.98978C8.68333 8.92975 8.71875 8.87385 8.75625 8.81796L8.75833 8.81382C8.83333 8.70204 8.91667 8.60474 9.00833 8.51159L9.01042 8.50952C9.05833 8.46191 9.10833 8.41844 9.15833 8.37704C9.21042 8.33564 9.26458 8.2963 9.31875 8.25904L9.325 8.2549C9.38125 8.21971 9.43542 8.18452 9.49167 8.15554C9.55 8.12242 9.61042 8.09344 9.67292 8.06446L9.675 8.06239C9.68333 8.05825 9.69167 8.05411 9.70208 8.05204C9.7625 8.02719 9.82083 8.00649 9.88333 7.98786C9.94792 7.96923 10.0104 7.95267 10.0771 7.94025C10.1438 7.92783 10.2125 7.91748 10.2833 7.9092C10.3604 7.90299 10.4292 7.89885 10.5 7.89885ZM10.7896 8.49503C10.7437 8.48675 10.7 8.48054 10.6542 8.4764C10.6062 8.47226 10.5542 8.46812 10.5 8.46812C10.4458 8.46812 10.3938 8.47019 10.3438 8.4764C10.2937 8.48054 10.2417 8.48882 10.1917 8.49917C10.1417 8.50952 10.0938 8.51987 10.05 8.53436C10.0083 8.54678 9.96667 8.56127 9.925 8.57783C9.92083 8.5799 9.91458 8.58197 9.91042 8.58404L9.90625 8.58611C9.86042 8.60682 9.81458 8.62752 9.77083 8.65029L9.76667 8.65236C9.72292 8.67513 9.68125 8.69997 9.64167 8.72688L9.63958 8.72895C9.6 8.75586 9.5625 8.78277 9.525 8.81175C9.48542 8.8428 9.45 8.87385 9.41458 8.90698C9.38125 8.9401 9.35 8.97529 9.31875 9.01255L9.31458 9.01669C9.28542 9.05188 9.25833 9.08914 9.23125 9.12847L9.22917 9.13261C9.20417 9.16988 9.17917 9.21128 9.15625 9.25475C9.13125 9.30029 9.11042 9.34583 9.08958 9.39344V9.39551C9.07083 9.44105 9.05417 9.4866 9.03958 9.53214C9.025 9.57975 9.0125 9.62736 9.00417 9.67704C8.99375 9.72879 8.9875 9.77848 8.98125 9.83023C8.97708 9.87784 8.975 9.92959 8.975 9.98341C8.975 10.0372 8.97708 10.089 8.98333 10.1387C8.9875 10.1884 8.99583 10.2401 9.00625 10.2898C9.01667 10.3395 9.02708 10.385 9.04167 10.4305C9.05417 10.474 9.06875 10.5154 9.08542 10.5589C9.0875 10.563 9.08958 10.5692 9.09167 10.5734L9.09375 10.5775C9.11458 10.6231 9.13542 10.6686 9.15833 10.7121L9.16042 10.7162C9.18333 10.7576 9.20833 10.8011 9.23542 10.8404L9.2375 10.8425C9.26458 10.8818 9.29167 10.9191 9.32292 10.9563C9.35417 10.9936 9.38542 11.0288 9.42083 11.064C9.45625 11.0992 9.49375 11.1323 9.53125 11.1613C9.56875 11.1903 9.60625 11.2192 9.64583 11.2441L9.65 11.2462C9.6875 11.271 9.72917 11.2958 9.77292 11.3186C9.81875 11.3435 9.86458 11.3642 9.9125 11.3849L9.91458 11.3869C9.96042 11.4056 10.0062 11.4221 10.0521 11.4366C10.1 11.4511 10.1479 11.4635 10.1979 11.4718C10.25 11.4821 10.3 11.4884 10.3521 11.4946C10.4 11.4987 10.4521 11.5008 10.5062 11.5008C10.5604 11.5008 10.6125 11.4987 10.6625 11.4925C10.7125 11.4884 10.7646 11.4801 10.8146 11.4697C10.8646 11.4594 10.9125 11.449 10.9562 11.4345C10.9979 11.4221 11.0396 11.4076 11.0792 11.3911C11.0854 11.3869 11.0896 11.3869 11.0937 11.3849L11.0979 11.3828C11.1437 11.3621 11.1896 11.3414 11.2333 11.3186L11.2375 11.3165C11.2792 11.2938 11.3229 11.2689 11.3625 11.242L11.3646 11.2399C11.4042 11.213 11.4417 11.1861 11.4792 11.1571C11.5188 11.1261 11.5542 11.095 11.5896 11.0619C11.6229 11.0288 11.6542 10.9936 11.6854 10.9563L11.6896 10.9522C11.7188 10.917 11.7458 10.8798 11.7729 10.8404H11.775C11.8 10.8032 11.825 10.7618 11.8479 10.7183C11.8729 10.6727 11.8938 10.6272 11.9146 10.5796L11.9167 10.5775C11.9354 10.532 11.9521 10.4864 11.9667 10.4409C11.9812 10.3933 11.9937 10.3457 12.0021 10.296C12.0125 10.2442 12.0187 10.1946 12.025 10.1428C12.0292 10.0952 12.0312 10.0434 12.0312 9.98962C12.0312 9.9358 12.0292 9.88405 12.0229 9.83437C12.0188 9.78469 12.0104 9.73293 12 9.68325C11.9896 9.63357 11.9792 9.58596 11.9646 9.54249C11.9521 9.50109 11.9375 9.45969 11.9208 9.41828C11.9167 9.41207 11.9167 9.40793 11.9146 9.40379L11.9125 9.39965C11.8917 9.35411 11.8708 9.30857 11.8479 9.2651L11.8458 9.26096C11.8229 9.21749 11.7979 9.17609 11.7708 9.13675L11.7688 9.13468C11.7417 9.09535 11.7146 9.05809 11.6833 9.02083C11.6521 8.98357 11.6208 8.94838 11.5854 8.91319C11.55 8.87799 11.5125 8.84487 11.475 8.81589C11.4375 8.78691 11.4 8.75793 11.3604 8.73309L11.3562 8.73102C11.3187 8.70411 11.2771 8.68134 11.2333 8.65857C11.1875 8.63373 11.1417 8.61303 11.0937 8.59232L11.0917 8.59025C11.0458 8.57162 11 8.55506 10.9542 8.54057C10.9062 8.52608 10.8583 8.51366 10.8083 8.50538C10.8021 8.50124 10.7958 8.49917 10.7896 8.49503ZM1.71458 8.34599C2.1 6.31111 3.18542 4.52049 4.71042 3.23084C6.27292 1.90806 8.29583 1.11108 10.5042 1.11108C12.4458 1.11108 14.2417 1.7259 15.7083 2.77128C17.2125 3.84358 18.3708 5.36922 18.9771 7.14741L18.4292 7.33165L17.8813 7.51589C17.8667 7.47035 17.85 7.4248 17.8333 7.38133C17.2937 5.89295 16.3063 4.61365 15.0333 3.70695C13.7563 2.79819 12.1917 2.26411 10.5021 2.26411C8.575 2.26411 6.8125 2.95759 5.45625 4.10441C4.18125 5.18292 3.26042 6.66302 2.89167 8.34806H4.07708L2.28958 10.5113L0.5 8.34599H1.71458Z" fill="black"/>
</g>
<defs>
<clipPath id="clip0_3594_5498">
<rect width="20" height="20" fill="white" transform="translate(0.5)"/>
</clipPath>
</defs>
</svg>
