<svg width="20" height="20" viewBox="0 0 20 20" fill="none" xmlns="http://www.w3.org/2000/svg">
<path d="M2.5 15.8333V7.5C2.5 7.04167 2.66333 6.64944 2.99 6.32333C3.31667 5.99722 3.70889 5.83389 4.16667 5.83333H7.5V4.85417C7.5 4.63194 7.54167 4.42 7.625 4.21833C7.70833 4.01667 7.82639 3.83972 7.97917 3.6875L8.8125 2.85417C9.13194 2.53472 9.52778 2.375 10 2.375C10.4722 2.375 10.8681 2.53472 11.1875 2.85417L12.0208 3.6875C12.1736 3.84028 12.2917 4.0175 12.375 4.21917C12.4583 4.42083 12.5 4.6325 12.5 4.85417V9.16667H15.8333C16.2917 9.16667 16.6842 9.33 17.0108 9.65667C17.3375 9.98333 17.5006 10.3756 17.5 10.8333V15.8333C17.5 16.2917 17.3369 16.6842 17.0108 17.0108C16.6847 17.3375 16.2922 17.5006 15.8333 17.5H4.16667C3.70833 17.5 3.31611 17.3369 2.99 17.0108C2.66389 16.6847 2.50056 16.2922 2.5 15.8333ZM4.16667 15.8333H5.83333V14.1667H4.16667V15.8333ZM4.16667 12.5H5.83333V10.8333H4.16667V12.5ZM4.16667 9.16667H5.83333V7.5H4.16667V9.16667ZM9.16667 15.8333H10.8333V14.1667H9.16667V15.8333ZM9.16667 12.5H10.8333V10.8333H9.16667V12.5ZM9.16667 9.16667H10.8333V7.5H9.16667V9.16667ZM9.16667 5.83333H10.8333V4.16667H9.16667V5.83333ZM14.1667 15.8333H15.8333V14.1667H14.1667V15.8333ZM14.1667 12.5H15.8333V10.8333H14.1667V12.5Z" fill="black"/>
</svg>
