<svg width="20" height="20" viewBox="0 0 20 20" fill="none" xmlns="http://www.w3.org/2000/svg">
<path d="M2.32331 6.96326L9.31501 3.46742C9.48392 3.38296 9.68275 3.38296 9.85167 3.46742L16.8434 6.96326C17.2856 7.18438 17.2856 7.81546 16.8434 8.03657L9.85167 11.5324C9.68275 11.6169 9.48392 11.6169 9.31501 11.5324L2.32331 8.03658C1.88108 7.81546 1.88108 7.18438 2.32331 6.96326Z" stroke="black" stroke-width="1.5" stroke-linecap="round" stroke-linejoin="round"/>
<path d="M18.7507 10.8333L18.7507 7.91659L17.084 7.08325" stroke="black" stroke-width="1.5" stroke-linecap="round" stroke-linejoin="round"/>
<path d="M3.75 8.75V13.0494C3.75 13.8216 4.19459 14.5248 4.8922 14.8561L8.72553 16.6761C9.26836 16.9338 9.89831 16.9338 10.4411 16.6761L14.2745 14.8561C14.9721 14.5248 15.4167 13.8216 15.4167 13.0494V8.75" stroke="black" stroke-width="1.5" stroke-linecap="round" stroke-linejoin="round"/>
</svg>
