<svg xmlns="http://www.w3.org/2000/svg" width="40.5" height="36" viewBox="0 0 40.5 36">
  <path id="Icon_awesome-exclamation-triangle" data-name="Icon awesome-exclamation-triangle" d="M40.044,30.938A3.377,3.377,0,0,1,37.121,36H3.379A3.377,3.377,0,0,1,.455,30.938L17.327,1.686a3.377,3.377,0,0,1,5.847,0ZM20.25,24.891a3.234,3.234,0,1,0,3.234,3.234A3.234,3.234,0,0,0,20.25,24.891ZM17.179,13.265l.522,9.563a.844.844,0,0,0,.842.8h3.413a.844.844,0,0,0,.842-.8l.522-9.562a.844.844,0,0,0-.842-.89H18.022a.844.844,0,0,0-.842.89Z" transform="translate(0 0)" fill="#f2359d"/>
</svg>
