<svg width="20" height="20" viewBox="0 0 20 20" fill="none" xmlns="http://www.w3.org/2000/svg">
<path d="M12.5 17.5H7.5V10.6C7.5 10.2686 7.76863 10 8.1 10H11.9C12.2314 10 12.5 10.2686 12.5 10.6V17.5Z" stroke="black" stroke-width="1.5" stroke-linecap="round" stroke-linejoin="round"/>
<path d="M16.9 17.5002H12.5V15.1835C12.5 14.8521 12.7686 14.5835 13.1 14.5835H16.9C17.2314 14.5835 17.5 14.8521 17.5 15.1835V16.9002C17.5 17.2315 17.2314 17.5002 16.9 17.5002Z" stroke="black" stroke-width="1.5" stroke-linecap="round" stroke-linejoin="round"/>
<path d="M7.5 17.4998V13.5165C7.5 13.1851 7.23137 12.9165 6.9 12.9165H3.1C2.76863 12.9165 2.5 13.1851 2.5 13.5165V16.8998C2.5 17.2312 2.76863 17.4998 3.1 17.4998H7.5Z" stroke="black" stroke-width="1.5" stroke-linecap="round" stroke-linejoin="round"/>
<path d="M9.0053 4.26104L9.76291 2.65466C9.86017 2.44845 10.1411 2.44845 10.2384 2.65466L10.996 4.26104L12.6902 4.52023C12.9076 4.55348 12.9943 4.83314 12.8369 4.99357L11.6112 6.24309L11.9004 8.00833C11.9376 8.23502 11.7102 8.40788 11.5157 8.30083L10.0007 7.46692L8.48558 8.30083C8.29108 8.40788 8.06372 8.23502 8.10087 8.00833L8.39014 6.24309L7.16441 4.99357C7.00703 4.83314 7.09367 4.55348 7.31105 4.52023L9.0053 4.26104Z" stroke="black" stroke-width="1.5" stroke-linecap="round" stroke-linejoin="round"/>
</svg>
