<svg width="21" height="20" viewBox="0 0 21 20" fill="none" xmlns="http://www.w3.org/2000/svg">
<path d="M8.48598 16.6124C8.30042 16.6173 8.13765 16.4806 8.11161 16.2934C8.08394 16.0981 8.21578 15.9174 8.40785 15.88C8.19625 14.6803 7.61842 14.0195 7.00803 13.3212C6.53274 12.7776 6.03955 12.2128 5.65053 11.381C5.26802 10.5623 5.05804 9.71586 5.06456 8.8369C5.07269 7.95794 5.29569 7.05294 5.78074 6.11702C5.784 6.1105 5.78725 6.10562 5.79051 6.09911C6.42694 5.02157 7.31729 4.30213 8.30856 3.89846C9.14032 3.55827 10.0437 3.4427 10.9292 3.52409C11.8114 3.60547 12.6757 3.88218 13.4309 4.32817C14.3913 4.89624 15.1807 5.73939 15.6153 6.8039C15.8497 7.38011 16.0092 8.02305 16.0287 8.72785C16.0483 9.42939 15.9278 10.1863 15.6039 10.9871C15.1709 12.0597 14.598 12.7255 14.0625 13.3489C13.5693 13.9235 13.1103 14.4574 12.8547 15.2761C12.9996 15.3103 13.1135 15.4291 13.1363 15.5853C13.164 15.7872 13.0224 15.9744 12.8205 16.002L12.6952 16.0199C12.6724 16.1974 12.6578 16.3878 12.6513 16.5913L12.692 16.5848C12.8938 16.5571 13.081 16.6987 13.1087 16.9005C13.1363 17.1024 12.9947 17.2896 12.7929 17.3172L12.6659 17.3351C12.6675 17.3595 12.6692 17.384 12.6708 17.4084C12.6822 17.5516 12.6838 17.69 12.6757 17.8218L12.6968 17.8186C12.9003 17.7941 13.0842 17.939 13.1103 18.1408C13.1347 18.3443 12.9898 18.5282 12.788 18.5543L12.5145 18.5885C12.3192 19.0947 11.9709 19.4788 11.5591 19.7181C11.2759 19.8825 10.9617 19.9769 10.6459 19.9964C10.3253 20.0159 10.0014 19.9557 9.70513 19.8125C9.36657 19.6465 9.06382 19.3714 8.84408 18.9758C8.73828 18.9221 8.66015 18.818 8.64387 18.691C8.63736 18.6405 8.64224 18.5917 8.65526 18.5461C8.59178 18.3573 8.54295 18.1506 8.51365 17.9227L8.50226 17.9244C8.30042 17.952 8.11324 17.8104 8.08557 17.6086C8.0579 17.4067 8.19951 17.2196 8.40134 17.1919L8.48924 17.1789C8.49575 16.9803 8.49412 16.7915 8.48598 16.6124ZM12.1125 6.56626C12.2069 6.56789 12.3029 6.58579 12.3957 6.61672C12.591 6.68345 12.7782 6.81204 12.9231 6.98295C13.068 7.15549 13.1721 7.37197 13.1982 7.61287C13.2096 7.71867 13.2063 7.82773 13.1852 7.94004C13.2861 8.03282 13.3707 8.13536 13.4342 8.24605C13.5384 8.42347 13.5921 8.62042 13.5856 8.82063C13.5791 9.02246 13.5139 9.2243 13.3756 9.40985C13.2926 9.52217 13.1835 9.62797 13.0468 9.724C13.0566 10.0235 12.967 10.2937 12.8222 10.502C12.661 10.7348 12.4299 10.8959 12.1874 10.9464C12.1288 11.1564 11.9872 11.3419 11.8081 11.4705C11.5737 11.6382 11.2677 11.7163 10.9878 11.6398C10.7957 11.5877 10.6199 11.4656 10.4929 11.2573C10.3399 11.4884 10.1381 11.6121 9.9265 11.6561C9.6563 11.713 9.37633 11.63 9.16473 11.4656C9.00196 11.3387 8.87826 11.1613 8.82943 10.9594C8.7513 10.9529 8.67154 10.9366 8.59504 10.9106C8.4046 10.8455 8.22067 10.7218 8.07906 10.5558C7.93582 10.3897 7.83002 10.1814 7.79746 9.94862C7.78119 9.83306 7.78281 9.71098 7.80723 9.58727C7.71933 9.50589 7.64446 9.41474 7.58261 9.31545C7.47355 9.13803 7.4117 8.93782 7.41495 8.7311C7.41821 8.52276 7.48332 8.31278 7.62656 8.11746C7.70631 8.0084 7.81211 7.90423 7.94396 7.8082C7.94233 7.77564 7.94233 7.74309 7.94396 7.71216C7.95535 7.40941 8.06603 7.14409 8.22718 6.94714C8.23206 6.94226 8.23532 6.93738 8.2402 6.93249C8.40134 6.74205 8.61131 6.61509 8.82943 6.57765C8.83756 6.54836 8.8457 6.52069 8.85547 6.49139C8.93197 6.2863 9.0866 6.1105 9.27704 5.99982C9.46911 5.88751 9.70025 5.83868 9.92487 5.88588C10.1267 5.9282 10.3204 6.04377 10.4701 6.25537C10.6199 6.04377 10.8136 5.9282 11.0154 5.88588C11.2205 5.84356 11.4305 5.87937 11.6112 5.97052C11.7886 6.06005 11.9416 6.20491 12.0344 6.37745C12.0702 6.4393 12.0962 6.50115 12.1125 6.56626ZM12.1744 10.4744C12.2753 10.432 12.3729 10.3507 12.4478 10.2416C12.5536 10.087 12.6138 9.88026 12.5845 9.6475L12.5829 9.64099V9.6361C12.5715 9.54821 12.6122 9.45706 12.6936 9.40823C12.8352 9.32521 12.9377 9.23406 13.0094 9.1364C13.0875 9.02897 13.1266 8.91666 13.1298 8.80598C13.1331 8.69366 13.1005 8.58135 13.0387 8.47555C12.9817 8.37789 12.9003 8.28837 12.801 8.21187C12.7164 8.15652 12.6773 8.0491 12.7115 7.94818C12.7457 7.84726 12.7538 7.75123 12.744 7.65845C12.7278 7.51521 12.6643 7.38337 12.5748 7.27594C12.4836 7.16851 12.368 7.08875 12.2509 7.04806C12.2004 7.03178 12.1499 7.02202 12.1027 7.02202C12.0669 7.12944 12.0083 7.23687 11.9204 7.34105C11.839 7.43708 11.6958 7.4501 11.5998 7.36872C11.5037 7.28733 11.4907 7.14409 11.5721 7.04806C11.7056 6.89017 11.7072 6.72415 11.6372 6.59556C11.5884 6.50441 11.507 6.42791 11.411 6.3807C11.3182 6.3335 11.214 6.31397 11.1147 6.33513C10.9699 6.36443 10.8299 6.4865 10.7387 6.74042V10.5981C10.7566 10.6241 10.768 10.6534 10.7729 10.6876C10.825 11.0066 10.9601 11.1596 11.1115 11.202C11.2514 11.241 11.4142 11.1938 11.5444 11.101C11.6714 11.0099 11.7625 10.878 11.7642 10.7397C11.7658 10.5818 11.6453 10.4011 11.3247 10.2367C11.2124 10.1798 11.1668 10.0414 11.2238 9.92909C11.2807 9.81678 11.4191 9.7712 11.5314 9.82817C11.8944 10.0121 12.093 10.2416 12.1744 10.4744ZM8.85059 7.04318C8.75781 7.0741 8.66666 7.13758 8.59015 7.22548C8.5869 7.23036 8.58364 7.23362 8.58039 7.23687C8.47622 7.36383 8.40622 7.53311 8.39809 7.72844C8.39646 7.78053 8.39809 7.83587 8.40622 7.89284C8.41762 7.9791 8.37855 8.06863 8.30042 8.11909C8.1637 8.20373 8.06278 8.29488 7.99279 8.39091C7.90815 8.50485 7.87071 8.6253 7.86908 8.73924C7.86746 8.85643 7.90326 8.972 7.96837 9.0778C8.02371 9.16733 8.09859 9.24871 8.19137 9.31707C8.27438 9.37404 8.31182 9.47984 8.27926 9.57913C8.24345 9.68656 8.23532 9.79074 8.24834 9.8884C8.26787 10.0284 8.33298 10.1553 8.4225 10.2595C8.51202 10.3637 8.62434 10.4402 8.7399 10.4793C8.77734 10.4923 8.81478 10.5004 8.85059 10.5037C8.9336 10.2611 9.14195 10.0219 9.5212 9.82817C9.63351 9.7712 9.77024 9.81515 9.82883 9.92746C9.8858 10.0398 9.84186 10.1765 9.72954 10.2351C9.38936 10.4076 9.26239 10.603 9.26239 10.7722C9.26239 10.9008 9.33727 11.0229 9.44632 11.1075C9.55701 11.1938 9.70025 11.2378 9.83372 11.2101C10.0014 11.1759 10.1641 11.0164 10.2504 10.6681C10.2553 10.6453 10.2651 10.6241 10.2765 10.6046V6.94063C10.2716 6.93249 10.2667 6.92273 10.2618 6.91296L10.2602 6.90971L10.2585 6.90645L10.2569 6.90319V6.90157V6.89994L10.2553 6.89668V6.89506V6.89343C10.2537 6.88692 10.252 6.88041 10.2504 6.8739C10.1641 6.5272 10.0014 6.36931 9.83372 6.33513C9.72466 6.31234 9.60747 6.33838 9.50818 6.39698C9.40726 6.45558 9.32588 6.54673 9.28681 6.6509C9.23635 6.78763 9.26728 6.95691 9.44144 7.11805C9.53422 7.20432 9.5391 7.34756 9.45446 7.44034C9.3682 7.53311 9.22496 7.538 9.13218 7.45336C8.99057 7.31989 8.89942 7.18153 8.85059 7.04318ZM8.89779 7.7968C8.98731 7.70891 9.13218 7.70891 9.2217 7.80006C9.3096 7.88958 9.3096 8.03445 9.21845 8.12397C9.06056 8.2786 8.97755 8.48044 8.96941 8.6839C8.96127 8.8955 9.02963 9.11361 9.1745 9.29266C9.25426 9.39032 9.23798 9.53519 9.14032 9.61332C9.04266 9.69307 8.89779 9.6768 8.81966 9.57913C8.60318 9.31056 8.50063 8.98502 8.51365 8.66599C8.52505 8.34859 8.65201 8.0377 8.89779 7.7968ZM11.6274 8.0377C11.5249 7.96283 11.5021 7.82122 11.577 7.71867C11.6519 7.61613 11.7935 7.59334 11.896 7.66821C11.9351 7.69751 11.9725 7.72681 12.0067 7.75774C12.2639 7.9905 12.4055 8.29651 12.4315 8.61391C12.4576 8.92805 12.3697 9.25197 12.1711 9.52379C12.1678 9.52868 12.163 9.53519 12.1581 9.54007C12.1304 9.57751 12.1027 9.61006 12.0767 9.64099C11.9921 9.73539 11.8472 9.7419 11.7528 9.65726C11.6584 9.57262 11.6519 9.42776 11.7365 9.33335C11.7577 9.30894 11.7756 9.28778 11.7918 9.26662C11.7951 9.26173 11.7967 9.25848 11.8 9.25359C11.9318 9.07129 11.9904 8.85644 11.9741 8.64809C11.9579 8.443 11.8667 8.24605 11.7007 8.0963C11.6779 8.07677 11.6535 8.05723 11.6274 8.0377ZM1.65778 9.58076C1.46734 9.58565 1.30945 9.43752 1.30294 9.24708C1.29643 9.05664 1.44618 8.89876 1.63662 8.89224L3.05272 8.84341C3.24316 8.8369 3.40105 8.98665 3.40756 9.17709C3.41407 9.36753 3.26432 9.52542 3.07388 9.53193L1.65778 9.58076ZM19.3183 8.17931C19.5071 8.15978 19.6764 8.29813 19.696 8.48695C19.7155 8.67576 19.5771 8.84504 19.3883 8.86457L17.9787 9.01269C17.7899 9.03223 17.6206 8.89387 17.6011 8.70506C17.5816 8.51625 17.7199 8.34696 17.9087 8.32743L19.3183 8.17931ZM16.7514 2.40586C16.8572 2.24797 17.0705 2.20565 17.2284 2.31145C17.3862 2.41725 17.4286 2.63048 17.3228 2.78837L16.535 3.96682C16.4292 4.12471 16.2159 4.16703 16.058 4.06123C15.9002 3.95543 15.8578 3.7422 15.9636 3.58431L16.7514 2.40586ZM10.6834 0.335422C10.6883 0.144981 10.8461 -0.004767 11.035 0.000116105C11.2254 0.00499921 11.3751 0.162886 11.3703 0.351699L11.3345 1.7678C11.3296 1.95824 11.1717 2.10799 10.9829 2.10311C10.7924 2.09822 10.6427 1.94034 10.6476 1.75152L10.6834 0.335422ZM3.56219 2.52794C3.42221 2.39772 3.41569 2.17961 3.54428 2.04125C3.6745 1.90127 3.89261 1.89476 4.03097 2.02335L5.06781 2.9902C5.20779 3.12042 5.2143 3.33853 5.08572 3.47688C4.9555 3.61687 4.73739 3.62338 4.59903 3.49479L3.56219 2.52794ZM9.09637 15.7807L12.106 15.3542C12.3648 14.2637 12.928 13.6077 13.5384 12.8996C14.0397 12.3169 14.5736 11.6951 14.9642 10.7283C15.2507 10.0202 15.3565 9.35614 15.3402 8.74412C15.324 8.13374 15.184 7.57055 14.9756 7.06108C14.6013 6.14469 13.916 5.41548 13.081 4.92066C12.412 4.52512 11.6486 4.27934 10.8689 4.20935C10.0925 4.13773 9.29983 4.24028 8.56899 4.53815C7.71282 4.8881 6.94292 5.50988 6.3895 6.44581C5.95979 7.27919 5.76121 8.07677 5.7547 8.84341C5.74819 9.61494 5.93537 10.3621 6.27556 11.0896C6.62226 11.8319 7.08453 12.3592 7.52727 12.8671C8.21578 13.6565 8.86849 14.4036 9.09637 15.7807ZM11.9839 16.1176L9.17287 16.5164C9.18101 16.6954 9.18427 16.8826 9.18101 17.0812L11.9562 16.6873C11.9595 16.4871 11.9676 16.2967 11.9839 16.1176ZM9.19566 17.8267C9.21519 17.9764 9.24449 18.1132 9.28193 18.2401L11.9758 17.9081C11.9937 17.7681 11.9969 17.62 11.9839 17.4621V17.4588L11.9823 17.4312L9.19566 17.8267ZM9.66444 18.94C9.76861 19.0491 9.88418 19.1337 10.0063 19.1923C10.1934 19.2835 10.4002 19.3209 10.6036 19.3095C10.812 19.2965 11.0219 19.233 11.2124 19.1223C11.3914 19.0182 11.5526 18.8733 11.6812 18.691L9.66444 18.94Z" fill="black"/>
</svg>
