<?xml version="1.0" encoding="utf-8"?>
<!-- Generator: Adobe Illustrator 27.5.0, SVG Export Plug-In . SVG Version: 6.00 Build 0)  -->
<svg version="1.1" id="Layer_1" xmlns="http://www.w3.org/2000/svg" xmlns:xlink="http://www.w3.org/1999/xlink" x="0px" y="0px"
	 viewBox="0 0 58.06 55.2" style="enable-background:new 0 0 58.06 55.2;" xml:space="preserve">
<style type="text/css">
	.st0{clip-path:url(#SVGID_00000121974999076650116850000006565954644736330650_);}
	.st1{fill-rule:evenodd;clip-rule:evenodd;fill:#231F20;}
	.st2{fill:#231F20;}
	.st3{fill:#51C7DF;}
	.st4{clip-path:url(#SVGID_00000116927991881693192110000002729746892391887261_);}
	.st5{fill:#58C8D7;}
	.st6{clip-path:url(#SVGID_00000139998875068500292580000005538007677549755583_);}
	.st7{fill-rule:evenodd;clip-rule:evenodd;fill:#FFFFFF;}
	.st8{fill:#FF3399;}
	.st9{clip-path:url(#SVGID_00000003074249519149261370000010848418960037314237_);}
	.st10{fill:#FFFFFF;}
	.st11{clip-path:url(#SVGID_00000149344005095437486560000004715914031150779069_);}
	.st12{clip-path:url(#SVGID_00000116946090209886766520000013196715599594371983_);}
	.st13{clip-path:url(#SVGID_00000033366089551062677740000011835887594992693173_);}

		.st14{clip-path:url(#SVGID_00000033366089551062677740000011835887594992693173_);fill-rule:evenodd;clip-rule:evenodd;fill:#231F20;}

		.st15{clip-path:url(#SVGID_00000033366089551062677740000011835887594992693173_);fill-rule:evenodd;clip-rule:evenodd;fill:#FFFFFF;}
	.st16{clip-path:url(#SVGID_00000033366089551062677740000011835887594992693173_);fill:#231F20;}
	.st17{clip-path:url(#SVGID_00000047026091382405573710000000845755413294909316_);fill:#58C8D7;}
	.st18{clip-path:url(#SVGID_00000105391381113830372880000012656520902410241677_);}
	.st19{clip-path:url(#SVGID_00000109751267455899991220000016975063881933190589_);}
	.st20{clip-path:url(#SVGID_00000129185868304838835350000003069737293634174900_);}
	.st21{clip-path:url(#SVGID_00000093140763509018026570000015547065156671398274_);}
</style>
<g>
	<rect id="Rectangle_1470_00000093869060734799536620000018096725560311528064_" x="16.35" y="40.01" width="0.89" height="6.2"/>
	<g id="Group_1801_00000086676847467610414080000017781482177331066039_">
		<g>
			<defs>
				<rect id="SVGID_1_" x="6.17" y="-1.22" width="45.71" height="56.28"/>
			</defs>
			<clipPath id="SVGID_00000140722736456270876530000001130875064878682268_">
				<use xlink:href="#SVGID_1_"  style="overflow:visible;"/>
			</clipPath>

				<g id="Group_1800_00000020378126340835741080000017996478063887361667_" style="clip-path:url(#SVGID_00000140722736456270876530000001130875064878682268_);">
				<path id="Path_454_00000109015604800013599990000006675946000433047187_" d="M22.73,46.26c-0.31,0.01-0.63-0.05-0.92-0.18
					c-0.24-0.1-0.45-0.27-0.61-0.49c-0.14-0.21-0.22-0.46-0.21-0.72c0-0.24,0.06-0.48,0.18-0.69c0.14-0.22,0.35-0.4,0.59-0.5
					c0.35-0.14,0.73-0.2,1.11-0.19h1.49v0.61h-1.45c-0.3-0.03-0.61,0.04-0.86,0.21c-0.14,0.13-0.22,0.32-0.22,0.51
					c-0.01,0.22,0.1,0.43,0.27,0.55c0.22,0.15,0.49,0.22,0.76,0.2c0.29,0.01,0.58-0.07,0.84-0.21c0.24-0.14,0.42-0.36,0.52-0.61
					l0.17,0.58c-0.12,0.28-0.32,0.51-0.59,0.66C23.47,46.19,23.1,46.27,22.73,46.26 M24.26,46.21v-0.99l-0.04-0.19v-1.69
					c0.02-0.31-0.09-0.61-0.31-0.84c-0.26-0.22-0.6-0.32-0.94-0.3c-0.28,0-0.55,0.05-0.81,0.14c-0.24,0.08-0.47,0.2-0.67,0.37
					l-0.35-0.64c0.26-0.2,0.56-0.36,0.87-0.45c0.35-0.1,0.71-0.16,1.07-0.15c0.54-0.03,1.07,0.13,1.49,0.47
					c0.37,0.38,0.57,0.9,0.52,1.43v2.83L24.26,46.21z"/>
				<path id="Path_455_00000152222550483498310830000009230904050734192012_" d="M32.51,41.47c0.35-0.01,0.69,0.07,1,0.22
					c0.29,0.15,0.53,0.38,0.68,0.67c0.17,0.35,0.26,0.75,0.24,1.14v2.7h-0.85v-2.6c0.03-0.37-0.09-0.74-0.32-1.02
					c-0.23-0.24-0.56-0.36-0.89-0.35c-0.26-0.01-0.52,0.06-0.74,0.18c-0.21,0.12-0.38,0.3-0.49,0.52c-0.12,0.27-0.18,0.56-0.17,0.86
					v2.42h-0.85v-2.6c0.03-0.37-0.09-0.73-0.31-1.02c-0.23-0.24-0.56-0.37-0.9-0.35c-0.26-0.01-0.51,0.06-0.73,0.18
					c-0.21,0.12-0.39,0.3-0.5,0.52c-0.13,0.27-0.19,0.56-0.18,0.86v2.42h-0.85v-4.69h0.81v1.25l-0.13-0.32
					c0.15-0.31,0.38-0.56,0.68-0.72c0.33-0.18,0.7-0.26,1.07-0.26c0.41-0.01,0.82,0.11,1.16,0.33c0.34,0.24,0.56,0.6,0.64,1
					l-0.34-0.14c0.15-0.36,0.41-0.67,0.74-0.87C31.65,41.58,32.08,41.47,32.51,41.47"/>
				<path id="Path_456_00000028306126093953793770000014560716669235335566_" d="M39.75,46.26c-0.31,0.01-0.63-0.05-0.92-0.18
					c-0.24-0.1-0.45-0.27-0.61-0.49c-0.14-0.21-0.22-0.46-0.21-0.72c0-0.24,0.06-0.48,0.18-0.69c0.14-0.22,0.35-0.4,0.59-0.5
					c0.35-0.14,0.73-0.2,1.11-0.19h1.49v0.61h-1.46c-0.3-0.03-0.61,0.04-0.86,0.21c-0.14,0.13-0.22,0.32-0.22,0.51
					c-0.01,0.22,0.1,0.43,0.27,0.55c0.22,0.15,0.49,0.22,0.76,0.2c0.29,0.01,0.58-0.07,0.84-0.21c0.24-0.14,0.42-0.36,0.52-0.61
					l0.17,0.58c-0.12,0.28-0.33,0.51-0.59,0.66C40.49,46.19,40.12,46.27,39.75,46.26 M41.28,46.21v-0.99l-0.04-0.19v-1.69
					c0.02-0.31-0.1-0.61-0.31-0.84c-0.26-0.22-0.6-0.32-0.94-0.3c-0.28,0-0.55,0.05-0.81,0.14c-0.24,0.08-0.47,0.2-0.67,0.37
					l-0.35-0.64c0.26-0.2,0.56-0.36,0.87-0.45c0.35-0.1,0.71-0.16,1.07-0.15c0.54-0.03,1.07,0.13,1.49,0.47
					c0.37,0.38,0.57,0.9,0.52,1.43v2.83L41.28,46.21z"/>
				<path id="Path_457_00000161633237119252629860000013106917022536934017_" d="M8.25,55.06v-6.2h0.89v5.43h3.35v0.77H8.25z"/>
				<path id="Path_458_00000026875904644057319210000000556192963650397370_" d="M14.39,54.29H18v0.77h-4.49v-6.2h4.37v0.77H14.4
					L14.39,54.29z M14.31,51.54h3.19v0.75h-3.19L14.31,51.54z"/>
				<path id="Path_459_00000021107306642446164780000013987963832649913472_" d="M18.5,55.06l2.81-6.2h0.88l2.81,6.2h-0.93l-2.5-5.7
					h0.35l-2.5,5.7H18.5z M19.69,53.51l0.24-0.71h3.48l0.26,0.71H19.69z"/>
				<path id="Path_460_00000028289348997524864980000000225791509180632478_" d="M25.92,55.06v-6.2h2.42
					c0.48-0.01,0.95,0.07,1.39,0.26c0.36,0.15,0.67,0.41,0.89,0.74c0.21,0.35,0.32,0.75,0.31,1.16c0.01,0.41-0.09,0.81-0.31,1.15
					c-0.21,0.33-0.52,0.59-0.89,0.74c-0.44,0.18-0.91,0.27-1.39,0.26H26.4l0.4-0.41v2.3H25.92z M26.8,52.86l-0.4-0.43h1.9
					c0.46,0.03,0.92-0.1,1.29-0.37c0.3-0.26,0.46-0.64,0.44-1.03c0.02-0.39-0.14-0.77-0.44-1.02c-0.37-0.27-0.83-0.4-1.29-0.36h-1.9
					l0.4-0.44V52.86z M30.06,55.06l-1.57-2.25h0.95l1.59,2.25H30.06z"/>
				<path id="Path_461_00000098194320798776491950000007993066159895938984_" d="M32.35,55.06v-6.2h0.73l4.1,5.09h-0.38v-5.09h0.89
					v6.2h-0.73l-4.1-5.09h0.38v5.09H32.35z"/>
				<path id="Path_462_00000104665677412545169690000017691700326963261326_" d="M40.43,54.29h3.61v0.77h-4.5v-6.2h4.37v0.77h-3.48
					V54.29z M40.35,51.54h3.19v0.75h-3.19V51.54z"/>
				<path id="Path_463_00000099648417705683856370000002687865185670294407_" d="M45.47,55.06v-6.2h2.42
					c0.48-0.01,0.95,0.07,1.39,0.26c0.36,0.15,0.67,0.41,0.89,0.74c0.21,0.35,0.32,0.75,0.31,1.16c0.01,0.41-0.09,0.81-0.31,1.15
					c-0.21,0.33-0.52,0.59-0.89,0.74c-0.44,0.18-0.91,0.27-1.39,0.26h-1.93l0.4-0.41v2.3H45.47z M46.35,52.86l-0.4-0.43h1.9
					c0.46,0.03,0.92-0.1,1.29-0.37c0.3-0.26,0.46-0.64,0.44-1.03c0.02-0.39-0.14-0.77-0.44-1.02c-0.37-0.27-0.83-0.4-1.29-0.36h-1.9
					l0.4-0.44V52.86z M49.61,55.06l-1.57-2.25h0.95l1.59,2.25H49.61z"/>
				<path id="Path_464_00000065754397046139356090000017348271692290993083_" class="st1" d="M12.69,18.82
					c0.52-0.23,1.06-0.42,1.6-0.57c-0.32,1.79-0.47,3.6-0.45,5.41c1.17-0.84,2.91-1.68,4.08-2.52c1.17,0.84,2.91,1.68,4.08,2.52
					c0.02-1.81-0.13-3.62-0.45-5.41c0.55,0.15,1.08,0.35,1.6,0.57c1.23,0.53,2.23,1.02,2.63,2.31c1.09,4.36,1.72,8.82,1.85,13.31
					c0.01,0.36-0.28,0.67-0.64,0.68c-0.01,0-0.01,0-0.02,0H8.87c-0.37,0-0.66-0.3-0.66-0.66c0-0.01,0-0.01,0-0.02
					c0.14-4.49,0.76-8.95,1.85-13.31C10.46,19.85,11.47,19.35,12.69,18.82 M22.31,10.05c-1.52,0.38-3.1,0.4-4.63,0.08
					c0.14-0.81,0.12-1.64-0.04-2.45c-0.17,1.03-0.66,1.98-1.41,2.7c-0.32,0.08-0.65,0.09-0.98,0.03c0.2-0.68,0.22-1.41,0.06-2.1
					c-0.24,0.79-0.66,1.5-1.25,2.08c-0.28,0.07-0.34,0.14-0.59,0.18c0.26,1.32,0.77,2.58,1.5,3.71c0.86,1.31,1.78,2.06,2.88,2.06
					c1.1,0,2.02-0.74,2.88-2.06C21.56,13.01,22.1,11.56,22.31,10.05 M22.36,13.74c-0.84,1.69-2.47,3.78-4.51,3.78
					s-3.66-2.09-4.51-3.77c-0.88-0.69-1.45-1.69-1.61-2.79c-1.43,1.21-1.35,4.53-1.3,5.92c-4.81,0.55-3.3-6.46,1.21-7.17
					c0-0.29,0-0.61,0-0.94c0.11-3.42,2.97-6.11,6.39-6c3.27,0.1,5.9,2.73,6,6c0,0.32,0,0.64-0.02,0.94c4.53,0.7,6.05,7.73,1.23,7.17
					c0.05-1.42,0.14-4.82-1.36-5.98C23.72,11.99,23.18,12.99,22.36,13.74"/>
				<path id="Path_465_00000070099720549236538150000008891819540941457840_" class="st1" d="M32.31,9.36
					c-0.84-1.86-0.47-4.05,0.93-5.53c1.36-1.62,3.4-2.5,5.51-2.37c-0.11-0.37-0.14-0.76-0.07-1.14c0.02-0.15,1.37,1.3,1.44,1.09
					c0.07-0.19,0.78-1.65,0.84-1.07c0.09,0.7,0.3,1.38,0.63,2c0.41-0.31,2.1-0.99,1.76-0.52c-0.33,0.4-0.56,0.88-0.67,1.39
					c0.3,0.29,0.58,0.62,0.82,0.96c1.13,1.49,1.36,3.48,0.59,5.18c0.5,0.21,0.6,1.15,0.45,1.56c-0.22,0.48-0.6,0.88-1.07,1.12
					c-0.82,2.18-2.62,5.49-5.27,5.49c-2.81,0-4.33-3.22-5.11-5.48c-0.46,0.02-1.08-0.77-1.21-1.13C31.75,10.5,31.85,9.6,32.31,9.36
					 M42.77,9.73c-0.85-0.7-1.44-1.65-1.69-2.72c-1.78,1.93-4.96,2.39-7.48,2.22c0.5,2.45,1.61,7.08,4.6,7.08
					C40.76,16.31,42.36,11.87,42.77,9.73 M32.09,18.27c-1.7,0.53-3.55,1.26-3.82,2.14c-1.02,3.29-1.49,10.28-1.57,13.69
					c-0.02,0.54,0.41,0.99,0.94,1c0.01,0,0.02,0,0.03,0h21.15c0.54,0,0.98-0.43,0.98-0.97c0-0.01,0-0.02,0-0.03
					c-0.08-3.41-0.55-10.4-1.57-13.69c-0.27-0.89-2.12-1.62-3.82-2.14l-0.27,0.47c-1.04,2.25-2.38,3.12-4.54,4.51
					c-0.29,0.19-0.59,0.38-0.85,0.55v10.19h-0.95V23.82c-0.26-0.17-0.58-0.38-0.89-0.57c-2.16-1.39-3.5-2.25-4.54-4.51L32.09,18.27z
					 M41.86,17.56c-0.91,1.87-1.79,2.25-3.6,3.61c-1.81-1.36-2.69-1.74-3.61-3.61c-0.36,0.1-0.91,0.24-1.54,0.42l0.15,0.26
					c0.01,0.02,0.02,0.04,0.03,0.07c0.91,1.98,2.16,2.79,4.17,4.08c0.23,0.15,0.47,0.31,0.79,0.51c0.32-0.2,0.56-0.36,0.79-0.51
					c2.01-1.3,3.26-2.1,4.18-4.1c0.01-0.02,0.01-0.03,0.02-0.04l0,0l0.15-0.26C42.76,17.8,42.21,17.66,41.86,17.56 M40.5,24.33
					c0.53,0,0.95,0.43,0.95,0.95s-0.43,0.95-0.95,0.95c-0.53,0-0.95-0.43-0.95-0.95C39.55,24.76,39.97,24.33,40.5,24.33L40.5,24.33"
					/>

					<rect id="Rectangle_1471_00000099650272643936167260000014920402993397461910_" x="6.17" y="34.08" class="st2" width="45.71" height="1.9"/>
			</g>
		</g>
	</g>
</g>
</svg>
