<?xml version="1.0" encoding="utf-8"?>
<!-- Generator: Adobe Illustrator 27.5.0, SVG Export Plug-In . SVG Version: 6.00 Build 0)  -->
<svg version="1.1" id="Layer_1" xmlns="http://www.w3.org/2000/svg" xmlns:xlink="http://www.w3.org/1999/xlink" x="0px" y="0px"
	 viewBox="0 0 58.06 55.2" style="enable-background:new 0 0 58.06 55.2;" xml:space="preserve">
<style type="text/css">
	.st0{clip-path:url(#SVGID_00000120518270031934954080000015118123263925421745_);}
	.st1{fill-rule:evenodd;clip-rule:evenodd;fill:#231F20;}
	.st2{fill:#231F20;}
	.st3{fill:#51C7DF;}
	.st4{clip-path:url(#SVGID_00000012465159530033334110000006527020815549028778_);}
	.st5{fill:#58C8D7;}
	.st6{clip-path:url(#SVGID_00000172409748410899260170000008024716632456877755_);}
	.st7{fill-rule:evenodd;clip-rule:evenodd;fill:#FFFFFF;}
	.st8{fill:#FF3399;}
	.st9{clip-path:url(#SVGID_00000171680191564386846360000000053461929691301816_);}
	.st10{fill:#FFFFFF;}
	.st11{clip-path:url(#SVGID_00000163763490274032545420000003227390228110629013_);}
	.st12{clip-path:url(#SVGID_00000067955643219786055980000003501854634467728572_);}
	.st13{clip-path:url(#SVGID_00000094597657534044698180000006251397632880073372_);}
	
		.st14{clip-path:url(#SVGID_00000094597657534044698180000006251397632880073372_);fill-rule:evenodd;clip-rule:evenodd;fill:#231F20;}
	
		.st15{clip-path:url(#SVGID_00000094597657534044698180000006251397632880073372_);fill-rule:evenodd;clip-rule:evenodd;fill:#FFFFFF;}
	.st16{clip-path:url(#SVGID_00000094597657534044698180000006251397632880073372_);fill:#231F20;}
	.st17{clip-path:url(#SVGID_00000114046775739554767510000013780774560659026614_);fill:#58C8D7;}
	.st18{clip-path:url(#SVGID_00000027572679579839174140000005452682451917647775_);}
	.st19{clip-path:url(#SVGID_00000100380926489618984550000016211738641076303036_);}
	.st20{clip-path:url(#SVGID_00000000206844785713140590000004112837414996988567_);}
	.st21{clip-path:url(#SVGID_00000136389591678616544760000011875610533418796445_);}
</style>
<g id="Group_1798_00000116936080191965112710000017277282603339083653_" transform="translate(14.203 12.479)">
	<g>
		<defs>
			<rect id="SVGID_00000016755053615989950520000000649772165203133851_" x="-14.15" y="-12.34" width="57.95" height="54.92"/>
		</defs>
		<clipPath id="SVGID_00000033340490989373103350000008681180095531179417_">
			<use xlink:href="#SVGID_00000016755053615989950520000000649772165203133851_"  style="overflow:visible;"/>
		</clipPath>
		
			<g id="Group_1797_00000090983999068347781710000014172740284366456974_" style="clip-path:url(#SVGID_00000033340490989373103350000008681180095531179417_);">
			<path id="Path_425_00000000935934983815949600000009691520138414157975_" d="M-0.7,33.71c-0.31,0.01-0.63-0.05-0.92-0.18
				c-0.24-0.1-0.45-0.27-0.61-0.49c-0.14-0.21-0.22-0.46-0.21-0.71c0-0.24,0.06-0.48,0.18-0.69c0.14-0.23,0.35-0.4,0.59-0.5
				c0.35-0.14,0.73-0.2,1.11-0.19h1.49v0.61h-1.45c-0.3-0.03-0.61,0.04-0.86,0.21c-0.14,0.13-0.22,0.32-0.22,0.51
				c-0.01,0.22,0.1,0.43,0.27,0.55c0.22,0.15,0.49,0.22,0.76,0.21c0.29,0.01,0.58-0.07,0.84-0.21c0.24-0.14,0.42-0.36,0.52-0.62
				l0.17,0.58c-0.12,0.28-0.33,0.51-0.59,0.66C0.04,33.64-0.33,33.72-0.7,33.71 M0.84,33.65v-0.99l-0.04-0.19v-1.69
				c0.02-0.31-0.1-0.62-0.31-0.84c-0.26-0.22-0.6-0.33-0.94-0.3c-0.28,0-0.55,0.05-0.81,0.14c-0.25,0.08-0.47,0.2-0.67,0.37
				l-0.35-0.64c0.26-0.2,0.56-0.36,0.87-0.45c0.35-0.1,0.71-0.16,1.07-0.15c0.54-0.04,1.07,0.13,1.49,0.47
				c0.37,0.38,0.57,0.9,0.52,1.43v2.83L0.84,33.65z"/>
			<path id="Path_426_00000049211199370797012100000011243277133322957239_" d="M9.09,28.92c0.35-0.01,0.69,0.07,1,0.22
				c0.29,0.15,0.53,0.38,0.68,0.67c0.17,0.35,0.26,0.75,0.24,1.14v2.7h-0.85v-2.6c0.03-0.37-0.09-0.74-0.32-1.03
				c-0.23-0.24-0.56-0.36-0.89-0.35c-0.26-0.01-0.52,0.05-0.74,0.18c-0.21,0.12-0.38,0.3-0.49,0.52c-0.12,0.27-0.18,0.56-0.17,0.86
				v2.42H6.69v-2.6c0.03-0.37-0.08-0.74-0.31-1.03c-0.24-0.24-0.56-0.37-0.9-0.35c-0.26-0.01-0.51,0.06-0.74,0.18
				c-0.22,0.12-0.39,0.3-0.5,0.52c-0.13,0.27-0.19,0.56-0.18,0.86v2.42H3.21v-4.7h0.82v1.25L3.9,29.9c0.15-0.31,0.38-0.56,0.68-0.72
				c0.33-0.18,0.7-0.27,1.07-0.26c0.41-0.01,0.82,0.11,1.16,0.33c0.33,0.24,0.56,0.6,0.64,1l-0.35-0.14
				c0.14-0.36,0.41-0.67,0.74-0.87C8.22,29.02,8.65,28.91,9.09,28.92"/>
			<path id="Path_427_00000041282989886227340070000001119403116472345508_" d="M16.33,33.71c-0.31,0.01-0.63-0.05-0.92-0.18
				c-0.24-0.1-0.45-0.27-0.61-0.49c-0.14-0.21-0.22-0.46-0.21-0.71c0-0.24,0.06-0.48,0.18-0.69c0.14-0.23,0.35-0.4,0.59-0.5
				c0.35-0.14,0.73-0.2,1.11-0.19h1.49v0.61h-1.45c-0.3-0.03-0.61,0.04-0.86,0.21c-0.14,0.13-0.22,0.32-0.22,0.51
				c-0.01,0.22,0.1,0.43,0.27,0.55c0.22,0.15,0.49,0.22,0.76,0.21c0.29,0.01,0.58-0.07,0.84-0.21c0.24-0.14,0.42-0.36,0.52-0.62
				L18,32.81c-0.12,0.28-0.33,0.51-0.59,0.66C17.07,33.64,16.71,33.72,16.33,33.71 M17.87,33.65v-0.99l-0.04-0.19v-1.69
				c0.02-0.31-0.1-0.62-0.31-0.84c-0.26-0.22-0.6-0.33-0.94-0.3c-0.28,0-0.55,0.05-0.81,0.14c-0.24,0.08-0.47,0.2-0.67,0.37
				l-0.35-0.64c0.26-0.2,0.56-0.36,0.87-0.45c0.35-0.1,0.71-0.16,1.07-0.15c0.54-0.04,1.07,0.13,1.49,0.47
				c0.37,0.38,0.56,0.9,0.52,1.43v2.83L17.87,33.65z"/>
			<path id="Path_428_00000046321458690529044910000008416729935486288059_" d="M22.76,33.66v-6.2h0.88v5.43H27v0.77L22.76,33.66z"
				/>
			<path id="Path_429_00000163049109517710559990000010386795263538804154_" d="M28.67,33.66v-5.43h-2.12v-0.77h5.12v0.77h-2.12
				v5.43H28.67z"/>
			<path id="Path_430_00000071550057671727830180000006452357677328682938_" d="M34.36,33.73c-0.46,0-0.92-0.07-1.35-0.22
				c-0.38-0.11-0.72-0.3-1.02-0.56l0.33-0.69c0.27,0.22,0.57,0.4,0.9,0.51c0.37,0.13,0.75,0.2,1.14,0.2
				c0.3,0.01,0.59-0.03,0.88-0.12c0.2-0.06,0.37-0.18,0.5-0.34c0.11-0.14,0.16-0.31,0.16-0.49c0.01-0.19-0.07-0.38-0.21-0.51
				c-0.16-0.14-0.34-0.25-0.54-0.31c-0.24-0.08-0.48-0.15-0.73-0.21c-0.27-0.06-0.53-0.13-0.8-0.21c-0.26-0.07-0.5-0.18-0.74-0.31
				c-0.22-0.12-0.4-0.29-0.54-0.5c-0.14-0.24-0.21-0.53-0.2-0.81c0-0.31,0.09-0.62,0.25-0.88c0.19-0.29,0.46-0.51,0.78-0.65
				c0.42-0.18,0.88-0.26,1.34-0.24c0.36,0,0.72,0.05,1.07,0.14c0.33,0.08,0.64,0.22,0.92,0.41l-0.29,0.71
				c-0.26-0.17-0.54-0.3-0.84-0.38c-0.28-0.08-0.57-0.12-0.86-0.12c-0.29-0.01-0.58,0.04-0.86,0.13c-0.19,0.07-0.37,0.19-0.49,0.35
				c-0.1,0.15-0.16,0.32-0.15,0.5c-0.01,0.2,0.07,0.39,0.21,0.52c0.16,0.14,0.34,0.25,0.54,0.31c0.24,0.08,0.48,0.15,0.73,0.21
				c0.27,0.06,0.53,0.13,0.8,0.21c0.26,0.07,0.5,0.17,0.74,0.3c0.22,0.12,0.4,0.29,0.54,0.5c0.14,0.24,0.21,0.52,0.2,0.8
				c0,0.31-0.09,0.61-0.26,0.87c-0.19,0.29-0.47,0.51-0.79,0.65C35.29,33.67,34.83,33.75,34.36,33.73"/>
			
				<rect id="Rectangle_1468_00000034806820377032835570000005334417091453319304_" x="-14.15" y="36.31" width="0.88" height="6.2"/>
			<path id="Path_431_00000060746833687604637630000001694665066386475666_" d="M-11.41,42.51v-6.2h0.73l4.1,5.09h-0.38v-5.09h0.88
				v6.2H-6.8l-4.1-5.09h0.38v5.09H-11.41z"/>
			<path id="Path_432_00000183970977029346907150000005471758380123369103_" d="M-2.42,42.58c-0.46,0-0.92-0.07-1.35-0.22
				c-0.38-0.11-0.72-0.3-1.02-0.56l0.33-0.69c0.27,0.22,0.57,0.4,0.9,0.51c0.37,0.13,0.75,0.2,1.14,0.2
				c0.3,0.01,0.59-0.03,0.88-0.12c0.2-0.06,0.37-0.18,0.5-0.34c0.11-0.14,0.16-0.31,0.16-0.49c0.01-0.19-0.07-0.38-0.21-0.51
				c-0.16-0.14-0.34-0.25-0.54-0.31c-0.24-0.08-0.48-0.15-0.73-0.21c-0.27-0.06-0.53-0.13-0.8-0.21c-0.26-0.07-0.5-0.18-0.74-0.31
				c-0.22-0.12-0.4-0.29-0.53-0.5c-0.14-0.24-0.21-0.53-0.2-0.81c0-0.31,0.09-0.62,0.25-0.88c0.19-0.29,0.46-0.51,0.78-0.65
				c0.42-0.18,0.88-0.26,1.34-0.24c0.36,0,0.72,0.05,1.07,0.14c0.33,0.08,0.64,0.22,0.92,0.41l-0.29,0.71
				c-0.26-0.17-0.54-0.3-0.84-0.38c-0.28-0.08-0.57-0.12-0.86-0.12c-0.29-0.01-0.58,0.04-0.86,0.13c-0.19,0.07-0.37,0.19-0.49,0.35
				c-0.1,0.15-0.16,0.32-0.15,0.5c-0.01,0.2,0.07,0.39,0.21,0.52c0.16,0.14,0.34,0.25,0.54,0.31c0.24,0.08,0.48,0.15,0.73,0.21
				c0.27,0.06,0.53,0.13,0.8,0.21c0.26,0.07,0.5,0.17,0.73,0.3c0.22,0.12,0.4,0.29,0.54,0.5c0.14,0.24,0.21,0.52,0.2,0.8
				c0,0.31-0.09,0.61-0.26,0.87c-0.19,0.29-0.47,0.51-0.79,0.65C-1.49,42.52-1.95,42.61-2.42,42.58"/>
			<path id="Path_433_00000101095441536493424850000004766802897013251511_" d="M2.42,42.51v-5.43H0.3v-0.77h5.12v0.77H3.3v5.43
				H2.42z"/>
			<path id="Path_434_00000086693574982623502870000011997915561572423607_" d="M6.39,42.51v-6.2H8.8c0.48-0.01,0.95,0.07,1.39,0.26
				c0.36,0.15,0.67,0.41,0.89,0.74c0.21,0.35,0.32,0.75,0.31,1.16c0.01,0.41-0.1,0.81-0.31,1.15c-0.21,0.33-0.52,0.59-0.89,0.74
				c-0.44,0.18-0.91,0.27-1.39,0.26H6.87l0.4-0.41v2.29L6.39,42.51z M7.27,40.31l-0.4-0.43h1.9c0.46,0.03,0.92-0.1,1.29-0.37
				c0.3-0.26,0.46-0.64,0.44-1.03c0.02-0.39-0.14-0.77-0.44-1.03c-0.37-0.27-0.83-0.4-1.29-0.36h-1.9l0.4-0.44V40.31z M10.53,42.51
				l-1.57-2.25H9.9l1.59,2.25H10.53z"/>
			<path id="Path_435_00000074436430783340122620000013812212189712458171_" d="M15.39,42.58c-0.71,0.04-1.4-0.21-1.92-0.7
				c-0.5-0.56-0.75-1.3-0.7-2.04v-3.52h0.89v3.49c-0.05,0.54,0.12,1.09,0.46,1.51c0.74,0.64,1.84,0.64,2.58,0
				c0.34-0.43,0.5-0.97,0.46-1.51v-3.49h0.86v3.52c0.05,0.75-0.2,1.48-0.69,2.04C16.79,42.37,16.1,42.62,15.39,42.58"/>
			<path id="Path_436_00000175299968322652325070000004604385893187746482_" d="M22.59,42.58c-0.45,0-0.89-0.08-1.3-0.24
				c-0.39-0.15-0.74-0.37-1.04-0.66c-0.29-0.29-0.52-0.62-0.69-1c-0.33-0.81-0.33-1.72,0-2.53c0.33-0.77,0.95-1.37,1.73-1.67
				c0.85-0.32,1.78-0.31,2.63,0.01c0.4,0.16,0.75,0.4,1.03,0.72l-0.57,0.56c-0.22-0.24-0.5-0.43-0.8-0.55
				c-0.3-0.12-0.62-0.18-0.95-0.18c-0.33,0-0.66,0.06-0.97,0.18c-0.29,0.11-0.55,0.28-0.77,0.5c-0.22,0.21-0.39,0.47-0.51,0.76
				c-0.24,0.61-0.24,1.29,0,1.9c0.12,0.28,0.29,0.54,0.51,0.76c0.22,0.22,0.49,0.39,0.77,0.5c0.31,0.12,0.64,0.18,0.97,0.18
				c0.32,0,0.65-0.06,0.95-0.18c0.3-0.13,0.58-0.32,0.8-0.56l0.57,0.56c-0.28,0.32-0.64,0.57-1.03,0.73
				c-0.42,0.17-0.88,0.25-1.33,0.25"/>
			<path id="Path_437_00000181073749950404229720000004856262582174038662_" d="M27.38,42.51v-5.43h-2.12v-0.77h5.12v0.77h-2.12
				v5.43H27.38z"/>
			<path id="Path_438_00000069394872176424163570000010089516424982542495_" d="M34.06,42.58c-0.45,0-0.9-0.08-1.32-0.24
				c-0.39-0.15-0.75-0.38-1.05-0.67c-0.29-0.28-0.53-0.62-0.69-1c-0.33-0.81-0.33-1.71,0-2.51c0.16-0.38,0.4-0.72,0.69-1
				c0.3-0.29,0.66-0.52,1.04-0.67c0.85-0.32,1.78-0.32,2.62,0c0.39,0.15,0.74,0.37,1.04,0.65c0.3,0.28,0.53,0.62,0.69,1
				c0.32,0.81,0.32,1.72,0,2.53c-0.16,0.38-0.39,0.72-0.69,1c-0.3,0.29-0.66,0.51-1.04,0.66C34.94,42.5,34.5,42.58,34.06,42.58
				 M34.05,41.78c0.33,0,0.65-0.06,0.95-0.18c0.28-0.11,0.54-0.28,0.76-0.5c0.21-0.22,0.38-0.47,0.5-0.76
				c0.24-0.61,0.24-1.29,0-1.89c-0.12-0.28-0.29-0.54-0.5-0.76c-0.22-0.22-0.48-0.39-0.76-0.5c-0.62-0.24-1.3-0.24-1.91,0
				c-0.58,0.23-1.04,0.68-1.27,1.26c-0.24,0.61-0.24,1.29,0,1.89c0.24,0.57,0.7,1.03,1.27,1.26C33.4,41.73,33.72,41.79,34.05,41.78"
				/>
			<path id="Path_439_00000155142608587607755810000002941986266209048718_" d="M38.69,42.51v-6.2h2.42
				c0.48-0.01,0.95,0.08,1.39,0.26c0.36,0.15,0.67,0.41,0.88,0.74c0.21,0.35,0.32,0.75,0.31,1.16c0.01,0.41-0.1,0.81-0.31,1.15
				c-0.21,0.33-0.52,0.59-0.88,0.74c-0.44,0.18-0.91,0.27-1.39,0.26h-1.93l0.4-0.41v2.29L38.69,42.51z M39.58,40.31l-0.4-0.43h1.9
				c0.46,0.03,0.92-0.1,1.29-0.37c0.3-0.26,0.46-0.64,0.44-1.03c0.02-0.39-0.14-0.77-0.44-1.03c-0.37-0.27-0.83-0.4-1.29-0.36h-1.9
				l0.4-0.44V40.31z M42.84,42.51l-1.57-2.25h0.95l1.59,2.25H42.84z"/>
			<path id="Path_440_00000082357238142926944180000001401813962208033672_" class="st1" d="M14.1-12.34c2.48,0,4.5,1.41,4.5,3.15
				s-2.01,3.15-4.5,3.15S9.6-7.45,9.6-9.19S11.62-12.34,14.1-12.34"/>
			<path id="Path_441_00000031907381734728688350000014880704406601995180_" class="st7" d="M11.04,4.18l1.75,0.11l0,0
				c1.43,0,2.83-0.02,4.27-0.11l0.3,2.28c0.15,1.18,0.51,1.99,1.75,2.15c3.13,0.41,5.07,0.93,6.45,2.96
				c1.2,1.69,1.79,3.74,1.68,5.81c-0.36,2.6-1.99,3.63-4.26,4.42c-0.17,0.06-0.35,0.12-0.53,0.17c-2.34,2.41-14.44,2.41-16.78,0
				c-0.18-0.06-0.36-0.11-0.53-0.17c-2.28-0.79-3.9-1.82-4.26-4.42c-0.11-2.07,0.48-4.12,1.68-5.81C3.93,9.54,5.87,9.02,9,8.61
				c1.24-0.16,1.59-0.97,1.75-2.15L11.04,4.18z"/>
			<path id="Path_442_00000086650312565276841400000004535609124929043618_" class="st2" d="M11.06,3.92l1.74,0.11l0,0
				c0.74,0,1.45,0,2.13-0.02c0.7-0.02,1.4-0.04,2.13-0.09l0.24-0.01l0.03,0.24l0.3,2.28c0.03,0.47,0.18,0.93,0.42,1.34
				c0.26,0.35,0.67,0.56,1.1,0.59c1.35,0.13,2.67,0.43,3.95,0.89c1.1,0.44,2.03,1.2,2.68,2.18l0,0v0l0,0
				c0.15,0.23,0.3,0.47,0.44,0.71s0.28,0.52,0.4,0.79c0.69,1.39,1,2.93,0.87,4.48l0,0c-0.11,1.16-0.64,2.24-1.49,3.04l0,0
				c-0.86,0.72-1.86,1.26-2.94,1.58l-0.27,0.09l-0.21,0.07c-0.85,0.82-2.74,1.37-4.98,1.64c-0.82,0.1-1.7,0.16-2.6,0.19
				s-1.79,0.01-2.67-0.03c-3-0.16-5.75-0.76-6.81-1.79l-0.21-0.07c-0.08-0.03-0.17-0.06-0.27-0.09l0,0
				c-1.08-0.32-2.08-0.86-2.94-1.58l0,0c-0.85-0.8-1.38-1.88-1.49-3.04l0,0v-0.01c-0.04-0.28-0.05-0.57-0.05-0.86
				c0.01-0.3,0.04-0.59,0.08-0.88c0.26-1.52,0.83-2.97,1.69-4.24c0.65-0.98,1.58-1.74,2.68-2.18c1.27-0.46,2.6-0.76,3.95-0.89
				c0.43-0.03,0.84-0.24,1.1-0.59c0.24-0.41,0.39-0.87,0.42-1.34l0.3-2.28l0.03-0.24L11.06,3.92z M12.78,4.55l-1.51-0.1L11,6.49
				c-0.04,0.56-0.22,1.1-0.51,1.57c-0.34,0.47-0.88,0.76-1.46,0.8c-1.3,0.12-2.59,0.41-3.82,0.86c-1,0.4-1.86,1.09-2.45,1.99
				c-0.82,1.21-1.37,2.59-1.61,4.03c-0.04,0.27-0.07,0.55-0.07,0.82c-0.01,0.26,0.01,0.52,0.04,0.78v0.01
				c0.1,1.04,0.57,2.01,1.33,2.73l0,0c0.81,0.68,1.75,1.18,2.76,1.48l0,0l0.26,0.09l0.26,0.08l0.11,0.07
				c0.94,0.97,3.59,1.53,6.52,1.69c0.87,0.05,1.76,0.06,2.63,0.03s1.73-0.09,2.55-0.19c2.17-0.26,3.98-0.77,4.72-1.53l0.11-0.07
				l0.26-0.08l0.26-0.09c1.01-0.3,1.95-0.8,2.76-1.48l0,0c0.76-0.72,1.23-1.69,1.33-2.73l0,0c0.11-1.45-0.18-2.9-0.83-4.19
				c-0.12-0.26-0.25-0.51-0.39-0.75s-0.28-0.47-0.42-0.68l0,0v0l0,0c-0.59-0.9-1.45-1.59-2.45-1.99c-1.23-0.45-2.52-0.73-3.82-0.86
				c-0.58-0.04-1.11-0.33-1.46-0.8c-0.3-0.48-0.47-1.02-0.51-1.57l-0.27-2.04c-0.64,0.04-1.27,0.06-1.91,0.08
				c-0.74,0.02-1.44,0.02-2.14,0.02L12.78,4.55L12.78,4.55z"/>
			<path id="Path_443_00000116935548549451128610000004618361136825910717_" class="st1" d="M20.97,8.9
				c1.84,0.19,3.52,1.16,4.59,2.67c1.2,1.69,1.79,3.74,1.68,5.81c-0.36,2.6-1.99,3.63-4.26,4.42c-0.17,0.06-0.35,0.12-0.53,0.17
				c-2.34,2.41-14.44,2.41-16.78,0c-0.18-0.06-0.36-0.11-0.53-0.17c-2.28-0.79-3.9-1.82-4.26-4.42c-0.11-2.07,0.48-4.12,1.68-5.81
				C3.62,10.06,5.3,9.09,7.14,8.9C11.06,12.46,17.04,12.46,20.97,8.9"/>
			<path id="Path_444_00000048495238889412735380000008964325579354781607_" class="st7" d="M5.6,22.26l-0.08-2.49
				c-0.15-4.78-0.08-4.67-0.47,0l-0.18,2.19l0.18,0.06l0,0c0.09,0.03,0.18,0.06,0.27,0.09l0.21,0.07
				C5.55,22.21,5.57,22.23,5.6,22.26"/>
			<path id="Path_445_00000039814346564591735830000010248903694475810958_" class="st7" d="M22.53,22.25l0.07-2.47
				c0.15-4.78,0.08-4.67,0.46,0l0.18,2.19l-0.19,0.07l-0.27,0.09l-0.21,0.07L22.53,22.25"/>
			<path id="Path_446_00000037666941867664537790000016506318588015950503_" class="st7" d="M9.41,2.18
				c0.49,1.38,1.33,2.6,2.45,3.55c1.94,1.64,2.56,1.63,4.49-0.01c1.13-0.97,1.98-2.23,2.46-3.64c0.13,0.18,0.36,0.1,0.56-0.05
				c0.22-0.18,0.4-0.4,0.51-0.66c0.4-0.67,0.45-1.48,0.15-2.2c-0.11-0.15-0.28-0.23-0.46-0.23c0.15-0.58,0.31-1.16,0.48-1.84
				c0.86-3.43-2.08-6.36-6-6.86C10.33-9.4,7.41-6.32,8.14-2.91c0.15,0.68,0.32,1.26,0.47,1.85c-0.15,0.03-0.29,0.1-0.39,0.22
				c-0.41,0.47-0.23,1.48,0.17,2.2c0.14,0.26,0.33,0.49,0.58,0.66C9.1,2.12,9.25,2.18,9.41,2.18"/>
			<path id="Path_447_00000139988754354916519230000002388778293312016784_" class="st2" d="M9.65,2.09
				c0.25,0.69,0.59,1.35,1.01,1.95c0.39,0.55,0.85,1.06,1.36,1.49c0.92,0.78,1.52,1.17,2.08,1.17s1.16-0.4,2.08-1.18
				c0.52-0.45,0.99-0.96,1.38-1.53c0.42-0.62,0.76-1.29,1.01-2l0.16-0.46l0.28,0.39c0.06-0.02,0.12-0.04,0.17-0.08l0,0l0.03-0.02
				l0,0c0.09-0.07,0.17-0.15,0.24-0.24c0.07-0.1,0.14-0.21,0.19-0.32l0,0l0,0l0,0c0.05-0.1,0.09-0.19,0.13-0.29l0,0
				c0.04-0.1,0.07-0.21,0.1-0.32c0.16-0.43,0.15-0.91-0.05-1.32l-0.01-0.01l0,0c-0.01-0.01-0.02-0.03-0.03-0.03l0,0
				c-0.01-0.01-0.02-0.02-0.03-0.03c-0.06-0.04-0.13-0.06-0.19-0.06l-0.32-0.01l0.08-0.31c0.07-0.29,0.15-0.57,0.23-0.86
				c0.08-0.31,0.17-0.63,0.26-0.98c0.05-0.19,0.08-0.37,0.11-0.56c0.16-1.31-0.26-2.63-1.15-3.61c-0.99-1.09-2.28-1.85-3.71-2.17
				c-0.33-0.08-0.66-0.15-1-0.19c-0.26,0.03-0.52,0.07-0.77,0.12c-1.44,0.3-2.75,1.05-3.72,2.15C8.64-6.21,8.19-4.86,8.3-3.5
				c0.02,0.18,0.05,0.36,0.08,0.53c0.11,0.5,0.22,0.93,0.34,1.35c0.05,0.19,0.1,0.36,0.13,0.49l0.07,0.27
				c-1.21,0.23-0.97,2.39,0.5,2.23L9.65,2.09z M10.24,4.33C9.83,3.74,9.49,3.1,9.23,2.42C9.15,2.4,9.07,2.37,8.99,2.33l0,0
				L8.91,2.29l0,0C8.88,2.27,8.85,2.26,8.84,2.25l0,0L8.83,2.24l0,0C8.68,2.14,8.55,2.03,8.44,1.9c-0.11-0.13-0.2-0.26-0.28-0.41
				C7.85,0.92,7.7,0.28,7.76-0.37l0,0C7.77-0.48,7.8-0.6,7.85-0.71c0.04-0.11,0.1-0.21,0.18-0.3l0,0l0,0C8.1-1.09,8.2-1.17,8.3-1.22
				L8.23-1.47C8.11-1.91,7.99-2.36,7.89-2.85C7.84-3.05,7.81-3.25,7.79-3.44c-0.14-1.51,0.36-3,1.37-4.13
				c1.05-1.19,2.46-2,4.01-2.32c0.28-0.06,0.57-0.1,0.86-0.13h0.06c0.37,0.04,0.73,0.11,1.09,0.2c1.53,0.36,2.92,1.18,3.98,2.34
				c0.98,1.09,1.45,2.55,1.27,4.01c-0.03,0.21-0.07,0.42-0.12,0.62c-0.09,0.35-0.18,0.68-0.26,0.99c-0.05,0.2-0.11,0.4-0.16,0.6
				C19.94-1.23,20-1.2,20.05-1.17c0.03,0.02,0.06,0.04,0.08,0.07l0,0c0.03,0.02,0.05,0.05,0.08,0.08l0,0L20.23-1l0,0
				c0.3,0.54,0.35,1.18,0.14,1.76c-0.03,0.12-0.07,0.25-0.11,0.36l0,0c-0.04,0.12-0.09,0.24-0.14,0.34l0,0l0,0l0,0
				c-0.07,0.14-0.15,0.28-0.25,0.41c-0.1,0.13-0.21,0.25-0.35,0.35l0,0l-0.03,0.02l0,0c-0.12,0.09-0.26,0.15-0.4,0.17
				c-0.04,0-0.09,0-0.13,0c-0.25,0.65-0.58,1.27-0.97,1.85c-0.42,0.6-0.91,1.15-1.47,1.63c-0.63,0.7-1.48,1.16-2.41,1.3
				c-0.93-0.13-1.79-0.59-2.42-1.29c-0.55-0.47-1.04-1-1.45-1.59"/>
			<path id="Path_448_00000108274379023341746500000008256473858991103412_" class="st1" d="M9.55,4.07C8.91,2.2,6.8,1.28,7.3-3.7
				c0.28-2.84,2.16-5.28,4.84-6.27c1.28-0.42,2.66-0.43,3.94-0.05c2.89,0.86,4.17,3.22,4.68,5.84c0.23,1.08,0.27,2.18,0.13,3.27
				c-0.46,2.06-1.43,3.97-2.82,5.55c1.77-5.11-2.6-8.57-2.89-10.69C13.84-2.94,8.53-3.35,9.55,4.07"/>
			<path id="Path_449_00000057829609330576929770000001470776944531619973_" class="st1" d="M12.55,1.11 M18.45-0.02
				c0.04-0.19,0.06-0.34,0.08-0.46c0.01-0.1,0.02-0.21,0.02-0.31l0,0c0-0.06-0.01-0.12-0.03-0.18c-0.07-0.15-0.2-0.26-0.36-0.3
				C18-1.32,17.84-1.35,17.67-1.36c-0.21-0.02-0.46-0.02-0.74-0.01S16.34-1.36,16-1.34c-0.18,0.01-0.33,0.02-0.47,0.04
				c-0.11,0.01-0.23,0.04-0.34,0.07c-0.17,0.05-0.31,0.13-0.33,0.31c-0.01,0.06-0.01,0.13,0,0.19c0.01,0.1,0.03,0.19,0.05,0.28
				c0.03,0.11,0.06,0.22,0.1,0.35c0.03,0.1,0.07,0.2,0.13,0.29c0.05,0.08,0.1,0.15,0.17,0.21l0,0c0.06,0.06,0.14,0.11,0.21,0.14
				c0.08,0.04,0.17,0.07,0.25,0.1l0,0h0.01l0,0h0.01c0.43,0.08,0.87,0.09,1.31,0.05h0.01h0.07l0,0l0.31-0.01l0,0
				c0.13,0,0.25-0.02,0.37-0.05l0,0c0.1-0.03,0.2-0.07,0.28-0.13l0,0c0.08-0.06,0.14-0.13,0.19-0.21
				C18.39,0.2,18.42,0.09,18.45-0.02L18.45-0.02z M13.8-1.07c0.1,0.04,0.2,0.05,0.31,0.06l0,0c0.11,0,0.21-0.02,0.31-0.06
				c0.01-0.03,0.02-0.06,0.03-0.08l0,0c0.05-0.14,0.15-0.27,0.28-0.36c0.1-0.07,0.21-0.12,0.33-0.15l0,0
				c0.13-0.04,0.26-0.07,0.4-0.09c0.15-0.02,0.32-0.03,0.52-0.04c0.35-0.02,0.67-0.03,0.96-0.03s0.55,0,0.77,0.01
				c0.22,0.01,0.43,0.05,0.63,0.12c0.17,0.06,0.32,0.16,0.44,0.29c0.07,0.08,0.12,0.16,0.16,0.26c0.04,0.1,0.06,0.21,0.06,0.33l0,0
				c0,0.13,0,0.26-0.02,0.38c-0.02,0.15-0.05,0.31-0.09,0.51l0,0l0,0c-0.03,0.17-0.09,0.33-0.18,0.48
				c-0.08,0.13-0.19,0.25-0.31,0.34C18.29,0.97,18.15,1.04,18,1.08c-0.16,0.04-0.33,0.07-0.49,0.07h-0.03l-0.31,0.01h-0.04
				c-0.25,0.01-0.5,0.02-0.75,0.02c-0.24,0-0.48-0.03-0.71-0.08l0,0h-0.01h-0.01l0,0c-0.12-0.03-0.24-0.08-0.35-0.13
				C15.2,0.91,15.09,0.84,15,0.76l0,0c-0.1-0.09-0.18-0.19-0.25-0.31c-0.08-0.13-0.14-0.26-0.18-0.4c-0.03-0.08-0.05-0.17-0.07-0.24
				s-0.03-0.13-0.05-0.19c-0.1-0.07-0.22-0.11-0.34-0.12l0,0c-0.12,0-0.24,0.05-0.34,0.12c-0.01,0.06-0.03,0.12-0.05,0.19
				c-0.02,0.08-0.04,0.16-0.07,0.24c-0.04,0.14-0.1,0.28-0.18,0.4c-0.07,0.11-0.15,0.22-0.25,0.31l0,0
				c-0.09,0.08-0.2,0.15-0.31,0.21c-0.11,0.06-0.23,0.1-0.35,0.13l0,0h-0.01h-0.01h-0.01c-0.23,0.05-0.47,0.08-0.71,0.08
				c-0.25,0-0.5-0.01-0.75-0.02h-0.04l-0.33-0.01h-0.02c-0.16,0-0.32-0.03-0.48-0.07c-0.15-0.04-0.29-0.1-0.42-0.19
				C9.69,0.8,9.58,0.69,9.5,0.55C9.42,0.41,9.36,0.25,9.32,0.08V0.07l0,0c-0.04-0.2-0.07-0.36-0.08-0.51
				C9.22-0.56,9.22-0.69,9.22-0.82l0,0c0-0.11,0.03-0.22,0.06-0.33C9.32-1.24,9.37-1.32,9.44-1.4c0.12-0.13,0.27-0.23,0.44-0.29
				c0.2-0.07,0.42-0.11,0.63-0.12c0.22-0.02,0.48-0.02,0.77-0.01s0.61,0.02,0.96,0.03c0.2,0.01,0.37,0.02,0.52,0.04
				c0.14,0.02,0.27,0.05,0.4,0.09c0.12,0.03,0.23,0.09,0.33,0.15c0.13,0.09,0.23,0.21,0.28,0.36C13.79-1.13,13.8-1.1,13.8-1.07
				 M9.7-0.48C9.71-0.35,9.74-0.2,9.77-0.01l0,0C9.8,0.1,9.83,0.21,9.89,0.31C9.94,0.39,10,0.46,10.08,0.52l0,0
				c0.08,0.06,0.18,0.1,0.28,0.13l0,0c0.12,0.03,0.25,0.05,0.37,0.05l0,0l0.31,0.01l0,0h0.07h0.01c0.44,0.04,0.88,0.03,1.32-0.05
				l0,0h0.01l0,0c0.09-0.02,0.17-0.05,0.25-0.1c0.08-0.04,0.15-0.09,0.21-0.15l0,0c0.07-0.06,0.12-0.13,0.17-0.21
				c0.05-0.09,0.1-0.19,0.13-0.29c0.04-0.13,0.07-0.25,0.1-0.35c0.02-0.09,0.04-0.19,0.05-0.28c0.01-0.06,0.01-0.13,0-0.19
				c-0.01-0.1-0.06-0.18-0.14-0.23c-0.06-0.04-0.12-0.07-0.19-0.08l0,0c-0.11-0.03-0.22-0.06-0.34-0.07
				c-0.14-0.02-0.29-0.03-0.47-0.04l0,0c-0.35-0.01-0.66-0.03-0.94-0.03s-0.52,0-0.74,0.01c-0.17,0.01-0.33,0.04-0.49,0.08
				c-0.11,0.03-0.2,0.09-0.28,0.17C9.75-1.07,9.72-1.03,9.7-0.98C9.66-0.81,9.65-0.64,9.7-0.48"/>
			<path id="Path_450_00000176740007691925202800000016204557113512182953_" class="st7" d="M4.47,9.79C5.64,9.22,6.9,8.85,8.2,8.72
				c1.56,1.52,3.67,2.36,5.85,2.34C12.93,17.63,6.35,12.92,4.47,9.79"/>
			<path id="Path_451_00000027570528706389730400000003970960618457399999_" class="st2" d="M4.35,9.56
				c0.55-0.29,1.12-0.52,1.72-0.68c0.69-0.18,1.39-0.32,2.09-0.42l0.13-0.02l0.09,0.09C8.44,8.59,8.49,8.65,8.55,8.7
				c0.2,0.19,0.4,0.36,0.62,0.52c0.22,0.17,0.45,0.32,0.69,0.46c1.27,0.74,2.72,1.12,4.19,1.11h0.3l-0.05,0.3
				c-0.11,0.95-0.49,1.84-1.08,2.59c-0.56,0.65-1.4,0.99-2.25,0.93c-0.91-0.07-1.79-0.35-2.58-0.81c-1.67-0.95-3.09-2.28-4.14-3.89
				L4.11,9.69L4.35,9.56z M6.21,9.38c-0.47,0.13-0.93,0.3-1.37,0.51c0.99,1.43,2.29,2.61,3.8,3.47c0.71,0.43,1.52,0.68,2.35,0.75
				c0.7,0.05,1.39-0.23,1.85-0.76c0.47-0.59,0.78-1.29,0.9-2.04c-1.46-0.04-2.88-0.45-4.14-1.18c-0.25-0.15-0.5-0.31-0.74-0.49
				C8.62,9.46,8.4,9.28,8.19,9.08L8.1,8.99C7.46,9.09,6.83,9.22,6.21,9.38"/>
			<path id="Path_452_00000020392029186478490850000010282320005710427060_" class="st7" d="M19.91,8.72
				c1.3,0.14,2.56,0.5,3.73,1.07c-1.88,3.13-8.46,7.84-9.58,1.26C16.24,11.08,18.34,10.24,19.91,8.72"/>
			<path id="Path_453_00000127731288391004885890000002365682270198191761_" class="st2" d="M19.95,8.47c0.7,0.1,1.4,0.24,2.09,0.42
				l0,0c0.6,0.16,1.18,0.38,1.72,0.68l0.23,0.13l-0.14,0.23c-1.05,1.61-2.47,2.94-4.14,3.89c-0.79,0.47-1.67,0.74-2.58,0.81
				c-0.86,0.06-1.69-0.29-2.25-0.93c-0.59-0.75-0.97-1.64-1.08-2.59l-0.05-0.3h0.3c0.09,0,0.18,0,0.28,0l0,0
				c0.31-0.01,0.62-0.04,0.92-0.08c0.3-0.04,0.59-0.1,0.89-0.17c1.35-0.33,2.59-1.02,3.58-2l0.09-0.09L19.95,8.47z M21.9,9.38
				c-0.63-0.17-1.26-0.29-1.9-0.39c-1.04,1-2.33,1.7-3.73,2.04c-0.31,0.08-0.62,0.14-0.94,0.18c-0.32,0.05-0.64,0.07-0.96,0.08
				c0.12,0.75,0.43,1.45,0.9,2.04c0.47,0.53,1.15,0.81,1.85,0.76c0.83-0.07,1.63-0.32,2.35-0.75c1.51-0.86,2.81-2.04,3.81-3.47
				C22.83,9.68,22.37,9.51,21.9,9.38L21.9,9.38z"/>
		</g>
	</g>
</g>
</svg>
