<?xml version="1.0" encoding="UTF-8"?>
<svg id="Layer_2" data-name="Layer 2" xmlns="http://www.w3.org/2000/svg" xmlns:xlink="http://www.w3.org/1999/xlink" viewBox="0 0 622.78 629.71">
  <defs>
    <style>
      .cls-1 {
        fill: url(#linear-gradient);
      }

      .cls-1, .cls-2 {
        stroke-width: 0px;
      }

      .cls-2 {
        fill: url(#New_Gradient_Swatch);
      }
    </style>
    <linearGradient id="linear-gradient" x1="78.5" y1="104.16" x2="544.77" y2="525.99" gradientUnits="userSpaceOnUse">
      <stop offset=".24" stop-color="#ee3c96"/>
      <stop offset=".77" stop-color="#52c7de"/>
    </linearGradient>
    <linearGradient id="New_Gradient_Swatch" data-name="New Gradient Swatch" x1="181.28" y1="220.27" x2="421.89" y2="460.88" gradientUnits="userSpaceOnUse">
      <stop offset=".24" stop-color="#ee3c96"/>
      <stop offset=".77" stop-color="#52c7de"/>
    </linearGradient>
  </defs>
  <g id="Layer_1-2" data-name="Layer 1">
    <path class="cls-1" d="M578.02,314.86c0-7.57-.33-15.07-.95-22.48,18.71-8.45,34.15-16.63,45.71-24.3-2.35-15.8-5.88-31.22-10.49-46.16-13.74-1.9-31.2-2.58-51.72-2.07-5.39-14.13-11.95-27.68-19.55-40.53,13.18-15.71,23.53-29.78,30.62-41.7-8.93-13.08-18.82-25.45-29.57-37.02-13.2,4.26-29.21,11.22-47.46,20.57-10.89-10.3-22.64-19.69-35.14-28.06,5.06-19.89,8.29-37.06,9.5-50.89-13.6-7.88-27.84-14.77-42.63-20.57-10.05,9.56-21.47,22.79-33.87,39.15-14.15-4.51-28.82-7.87-43.89-9.98-4.07-20.1-8.61-36.96-13.51-49.94-7.82-.58-15.72-.88-23.69-.88s-15.87.3-23.68.88c-4.9,12.97-9.44,29.84-13.51,49.94-15.07,2.1-29.73,5.46-43.88,9.97-12.4-16.36-23.82-29.59-33.87-39.15-14.79,5.8-29.03,12.69-42.63,20.57,1.21,13.82,4.44,31,9.5,50.89-12.5,8.36-24.26,17.76-35.14,28.06-18.25-9.35-34.26-16.31-47.46-20.58-10.75,11.57-20.64,23.94-29.57,37.02,7.09,11.92,17.44,25.98,30.62,41.7-7.61,12.86-14.16,26.4-19.55,40.53-20.52-.5-37.98.17-51.72,2.07-4.61,14.94-8.13,30.36-10.49,46.16,11.56,7.67,27.01,15.86,45.72,24.3-.62,7.42-.95,14.91-.95,22.49s.33,15.06.95,22.48c-18.71,8.45-34.15,16.63-45.71,24.3,2.35,15.8,5.88,31.22,10.49,46.16,13.74,1.9,31.2,2.57,51.72,2.07,5.39,14.13,11.94,27.68,19.55,40.53-13.18,15.71-23.53,29.78-30.62,41.7,8.93,13.08,18.82,25.45,29.57,37.02,13.2-4.26,29.21-11.22,47.46-20.57,10.89,10.3,22.64,19.69,35.14,28.06-5.06,19.89-8.28,37.07-9.5,50.89,13.6,7.88,27.84,14.77,42.63,20.57,10.05-9.56,21.47-22.79,33.87-39.15,14.15,4.52,28.82,7.87,43.89,9.98,4.07,20.1,8.61,36.96,13.51,49.94,7.82.58,15.72.88,23.68.88s15.87-.3,23.69-.88c4.9-12.98,9.44-29.84,13.51-49.94,15.07-2.1,29.73-5.46,43.88-9.97,12.4,16.36,23.82,29.59,33.87,39.15,14.79-5.8,29.03-12.69,42.63-20.57-1.21-13.82-4.44-30.99-9.5-50.88,12.5-8.37,24.26-17.76,35.14-28.06,18.25,9.35,34.25,16.31,47.45,20.57,10.75-11.56,20.64-23.93,29.57-37.02-7.09-11.91-17.44-25.98-30.62-41.69,7.61-12.86,14.16-26.4,19.55-40.53,20.52.51,37.98-.17,51.72-2.07,4.61-14.94,8.14-30.36,10.49-46.16-11.56-7.67-27-15.86-45.71-24.3.62-7.42.95-14.91.95-22.48ZM311.39,540.18c-124.44,0-225.32-100.88-225.32-225.33s100.88-225.32,225.32-225.32,225.32,100.88,225.32,225.32-100.88,225.33-225.32,225.33Z"/>
    <path class="cls-2" d="M446.4,333.95c-1.31-.92-2.72-1.25-4.24-.98-1.52.27-2.75,1.05-3.65,2.36l-4.96,7.04c-1.79-.76-3.66-1.38-5.58-1.88-1.93-.5-3.87-.89-5.81-1.17l-1.61-9.22c-.27-1.56-1.03-2.77-2.3-3.67-1.27-.89-2.67-1.19-4.23-.92l-11.57,2.02c-1.48.26-2.68,1.01-3.6,2.29-.91,1.27-1.23,2.68-.96,4.23l1.47,8.44c-1.85.79-3.63,1.69-5.31,2.71-1.7,1.02-3.29,2.11-4.76,3.29l-7.8-5.4c-1.24-.92-2.6-1.27-4.14-1-1.52.26-2.73,1.06-3.65,2.36l-6.68,9.53c-.92,1.31-1.25,2.72-.98,4.23.27,1.52,1.05,2.75,2.36,3.66l7.04,4.96c-.76,1.79-1.38,3.66-1.88,5.58-.5,1.93-.89,3.87-1.17,5.81l-9.22,1.61c-1.55.27-2.77,1.03-3.66,2.3-.89,1.27-1.2,2.67-.92,4.23l2.02,11.57c.26,1.48,1.01,2.68,2.29,3.6,1.27.91,2.68,1.23,4.23.96l8.44-1.47c.79,1.85,1.69,3.63,2.71,5.31,1.02,1.7,2.13,3.32,3.31,4.87l-5.42,7.69c-.92,1.24-1.26,2.6-1,4.14.27,1.52,1.06,2.73,2.36,3.65l9.55,6.8c1.3.85,2.7,1.13,4.22.87,1.52-.27,2.75-1.01,3.67-2.24l4.95-7.15c1.79.76,3.66,1.38,5.58,1.88,1.92.5,3.87.89,5.81,1.17l1.6,9.22c.27,1.55,1.03,2.77,2.3,3.66,1.27.89,2.67,1.2,4.23.92l11.57-2.02c1.48-.26,2.68-1.01,3.6-2.29.91-1.27,1.23-2.68.96-4.23l-1.47-8.44c1.85-.79,3.63-1.69,5.31-2.7,1.7-1.02,3.32-2.13,4.87-3.31l7.69,5.42c1.24.92,2.62,1.26,4.18.99,1.58-.28,2.76-1.07,3.62-2.35l6.8-9.55c.84-1.3,1.13-2.7.87-4.22-.27-1.52-1.01-2.75-2.24-3.67l-7.15-4.94c.76-1.8,1.38-3.66,1.88-5.59.5-1.92.89-3.87,1.17-5.81l9.22-1.6c1.55-.27,2.77-1.03,3.66-2.3.9-1.27,1.2-2.67.92-4.23l-2.02-11.57c-.26-1.48-1.01-2.68-2.29-3.6-1.27-.91-2.68-1.23-4.23-.96l-8.44,1.47c-.78-1.78-1.67-3.54-2.7-5.25-1.03-1.73-2.13-3.34-3.3-4.82l5.4-7.8c.92-1.24,1.26-2.61,1-4.14-.27-1.52-1.06-2.73-2.36-3.65l-9.53-6.68h0ZM412.79,361.2c3.08-.54,6.1-.47,9.06.22,2.95.71,5.62,1.89,8,3.54,2.37,1.68,4.38,3.79,6.04,6.33,1.65,2.56,2.74,5.37,3.27,8.46.54,3.08.46,6.1-.22,9.06-.71,2.95-1.89,5.62-3.55,8-1.68,2.37-3.79,4.38-6.32,6.04-2.56,1.65-5.37,2.74-8.45,3.28-3.08.54-6.1.46-9.06-.22-2.95-.71-5.62-1.89-8-3.55-2.37-1.68-4.38-3.79-6.04-6.32-1.65-2.56-2.74-5.37-3.28-8.46-.54-3.08-.46-6.1.22-9.06.71-2.95,1.89-5.62,3.55-8,1.68-2.36,3.79-4.38,6.32-6.04,2.56-1.65,5.37-2.74,8.46-3.27h0ZM324.4,223.93c-.48-.48-.93-.81-1.34-.99-.39-.17-.88-.25-1.48-.25s-1.1.09-1.51.25c-.43.18-.86.49-1.29.93l-.05.05h0l-11.17,11.14c-2.21,2.2-5.62,2.44-8.09.73-1.26-.81-2.6-1.59-4.03-2.36-1.55-.84-3.04-1.58-4.48-2.24-1.52-.69-3.08-1.35-4.67-1.97-1.39-.54-3-1.11-4.8-1.7-2.68-.88-4.38-3.38-4.38-6.05h0v-17c0-.61-.09-1.14-.27-1.58-.17-.42-.45-.82-.83-1.21h-.01c-.4-.38-.8-.67-1.2-.83-.44-.18-.97-.27-1.58-.27h-21.24c-.56,0-1.04.08-1.43.24-.44.18-.89.49-1.35.94h0c-.38.38-.65.77-.82,1.17-.18.42-.27.93-.27,1.53v15.43c0,3.09-2.24,5.65-5.19,6.18-1.67.4-3.19.8-4.53,1.21-1.52.46-3.06,1-4.62,1.6-1.47.56-2.98,1.2-4.51,1.91-1.54.71-2.96,1.42-4.25,2.12-2.49,1.35-5.49.85-7.41-1.03h0s-12.22-11.99-12.22-11.99c-.05-.05-.1-.1-.15-.15h-.58c-.38-.41-.77-.7-1.15-.87-.35-.15-.81-.23-1.37-.23s-1.04.09-1.44.26c-.47.2-.93.52-1.38.97l-14.89,14.96h-.01s.01.02.01.02c-.48.48-.8.92-.97,1.33-.16.39-.24.88-.24,1.47s.08,1.1.25,1.5c.18.43.49.85.92,1.28l.05.05h0l11.04,11.1c2.18,2.19,2.42,5.58.72,8.04-.8,1.24-1.58,2.58-2.34,4-.83,1.54-1.57,3.02-2.22,4.45-.69,1.51-1.34,3.06-1.95,4.64-.54,1.38-1.1,2.98-1.69,4.77-.88,2.66-3.35,4.35-6,4.35h0s-16.97,0-16.97,0c-.62,0-1.15.09-1.59.27-.43.18-.83.45-1.21.83l-.02.02h0c-.37.38-.65.78-.83,1.21-.18.44-.27.97-.27,1.59v21.17c0,.57.08,1.05.25,1.45.18.44.5.9.96,1.37h0c.38.38.78.66,1.19.83.43.18.95.27,1.56.27h15.71c3.15,0,5.76,2.27,6.29,5.27.4,1.69.81,3.22,1.23,4.58h0c.5,1.62,1.04,3.19,1.63,4.71.57,1.48,1.23,3.04,1.97,4.68.76,1.69,1.5,3.2,2.18,4.52,1.32,2.53.77,5.55-1.15,7.46h0s-12.22,12.19-12.22,12.19l-.1.1h.01c-.41.39-.7.77-.86,1.15-.15.35-.23.81-.23,1.36s.09,1.03.26,1.43c.2.48.53.94.99,1.4l14.75,14.92c.44.4.88.69,1.33.87.45.18.99.27,1.61.27s1.17-.09,1.64-.28c.44-.17.86-.44,1.25-.81l10.92-11.1c2.17-2.21,5.58-2.48,8.05-.77,1.24.79,2.57,1.58,3.99,2.34,1.54.83,3.01,1.56,4.43,2.21,1.5.69,3.05,1.34,4.62,1.95,1.37.53,2.97,1.1,4.75,1.68,2.65.87,4.34,3.34,4.34,5.99h-.1v16.97c0,.62.09,1.15.27,1.59.18.43.45.83.82,1.2h.01s.01,0,.01,0c.75.75,1.67,1.12,2.79,1.12h21.81c.56,0,1.04-.08,1.43-.24.44-.18.89-.5,1.35-.95h0c.38-.38.65-.78.82-1.18.18-.43.27-.94.27-1.54v-15.56c0-3.12,2.24-5.7,5.19-6.23,1.67-.4,3.19-.81,4.54-1.22,1.52-.47,3.06-1,4.62-1.61,1.46-.56,3-1.21,4.62-1.95,1.67-.76,3.16-1.48,4.46-2.16,2.5-1.31,5.47-.77,7.36,1.14h0s12.03,12.09,12.03,12.09l.1.1h0c.39.41.77.7,1.15.86.36.16.83.23,1.44.23s1.07-.09,1.47-.26c.41-.18.79-.46,1.15-.84.08-.08.16-.16.24-.24l14.82-14.7c.4-.44.69-.88.86-1.33.18-.45.27-.99.27-1.61s-.09-1.18-.28-1.64c-.17-.44-.44-.86-.81-1.25l-11.1-10.96c-2.21-2.18-2.48-5.6-.77-8.08.8-1.25,1.58-2.58,2.34-4,.83-1.54,1.56-3.02,2.21-4.45.69-1.51,1.34-3.05,1.95-4.63.53-1.38,1.1-2.98,1.69-4.76.87-2.66,3.34-4.35,5.99-4.35v-.5h16.97c.62,0,1.15-.09,1.59-.27.43-.17.83-.45,1.2-.82h.01s-.01-.02-.01-.02c.75-.75,1.12-1.68,1.12-2.8v-21.27c0-.55-.08-1.03-.24-1.41-.18-.43-.49-.88-.93-1.34h0c-.37-.38-.76-.64-1.16-.81-.42-.18-.92-.26-1.52-.26h-15.31c-3.1,0-5.67-2.27-6.15-5.23-.35-1.38-.74-2.79-1.18-4.23-.45-1.44-.98-2.98-1.61-4.64-.04-.1-.08-.21-.11-.31-.58-1.51-1.16-2.92-1.76-4.23-.66-1.45-1.36-2.85-2.1-4.21-1.34-2.46-.84-5.43,1.03-7.32h0l12.19-12.37c.05-.05.1-.1.15-.15h0c.41-.39.7-.78.87-1.17.16-.36.24-.81.24-1.38s-.09-1.04-.26-1.45c-.2-.47-.52-.94-.97-1.39l-15.06-15.02h-.01s-.02,0-.02,0h0ZM327.76,211.17c2.01.85,3.81,2.06,5.4,3.64h-.01s14.98,14.89,14.98,14.89h0l.05.05c1.58,1.6,2.79,3.36,3.61,5.3.86,2.01,1.3,4.13,1.3,6.37s-.45,4.4-1.33,6.4c-.86,1.96-2.1,3.69-3.71,5.22l-8.82,8.9c.13.28.26.56.39.84.77,1.69,1.48,3.37,2.13,5.04.04.1.08.2.12.3.65,1.7,1.28,3.54,1.89,5.49l.2.66h10.6c2.26,0,4.38.42,6.37,1.26,1.96.83,3.72,2.03,5.29,3.62l.12.13c1.54,1.6,2.71,3.37,3.51,5.32.82,2,1.23,4.07,1.23,6.24v21.37c0,4.62-1.59,8.52-4.81,11.77h-.01c-1.61,1.6-3.4,2.81-5.38,3.62-1.97.81-4.08,1.21-6.32,1.21h-12.5c-.12.33-.25.67-.39,1-.69,1.78-1.43,3.55-2.24,5.34-.85,1.86-1.7,3.6-2.56,5.2-.1.19-.2.38-.31.57l7.6,7.51c.08.08.17.17.25.25,1.53,1.62,2.68,3.42,3.45,5.39.78,1.98,1.16,4.07,1.16,6.25s-.39,4.25-1.16,6.22c-.77,1.96-1.9,3.75-3.4,5.38h0c-.06.06-.13.13-.19.2l-14.97,14.87c-1.55,1.63-3.3,2.89-5.27,3.74-1.99.86-4.14,1.3-6.45,1.3s-4.4-.45-6.42-1.33c-2-.87-3.77-2.12-5.29-3.74l-8.73-8.8c-.32.15-.63.29-.93.43-1.62.73-3.37,1.47-5.27,2.2-1.75.68-3.59,1.32-5.51,1.91-.26.08-.51.16-.77.23v10.56c0,2.26-.42,4.38-1.26,6.37-.83,1.96-2.03,3.72-3.62,5.3l-.13.12c-1.6,1.54-3.37,2.71-5.32,3.51-2,.82-4.07,1.23-6.24,1.23h-21.36c-4.62,0-8.53-1.59-11.77-4.81h.01c-1.62-1.62-2.83-3.42-3.64-5.4-.81-1.97-1.21-4.08-1.21-6.32v-12.5c-.33-.12-.66-.25-1-.38-1.77-.69-3.55-1.44-5.33-2.25-1.86-.85-3.6-1.7-5.2-2.56-.19-.1-.38-.21-.57-.31l-7.52,7.6c-.08.09-.17.17-.25.25-1.62,1.53-3.42,2.68-5.39,3.45-1.98.78-4.07,1.16-6.25,1.16s-4.26-.38-6.22-1.16c-1.96-.77-3.75-1.91-5.37-3.41h0c-.07-.06-.14-.13-.2-.2l-14.99-15.1c-1.58-1.6-2.78-3.37-3.61-5.3-.86-2.01-1.3-4.13-1.3-6.36s.45-4.4,1.33-6.39c.87-1.97,2.12-3.71,3.74-5.25l8.8-8.74c-.15-.31-.29-.62-.43-.93-.73-1.62-1.47-3.37-2.2-5.26-.71-1.82-1.34-3.65-1.91-5.49h0s0-.02,0-.02l-.23-.77h-10.56c-2.26,0-4.38-.42-6.37-1.26-1.96-.83-3.72-2.03-5.3-3.62l-.12-.13c-2.19-2.27-3.62-4.9-4.33-7.88-.3-1.25-.41-2.53-.41-3.81v-21.24c0-2.25.4-4.36,1.21-6.35.81-1.98,2-3.78,3.6-5.39h0s.01-.02.01-.02h.01c1.61-1.62,3.39-2.83,5.37-3.64,1.98-.81,4.08-1.21,6.32-1.21h12.5c.12-.33.25-.66.39-1,.69-1.77,1.43-3.55,2.24-5.33.85-1.86,1.7-3.6,2.56-5.2.11-.2.22-.41.33-.62l-7.56-7.61c-1.59-1.58-2.81-3.37-3.64-5.35-.86-2.04-1.29-4.18-1.29-6.4s.43-4.33,1.28-6.37c.85-2.01,2.06-3.81,3.64-5.4h.01s14.88-14.97,14.88-14.97h0l.05-.05c1.6-1.58,3.36-2.79,5.3-3.62,2.01-.86,4.13-1.3,6.37-1.3s4.39.45,6.39,1.33c1.96.86,3.69,2.1,5.22,3.71l8.89,8.8c.27-.13.54-.26.81-.38,1.64-.76,3.39-1.5,5.26-2.22,1.75-.68,3.59-1.32,5.51-1.91.26-.08.51-.16.77-.23v-10.57c0-2.26.42-4.38,1.26-6.37.82-1.96,2.03-3.72,3.62-5.3l.13-.12c1.6-1.54,3.37-2.71,5.32-3.51,2-.82,4.08-1.23,6.25-1.23h21.36c2.25,0,4.36.4,6.35,1.21,2.02.82,3.83,2.02,5.42,3.61h-.01s.01.02.01.02c1.61,1.6,2.81,3.39,3.62,5.37.81,1.97,1.21,4.08,1.21,6.32v12.5c.33.12.67.25,1,.38,1.77.69,3.55,1.43,5.33,2.24,1.86.85,3.6,1.7,5.2,2.56l.62.33,7.61-7.56c1.59-1.6,3.37-2.81,5.35-3.64,2.05-.86,4.18-1.29,6.4-1.29,2.21,0,4.33.43,6.37,1.28h0ZM259.74,250.97c3.28,0,6.48.31,9.61.94,3.06.61,6.1,1.56,9.13,2.83l.04.02v-.02c2.87,1.23,5.59,2.72,8.18,4.45,2.56,1.71,4.93,3.65,7.1,5.8l.03.03h0c2.15,2.17,4.09,4.54,5.8,7.1,1.73,2.59,3.21,5.31,4.45,8.17.07.18.14.35.2.53,1.18,2.87,2.05,5.75,2.63,8.65.62,3.13.94,6.33.94,9.61s-.31,6.48-.94,9.6c-.61,3.06-1.56,6.1-2.83,9.14l-.02.04h.02c-1.23,2.86-2.72,5.59-4.45,8.18-1.71,2.56-3.65,4.93-5.8,7.1l-.03.03h0c-2.17,2.15-4.54,4.09-7.1,5.8-2.59,1.73-5.31,3.21-8.17,4.45-.18.07-.35.14-.53.2-2.87,1.18-5.75,2.05-8.65,2.63-3.13.62-6.33.94-9.61.94s-6.48-.31-9.6-.94c-3.06-.61-6.1-1.55-9.13-2.83l-.04-.02v.02c-2.87-1.24-5.59-2.72-8.18-4.45-2.56-1.72-4.93-3.65-7.1-5.8l-.02-.03h0c-2.15-2.17-4.09-4.54-5.8-7.1-1.73-2.59-3.21-5.31-4.45-8.17-.08-.17-.14-.35-.2-.53-1.18-2.87-2.05-5.76-2.64-8.65-.62-3.12-.94-6.32-.94-9.6s.31-6.48.94-9.61c.61-3.06,1.56-6.1,2.83-9.13l.02-.04h-.02c1.23-2.87,2.71-5.59,4.45-8.18,1.72-2.56,3.65-4.93,5.8-7.1l.02-.02h0c2.17-2.15,4.54-4.09,7.1-5.8,2.59-1.73,5.31-3.22,8.17-4.45.18-.08.36-.14.54-.2,2.87-1.17,5.75-2.05,8.65-2.63,3.12-.63,6.32-.94,9.6-.94h0ZM266.87,264.32c-2.3-.46-4.68-.69-7.13-.69s-4.83.23-7.13.69c-2.21.44-4.31,1.07-6.3,1.87-.12.06-.24.12-.37.17-2.24.97-4.3,2.07-6.15,3.32-1.87,1.25-3.61,2.67-5.21,4.26-1.58,1.6-3,3.33-4.25,5.21-1.24,1.85-2.34,3.9-3.31,6.14h-.02c-.88,2.09-1.56,4.31-2.02,6.66-.46,2.3-.69,4.68-.69,7.13s.23,4.83.69,7.13c.44,2.21,1.07,4.31,1.87,6.29.06.12.12.24.17.37.97,2.24,2.07,4.29,3.31,6.14,1.25,1.87,2.67,3.61,4.26,5.21,1.6,1.58,3.33,3,5.21,4.26,1.85,1.24,3.9,2.35,6.14,3.31v.02c2.09.88,4.31,1.56,6.66,2.03,2.3.46,4.68.69,7.13.69s4.83-.23,7.13-.69c2.21-.44,4.31-1.07,6.29-1.87.12-.06.24-.12.37-.17,2.24-.97,4.29-2.07,6.14-3.31,1.87-1.26,3.61-2.68,5.21-4.26,1.58-1.6,3-3.34,4.26-5.21,1.24-1.85,2.34-3.9,3.31-6.14h.02c.88-2.09,1.56-4.31,2.03-6.66.46-2.3.69-4.68.69-7.13s-.23-4.83-.69-7.13c-.44-2.21-1.07-4.31-1.87-6.29-.06-.12-.12-.24-.17-.37-.97-2.24-2.07-4.29-3.31-6.14-1.25-1.88-2.67-3.61-4.25-5.21-1.6-1.59-3.34-3-5.21-4.26-1.85-1.24-3.9-2.35-6.15-3.32v-.02c-2.09-.88-4.31-1.56-6.66-2.03h0Z"/>
  </g>
</svg>