<svg xmlns="http://www.w3.org/2000/svg" width="20.156" height="18.237" viewBox="0 0 20.156 18.237">
  <path id="forward_to_inbox_24dp_5F6368_FILL0_wght400_GRAD0_opsz24" d="M89.6-791.362l-7.679-4.8v9.6h8.638v1.92H81.92a1.849,1.849,0,0,1-1.356-.564A1.849,1.849,0,0,1,80-786.562V-798.08a1.848,1.848,0,0,1,.564-1.356A1.849,1.849,0,0,1,81.92-800H97.277a1.849,1.849,0,0,1,1.356.564,1.848,1.848,0,0,1,.564,1.356v6.719h-1.92v-4.8Zm0-1.92,7.679-4.8H81.92Zm6.719,11.518-1.344-1.344,1.512-1.536H92.478v-1.92h4.007L94.949-788.1l1.368-1.344,3.839,3.839Zm-14.4-14.4v0Z" transform="translate(-80 800)"/>
</svg>
