<svg width="36" height="36" viewBox="0 0 36 36" fill="none" xmlns="http://www.w3.org/2000/svg">
<circle cx="18" cy="18" r="18" fill="#E2E6EC"/>
<path d="M21.125 9.89453L20.715 10.3439C19.7969 11.3545 19.04 11.8064 18.41 12.102C17.78 12.397 17.2506 12.4852 16.7306 12.8833C16.1762 13.3083 15.3706 14.1233 15.0312 15.5783C14.3037 15.737 13.7712 16.0158 13.3512 16.3789C12.9362 16.7377 12.6237 17.1458 12.2387 17.5902C12.2356 17.5952 12.2406 17.6045 12.2387 17.6095C11.6862 18.2445 11.2031 18.9283 10.2656 19.2895L9.875 19.4458V26.1252H21.7894C22.4725 26.0883 22.9462 25.6152 23.2344 25.1483C23.5219 24.682 23.6812 24.177 23.7619 23.762C23.9694 22.7045 24.3475 19.6602 24.3475 19.6602L24.3675 19.602V19.5433C24.3475 19.1208 24.1737 18.762 23.9569 18.4295L24.66 16.3402L25.7737 14.6602L26.0862 14.2108L25.6756 13.8402L21.5744 10.2852L21.125 9.89453ZM21.1644 11.6133L24.4256 14.4458L23.5662 15.7145L23.5081 15.7739L23.4881 15.8714L22.9219 17.5508C22.6262 17.4289 22.3219 17.3433 21.9844 17.3558H21.945L18 17.3752H17.375V19.797C17.2875 20.4783 16.9087 20.742 16.4375 20.9302C16.2812 20.9933 16.2619 20.9589 16.125 20.9883V17.3564C16.0225 15.0395 16.8475 14.3727 17.4925 13.8795C17.6706 13.7427 18.1925 13.5845 18.9375 13.2352C19.56 12.942 20.3337 12.4164 21.1644 11.6133ZM14.9144 16.9845C14.9119 17.1264 14.8675 17.2264 14.875 17.3752V22.3752H15.5C15.5 22.3752 16.1687 22.3677 16.8869 22.082C17.605 21.7964 18.4712 21.1277 18.625 19.9533V18.6252L21.9844 18.6058H22.0037C22.2782 18.5904 22.5475 18.6846 22.7526 18.8676C22.9576 19.0507 23.0817 19.3076 23.0975 19.582C23.095 19.592 23.0662 19.8239 23.0587 19.8752H20.5V21.1252H22.9025C22.8362 21.6083 22.7756 21.9114 22.7069 22.3752H20.5V23.6252H22.5119C22.438 23.9275 22.3194 24.2172 22.16 24.4845C21.9894 24.7627 21.8425 24.8677 21.7112 24.8752H11.125V20.207C12.1381 19.6695 12.7681 18.8964 13.1756 18.4302C13.5981 17.9464 13.8881 17.5802 14.1719 17.3364C14.3575 17.1777 14.6481 17.087 14.9144 16.9845Z" fill="black"/>
</svg>
