<svg width="20" height="20" viewBox="0 0 20 20" fill="none" xmlns="http://www.w3.org/2000/svg">
<g clip-path="url(#clip0_3594_5229)">
<path d="M2.59062 19.9916H17.1706C18.9302 19.9916 19.7612 19.4682 19.7612 18.3369C19.7612 15.4918 16.0035 11.4056 9.87623 11.4056C3.75774 11.4056 0 15.4918 0 18.3369C0 19.4682 0.831124 19.9916 2.59062 19.9916ZM2.15738 18.5817C1.72414 18.5817 1.56499 18.4719 1.56499 18.168C1.56499 16.2009 4.56233 12.824 9.87623 12.824C15.1989 12.824 18.1963 16.2009 18.1963 18.168C18.1963 18.4719 18.0371 18.5817 17.6039 18.5817H2.15738ZM9.89387 9.97045C12.573 9.97045 14.7303 7.71634 14.7303 4.92192C14.7303 2.17814 12.573 0 9.89387 0C7.2237 0 5.04863 2.21191 5.04863 4.9388C5.04863 7.72479 7.21484 9.97045 9.89387 9.97045ZM9.89387 8.56061C8.09904 8.56061 6.61362 6.97338 6.61362 4.9388C6.61362 2.96328 8.09019 1.40988 9.89387 1.40988C11.6976 1.40988 13.1654 2.93795 13.1654 4.92192C13.1654 6.95654 11.6888 8.56061 9.89387 8.56061Z" fill="black"/>
</g>
<defs>
<clipPath id="clip0_3594_5229">
<rect width="20" height="20" fill="white"/>
</clipPath>
</defs>
</svg>
