<svg width="20" height="20" viewBox="0 0 20 20" fill="none" xmlns="http://www.w3.org/2000/svg">
<path d="M0 17.2728V13.6364C0 13.1212 0.17803 12.6894 0.534091 12.3409C0.890152 11.9924 1.31818 11.8182 1.81818 11.8182H4.79545C5.09848 11.8182 5.38636 11.894 5.65909 12.0455C5.93182 12.197 6.15152 12.4015 6.31818 12.6591C6.75758 13.25 7.29924 13.7121 7.94318 14.0455C8.58712 14.3788 9.27273 14.5455 10 14.5455C10.7424 14.5455 11.4356 14.3788 12.0795 14.0455C12.7235 13.7121 13.2576 13.25 13.6818 12.6591C13.8788 12.4015 14.1098 12.197 14.375 12.0455C14.6402 11.894 14.9167 11.8182 15.2045 11.8182H18.1818C18.697 11.8182 19.1288 11.9924 19.4773 12.3409C19.8258 12.6894 20 13.1212 20 13.6364V17.2728H13.6364V15.2046C13.1061 15.5834 12.5341 15.8712 11.9205 16.0682C11.3068 16.2652 10.6667 16.3637 10 16.3637C9.34848 16.3637 8.71212 16.2614 8.09091 16.0568C7.4697 15.8523 6.89394 15.5606 6.36364 15.1818V17.2728H0ZM10 13.6364C9.42424 13.6364 8.87879 13.5038 8.36364 13.2387C7.84848 12.9735 7.41667 12.6061 7.06818 12.1364C6.81061 11.7576 6.48864 11.4584 6.10227 11.2387C5.71591 11.019 5.29545 10.9091 4.84091 10.9091C5.17424 10.3485 5.87879 9.90533 6.95455 9.57957C8.0303 9.25381 9.04545 9.09093 10 9.09093C10.9545 9.09093 11.9697 9.25381 13.0455 9.57957C14.1212 9.90533 14.8258 10.3485 15.1591 10.9091C14.7197 10.9091 14.303 11.019 13.9091 11.2387C13.5152 11.4584 13.1894 11.7576 12.9318 12.1364C12.5985 12.6212 12.1742 12.9924 11.6591 13.25C11.1439 13.5076 10.5909 13.6364 10 13.6364ZM2.72727 10.9091C1.9697 10.9091 1.32576 10.644 0.795455 10.1137C0.265152 9.58336 0 8.93942 0 8.18184C0 7.40911 0.265152 6.76139 0.795455 6.23866C1.32576 5.71593 1.9697 5.45457 2.72727 5.45457C3.5 5.45457 4.14773 5.71593 4.67045 6.23866C5.19318 6.76139 5.45455 7.40911 5.45455 8.18184C5.45455 8.93942 5.19318 9.58336 4.67045 10.1137C4.14773 10.644 3.5 10.9091 2.72727 10.9091ZM17.2727 10.9091C16.5152 10.9091 15.8712 10.644 15.3409 10.1137C14.8106 9.58336 14.5455 8.93942 14.5455 8.18184C14.5455 7.40911 14.8106 6.76139 15.3409 6.23866C15.8712 5.71593 16.5152 5.45457 17.2727 5.45457C18.0455 5.45457 18.6932 5.71593 19.2159 6.23866C19.7386 6.76139 20 7.40911 20 8.18184C20 8.93942 19.7386 9.58336 19.2159 10.1137C18.6932 10.644 18.0455 10.9091 17.2727 10.9091ZM10 8.18184C9.24242 8.18184 8.59848 7.91669 8.06818 7.38639C7.53788 6.85608 7.27273 6.21214 7.27273 5.45457C7.27273 4.68184 7.53788 4.03411 8.06818 3.51139C8.59848 2.98866 9.24242 2.72729 10 2.72729C10.7727 2.72729 11.4205 2.98866 11.9432 3.51139C12.4659 4.03411 12.7273 4.68184 12.7273 5.45457C12.7273 6.21214 12.4659 6.85608 11.9432 7.38639C11.4205 7.91669 10.7727 8.18184 10 8.18184Z" fill="black"/>
</svg>
