<svg width="20" height="20" viewBox="0 0 20 20" fill="none" xmlns="http://www.w3.org/2000/svg">
<g clip-path="url(#clip0_3594_452)">
<path d="M9.99996 20C8.86416 18.9457 7.56272 18.1395 6.09564 17.5814C4.62856 17.0233 3.0905 16.7442 1.48145 16.7442V6.51163C3.07472 6.51163 4.6049 6.79457 6.07198 7.36047C7.53906 7.92636 8.84839 8.74419 9.99996 9.81395C11.1515 8.74419 12.4609 7.92636 13.9279 7.36047C15.395 6.79457 16.9252 6.51163 18.5185 6.51163V16.7442C16.8937 16.7442 15.3516 17.0233 13.8925 17.5814C12.4333 18.1395 11.1358 18.9457 9.99996 20ZM9.99996 17.5814C10.9938 16.8527 12.0507 16.2713 13.1707 15.8372C14.2908 15.4031 15.4424 15.1163 16.6255 14.9767V8.55814C15.4739 8.75969 14.342 9.16667 13.2299 9.77907C12.1178 10.3915 11.0411 11.2093 9.99996 12.2326C8.95881 11.2093 7.88216 10.3915 6.77003 9.77907C5.65789 9.16667 4.52603 8.75969 3.37445 8.55814V14.9767C4.55758 15.1163 5.70915 15.4031 6.82918 15.8372C7.94921 16.2713 9.00614 16.8527 9.99996 17.5814ZM9.99996 7.44186C8.95881 7.44186 8.06752 7.07752 7.3261 6.34884C6.58467 5.62015 6.21396 4.74419 6.21396 3.72093C6.21396 2.69767 6.58467 1.82171 7.3261 1.09302C8.06752 0.364341 8.95881 0 9.99996 0C11.0411 0 11.9324 0.364341 12.6738 1.09302C13.4153 1.82171 13.786 2.69767 13.786 3.72093C13.786 4.74419 13.4153 5.62015 12.6738 6.34884C11.9324 7.07752 11.0411 7.44186 9.99996 7.44186ZM9.99996 5.5814C10.5205 5.5814 10.9662 5.39922 11.3369 5.03488C11.7076 4.67054 11.893 4.23256 11.893 3.72093C11.893 3.2093 11.7076 2.77132 11.3369 2.40698C10.9662 2.04264 10.5205 1.86047 9.99996 1.86047C9.47939 1.86047 9.03374 2.04264 8.66303 2.40698C8.29232 2.77132 8.10696 3.2093 8.10696 3.72093C8.10696 4.23256 8.29232 4.67054 8.66303 5.03488C9.03374 5.39922 9.47939 5.5814 9.99996 5.5814Z" fill="black"/>
</g>
<defs>
<clipPath id="clip0_3594_452">
<rect width="20" height="20" fill="white"/>
</clipPath>
</defs>
</svg>
