<svg xmlns="http://www.w3.org/2000/svg" width="21.547" height="20.35" viewBox="0 0 21.547 20.35">
  <path id="verified_20dp_FILL0_wght400_GRAD0_opsz20" d="M55.457-867.65l-1.87-3.092-3.516-.8.324-3.591L48-877.825l2.394-2.693-.324-3.591,3.516-.8L55.457-888l3.317,1.422L62.09-888l1.87,3.092,3.516.8-.324,3.591,2.394,2.693-2.394,2.693.324,3.591-3.516.8-1.87,3.092-3.317-1.422Zm.723-2.269,2.594-1.1,2.594,1.1,1.446-2.419,2.743-.623-.249-2.768,1.845-2.095-1.845-2.095.249-2.768-2.743-.623-1.446-2.419-2.594,1.1-2.594-1.1-1.446,2.419-2.743.6.249,2.793-1.845,2.095,1.87,2.095-.274,2.793,2.743.623ZM58.773-877.825ZM57.5-874.234l5.935-5.91-1.272-1.272L57.5-876.778l-2.12-2.095L54.11-877.6Z" transform="translate(-48 888)"/>
</svg>
