<svg xmlns="http://www.w3.org/2000/svg" xmlns:xlink="http://www.w3.org/1999/xlink" width="23.391" height="22.651" viewBox="0 0 23.391 22.651">
  <defs>
    <linearGradient id="linear-gradient" x1="0.09" y1="0.315" x2="0.977" y2="0.844" gradientUnits="objectBoundingBox">
      <stop offset="0.32" stop-color="#e82f8f"/>
      <stop offset="0.6" stop-color="#67b2d4"/>
      <stop offset="0.64" stop-color="#54c7df"/>
    </linearGradient>
  </defs>
  <g id="Layer_1-2" transform="translate(0.001 0.003)">
    <path id="Path_2331" data-name="Path 2331" d="M21.685,6.282,14.126.79h0a4.125,4.125,0,0,0-4.861,0L1.705,6.282A4.125,4.125,0,0,0,.2,10.905l2.888,8.886A4.153,4.153,0,0,0,7.11,22.648h9.344A4.1,4.1,0,0,0,20.3,19.791l2.888-8.886a4.124,4.124,0,0,0-1.5-4.623ZM2.793,7.778l7.559-5.492a2.279,2.279,0,0,1,2.687,0L20.6,7.778a2.281,2.281,0,0,1,.831,2.557l-.219.676L13.651,5.9a3.416,3.416,0,0,0-3.863.012L2.213,11.1l-.25-.769a2.282,2.282,0,0,1,.831-2.557Zm10.262-.023V20.8H10.586V7.755l.183-.172a1.54,1.54,0,0,1,.505-.328,1.5,1.5,0,0,1,1.089,0,1.568,1.568,0,0,1,.479.306l.211.192ZM4.849,19.22,2.807,12.937,8.651,9.014V20.8H7.024a2.281,2.281,0,0,1-2.175-1.579Zm13.693,0A2.28,2.28,0,0,1,16.367,20.8H14.99V8.964l5.625,3.875-2.073,6.381Z" transform="translate(0 0)" fill="url(#linear-gradient)"/>
  </g>
</svg>
