<svg xmlns="http://www.w3.org/2000/svg" width="16.18" height="19.29" viewBox="0 0 16.18 19.29">
  <path id="college-university-icon" d="M7.746,5.6a.262.262,0,1,1,.524,0v1.02h.752a.264.264,0,0,1,0,.526H8.005a.262.262,0,0,1-.262-.262V5.6Zm.64-5.1V3.121l4.1,2.354c.383.248.336.14.336.59V8.287h2.354a1.006,1.006,0,0,1,1,1V19.306H10.625V12.638a2.6,2.6,0,0,0-1.5-2.527,2.558,2.558,0,0,0-2.069,0,2.6,2.6,0,0,0-1.5,2.527V19.31H0V9.284a1,1,0,0,1,1-1H3.357V6.046c0-.443-.028-.333.358-.574L7.934,3.117V.494A.314.314,0,0,1,7.87.315a.289.289,0,1,1,.516.179ZM8.6.605c1.515-1.053,1.628,1.019,3.114-.268v2.1C10.306,3.715,9.992,1.655,8.6,2.7V.6Zm.144,7.636A1.786,1.786,0,1,0,7.336,8.2a1.786,1.786,0,0,0,1.413.039Zm1.2,11.075H6.227V12.638a1.961,1.961,0,0,1,1.1-1.917,1.918,1.918,0,0,1,1.529,0,1.961,1.961,0,0,1,1.1,1.917V19.31Zm1.884-2.372h1.111v.972H11.835v-.979Zm1.8-3.08h1.118v-.972H13.637v.979Zm0-2.026h1.118v-.986H13.637v.979Zm-1.8,2.026h1.111v-.972H11.835v.979Zm0-2.026h1.111v-.986H11.835v.979Zm1.8,3.073h1.118v.979H13.637Zm0,2.026h1.118v.978H13.637v-.979Zm-1.8-2.026h1.111v.979H11.835Zm-10.4,2.026h1.11v.978H1.433v-.979Zm1.8-3.073H4.345v-.972H3.233v.979Zm0-2.026H4.345v-.986H3.233v.979Zm-1.8,2.026h1.11v-.972H1.433v.979Zm0-2.026h1.11v-.986H1.433v.979Zm1.8,3.073H4.345v.979H3.233Zm0,2.026H4.345v.978H3.233v-.979Zm-1.8-2.026h1.11v.979H1.433Z" transform="translate(0 -0.027)" fill-rule="evenodd"/>
</svg>
