<svg xmlns="http://www.w3.org/2000/svg" xmlns:xlink="http://www.w3.org/1999/xlink" width="44.505" height="45" viewBox="0 0 44.505 45">
  <defs>
    <linearGradient id="linear-gradient" x1="0.126" y1="0.165" x2="0.875" y2="0.835" gradientUnits="objectBoundingBox">
      <stop offset="0.24" stop-color="#ee3c96"/>
      <stop offset="0.77" stop-color="#52c7de"/>
    </linearGradient>
  </defs>
  <path id="Path_2393" data-name="Path 2393" d="M41.306,22.5c0-.541-.024-1.077-.068-1.606A23.744,23.744,0,0,0,44.5,19.157a22.324,22.324,0,0,0-.75-3.3,23.635,23.635,0,0,0-3.7-.148,18.974,18.974,0,0,0-1.4-2.9,23.731,23.731,0,0,0,2.188-2.98,22.648,22.648,0,0,0-2.113-2.646,23.755,23.755,0,0,0-3.392,1.47,19.2,19.2,0,0,0-2.511-2.005,23.7,23.7,0,0,0,.679-3.637,22.357,22.357,0,0,0-3.046-1.47,23.705,23.705,0,0,0-2.42,2.8,19,19,0,0,0-3.136-.713A23.777,23.777,0,0,0,23.945.063Q23.106,0,22.252,0T20.56.063a23.753,23.753,0,0,0-.965,3.569,18.919,18.919,0,0,0-3.136.712,23.705,23.705,0,0,0-2.42-2.8,22.358,22.358,0,0,0-3.046,1.47,23.717,23.717,0,0,0,.679,3.637A19.1,19.1,0,0,0,9.159,8.658,23.852,23.852,0,0,0,5.768,7.188,22.648,22.648,0,0,0,3.655,9.833a23.783,23.783,0,0,0,2.188,2.98,18.94,18.94,0,0,0-1.4,2.9,23.722,23.722,0,0,0-3.7.148,22.415,22.415,0,0,0-.75,3.3,23.679,23.679,0,0,0,3.267,1.737c-.044.53-.068,1.065-.068,1.607s.024,1.076.068,1.606A23.744,23.744,0,0,0,0,25.843a22.324,22.324,0,0,0,.75,3.3,23.723,23.723,0,0,0,3.7.148,18.908,18.908,0,0,0,1.4,2.9,23.731,23.731,0,0,0-2.188,2.98,22.648,22.648,0,0,0,2.113,2.646,23.755,23.755,0,0,0,3.392-1.47,19.2,19.2,0,0,0,2.511,2.005,23.8,23.8,0,0,0-.679,3.637,22.357,22.357,0,0,0,3.046,1.47,23.705,23.705,0,0,0,2.42-2.8,18.928,18.928,0,0,0,3.136.713,23.777,23.777,0,0,0,.965,3.569Q21.4,45,22.253,45t1.693-.063a23.777,23.777,0,0,0,.965-3.569,18.92,18.92,0,0,0,3.136-.712,23.705,23.705,0,0,0,2.42,2.8,22.357,22.357,0,0,0,3.046-1.47,23.71,23.71,0,0,0-.679-3.636,19.156,19.156,0,0,0,2.511-2.005,23.752,23.752,0,0,0,3.391,1.47,22.529,22.529,0,0,0,2.113-2.646,23.782,23.782,0,0,0-2.188-2.979,18.94,18.94,0,0,0,1.4-2.9,23.634,23.634,0,0,0,3.7-.148,22.324,22.324,0,0,0,.75-3.3,23.666,23.666,0,0,0-3.267-1.737c.044-.53.068-1.065.068-1.606ZM22.252,38.6a16.1,16.1,0,1,1,16.1-16.1A16.1,16.1,0,0,1,22.252,38.6Z" transform="translate(0 0)" fill="url(#linear-gradient)"/>
</svg>
