<svg xmlns="http://www.w3.org/2000/svg" width="17.596" height="17.596" viewBox="0 0 17.596 17.596">
  <path id="schedule_20dp_FILL0_wght400_GRAD0_opsz20" d="M107.868-851.307l1.168-1.168-3.414-3.414V-860.7h-1.65v5.5Zm-3.07,4.9a8.564,8.564,0,0,1-3.418-.687,8.881,8.881,0,0,1-2.8-1.89,8.871,8.871,0,0,1-1.89-2.806A8.6,8.6,0,0,1,96-855.213a8.6,8.6,0,0,1,.687-3.426,8.732,8.732,0,0,1,1.89-2.8,8.968,8.968,0,0,1,2.806-1.879,8.6,8.6,0,0,1,3.425-.687,8.548,8.548,0,0,1,3.426.693,8.877,8.877,0,0,1,2.79,1.881,8.887,8.887,0,0,1,1.878,2.793,8.574,8.574,0,0,1,.692,3.431,8.565,8.565,0,0,1-.687,3.418,8.978,8.978,0,0,1-1.879,2.8,8.724,8.724,0,0,1-2.8,1.89A8.637,8.637,0,0,1,104.8-846.4ZM104.8-855.2Zm.011,7.148a6.863,6.863,0,0,0,5.052-2.1,6.917,6.917,0,0,0,2.085-5.063,6.881,6.881,0,0,0-2.085-5.052,6.881,6.881,0,0,0-5.052-2.085,6.917,6.917,0,0,0-5.063,2.085,6.863,6.863,0,0,0-2.1,5.052,6.9,6.9,0,0,0,2.1,5.063A6.9,6.9,0,0,0,104.809-848.054Z" transform="translate(-96 864)"/>
</svg>
