<svg width="56" height="56" viewBox="0 0 56 56" fill="none" xmlns="http://www.w3.org/2000/svg">
<path d="M20.9996 21V46.6667H37.333V39.6667C37.333 39.0055 37.557 38.4518 38.005 38.0053C38.453 37.5589 39.0067 37.3349 39.6663 37.3333H46.6663V21H20.9996ZM16.333 46.6667V20.9417C16.333 19.6583 16.7996 18.5694 17.733 17.675C18.6663 16.7805 19.7746 16.3333 21.058 16.3333H46.6663C47.9496 16.3333 49.0486 16.7899 49.9633 17.703C50.878 18.6161 51.3345 19.7151 51.333 21V37.7417C51.333 38.3639 51.2163 38.9573 50.983 39.522C50.7496 40.0867 50.4191 40.5821 49.9913 41.0083L41.008 49.9917C40.5802 50.4194 40.084 50.75 39.5193 50.9833C38.9546 51.2167 38.362 51.3333 37.7413 51.3333H20.9996C19.7163 51.3333 18.6181 50.8768 17.705 49.9637C16.7918 49.0505 16.3345 47.9515 16.333 46.6667ZM4.72463 14.5833C4.49129 13.3 4.74407 12.1434 5.48296 11.1137C6.22185 10.0839 7.23296 9.45154 8.51629 9.21666L33.833 4.72499C35.0774 4.49166 36.2052 4.75454 37.2163 5.51365C38.2274 6.27277 38.8885 7.27377 39.1996 8.51666L39.608 10.325C39.8024 11.1028 39.6857 11.725 39.258 12.1917C38.8302 12.6583 38.3246 12.9305 37.7413 13.0083C37.158 13.0861 36.6042 12.9795 36.08 12.6887C35.5557 12.3978 35.1956 11.8627 34.9996 11.0833L34.5913 9.33332L9.33296 13.825L12.833 33.8917C12.9496 34.5528 12.833 35.1454 12.483 35.6697C12.133 36.1939 11.6274 36.5151 10.9663 36.6333C10.3052 36.7515 9.72185 36.6255 9.21629 36.2553C8.71074 35.8851 8.39962 35.3694 8.28296 34.7083L4.72463 14.5833Z" fill="#AEAEAE"/>
</svg>
