<svg width="20" height="20" viewBox="0 0 20 20" fill="none" xmlns="http://www.w3.org/2000/svg">
<path d="M8.17301 15.9933V12.8483C7.43245 12.7956 6.70051 12.7206 5.97717 12.6233C5.25384 12.5261 4.53579 12.3956 3.82301 12.2317C3.69412 12.1983 3.5869 12.1333 3.50134 12.0367C3.41579 11.9406 3.39162 11.8306 3.42884 11.7067C3.46662 11.5828 3.54217 11.4919 3.65551 11.4342C3.76884 11.3764 3.89051 11.3647 4.02051 11.3992C5.00217 11.6242 5.99273 11.7839 6.99217 11.8783C7.99162 11.9728 8.99412 12.0197 9.99967 12.0192C11.0052 12.0186 12.008 11.9714 13.008 11.8775C14.008 11.7836 14.9983 11.6242 15.9788 11.3992C16.1116 11.3647 16.2338 11.3758 16.3455 11.4325C16.4577 11.4892 16.5327 11.5781 16.5705 11.6992C16.6077 11.8281 16.5827 11.9406 16.4955 12.0367C16.4083 12.1328 16.3 12.1981 16.1705 12.2325C15.4477 12.3958 14.7266 12.5261 14.0072 12.6233C13.2877 12.7206 12.5608 12.7969 11.8263 12.8525V15.9942C11.8263 16.1847 11.7619 16.3444 11.633 16.4733C11.5041 16.6022 11.3441 16.6667 11.153 16.6667H8.84634C8.65523 16.6667 8.49523 16.6022 8.36634 16.4733C8.23745 16.3439 8.17301 16.1839 8.17301 15.9933ZM10.0022 10.6733C9.60329 10.6733 9.26801 10.5386 8.99634 10.2692C8.72523 9.99972 8.58967 9.66583 8.58967 9.2675C8.58967 8.88083 8.7244 8.54833 8.99384 8.27C9.26329 7.99167 9.59717 7.8525 9.99551 7.8525C10.3822 7.8525 10.7144 7.99056 10.9922 8.26667C11.2705 8.54222 11.4097 8.87361 11.4097 9.26083C11.4097 9.65972 11.2719 9.99472 10.9963 10.2658C10.7208 10.5369 10.3894 10.6728 10.0022 10.6733ZM4.16634 8.33333C3.93301 8.33333 3.73579 8.25278 3.57467 8.09167C3.41356 7.93056 3.33301 7.73194 3.33301 7.49583C3.33301 7.26917 3.41356 7.07417 3.57467 6.91083C3.73579 6.74806 3.93467 6.66667 4.17134 6.66667C4.39856 6.66667 4.59356 6.74778 4.75634 6.91C4.91856 7.07167 4.99967 7.26833 4.99967 7.5C4.99967 7.73333 4.91856 7.93056 4.75634 8.09167C4.59467 8.25278 4.39801 8.33333 4.16634 8.33333ZM15.833 8.33333C15.5997 8.33333 15.4025 8.25278 15.2413 8.09167C15.0802 7.93056 14.9997 7.73194 14.9997 7.49583C14.9997 7.26917 15.0802 7.07417 15.2413 6.91083C15.4025 6.74806 15.6011 6.66667 15.8372 6.66667C16.0644 6.66667 16.2594 6.74778 16.4222 6.91C16.585 7.07167 16.6663 7.26833 16.6663 7.5C16.6663 7.73333 16.5852 7.93056 16.423 8.09167C16.2613 8.25278 16.0647 8.33333 15.833 8.33333ZM6.20134 5.28833C5.96856 5.28833 5.77134 5.20778 5.60967 5.04667C5.44856 4.88556 5.36801 4.68694 5.36801 4.45083C5.36801 4.22417 5.44856 4.02944 5.60967 3.86667C5.77134 3.70333 5.97023 3.62167 6.20634 3.62167C6.43301 3.62167 6.62773 3.70278 6.79051 3.865C6.95329 4.02722 7.03467 4.22389 7.03467 4.455C7.03467 4.68833 6.95384 4.88556 6.79217 5.04667C6.62995 5.20778 6.43301 5.28833 6.20134 5.28833ZM13.798 5.28833C13.5647 5.28833 13.3675 5.20778 13.2063 5.04667C13.0452 4.88556 12.9647 4.68694 12.9647 4.45083C12.9647 4.22417 13.0452 4.02944 13.2063 3.86667C13.3675 3.70333 13.5661 3.62167 13.8022 3.62167C14.0288 3.62167 14.2238 3.70278 14.3872 3.865C14.55 4.02722 14.6313 4.22389 14.6313 4.455C14.6313 4.68833 14.5502 4.88556 14.388 5.04667C14.2258 5.20778 14.0291 5.28833 13.798 5.28833ZM9.99967 4.16667C9.76634 4.16667 9.56912 4.08611 9.40801 3.925C9.2469 3.76389 9.16634 3.56528 9.16634 3.32917C9.16634 3.10194 9.2469 2.90694 9.40801 2.74417C9.56912 2.58139 9.76801 2.5 10.0047 2.5C10.2313 2.5 10.4263 2.58111 10.5897 2.74333C10.7519 2.905 10.833 3.10167 10.833 3.33333C10.833 3.56667 10.7519 3.76389 10.5897 3.925C10.428 4.08611 10.2313 4.16667 9.99967 4.16667Z" fill="black"/>
</svg>
