<svg id="USER_REPORT_HOVER_THICK" data-name="USER REPORT HOVER THICK" xmlns="http://www.w3.org/2000/svg" width="21.549" height="22" viewBox="0 0 21.549 22">
  <path id="Path_2395" data-name="Path 2395" d="M22.782,27.447H11.915a1.474,1.474,0,0,1-1.248-.687,1.44,1.44,0,0,1-.1-1.4,7.352,7.352,0,0,1,6.246-4.518h.118a4.186,4.186,0,0,0,.8,0h.118a7.076,7.076,0,0,1,6.312,4.577A1.477,1.477,0,0,1,22.8,27.455Zm-5.936-5.131A5.962,5.962,0,0,0,11.9,25.978H22.774v-.007A5.651,5.651,0,0,0,17.8,22.317a5.209,5.209,0,0,1-.96,0Z" transform="translate(-2.73 -5.455)"/>
  <g id="Group_4694" data-name="Group 4694">
    <path id="Path_2396" data-name="Path 2396" d="M22.214,25.31a1.727,1.727,0,0,1-.244.362" transform="translate(-5.751 -6.625)" fill="none"/>
    <path id="Path_2397" data-name="Path 2397" d="M16.611,1.528V5.338a5.638,5.638,0,0,0-1.27-.332l-.118-.015s-.059-.007-.089-.015V1.528L1.528,1.477,1.477,18.036l5.7.022c-.177.273-.34.554-.487.827l-.1.214-.074.148-.015.022v.03a1.355,1.355,0,0,0-.111.266H1.528A1.531,1.531,0,0,1,0,18.036V1.528A1.531,1.531,0,0,1,1.528,0H15.083A1.531,1.531,0,0,1,16.611,1.528Z"/>
    <path id="Path_2398" data-name="Path 2398" d="M10.087,10.4c-.044.185-.074.369-.1.561H3.62V4.12h.561V10.4Z" transform="translate(-0.948 -1.078)"/>
    <path id="Path_2399" data-name="Path 2399" d="M10.387,7.814,8.91,9.291l-.524.524-.524-.524L6.91,8.338,5.064,10.184,4.54,9.66,6.91,7.29,8.386,8.767,9.863,7.29Z" transform="translate(-1.188 -1.908)"/>
    <path id="Path_2400" data-name="Path 2400" d="M10.159,16.238H3.5V15.5H9.989a5.091,5.091,0,0,0,.17.738Z" transform="translate(-0.916 -4.057)"/>
    <path id="Path_2401" data-name="Path 2401" d="M10.853,18.238H3.5V17.5h6.94A5.554,5.554,0,0,0,10.853,18.238Z" transform="translate(-0.916 -4.581)"/>
    <rect id="Rectangle_2609" data-name="Rectangle 2609" width="5.906" height="0.738" transform="translate(2.584 14.396)"/>
    <path id="Path_2402" data-name="Path 2402" d="M22.419,12.654a4.07,4.07,0,0,0-2.1-3.426,4.2,4.2,0,0,0-1.477-.487,4.3,4.3,0,0,0-.539-.052,4.148,4.148,0,0,0-4.127,4.127,4.033,4.033,0,0,0,.377,1.72,4.121,4.121,0,0,0,3.75,2.407,4.406,4.406,0,0,0,.539-.037,4.143,4.143,0,0,0,3.588-4.09A.725.725,0,0,0,22.419,12.654ZM20.728,13.88a2.54,2.54,0,0,1-.406.65,2.653,2.653,0,0,1-1.477.879,2.62,2.62,0,0,1-.539.059,2.65,2.65,0,1,1,0-5.3,2.664,2.664,0,0,1,2.643,2.577v.1a2.511,2.511,0,0,1-.221,1.041Z" transform="translate(-3.712 -2.275)"/>
  </g>
</svg>
