<svg width="20" height="20" viewBox="0 0 20 20" fill="none" xmlns="http://www.w3.org/2000/svg">
<g clip-path="url(#clip0_3594_21297)">
<path d="M14.2845 10.9905H13.4169L12.5314 17.4168H13.399L14.2845 10.9905ZM13.1206 0.693416L17.0272 1.35428C17.1037 1.3673 17.1656 1.40962 17.2063 1.46659C17.2469 1.52356 17.2665 1.59681 17.2535 1.67169L16.1108 8.42842H16.3842C16.4363 8.43167 16.4803 8.43493 16.534 8.44307C16.7163 8.474 16.884 8.56189 17.0126 8.6856C17.1607 8.8321 17.2567 9.02743 17.2616 9.24554C17.2616 9.29112 17.2567 9.33832 17.2535 9.3839L16.1824 19.108C16.1678 19.2578 16.1433 19.3929 16.0668 19.5345C15.9187 19.8096 15.6453 20 15.3067 20H4.77849C4.69873 20 4.62548 20 4.54572 19.9886C4.51316 19.9837 4.48224 19.9772 4.45294 19.9674C4.40736 19.9544 4.36179 19.9365 4.31946 19.917C4.2804 19.8975 4.24296 19.8779 4.20552 19.8519C3.98415 19.7005 3.83928 19.4449 3.81161 19.1617L2.7487 9.35135C2.74544 9.31554 2.74219 9.27484 2.74219 9.23903C2.7487 9.02254 2.84473 8.83047 2.99123 8.6856C3.11982 8.56027 3.29236 8.47074 3.47792 8.44144C3.49909 8.43819 3.52025 8.43656 3.54303 8.43493L3.08076 5.2934L3.03844 5.29991L3.11006 5.07528L4.14204 1.81981L4.22994 1.54147L4.40085 1.77912L6.42413 4.58533L6.56574 4.78066L6.51691 4.78717L7.06546 8.43005H8.46368L8.38067 7.91405C9.13268 7.99707 9.84075 7.93847 10.5016 7.71873L10.5211 8.43005H11.532L12.8032 0.921299C12.8162 0.844795 12.8586 0.782941 12.9155 0.742248C12.9725 0.699927 13.0458 0.680394 13.1206 0.693416ZM14.8037 8.43005L14.7354 8.41865C14.597 8.39587 14.501 8.2803 14.5205 8.16147C14.54 8.04265 14.6702 7.96452 14.8086 7.98893L15.6485 8.13054L15.8699 6.81859L14.0973 6.51908C13.9589 6.4963 13.8629 6.38073 13.8824 6.2619C13.9019 6.14308 14.0322 6.06495 14.1705 6.08936L15.9431 6.38887L16.1775 5.00855L15.3376 4.8653C15.1993 4.84252 15.1032 4.72695 15.1228 4.60812C15.1423 4.4893 15.2725 4.41117 15.4109 4.43558L16.2508 4.5772L16.4803 3.21315L14.7061 2.91039C14.5677 2.8876 14.4733 2.77204 14.4928 2.65321C14.5124 2.53439 14.6409 2.45788 14.7793 2.48067L16.5519 2.78017L16.7147 1.81655L13.2639 1.2322L12.0463 8.42842H14.8037V8.43005ZM4.75407 2.76878L4.11925 2.86156L3.46002 4.93855L6.04324 4.55766L4.75407 2.76878ZM8.68017 0C8.8934 1.28754 10.6725 1.91422 10.2102 3.32221C10.0882 3.69659 9.77564 4.06283 9.39312 4.21909C9.23848 4.28257 9.07571 4.31187 8.90968 4.29397C8.83643 4.28583 8.76318 4.26955 8.68831 4.24514C7.76375 3.93424 7.54889 2.86156 7.72632 2.00374C7.88746 1.21266 8.34648 0.48181 8.68017 0ZM8.60692 4.84903C8.88526 4.93204 9.37359 4.94181 9.69262 4.73834L10.4528 7.34598C9.7268 7.58688 9.00246 7.69106 8.28463 7.56084C8.43601 6.5256 8.5467 5.91845 8.60692 4.84903ZM10.5749 10.9905H9.70564V17.4168H10.5749V10.9905ZM6.86687 10.9905H5.99766L6.88315 17.4168H7.75236L6.86687 10.9905ZM16.3729 9.20811H3.63907C3.55606 9.20811 3.51699 9.22276 3.5235 9.31065L4.58641 19.0917V19.0933C4.5913 19.1487 4.61571 19.1943 4.65152 19.2154L4.66292 19.2203L4.67106 19.2219H4.68245H15.3034C15.3913 19.2219 15.4011 19.0999 15.4076 19.0348L16.4803 9.30414C16.4868 9.22927 16.4428 9.20811 16.3729 9.20811Z" fill="black"/>
</g>
<defs>
<clipPath id="clip0_3594_21297">
<rect width="20" height="20" fill="white"/>
</clipPath>
</defs>
</svg>
