<svg width="20" height="20" viewBox="0 0 20 20" fill="none" xmlns="http://www.w3.org/2000/svg">
<path d="M10.0013 10C11.8423 10 13.3346 8.50766 13.3346 6.66671C13.3346 4.82576 11.8423 3.33337 10.0013 3.33337C8.16035 3.33337 6.66797 4.82576 6.66797 6.66671C6.66797 8.50766 8.16035 10 10.0013 10Z" stroke="black" stroke-width="1.5" stroke-linecap="round" stroke-linejoin="round"/>
<path d="M4.16797 16.6667V15.8333C4.16797 12.6117 6.77964 10 10.0013 10C10.896 10 11.7436 10.2014 12.5013 10.5614" stroke="black" stroke-width="1.5" stroke-linecap="round" stroke-linejoin="round"/>
<path d="M13.8638 13.6792L14.7296 11.8434C14.8408 11.6077 15.1619 11.6077 15.273 11.8434L16.1388 13.6792L18.0751 13.9755C18.3236 14.0135 18.4226 14.3331 18.2427 14.5164L16.8419 15.9444L17.1725 17.9619C17.2149 18.2209 16.9551 18.4185 16.7328 18.2961L15.0013 17.3431L13.2698 18.2961C13.0475 18.4185 12.7877 18.2209 12.8301 17.9619L13.1607 15.9444L11.7599 14.5164C11.58 14.3331 11.679 14.0135 11.9275 13.9755L13.8638 13.6792Z" stroke="black" stroke-width="1.5" stroke-linecap="round" stroke-linejoin="round"/>
</svg>
