<svg width="36" height="36" viewBox="0 0 36 36" fill="none" xmlns="http://www.w3.org/2000/svg">
<circle cx="18" cy="18" r="18" fill="#E2E6EC"/>
<path d="M16.334 15.5083L16.3423 15.4991" stroke="black" stroke-width="1.5" stroke-linecap="round" stroke-linejoin="round"/>
<path d="M19.666 15.5083L19.6743 15.4991" stroke="black" stroke-width="1.5" stroke-linecap="round" stroke-linejoin="round"/>
<path d="M16.334 18.8413L16.3423 18.8321" stroke="black" stroke-width="1.5" stroke-linecap="round" stroke-linejoin="round"/>
<path d="M19.666 18.8413L19.6743 18.8321" stroke="black" stroke-width="1.5" stroke-linecap="round" stroke-linejoin="round"/>
<path d="M16.334 22.1753L16.3423 22.1661" stroke="black" stroke-width="1.5" stroke-linecap="round" stroke-linejoin="round"/>
<path d="M19.666 22.1753L19.6743 22.1661" stroke="black" stroke-width="1.5" stroke-linecap="round" stroke-linejoin="round"/>
<path d="M13 24.9V12.7667C13 12.4353 13.2686 12.1667 13.6 12.1667H18V11.1C18 10.7686 18.2686 10.5 18.6 10.5H22.4C22.7314 10.5 23 10.7686 23 11.1V24.9C23 25.2314 22.7314 25.5 22.4 25.5H13.6C13.2686 25.5 13 25.2314 13 24.9Z" stroke="black" stroke-width="1.5" stroke-linecap="round" stroke-linejoin="round"/>
</svg>
