<?xml version="1.0" encoding="utf-8"?>
<!-- Generator: Adobe Illustrator 28.1.0, SVG Export Plug-In . SVG Version: 6.00 Build 0)  -->
<svg version="1.1" id="Layer_1" xmlns="http://www.w3.org/2000/svg" xmlns:xlink="http://www.w3.org/1999/xlink" x="0px" y="0px"
	 viewBox="0 0 100 100" style="enable-background:new 0 0 100 100;" xml:space="preserve">
<style type="text/css">
	.st0{fill:url(#Community_Icon_-_Black_00000083810606253675567650000018222951810796366242_);}
</style>
<linearGradient id="Community_Icon_-_Black_00000137119869084986628060000002754335672897489549_" gradientUnits="userSpaceOnUse" x1="-621.0337" y1="423.294" x2="-621.0337" y2="421.9004" gradientTransform="matrix(35.714 0 0 -25 22226.2461 10620)">
	<stop  offset="0" style="stop-color:#51C7DF"/>
	<stop  offset="1" style="stop-color:#F2359D"/>
</linearGradient>
<path id="Community_Icon_-_Black" style="fill:url(#Community_Icon_-_Black_00000137119869084986628060000002754335672897489549_);" d="
	M29.2,52.6c2.7,0,5-2.2,5-5c0-2.7-2.2-5-5-5s-5,2.2-5,5l0,0C24.3,50.4,26.5,52.6,29.2,52.6z M64.1,52.6c2.7,0,5-2.2,5-5
	c0-2.7-2.2-5-5-5c-2.7,0-5,2.2-5,5C59.1,50.4,61.3,52.6,64.1,52.6z M66.6,55.1h-5c-1.3,0-2.6,0.5-3.5,1.4c3.2,1.7,5.4,4.9,5.8,8.5
	H69c1.4,0,2.5-1.1,2.5-2.5c0,0,0,0,0,0V60C71.5,57.3,69.3,55.1,66.6,55.1z M46.7,55.1c4.8,0,8.7-3.9,8.7-8.7s-3.9-8.7-8.7-8.7
	s-8.7,3.9-8.7,8.7C37.9,51.2,41.8,55.1,46.7,55.1C46.6,55.1,46.6,55.1,46.7,55.1z M52.6,57.6H52c-3.4,1.7-7.3,1.7-10.7,0h-0.6
	c-4.9,0-9,4-9,9v2.2c0,2.1,1.7,3.7,3.7,3.7h22.4c2.1,0,3.7-1.7,3.7-3.7v-2.2C61.6,61.6,57.6,57.6,52.6,57.6z M35.2,56.5
	c-0.9-0.9-2.2-1.4-3.5-1.4h-5c-2.7,0-5,2.2-5,5v2.5c0,1.4,1.1,2.5,2.5,2.5c0,0,0,0,0,0h5.1C29.9,61.4,32,58.3,35.2,56.5z"/>
</svg>
