<?xml version="1.0" encoding="utf-8"?>
<!-- Generator: Adobe Illustrator 28.1.0, SVG Export Plug-In . SVG Version: 6.00 Build 0)  -->
<svg version="1.1" id="Layer_1" xmlns="http://www.w3.org/2000/svg" xmlns:xlink="http://www.w3.org/1999/xlink" x="0px" y="0px"
	 viewBox="0 0 100 100" style="enable-background:new 0 0 100 100;" xml:space="preserve">
<style type="text/css">
	.st0{clip-path:url(#SVGID_00000041269583603554035560000009015035235260453532_);}
	.st1{clip-path:url(#SVGID_00000055671781981180345820000007190048120948497050_);}
	.st2{fill:url(#Path_398_00000047019913653380374560000003339601922144386444_);}
	.st3{fill:url(#Path_399_00000072990644409213123640000009429377664571169169_);}
	.st4{fill:#FFFFFF;}
	.st5{fill:url(#Path_401_00000119805801216582657850000008818747230350869395_);}
	.st6{fill:url(#Path_402_00000172418342249381535740000005631888921274181286_);}
	.st7{fill:#E2E1E2;}
	.st8{clip-path:url(#SVGID_00000098182115677070564700000012681450137894060181_);}
	.st9{clip-path:url(#SVGID_00000041270400216406069490000015031169410741023634_);}
	.st10{fill:url(#Rectangle_1418_00000106119131522060887890000006754145218304679834_);}
	.st11{fill:#BCBCBC;}
	.st12{fill:#231F20;}
	.st13{clip-path:url(#SVGID_00000093870654511728253160000000188674321692016773_);}
	.st14{clip-path:url(#SVGID_00000103228784537512478760000005340335814971765691_);}
	.st15{fill:url(#Rectangle_1420_00000160157666144080153630000007018822771098626215_);}
	.st16{clip-path:url(#SVGID_00000003089463123972781250000004174265804234625184_);}
	.st17{fill:url(#Rectangle_1423_00000048460269628128732080000014949709991103908003_);}
</style>
<g id="Group_1765">
	<g>
		<defs>
			<rect id="SVGID_1_" x="20.7" y="14.3" width="59.4" height="71.6"/>
		</defs>
		<clipPath id="SVGID_00000031183270269392538050000004109473756421633430_">
			<use xlink:href="#SVGID_1_"  style="overflow:visible;"/>
		</clipPath>
		<g id="Group_1764" style="clip-path:url(#SVGID_00000031183270269392538050000004109473756421633430_);">
			<g id="Group_1761">
				<g>
					<defs>
						<rect id="SVGID_00000165920397946369601970000009880071351097810879_" x="20.7" y="14.3" width="59.4" height="71.6"/>
					</defs>
					<clipPath id="SVGID_00000037675885373938539690000013345343443188560018_">
						<use xlink:href="#SVGID_00000165920397946369601970000009880071351097810879_"  style="overflow:visible;"/>
					</clipPath>
					<g id="Group_1760" style="clip-path:url(#SVGID_00000037675885373938539690000013345343443188560018_);">
						
							<linearGradient id="Path_398_00000150794030707561934160000013243450740920659381_" gradientUnits="userSpaceOnUse" x1="-586.2018" y1="373.4456" x2="-586.2018" y2="371.0495" gradientTransform="matrix(8.1991 0 0 -4.7654 4836.8193 1835.1667)">
							<stop  offset="0" style="stop-color:#51C7DF"/>
							<stop  offset="1" style="stop-color:#F2359D"/>
						</linearGradient>
						<path id="Path_398" style="fill:url(#Path_398_00000150794030707561934160000013243450740920659381_);" d="M27.7,56
							c8.3,2.3,10.3,1.6,11.7,3.9c0.6,0.9,0.9,2.1,0.9,3.2c-0.1,1.1-0.6,2.1-1.3,2.8c-2.8,2.8-10.7-0.6-15.1-4.3
							c-1-0.8-3.6-3-3.1-4.5c0.3-0.6,0.8-1,1.4-1.2C23.9,55.4,25.9,55.4,27.7,56"/>
						
							<linearGradient id="Path_399_00000008831444571122733410000004590386434561773239_" gradientUnits="userSpaceOnUse" x1="-614.8436" y1="419.6459" x2="-614.8436" y2="417.2498" gradientTransform="matrix(23.065 0 0 -17.54 14233.7979 7374.8994)">
							<stop  offset="0" style="stop-color:#51C7DF"/>
							<stop  offset="1" style="stop-color:#F2359D"/>
						</linearGradient>
						<path id="Path_399" style="fill:url(#Path_399_00000008831444571122733410000004590386434561773239_);" d="M80.1,43.6
							c0,7-5.7,12.7-12.7,12.7H37.5c-7,0-12.7-5.7-12.7-12.7V37c0-12.5,10.2-22.6,22.7-22.7h9.9C69.9,14.3,80,24.5,80.1,37V43.6z"/>
						<path id="Path_400" class="st4" d="M71.4,42.4L71.4,42.4c-0.7,0.4-1.5,0.5-2.4,0.5H35.8c-0.8,0-1.6-0.2-2.4-0.5
							c-1.7-0.8-2.7-2.6-2.5-4.5l0-0.1c1.2-6.4,6.7-11.2,13.3-11.3c2.9-0.2,5.9-0.2,9.1-0.2c2.5,0,4.9,0.1,7.2,0.2
							c6.6,0.1,12.2,4.8,13.3,11.3l0,0.1C74.1,39.8,73.1,41.6,71.4,42.4"/>
						
							<linearGradient id="Path_401_00000080884885276590169530000015820539579555415462_" gradientUnits="userSpaceOnUse" x1="-606.4799" y1="409.981" x2="-606.4799" y2="407.5848" gradientTransform="matrix(15.387 0 0 -11.7758 9385.7383 4885.6084)">
							<stop  offset="0" style="stop-color:#51C7DF"/>
							<stop  offset="1" style="stop-color:#F2359D"/>
						</linearGradient>
						<path id="Path_401" style="fill:url(#Path_401_00000080884885276590169530000015820539579555415462_);" d="M72.2,64.2
							c0,0.1,0,0.1,0,0.2c0,0.5-0.1,1-0.3,1.5c-1.3,4.8-3.2,9.3-5.6,13.6c-0.3,0.5-0.7,1-1.1,1.5c-0.5,0.6-1,1.3-1.6,1.9
							c-1.1,1.1-2.5,1.9-4,2.3c-1.9,0.6-3.9,0.8-5.8,0.7h-0.2c-2,0.1-3.9-0.1-5.8-0.7c-1.5-0.4-2.9-1.2-4-2.3c-3.6-4-5-7.3-8.2-17
							c-0.2-0.4-0.2-0.9-0.3-1.4c0-0.2,0-0.4,0-0.6c0.1-1.2,0.6-2.4,1.4-3.4c1.5-1.8,3.7-2.8,6-2.8l11.1,0l10.9,0
							c2.4,0,4.6,1,6.1,2.8c0.7,0.8,1.2,1.8,1.4,2.8c0,0.1,0,0.3,0.1,0.4C72.2,63.9,72.2,64.1,72.2,64.2"/>
						
							<linearGradient id="Path_402_00000009588727406225462860000003382874014460759743_" gradientUnits="userSpaceOnUse" x1="-527.7725" y1="400.4296" x2="-527.7725" y2="398.0334" gradientTransform="matrix(3.7959 0 0 -8.5595 2072.1965 3487.4497)">
							<stop  offset="0" style="stop-color:#51C7DF"/>
							<stop  offset="1" style="stop-color:#F2359D"/>
						</linearGradient>
						<path id="Path_402" style="fill:url(#Path_402_00000009588727406225462860000003382874014460759743_);" d="M64.8,74.1
							c-0.2-8.6-1.3-10.3,0.4-12.3c0.7-0.9,1.7-1.5,2.9-1.7c1.1-0.2,2.1,0,3.1,0.5c3.4,1.9,2.4,10.4,0.2,15.7
							c-0.5,1.2-1.8,4.3-3.4,4.2c-0.6-0.1-1.1-0.5-1.5-1C65.2,77.9,64.7,76,64.8,74.1"/>
						<path id="Path_403" class="st7" d="M66.4,79.5c-0.3,0.5-0.7,1-1.1,1.5c-0.1-0.1-0.2-0.2-0.3-0.4c-1.1-1.5-1.7-3.5-1.6-5.4
							c-0.2-8.6-1.3-10.3,0.4-12.3c0.4-0.5,0.8-0.8,1.3-1.2c-1.7,2-0.5,3.8-0.4,12.3C64.7,76,65.2,77.9,66.4,79.5
							C66.4,79.5,66.4,79.5,66.4,79.5"/>
						<path id="Path_404" class="st7" d="M61.3,64.2l-1.9-1.4l0,0c-0.4-0.3-0.9-0.3-1.2,0l-1.9,1.4c-0.4,0.3-0.5,0.7-0.4,1.2
							l0.7,2.2c0.1,0.4,0.6,0.7,1,0.7H60c0.4,0,0.8-0.3,1-0.7l0.7-2.2C61.8,64.9,61.7,64.5,61.3,64.2 M56.6,64.6l1.9-1.4
							c0.2-0.1,0.5-0.1,0.7,0l1.9,1.4c0.2,0.1,0.3,0.4,0.2,0.6l-0.1,0.2l-1.9-1.3c-0.3-0.2-0.7-0.2-1,0l-1.9,1.3l-0.1-0.2
							C56.3,65,56.4,64.7,56.6,64.6 M59.2,64.6v3.3h-0.6v-3.3l0,0c0,0,0.1-0.1,0.1-0.1c0.1,0,0.2,0,0.3,0
							C59.1,64.5,59.1,64.5,59.2,64.6L59.2,64.6z M57.1,67.5l-0.5-1.6l1.5-1v3h-0.4C57.4,67.9,57.2,67.7,57.1,67.5 M60.6,67.5
							c-0.1,0.2-0.3,0.4-0.5,0.4h-0.3v-3l1.4,1L60.6,67.5z"/>
						<g id="Group_1754" transform="translate(6.993 6.16)">
							<g id="Group_1753">
								<g>
									<defs>
										<rect id="SVGID_00000019646921569121923090000010130458096119234466_" x="30.4" y="22.9" width="12.5" height="12.5"/>
									</defs>
									<clipPath id="SVGID_00000130634987107757861800000013676796957791802298_">
										<use xlink:href="#SVGID_00000019646921569121923090000010130458096119234466_"  style="overflow:visible;"/>
									</clipPath>
									<g id="Group_1752" style="clip-path:url(#SVGID_00000130634987107757861800000013676796957791802298_);">
										<g id="Group_1751" transform="translate(0 0)">
											<g>
												<defs>
													<path id="SVGID_00000116198052271164871130000001253595768833507728_" d="M43,29.2c0,3.5-2.8,6.3-6.3,6.3
														c-3.5,0-6.3-2.8-6.3-6.3s2.8-6.3,6.3-6.3C40.2,22.9,43,25.7,43,29.2L43,29.2"/>
												</defs>
												<clipPath id="SVGID_00000144320591616934438640000004257896239953462442_">
													<use xlink:href="#SVGID_00000116198052271164871130000001253595768833507728_"  style="overflow:visible;"/>
												</clipPath>
												<g id="Group_1750" style="clip-path:url(#SVGID_00000144320591616934438640000004257896239953462442_);">
													
														<radialGradient id="Rectangle_1418_00000023993034751235531860000011158244687542490534_" cx="-565.8708" cy="493.5766" r="1.1861" gradientTransform="matrix(5.22 0 0 5.22 2990.5432 -2446.0793)" gradientUnits="userSpaceOnUse">
														<stop  offset="0" style="stop-color:#3280FC"/>
														<stop  offset="0.13" style="stop-color:#3280FC"/>
														<stop  offset="1" style="stop-color:#000000"/>
													</radialGradient>
													
														<rect id="Rectangle_1418" x="30.4" y="22.9" style="fill:url(#Rectangle_1418_00000023993034751235531860000011158244687542490534_);" width="12.5" height="12.5"/>
												</g>
											</g>
										</g>
									</g>
								</g>
							</g>
						</g>
						<path id="Path_406" class="st11" d="M48.2,35.3c0,2.5-2,4.5-4.5,4.5c-2.5,0-4.5-2-4.5-4.5c0-2.5,2-4.5,4.5-4.5
							S48.2,32.8,48.2,35.3C48.2,35.3,48.2,35.3,48.2,35.3"/>
						<path id="Path_407" class="st12" d="M47.5,35.3c0,2.1-1.7,3.8-3.8,3.8c-2.1,0-3.8-1.7-3.8-3.8c0-2.1,1.7-3.8,3.8-3.8
							c0,0,0,0,0,0C45.8,31.6,47.5,33.2,47.5,35.3"/>
						<path id="Path_408" class="st4" d="M46.1,34.3c0,0.8-0.6,1.4-1.4,1.4s-1.4-0.6-1.4-1.4s0.6-1.4,1.4-1.4S46.1,33.6,46.1,34.3
							L46.1,34.3"/>
						<path id="Path_409" class="st4" d="M43.7,38.2c0,0.3-0.3,0.6-0.6,0.5c-0.3,0-0.6-0.3-0.5-0.6c0-0.3,0.2-0.5,0.6-0.5
							C43.4,37.7,43.7,37.9,43.7,38.2L43.7,38.2"/>
						<path id="Path_410" class="st4" d="M41.8,37.4c0,0.2-0.1,0.3-0.3,0.3c-0.2,0-0.3-0.1-0.3-0.3c0-0.2,0.1-0.3,0.3-0.3
							C41.6,37.1,41.8,37.2,41.8,37.4C41.8,37.4,41.8,37.4,41.8,37.4"/>
						<g id="Group_1759" transform="translate(14.044 6.16)">
							<g id="Group_1758">
								<g>
									<defs>
										<rect id="SVGID_00000068666345663115753340000016304545149208336062_" x="40.3" y="22.9" width="12.5" height="12.5"/>
									</defs>
									<clipPath id="SVGID_00000115480548317917434120000017427859592697431432_">
										<use xlink:href="#SVGID_00000068666345663115753340000016304545149208336062_"  style="overflow:visible;"/>
									</clipPath>
									<g id="Group_1757" style="clip-path:url(#SVGID_00000115480548317917434120000017427859592697431432_);">
										<g id="Group_1756" transform="translate(0 0)">
											<g>
												<defs>
													<path id="SVGID_00000163759515171657396090000000504089856235640231_" d="M52.8,29.2c0,3.5-2.8,6.3-6.3,6.3
														c-3.5,0-6.3-2.8-6.3-6.3s2.8-6.3,6.3-6.3C50,22.9,52.8,25.7,52.8,29.2L52.8,29.2"/>
												</defs>
												<clipPath id="SVGID_00000142143385618048555530000003359629450814651058_">
													<use xlink:href="#SVGID_00000163759515171657396090000000504089856235640231_"  style="overflow:visible;"/>
												</clipPath>
												<g id="Group_1755" style="clip-path:url(#SVGID_00000142143385618048555530000003359629450814651058_);">
													
														<radialGradient id="Rectangle_1420_00000062154232073247565350000007475698333107908757_" cx="-571.036" cy="374.4023" r="1.1861" gradientTransform="matrix(5.22 0 0 -5.22 3027.3496 1983.5447)" gradientUnits="userSpaceOnUse">
														<stop  offset="0" style="stop-color:#3280FC"/>
														<stop  offset="0.13" style="stop-color:#3280FC"/>
														<stop  offset="1" style="stop-color:#000000"/>
													</radialGradient>
													
														<rect id="Rectangle_1420" x="40.3" y="22.9" style="fill:url(#Rectangle_1420_00000062154232073247565350000007475698333107908757_);" width="12.5" height="12.5"/>
												</g>
											</g>
										</g>
									</g>
								</g>
							</g>
						</g>
						<path id="Path_412" class="st11" d="M65.1,35.3c0,2.5-2,4.5-4.5,4.5c-2.5,0-4.5-2-4.5-4.5c0-2.5,2-4.5,4.5-4.5
							C63.1,30.8,65.1,32.8,65.1,35.3"/>
						<path id="Path_413" class="st12" d="M64.4,35.3c0,2.1-1.7,3.8-3.8,3.8c-2.1,0-3.8-1.7-3.8-3.8c0-2.1,1.7-3.8,3.8-3.8
							c0,0,0,0,0,0C62.7,31.6,64.4,33.2,64.4,35.3"/>
						<path id="Path_414" class="st4" d="M63,34.3c0,0.8-0.6,1.4-1.4,1.4s-1.4-0.6-1.4-1.4s0.6-1.4,1.4-1.4S63,33.6,63,34.3L63,34.3
							"/>
						<path id="Path_415" class="st4" d="M60.6,38.2c0,0.3-0.2,0.6-0.6,0.6c-0.3,0-0.6-0.2-0.6-0.6c0-0.3,0.2-0.6,0.6-0.6
							C60.3,37.7,60.6,37.9,60.6,38.2L60.6,38.2"/>
						<path id="Path_416" class="st4" d="M58.6,37.4c0,0.2-0.1,0.3-0.3,0.3c-0.2,0-0.3-0.1-0.3-0.3c0-0.2,0.1-0.3,0.3-0.3l0,0
							C58.5,37.1,58.6,37.2,58.6,37.4"/>
						<path id="Path_417" class="st4" d="M71.9,21.6c0,1.1-0.7,2.1-1.8,2.4c-0.9,0.1-1.7-0.8-2.4-1.8c-0.8-1-2.4-3.4-1.7-4.1
							C66.8,17.1,71.8,19.1,71.9,21.6"/>
						<path id="Path_418" class="st4" d="M64.2,16.7c0,0.4-0.4,0.8-0.8,0.8c-0.4,0-0.8-0.4-0.8-0.8c0-0.4,0.4-0.8,0.8-0.8
							C63.9,16,64.2,16.3,64.2,16.7C64.2,16.7,64.2,16.7,64.2,16.7"/>
						<path id="Path_419" class="st11" d="M71.8,36.2c-1.9-2.5-4.2-4.7-6.7-6.5c-1.7-1.1-3.3-1.9-3.2-2.1c1.2,0,2.4,0.3,3.4,0.9
							C68.5,30,70.8,32.8,71.8,36.2"/>
						<path id="Path_420" class="st4" d="M59.2,45.6c-0.1,0.6-0.6,1.1-1.2,1.1l-8.3,0.8c-0.6,0.1-1.2-0.3-1.4-0.9
							c-0.1-0.3-0.1-0.5-0.2-0.8c0-0.2,0.1-0.3,0.2-0.3c0,0,0,0,0,0l10.5-1c0.2,0,0.3,0.1,0.3,0.2c0,0,0,0,0,0
							C59.2,45.1,59.2,45.4,59.2,45.6"/>
						<path id="Path_421" class="st7" d="M59.2,45.6c-0.3,3-3,5.3-6.1,4.9c-2.2-0.2-4-1.7-4.7-3.8c0.2,0.5,0.8,0.8,1.3,0.8l8.3-0.8
							C58.6,46.7,59.1,46.2,59.2,45.6"/>
						<path id="Path_422" class="st4" d="M71.3,67c-0.1-1-0.3-2-0.6-3c-0.5-1.8-1-2.6-0.7-3c0.2-0.2,0.7-0.1,0.8,0
							c1.6,0.5,2.1,3.6,2.1,5.5c0,1.2-0.3,2.5-0.8,2.5c-0.1,0-0.3,0-0.4-0.1C71.4,68.3,71.2,67.6,71.3,67"/>
					</g>
				</g>
			</g>
			<g id="Group_1763" transform="translate(21.292 23.188)">
				<g>
					<defs>
						<path id="SVGID_00000021084467928795511130000012861398876138588594_" d="M50.4,47c0,0.2,0.2,0.3,0.3,0.3s0.3-0.2,0.3-0.3
							c0-0.2-0.2-0.3-0.3-0.3S50.4,46.8,50.4,47L50.4,47"/>
					</defs>
					<clipPath id="SVGID_00000121256785323177593860000005786565882247323816_">
						<use xlink:href="#SVGID_00000021084467928795511130000012861398876138588594_"  style="overflow:visible;"/>
					</clipPath>
					<g id="Group_1762" style="clip-path:url(#SVGID_00000121256785323177593860000005786565882247323816_);">
						
							<linearGradient id="Rectangle_1423_00000077321250223853427790000008919108393336639379_" gradientUnits="userSpaceOnUse" x1="572.5128" y1="-662.9955" x2="573.7924" y2="-662.9955" gradientTransform="matrix(0.281 0 0 -0.281 -161.425 -139.2808)">
							<stop  offset="0" style="stop-color:#030D14"/>
							<stop  offset="1" style="stop-color:#0B2F45"/>
						</linearGradient>
						
							<rect id="Rectangle_1423" x="50.4" y="46.7" style="fill:url(#Rectangle_1423_00000077321250223853427790000008919108393336639379_);" width="0.7" height="0.7"/>
					</g>
				</g>
			</g>
		</g>
	</g>
</g>
</svg>
