<svg width="19" height="18" viewBox="0 0 19 18" fill="none" xmlns="http://www.w3.org/2000/svg">
<path d="M9.94629 0C8.16626 0 6.4262 0.527841 4.94616 1.51677C3.46612 2.50571 2.31257 3.91131 1.63138 5.55585C0.950189 7.20038 0.771959 9.00998 1.11923 10.7558C1.46649 12.5016 2.32366 14.1053 3.58233 15.364C4.841 16.6226 6.44465 17.4798 8.19048 17.8271C9.93631 18.1743 11.7459 17.9961 13.3904 17.3149C15.035 16.6337 16.4406 15.4802 17.4295 14.0001C18.4185 12.5201 18.9463 10.78 18.9463 9C18.9463 6.61305 17.9981 4.32387 16.3103 2.63604C14.6224 0.948212 12.3332 0 9.94629 0ZM13.6003 13.237C13.4607 13.2335 13.3254 13.1878 13.2123 13.106C10.9168 11.8651 8.23426 11.5471 5.71229 12.217C5.57158 12.2619 5.42693 12.2934 5.28029 12.311C5.20475 12.3121 5.12975 12.298 5.05975 12.2696C4.98974 12.2412 4.92614 12.199 4.87272 12.1456C4.8193 12.0921 4.77713 12.0286 4.74872 11.9585C4.7203 11.8885 4.70622 11.8135 4.70729 11.738C4.69702 11.5927 4.74231 11.4488 4.83402 11.3356C4.92572 11.2224 5.05699 11.1482 5.20129 11.128C8.0832 10.3224 11.165 10.6632 13.8013 12.079C13.9138 12.1317 14.0076 12.2172 14.0705 12.3243C14.1333 12.4315 14.1622 12.5551 14.1533 12.679C14.1548 12.7522 14.1415 12.825 14.1144 12.893C14.0873 12.9611 14.0468 13.0229 13.9953 13.0751C13.9439 13.1272 13.8825 13.1684 13.8148 13.1964C13.7471 13.2244 13.6745 13.2385 13.6013 13.238L13.6003 13.237ZM14.5763 10.856C14.4168 10.8458 14.2628 10.7934 14.1303 10.704C11.4875 9.25133 8.38768 8.86936 5.47129 9.637C5.33273 9.6895 5.18715 9.72118 5.03929 9.731C4.85364 9.731 4.67559 9.65725 4.54432 9.52598C4.41304 9.3947 4.33929 9.21665 4.33929 9.031C4.32655 8.85892 4.37655 8.68805 4.48005 8.54999C4.58355 8.41193 4.73355 8.31602 4.90229 8.28C6.053 7.94247 7.24716 7.77635 8.44629 7.787C10.6963 7.75809 12.9136 8.32752 14.8713 9.437C15.0014 9.50383 15.1094 9.60692 15.1821 9.73381C15.2549 9.8607 15.2893 10.006 15.2813 10.152C15.2824 10.2446 15.265 10.3365 15.2303 10.4223C15.1956 10.5082 15.1442 10.5863 15.0791 10.6522C15.014 10.718 14.9365 10.7703 14.851 10.806C14.7656 10.8416 14.6739 10.86 14.5813 10.86L14.5763 10.856ZM15.7013 8.091C15.5346 8.09144 15.3716 8.04198 15.2333 7.949C12.6463 6.412 8.03029 6.037 5.04029 6.877C4.88941 6.92988 4.7319 6.96152 4.57229 6.971C4.46004 6.9721 4.34872 6.95063 4.24492 6.90788C4.14113 6.86512 4.04698 6.80195 3.96807 6.7221C3.88916 6.64226 3.8271 6.54738 3.78557 6.44309C3.74403 6.3388 3.72388 6.22723 3.72629 6.115C3.71718 5.92026 3.77472 5.72824 3.88944 5.57062C4.00416 5.413 4.16919 5.2992 4.35729 5.248C5.74532 4.86302 7.18099 4.67717 8.62129 4.696C11.2127 4.63471 13.7773 5.23165 16.0753 6.431C16.2255 6.50632 16.35 6.62435 16.4333 6.77025C16.5165 6.91615 16.5548 7.08341 16.5433 7.251C16.544 7.36195 16.5227 7.47193 16.4806 7.5746C16.4386 7.67728 16.3767 7.77063 16.2984 7.84927C16.2201 7.9279 16.1271 7.99028 16.0246 8.0328C15.9221 8.07531 15.8122 8.09713 15.7013 8.097V8.091Z" fill="white"/>
</svg>
