<svg width="19" height="20" viewBox="0 0 19 20" fill="none" xmlns="http://www.w3.org/2000/svg">
<path d="M17.7103 0.975098H2.23129C1.88877 0.97905 1.56165 1.11803 1.32103 1.36183C1.08041 1.60563 0.945741 1.93455 0.946291 2.2771V17.7251C0.946268 18.0673 1.08117 18.3957 1.32173 18.6391C1.5623 18.8824 1.88912 19.0211 2.23129 19.0251H17.7103C18.0533 19.0225 18.3814 18.8843 18.6231 18.6408C18.8647 18.3973 19.0003 18.0682 19.0003 17.7251V2.2771C19.0008 1.9337 18.8655 1.60403 18.6238 1.36009C18.3821 1.11614 18.0537 0.977739 17.7103 0.975098ZM6.40229 16.4491H3.72729V7.8341H6.40629V16.4501L6.40229 16.4491ZM5.06429 6.6571C4.75762 6.6569 4.45789 6.56579 4.20298 6.39529C3.94807 6.22479 3.74943 5.98254 3.63216 5.69918C3.51489 5.41581 3.48426 5.10404 3.54414 4.80327C3.60402 4.5025 3.75172 4.22623 3.96857 4.00938C4.18542 3.79252 4.46169 3.64483 4.76246 3.58495C5.06323 3.52507 5.375 3.5557 5.65837 3.67297C5.94174 3.79024 6.18398 3.98888 6.35448 4.24378C6.52499 4.49869 6.61609 4.79842 6.61629 5.1051C6.61629 5.51671 6.45278 5.91147 6.16172 6.20253C5.87066 6.49358 5.47591 6.6571 5.06429 6.6571ZM16.4323 16.4491H13.7573V12.2581C13.7573 11.2581 13.7373 9.9731 12.3673 9.9731C10.9733 9.9731 10.7593 11.0611 10.7593 12.1851V16.4481H8.08329V7.8341H10.6463V9.0111H10.6863C10.9444 8.57279 11.3163 8.21252 11.7627 7.96851C12.209 7.72449 12.713 7.60582 13.2213 7.6251C15.9293 7.6251 16.4333 9.4101 16.4333 11.7311L16.4323 16.4491Z" fill="white"/>
</svg>
