<svg width="20" height="20" viewBox="0 0 20 20" fill="none" xmlns="http://www.w3.org/2000/svg">
<path d="M3.35836 11.9865C3.09401 11.9721 2.89066 11.7447 2.90005 11.4741C2.89066 11.2035 3.09557 10.9761 3.35836 10.9616H9.2961C9.56046 10.9761 9.7638 11.2035 9.75442 11.4741C9.7638 11.7447 9.55889 11.9721 9.2961 11.9865H3.35836ZM13.5179 15.9612C13.3552 15.7066 13.0659 15.3575 13.0659 15.0565C13.0737 14.8579 13.1988 14.6833 13.3818 14.6161C13.3677 14.3646 13.3568 14.1052 13.3568 13.8506C13.3568 13.7001 13.3568 13.5463 13.3646 13.3974C13.374 13.3189 13.3896 13.2421 13.4147 13.1668C13.5304 12.7824 13.7807 12.4574 14.1186 12.2524C14.239 12.1771 14.3673 12.1131 14.5002 12.065C14.7411 11.9753 14.6238 11.5846 14.8897 11.5798C15.5076 11.5638 16.5196 12.1163 16.9216 12.5583C17.1735 12.8241 17.3189 13.178 17.3268 13.5479L17.3017 14.6689C17.4206 14.6945 17.5192 14.781 17.5614 14.8979C17.6459 15.2486 17.2908 15.6842 17.1265 15.9628C16.9623 16.2415 16.3929 16.9205 16.3914 16.9269C16.3961 16.9749 16.4133 17.0198 16.443 17.055C17.3455 18.3265 20 17.3449 20 19.8735H10.621C10.621 17.3449 13.2755 18.3265 14.1764 17.055C14.2093 17.0182 14.2312 16.9717 14.2421 16.9237C14.2421 16.9077 13.5742 16.0701 13.5132 15.9709V15.9628L13.5179 15.9612ZM14.7724 3.14036H16.4915C16.7996 3.14036 17.0953 3.26527 17.3111 3.49107C17.5285 3.71367 17.6506 4.01473 17.6521 4.33021V10.1818L16.651 9.77981V4.33501C16.651 4.24213 16.5775 4.16847 16.4883 4.16847H14.7724V9.63248L13.7713 10.0424V1.19465C13.7713 1.10177 13.6978 1.0281 13.6086 1.0281H1.16221C1.07148 1.0281 0.999531 1.10337 0.999531 1.19465V15.6682C0.999531 15.7611 1.07305 15.8347 1.16221 15.8347H10.4098L10.0188 16.8596H3.81824V18.8086C3.81824 18.9014 3.89176 18.9751 3.98092 18.9751H9.06929L8.67511 20H3.9903C3.34272 19.9968 2.82027 19.4555 2.81714 18.7861V16.8596H1.17316C0.525575 16.8564 0.00312842 16.3152 0 15.6458V1.21227C0 0.890384 0.123573 0.582912 0.347255 0.357114C0.567809 0.129713 0.866573 0.00160141 1.17942 0H13.5946C13.9074 0 14.2093 0.126511 14.4283 0.357114C14.6504 0.582912 14.774 0.890384 14.7755 1.21227V3.14196H14.7771L14.7724 3.14036ZM3.36462 4.80743C3.10027 4.79462 2.89535 4.56562 2.90474 4.29498C2.89535 4.02434 3.10027 3.79534 3.36462 3.78253H11.2936C11.558 3.79694 11.7613 4.02434 11.7519 4.29498C11.7613 4.56562 11.5564 4.79302 11.2936 4.80743H3.36462ZM3.36462 8.39779C3.10027 8.38498 2.89535 8.15598 2.90474 7.88534C2.89535 7.6147 3.10027 7.3857 3.36462 7.37289H11.2936C11.558 7.3873 11.7613 7.6147 11.7519 7.88534C11.7613 8.15598 11.5564 8.38338 11.2936 8.39779H3.36462Z" fill="black"/>
</svg>
