<svg width="20" height="20" viewBox="0 0 20 20" fill="none" xmlns="http://www.w3.org/2000/svg">
<path d="M5.83301 7.50833L5.84134 7.49907" stroke="black" stroke-width="1.5" stroke-linecap="round" stroke-linejoin="round"/>
<path d="M9.16699 7.50833L9.17533 7.49907" stroke="black" stroke-width="1.5" stroke-linecap="round" stroke-linejoin="round"/>
<path d="M5.83301 10.8418L5.84134 10.8326" stroke="black" stroke-width="1.5" stroke-linecap="round" stroke-linejoin="round"/>
<path d="M9.16699 10.8418L9.17533 10.8326" stroke="black" stroke-width="1.5" stroke-linecap="round" stroke-linejoin="round"/>
<path d="M5.83301 14.1748L5.84134 14.1656" stroke="black" stroke-width="1.5" stroke-linecap="round" stroke-linejoin="round"/>
<path d="M9.16699 14.1748L9.17533 14.1656" stroke="black" stroke-width="1.5" stroke-linecap="round" stroke-linejoin="round"/>
<path d="M12.5 17.5H3.1C2.76863 17.5 2.5 17.2314 2.5 16.9V4.76667C2.5 4.4353 2.76863 4.16667 3.1 4.16667H7.5V3.1C7.5 2.76863 7.76863 2.5 8.1 2.5H11.9C12.2314 2.5 12.5 2.76863 12.5 3.1V7.5M12.5 17.5H16.9C17.2314 17.5 17.5 17.2314 17.5 16.9V8.1C17.5 7.76863 17.2314 7.5 16.9 7.5H12.5M12.5 17.5V14.1667M12.5 7.5V10.8333M12.5 10.8333H14.1667M12.5 10.8333V14.1667M12.5 14.1667H14.1667" stroke="black" stroke-width="1.5" stroke-linecap="round" stroke-linejoin="round"/>
</svg>
