<svg width="25" height="24" viewBox="0 0 25 24" fill="none" xmlns="http://www.w3.org/2000/svg">
<path d="M8.59473 4H6.09473C4.99016 4 4.09473 4.89543 4.09473 6V20C4.09473 21.1046 4.99016 22 6.09473 22H12.0947" stroke="black" stroke-width="1.5" stroke-linecap="round"/>
<path d="M15.5947 4H18.0947C19.1993 4 20.0947 4.89543 20.0947 6V15" stroke="black" stroke-width="1.5" stroke-linecap="round"/>
<path d="M8.09473 6.4V4.5C8.09473 4.22386 8.31858 4 8.59473 4C8.87087 4 9.09895 3.77604 9.14624 3.50398C9.29441 2.65171 9.86871 1 12.0947 1C14.3207 1 14.895 2.65171 15.0432 3.50398C15.0905 3.77604 15.3186 4 15.5947 4C15.8709 4 16.0947 4.22386 16.0947 4.5V6.4C16.0947 6.73137 15.8261 7 15.4947 7H8.69473C8.36336 7 8.09473 6.73137 8.09473 6.4Z" stroke="black" stroke-width="1.5" stroke-linecap="round"/>
<path d="M15.5947 20.5L17.5947 22.5L22.5947 17.5" stroke="black" stroke-width="1.5" stroke-linecap="round" stroke-linejoin="round"/>
</svg>
