<svg width="24" height="21" viewBox="0 0 24 21" fill="none" xmlns="http://www.w3.org/2000/svg">
<path d="M22.1538 0.167053H1.84615C1.35652 0.167053 0.886947 0.361558 0.540726 0.707779C0.194505 1.054 0 1.52358 0 2.01321V18.6286C0 19.1182 0.194505 19.5878 0.540726 19.934C0.886947 20.2802 1.35652 20.4747 1.84615 20.4747H3.39115C3.56585 20.4748 3.73698 20.4253 3.88466 20.3319C4.03233 20.2386 4.15048 20.1053 4.22538 19.9474C4.67425 18.9998 5.38294 18.199 6.26901 17.6382C7.15509 17.0775 8.18216 16.7798 9.23077 16.7798C10.2794 16.7798 11.3064 17.0775 12.1925 17.6382C13.0786 18.199 13.7873 18.9998 14.2362 19.9474C14.3111 20.1053 14.4292 20.2386 14.5769 20.3319C14.7246 20.4253 14.8957 20.4748 15.0704 20.4747H22.1538C22.6435 20.4747 23.1131 20.2802 23.4593 19.934C23.8055 19.5878 24 19.1182 24 18.6286V2.01321C24 1.52358 23.8055 1.054 23.4593 0.707779C23.1131 0.361558 22.6435 0.167053 22.1538 0.167053ZM6.46154 12.1671C6.46154 11.6194 6.62395 11.0839 6.92824 10.6286C7.23253 10.1732 7.66502 9.81821 8.17103 9.60862C8.67704 9.39902 9.23384 9.34418 9.77102 9.45103C10.3082 9.55788 10.8016 9.82163 11.1889 10.2089C11.5762 10.5962 11.8399 11.0896 11.9468 11.6268C12.0536 12.164 11.9988 12.7208 11.7892 13.2268C11.5796 13.7328 11.2247 14.1653 10.7693 14.4696C10.3139 14.7739 9.77847 14.9363 9.23077 14.9363C8.49632 14.9363 7.79196 14.6445 7.27263 14.1252C6.7533 13.6059 6.46154 12.9015 6.46154 12.1671ZM22.1538 18.6286H15.6265C14.8556 17.3034 13.6937 16.249 12.3 15.6101C12.9988 14.9879 13.4919 14.1681 13.7141 13.2593C13.9363 12.3504 13.877 11.3955 13.5442 10.5211C13.2113 9.64671 12.6205 8.89413 11.8502 8.36313C11.0799 7.83212 10.1664 7.54778 9.23077 7.54778C8.29516 7.54778 7.38164 7.83212 6.61132 8.36313C5.84099 8.89413 5.25024 9.64671 4.91737 10.5211C4.5845 11.3955 4.52523 12.3504 4.74743 13.2593C4.96962 14.1681 5.46278 14.9879 6.16154 15.6101C4.76785 16.249 3.6059 17.3034 2.835 18.6286H1.84615V2.01321H22.1538V18.6286ZM3.69231 6.62859V4.78244C3.69231 4.53762 3.78956 4.30283 3.96267 4.12972C4.13578 3.95661 4.37057 3.85936 4.61538 3.85936H19.3846C19.6294 3.85936 19.8642 3.95661 20.0373 4.12972C20.2104 4.30283 20.3077 4.53762 20.3077 4.78244V15.8594C20.3077 16.1042 20.2104 16.339 20.0373 16.5121C19.8642 16.6852 19.6294 16.7824 19.3846 16.7824H17.5385C17.2936 16.7824 17.0589 16.6852 16.8857 16.5121C16.7126 16.339 16.6154 16.1042 16.6154 15.8594C16.6154 15.6145 16.7126 15.3798 16.8857 15.2066C17.0589 15.0335 17.2936 14.9363 17.5385 14.9363H18.4615V5.70551H5.53846V6.62859C5.53846 6.87341 5.44121 7.10819 5.2681 7.2813C5.09499 7.45442 4.8602 7.55167 4.61538 7.55167C4.37057 7.55167 4.13578 7.45442 3.96267 7.2813C3.78956 7.10819 3.69231 6.87341 3.69231 6.62859Z" fill="black"/>
</svg>
