<svg width="24" height="25" viewBox="0 0 24 25" fill="none" xmlns="http://www.w3.org/2000/svg">
<path d="M14.5792 13.7135H22.6301C23.0068 13.7135 23.3497 13.8681 23.5976 14.1159C23.8454 14.3637 24 14.7087 24 15.0873V23.1303C24 23.5089 23.8454 23.8539 23.5976 24.1017C23.3497 24.3515 23.0068 24.5061 22.6301 24.5061H14.5792C14.2025 24.5061 13.8596 24.3515 13.6118 24.1017C13.364 23.8539 13.2093 23.5089 13.2093 23.1303V15.0873C13.2093 14.7087 13.364 14.3637 13.6118 14.1159C13.8596 13.8661 14.2025 13.7135 14.5792 13.7135ZM1.36792 0.874878H9.4188C9.79547 0.874878 10.1384 1.02951 10.3863 1.27732C10.6341 1.52712 10.7887 1.87009 10.7887 2.24874V10.2917C10.7887 10.6704 10.6341 11.0153 10.3863 11.2631C10.1384 11.5109 9.79547 11.6656 9.4188 11.6656H1.36792C0.991244 11.6656 0.650256 11.5109 0.402445 11.2631C0.154634 11.0153 0 10.6704 0 10.2917V2.25072C0 1.87207 0.154634 1.52712 0.402445 1.27931C0.420287 1.26146 0.440112 1.24362 0.457955 1.22776C0.699818 1.0077 1.019 0.874878 1.36792 0.874878ZM9.39501 2.36373H1.48687V10.2719H9.39501V2.36373ZM14.5792 0.874878H22.6301C23.0068 0.874878 23.3497 1.02951 23.5976 1.27732C23.8454 1.52513 24 1.87009 24 2.24874V10.2917C24 10.6704 23.8454 11.0153 23.5976 11.2631C23.3497 11.5109 23.0068 11.6656 22.6301 11.6656H14.5792C14.2025 11.6656 13.8596 11.5109 13.6118 11.2631C13.364 11.0153 13.2093 10.6704 13.2093 10.2917V2.25072C13.2093 1.87207 13.364 1.52712 13.6118 1.27931C13.8596 1.02951 14.2025 0.87686 14.5792 0.87686V0.874878ZM22.5112 2.36373H14.603V10.2719H22.5112V2.36373ZM1.36792 13.7135H9.4188C9.79547 13.7135 10.1384 13.8681 10.3863 14.1159C10.6341 14.3637 10.7887 14.7087 10.7887 15.0873V23.1303C10.7887 23.5089 10.6341 23.8539 10.3863 24.1017C10.1384 24.3515 9.79547 24.5061 9.4188 24.5061H1.36792C0.991244 24.5061 0.650256 24.3515 0.402445 24.1017C0.154634 23.8539 0 23.5089 0 23.1303V15.0873C0 14.7087 0.154634 14.3637 0.402445 14.1159C0.420287 14.0981 0.440112 14.0802 0.459937 14.0644C0.701801 13.8463 1.02296 13.7115 1.37188 13.7115L1.36792 13.7135ZM9.39501 15.2023H1.48687V23.1105H9.39501V15.2023ZM22.5112 15.2023H14.603V23.1105H22.5112V15.2023Z" fill="black"/>
</svg>
