<svg width="25" height="24" viewBox="0 0 25 24" fill="none" xmlns="http://www.w3.org/2000/svg">
<path d="M4.08847 3H20.0886C20.6408 3 21.0885 3.44764 21.0886 3.99987L21.0888 5.58569C21.0888 5.85097 20.9835 6.10538 20.7959 6.29295L14.3814 12.7071C14.1938 12.8946 14.0885 13.149 14.0885 13.4142L14.0885 19.7192C14.0885 20.3698 13.4771 20.8472 12.8459 20.6894L10.8459 20.1894C10.4008 20.0781 10.0885 19.6781 10.0885 19.2192L10.0885 13.4142C10.0885 13.149 9.98312 12.8946 9.79558 12.7071L3.38137 6.29289C3.19383 6.10536 3.08847 5.851 3.08847 5.58579V4C3.08847 3.44772 3.53619 3 4.08847 3Z" stroke="black" stroke-width="1.5" stroke-linecap="round" stroke-linejoin="round"/>
</svg>
