<svg width="36" height="36" viewBox="0 0 36 36" fill="none" xmlns="http://www.w3.org/2000/svg">
<circle cx="18" cy="18" r="18" fill="#E2E6EC"/>
<path d="M10.3233 14.9633L17.315 11.4675C17.4839 11.383 17.6827 11.383 17.8517 11.4675L24.8434 14.9633C25.2856 15.1844 25.2856 15.8155 24.8434 16.0366L17.8517 19.5325C17.6827 19.6169 17.4839 19.6169 17.315 19.5325L10.3233 16.0366C9.88108 15.8155 9.88108 15.1844 10.3233 14.9633Z" stroke="black" stroke-width="1.5" stroke-linecap="round" stroke-linejoin="round"/>
<path d="M26.7487 18.8333L26.7487 15.9166L25.082 15.0833" stroke="black" stroke-width="1.5" stroke-linecap="round" stroke-linejoin="round"/>
<path d="M11.75 16.75V21.0494C11.75 21.8216 12.1946 22.5248 12.8922 22.8561L16.7255 24.6761C17.2684 24.9338 17.8983 24.9338 18.4411 24.6761L22.2745 22.8561C22.9721 22.5248 23.4167 21.8216 23.4167 21.0494V16.75" stroke="black" stroke-width="1.5" stroke-linecap="round" stroke-linejoin="round"/>
</svg>
