<svg width="57" height="56" viewBox="0 0 57 56" fill="none" xmlns="http://www.w3.org/2000/svg">
<g clip-path="url(#clip0_528_9215)">
<path d="M16.7395 32.9499C16.7395 33.3091 16.4433 33.5964 16.0833 33.5964C15.7187 33.5964 15.427 33.3046 15.427 32.9499V17.1147H1.64575V49.0276H3.91984C4.28442 49.0276 4.57609 49.3195 4.57609 49.6741C4.57609 50.0333 4.27987 50.3207 3.91984 50.3207H0.989502C0.624919 50.3207 0.333252 50.0288 0.333252 49.6741V16.7689C0.333252 16.5085 0.442627 16.2706 0.615804 16.0955C0.788981 15.9249 1.03052 15.8171 1.2994 15.8171H15.427V3.20548C15.427 2.89569 15.5546 2.60835 15.7642 2.40631V2.40182C15.9739 2.19529 16.261 2.06958 16.58 2.06958H39.9817C40.3007 2.06958 40.5878 2.19529 40.7974 2.40182L40.8476 2.4557C41.0253 2.65773 41.1392 2.91814 41.1392 3.20548V15.8171H55.3671C55.6314 15.8171 55.873 15.9249 56.0461 16.0955L56.0507 16.1C56.2239 16.2706 56.3333 16.5085 56.3333 16.7689V49.6741C56.3333 50.0333 56.037 50.3207 55.677 50.3207H51.5116C51.1471 50.3207 50.8554 50.0288 50.8554 49.6741C50.8554 49.315 51.1516 49.0276 51.5116 49.0276H55.0208V17.1147H41.1347V32.7614C41.1347 33.1205 40.8385 33.4079 40.4784 33.4079C40.1138 33.4079 39.8222 33.116 39.8222 32.7614V3.36262H16.7395V32.9499ZM44.6073 32.8422H51.8534C51.9127 32.8422 51.9628 32.8781 51.9628 32.9185V35.0287C51.9628 35.0736 51.9127 35.1095 51.8534 35.1095H44.6073C44.5481 35.1095 44.498 35.0736 44.498 35.0287V32.9185C44.498 32.8781 44.5481 32.8422 44.6073 32.8422ZM4.75838 32.8422H12.0045C12.0637 32.8422 12.1139 32.8781 12.1139 32.9185V35.0287C12.1139 35.0736 12.0637 35.1095 12.0045 35.1095H4.75838C4.69914 35.1095 4.64901 35.0736 4.64901 35.0287V32.9185C4.64901 32.8781 4.69914 32.8422 4.75838 32.8422ZM19.6835 5.87238H36.8827C37.1698 5.87238 37.4068 6.10584 37.4068 6.3887V11.9156C37.4068 12.1984 37.1698 12.4319 36.8827 12.4319H19.6835C19.3964 12.4319 19.1594 12.1984 19.1594 11.9156V6.3887C19.1549 6.10584 19.3918 5.87238 19.6835 5.87238ZM44.7213 49.2207C44.2428 48.2734 43.6366 47.4697 42.9257 46.7154C44.2564 47.2228 45.6191 47.7256 46.6262 48.3497C48.4583 49.4811 48.595 50.8505 48.7454 52.817H39.6627C39.6627 52.8035 39.6627 52.7855 39.6627 52.7721L39.4941 51.3668L40.1458 51.9235L43.3359 49.1893L44.7213 49.2207ZM12.2187 47.0028L13.3717 50.3431L13.9504 48.3587L13.6679 48.0534C13.5403 47.8693 13.5129 47.7076 13.5813 47.5685C13.7362 47.2677 14.0553 47.326 14.3515 47.326C14.6614 47.326 15.0487 47.2677 15.1445 47.6538C15.1764 47.784 15.1353 47.9187 15.0442 48.0578L14.7616 48.3631L15.3404 50.3476L16.384 47.0073C16.5344 47.1419 16.7486 47.2542 16.9947 47.353C16.9081 47.5326 16.8306 47.7166 16.7623 47.9142C16.5846 48.4215 16.4706 48.9827 16.4205 49.6068H16.4251C16.4251 49.6203 16.425 49.6382 16.4205 49.6517L16.1698 52.8214H7.82544C7.32414 52.7855 7.06893 52.5296 7.02791 52.0896L7.20109 50.3386C7.25122 49.7146 7.42896 49.2252 7.71606 48.848C7.90747 48.6011 8.14445 48.417 8.40422 48.2734C9.23364 47.8019 11.4667 47.6717 12.2187 47.0028ZM11.6536 42.2661C11.5396 42.2751 11.4576 42.302 11.3938 42.3379C11.3573 42.3604 11.3346 42.3918 11.3163 42.4277C11.2981 42.4681 11.289 42.522 11.289 42.5804C11.2935 42.7645 11.3938 43.0114 11.5898 43.2942L11.5943 43.2987L12.2369 44.3089C12.4921 44.713 12.7655 45.1216 13.0937 45.4224C13.4081 45.7052 13.7955 45.8983 14.3014 45.9028C14.8528 45.9028 15.2538 45.7052 15.582 45.4044C15.9237 45.0901 16.1972 44.6501 16.4661 44.2146L17.1907 43.0383C17.3365 42.7106 17.3821 42.513 17.3365 42.4188C17.3092 42.3604 17.1861 42.3469 16.9902 42.3604C16.8625 42.3873 16.7349 42.3649 16.5937 42.293L16.9537 41.2245C15.6275 41.2065 14.7161 40.982 13.6451 40.3041C13.2942 40.0841 13.1848 39.8282 12.8339 39.8506C12.565 39.9 12.3417 40.0212 12.164 40.2098C11.9908 40.3894 11.8632 40.6363 11.7812 40.9551L11.9954 42.2392C11.8814 42.3065 11.7675 42.311 11.6536 42.2661ZM17.4003 41.9473C17.5553 41.9922 17.6692 42.082 17.7421 42.2167C17.8515 42.4367 17.8105 42.76 17.6054 43.2179C17.6008 43.2269 17.5963 43.2359 17.5917 43.2449L16.858 44.4346C16.5754 44.8971 16.2838 45.3595 15.8964 45.7187C15.4908 46.0913 14.9941 46.3383 14.3105 46.3383C13.6724 46.3383 13.1939 46.0958 12.802 45.7411C12.4237 45.3999 12.1366 44.9644 11.8678 44.5379L11.2252 43.5277C10.9836 43.173 10.8606 42.8498 10.8515 42.5849C10.8469 42.4547 10.8697 42.3379 10.9198 42.2347C10.97 42.1269 11.052 42.0326 11.1568 41.9653C11.207 41.9294 11.2662 41.9024 11.3346 41.88C11.2935 41.3412 11.2799 40.6722 11.3072 40.1065C11.3209 39.9674 11.3482 39.8327 11.3847 39.6935C11.5487 39.1143 11.9635 38.6474 12.4739 38.3286C12.6562 38.2164 12.8521 38.1221 13.0618 38.0458C14.3014 37.6058 15.942 37.8437 16.8215 38.7821C17.1816 39.1637 17.4049 39.671 17.4504 40.34L17.4003 41.9473ZM23.8853 37.4756C23.7395 37.4935 23.6301 37.5294 23.5481 37.5788C23.4934 37.6147 23.457 37.6596 23.4342 37.709C23.4068 37.7719 23.3931 37.8482 23.3931 37.9335C23.4023 38.2074 23.5527 38.5755 23.8398 38.9976L23.8443 39.0066L24.8059 40.5151C25.1887 41.1167 25.5898 41.7273 26.0865 42.1763C26.5605 42.6028 27.1301 42.8902 27.8866 42.8902C28.707 42.8902 29.3085 42.5939 29.7916 42.1449C30.302 41.6735 30.7122 41.0224 31.1086 40.3714L32.1887 38.6204C32.4075 38.1311 32.4713 37.8347 32.4029 37.7001C32.3573 37.6103 32.1705 37.5878 31.8515 37.6192C31.8287 37.6192 31.8014 37.6192 31.7786 37.6192C31.6464 37.6192 31.5051 37.5878 31.3456 37.516L31.8333 35.9176C29.8508 35.8952 28.4973 35.554 26.8931 34.5438C26.3645 34.2115 26.2096 33.8344 25.6809 33.8703C25.2844 33.9466 24.9472 34.1217 24.6829 34.4046C24.4277 34.674 24.2362 35.0421 24.1086 35.518L24.4504 37.4531C24.2545 37.5429 24.0631 37.5519 23.8853 37.4756ZM24.7786 44.5379L26.5012 49.526L27.3671 46.5673L26.9433 46.1093C26.7519 45.8354 26.7109 45.593 26.8157 45.3865C27.0435 44.9375 27.5221 45.0228 27.9641 45.0228C28.429 45.0228 29.0032 44.9375 29.149 45.5077C29.1991 45.7007 29.1353 45.8983 28.9986 46.1093L28.5748 46.5673L29.4407 49.526L30.9993 44.5379C32.1249 45.5346 35.0188 45.7367 36.2584 46.4146C36.5956 46.5987 36.901 46.8277 37.1607 47.1195C37.1653 47.0881 37.1744 47.0521 37.1926 47.0252C37.3293 46.7603 37.6119 46.8097 37.8762 46.8097C38.1542 46.8097 38.496 46.7603 38.5826 47.1015C38.6099 47.2138 38.5735 47.335 38.496 47.4607L38.2454 47.7346L38.7603 49.4946L38.0995 50.0109L38.3183 52.8349C38.2545 53.4949 37.8762 53.872 37.1288 53.9304H18.6536C17.9062 53.872 17.5279 53.4949 17.4641 52.8349L17.7239 49.508C17.7968 48.5787 18.0611 47.8423 18.4941 47.2811C18.7766 46.913 19.1321 46.6391 19.524 46.4236C20.759 45.7367 23.6529 45.5346 24.7786 44.5379ZM32.5077 36.9952C32.7402 37.0625 32.9133 37.1927 33.0182 37.3992C33.1822 37.727 33.1184 38.2074 32.8131 38.8943C32.8085 38.9078 32.7994 38.9213 32.7948 38.9347L31.6965 40.7127C31.2727 41.4041 30.8398 42.091 30.261 42.6253C29.6549 43.182 28.912 43.5547 27.8958 43.5502C26.9433 43.5502 26.2278 43.191 25.6399 42.6612C25.0748 42.1539 24.651 41.5028 24.2408 40.8653L23.2792 39.3568C22.9192 38.8315 22.7369 38.3466 22.7232 37.947C22.7187 37.7539 22.7506 37.5788 22.8235 37.4262C22.901 37.2645 23.0195 37.1254 23.179 37.0221C23.2564 36.9682 23.3476 36.9278 23.4433 36.8919C23.384 36.0837 23.3658 35.087 23.4023 34.2474C23.425 34.0409 23.4615 33.8389 23.5208 33.6324C23.7668 32.7658 24.3821 32.0699 25.1477 31.594C25.4166 31.4234 25.7128 31.2842 26.0227 31.1765C27.8684 30.5165 30.3202 30.8757 31.6327 32.2765C32.1659 32.8467 32.5032 33.6009 32.5761 34.5976L32.5077 36.9952ZM35.8482 45.2293L36.6959 45.2069L37.4023 45.1889C36.582 42.6971 36.8554 40.4074 38.8333 38.4588C39.1705 39.5274 39.9224 40.4118 41.203 41.0629C41.8137 41.5118 42.4062 42.0506 42.9804 42.6747C43.0807 42.2616 42.6933 41.7633 42.2239 41.2469C42.6568 41.458 43.0579 41.7543 43.3404 42.3245C43.6685 42.9845 43.664 43.5412 43.5546 44.2595C43.5045 44.5918 43.4224 44.9061 43.304 45.1889H44.4752C45.7102 42.5849 44.9264 38.7192 42.4016 37.0805C41.6269 36.5776 41.0709 36.5956 40.1594 36.5956C39.1204 36.5956 38.5872 36.627 37.6939 37.2107C36.3814 38.0682 35.5702 39.5498 35.233 41.6061C35.1646 42.6343 35.1191 44.4077 35.8482 45.2293ZM44.6073 28.2312H51.8534C51.9127 28.2312 51.9628 28.2671 51.9628 28.312V30.4222C51.9628 30.4671 51.9127 30.503 51.8534 30.503H44.6073C44.5481 30.503 44.498 30.4671 44.498 30.4222V28.312C44.498 28.2671 44.5481 28.2312 44.6073 28.2312ZM44.6073 23.6158H51.8534C51.9127 23.6158 51.9628 23.6517 51.9628 23.6966V25.8068C51.9628 25.8517 51.9127 25.8876 51.8534 25.8876H44.6073C44.5481 25.8876 44.498 25.8517 44.498 25.8068V23.6966C44.498 23.6517 44.5481 23.6158 44.6073 23.6158ZM4.75838 28.2312H12.0045C12.0637 28.2312 12.1139 28.2671 12.1139 28.312V30.4222C12.1139 30.4671 12.0637 30.503 12.0045 30.503H4.75838C4.69914 30.503 4.64901 30.4671 4.64901 30.4222V28.312C4.64901 28.2671 4.69914 28.2312 4.75838 28.2312ZM4.75838 23.6158H12.0045C12.0637 23.6158 12.1139 23.6517 12.1139 23.6966V25.8068C12.1139 25.8517 12.0637 25.8876 12.0045 25.8876H4.75838C4.69914 25.8876 4.64901 25.8517 4.64901 25.8068V23.6966C4.64901 23.6517 4.69914 23.6158 4.75838 23.6158ZM32.9954 24.1052H36.8645C36.9238 24.1052 36.9739 24.1545 36.9739 24.2129V28.0247C36.9739 28.0831 36.9238 28.1324 36.8645 28.1324H32.9954C32.9361 28.1324 32.886 28.0831 32.886 28.0247V24.2129C32.886 24.1545 32.9361 24.1052 32.9954 24.1052ZM26.3463 24.1052H30.2154C30.2747 24.1052 30.3248 24.1545 30.3248 24.2129V28.0247C30.3248 28.0831 30.2747 28.1324 30.2154 28.1324H26.3463C26.287 28.1324 26.2369 28.0831 26.2369 28.0247V24.2129C26.2369 24.1545 26.287 24.1052 26.3463 24.1052ZM19.6972 24.1052H23.5663C23.6256 24.1052 23.6757 24.1545 23.6757 24.2129V28.0247C23.6757 28.0831 23.6256 28.1324 23.5663 28.1324H19.6972C19.6379 28.1324 19.5878 28.0831 19.5878 28.0247V24.2129C19.5878 24.1545 19.6379 24.1052 19.6972 24.1052ZM32.9954 16.7106H36.8645C36.9238 16.7106 36.9739 16.76 36.9739 16.8183V20.6301C36.9739 20.6885 36.9238 20.7379 36.8645 20.7379H32.9954C32.9361 20.7379 32.886 20.6885 32.886 20.6301V16.8183C32.886 16.7555 32.9361 16.7106 32.9954 16.7106ZM26.3463 16.7106H30.2154C30.2747 16.7106 30.3248 16.76 30.3248 16.8183V20.6301C30.3248 20.6885 30.2747 20.7379 30.2154 20.7379H26.3463C26.287 20.7379 26.2369 20.6885 26.2369 20.6301V16.8183C26.2369 16.7555 26.287 16.7106 26.3463 16.7106ZM19.6972 16.7106H23.5663C23.6256 16.7106 23.6757 16.76 23.6757 16.8183V20.6301C23.6757 20.6885 23.6256 20.7379 23.5663 20.7379H19.6972C19.6379 20.7379 19.5878 20.6885 19.5878 20.6301V16.8183C19.5878 16.7555 19.6379 16.7106 19.6972 16.7106Z" fill="black"/>
</g>
<defs>
<clipPath id="clip0_528_9215">
<rect width="56" height="56" fill="white" transform="translate(0.333252)"/>
</clipPath>
</defs>
</svg>
