<svg width="36" height="36" viewBox="0 0 36 36" fill="none" xmlns="http://www.w3.org/2000/svg">
<circle cx="18" cy="18" r="18" fill="#E2E6EC"/>
<path d="M16.332 15.5083L16.3404 15.4991" stroke="black" stroke-width="1.5" stroke-linecap="round" stroke-linejoin="round"/>
<path d="M19.668 15.5083L19.6763 15.4991" stroke="black" stroke-width="1.5" stroke-linecap="round" stroke-linejoin="round"/>
<path d="M16.332 18.8416L16.3404 18.8324" stroke="black" stroke-width="1.5" stroke-linecap="round" stroke-linejoin="round"/>
<path d="M19.668 18.8416L19.6763 18.8324" stroke="black" stroke-width="1.5" stroke-linecap="round" stroke-linejoin="round"/>
<path d="M16.332 22.175L16.3404 22.1658" stroke="black" stroke-width="1.5" stroke-linecap="round" stroke-linejoin="round"/>
<path d="M19.668 22.175L19.6763 22.1658" stroke="black" stroke-width="1.5" stroke-linecap="round" stroke-linejoin="round"/>
<path d="M13 24.9V12.7667C13 12.4353 13.2686 12.1667 13.6 12.1667H18V11.1C18 10.7686 18.2686 10.5 18.6 10.5H22.4C22.7314 10.5 23 10.7686 23 11.1V24.9C23 25.2314 22.7314 25.5 22.4 25.5H13.6C13.2686 25.5 13 25.2314 13 24.9Z" stroke="black" stroke-width="1.5" stroke-linecap="round" stroke-linejoin="round"/>
</svg>
