<svg width="20" height="20" viewBox="0 0 20 20" fill="none" xmlns="http://www.w3.org/2000/svg">
<path d="M12.3077 10.7207C11.9667 10.9636 11.6568 11.2476 11.3847 11.5662C10.4213 11.1028 9.24137 10.8037 7.86665 10.8037C3.634 10.8037 1.24655 13.6487 1.24655 15.3058C1.24655 15.5619 1.37331 15.6543 1.7184 15.6543H9.95928C9.97312 16.0649 10.037 16.4626 10.1456 16.8421H2.06349C0.662004 16.8421 0 16.4011 0 15.4481C0 13.0512 2.99314 9.60882 7.86665 9.60882C9.60495 9.60882 11.1038 10.0455 12.3077 10.7207ZM11.7331 4.14652C11.7331 6.5007 10.0147 8.39971 7.88073 8.39971C5.74682 8.39971 4.02135 6.5078 4.02135 4.16073C4.02135 1.86345 5.75386 0 7.88073 0C10.0147 0 11.7331 1.83498 11.7331 4.14652ZM5.2679 4.16073C5.2679 5.87482 6.45108 7.21193 7.88073 7.21193C9.3104 7.21193 10.4865 5.8606 10.4865 4.14652C10.4865 2.47511 9.31744 1.18775 7.88073 1.18775C6.44404 1.18775 5.2679 2.49643 5.2679 4.16073Z" fill="black" fill-opacity="0.85"/>
<path d="M19.9998 15.2632C19.9998 17.8549 17.8883 20.0001 15.3844 20.0001C12.8592 20.0001 10.769 17.8696 10.769 15.2632C10.769 12.6715 12.8592 10.5264 15.3844 10.5264C17.9168 10.5264 19.9998 12.6642 19.9998 15.2632ZM12.9876 14.7288C12.7022 14.7288 12.4668 14.985 12.4668 15.2632C12.4668 15.5488 12.7022 15.7977 12.9876 15.7977H17.7813C18.0595 15.7977 18.2949 15.5488 18.2949 15.2632C18.2949 14.985 18.0595 14.7288 17.7813 14.7288H12.9876Z" fill="black" fill-opacity="0.85"/>
</svg>
