<svg width="20" height="20" viewBox="0 0 20 20" fill="none" xmlns="http://www.w3.org/2000/svg">
<path d="M8.61958 9.18489C10.9536 9.18489 12.8335 7.10837 12.8335 4.53404C12.8335 1.95971 10.9539 0 8.61958 0C6.28526 0 4.39795 2.03748 4.39795 4.54966C4.39795 7.06184 6.28526 9.18489 8.61958 9.18489ZM8.61958 1.29888C10.191 1.29888 11.4699 2.70643 11.4699 4.53404C11.4699 6.36165 10.1833 7.88601 8.61958 7.88601C7.05584 7.88601 5.76154 6.4238 5.76154 4.54966C5.76154 2.67552 7.04811 1.29888 8.61958 1.29888Z" fill="black"/>
<path d="M13.8571 18.4163H2.25698C0.724176 18.4163 0 17.9341 0 16.8919C0 14.271 3.27379 10.5068 8.60473 10.5068C9.78272 10.5068 10.8605 10.6905 11.8244 11.0043C12.0657 11.6783 12.2222 12.2201 12.6825 12.7567C11.5847 12.1898 10.2173 11.8135 8.60473 11.8135C3.97477 11.8135 1.36328 14.9241 1.36328 16.7364C1.36328 17.0162 1.50218 17.1174 1.87958 17.1174H13.8568V18.4163H13.8571Z" fill="black"/>
<path d="M16.561 7.13965C17.344 7.15152 17.9178 7.73147 18.0447 8.40854C17.9178 7.73147 17.344 7.1512 16.561 7.13965Z" fill="#FF7BAC"/>
<path d="M15.0199 8.61914C15.014 8.73455 15.0211 8.85121 15.0418 8.96663C15.0208 8.8509 15.0137 8.73455 15.0196 8.61914H15.0199Z" fill="#FF7BAC"/>
<path d="M15.8666 10.9048C15.6166 10.6191 15.5761 10.2568 15.6838 9.94792C15.8128 9.5769 16.1549 9.28271 16.6053 9.28927C16.8342 9.2927 17.0347 9.37296 17.1921 9.5007C17.0139 9.05379 16.5422 8.6987 15.9241 8.69058C15.5761 8.68589 15.2739 8.79332 15.0419 8.96634C15.088 9.22025 15.2015 9.46946 15.3945 9.68964C15.4746 9.78115 15.5622 9.85953 15.655 9.92699C15.5622 9.85953 15.4743 9.78115 15.3942 9.68995C15.2015 9.46947 15.088 9.22056 15.0419 8.96634C14.5005 9.37046 14.3431 10.1334 14.8853 10.674C15.1996 10.9876 15.6404 11.1203 16.0621 11.0772C15.9919 11.0301 15.926 10.9729 15.8666 10.9048Z" fill="black"/>
<path d="M18.4783 18.0818L18.9061 17.6112L18.3338 16.8154L17.8853 17.362L18.4783 18.0818Z" fill="black"/>
<path d="M17.9736 14.5044L18.7281 15.3342L18.906 15.0862L18.1237 14.1006C18.0785 14.1303 18.0318 14.1602 17.9835 14.1912L17.9739 14.5044H17.9736Z" fill="black"/>
<path d="M19.9878 9.94503C19.8705 8.39194 18.6384 7.07776 17.1136 6.86415C15.832 6.68332 14.6667 7.15272 13.8788 8.17739C13.361 8.85009 13.1367 9.69769 13.1964 10.5384C13.2097 10.7249 13.2363 10.9107 13.2775 11.094C13.3285 11.3226 13.4046 11.5362 13.5011 11.7361C15.8722 13.0631 17.217 15.2124 17.217 16.8923C17.217 17.8873 16.5562 18.3716 15.1617 18.4132L16.7341 20.0003L18.4782 18.0818L17.8852 17.362L18.3337 16.8154L17.9993 16.351L18.7284 15.3345L17.9739 14.5047L17.9835 14.1914C18.0318 14.1608 18.0785 14.1305 18.1237 14.1009L18.0624 14.0237L18.059 13.381L18.0655 13.3673C18.6087 13.0715 19.1003 12.6546 19.4591 12.1468C19.9064 11.5137 20.0453 10.7121 19.9878 9.94503ZM15.024 8.83167C15.0188 8.7742 15.0169 8.71674 15.0185 8.65927C15.0172 8.71643 15.0188 8.7742 15.024 8.83167ZM17.3515 10.8679C17.0261 11.2776 16.4699 11.3513 16.0625 11.0778C15.6405 11.1209 15.2 10.9881 14.8854 10.6746C14.3435 10.134 14.5006 9.37102 15.042 8.96689C15.0401 8.95565 15.0379 8.94441 15.0364 8.93348C15.0383 8.94472 15.0401 8.95565 15.0423 8.96689C15.274 8.79388 15.5762 8.68676 15.9245 8.69113C16.5423 8.69925 17.014 9.05434 17.1922 9.50125C17.3197 9.60431 17.4193 9.73798 17.4827 9.88757C17.6126 10.1939 17.5919 10.5656 17.3515 10.8679ZM17.7385 9.63117C17.7289 9.64335 17.719 9.65553 17.7091 9.66708C17.719 9.65521 17.7286 9.64335 17.7382 9.63117C17.7494 9.6168 17.7605 9.60275 17.771 9.58838C17.7605 9.60275 17.7497 9.6168 17.7385 9.63117ZM17.1969 7.28888C17.4861 7.42817 17.7175 7.65553 17.8694 7.92723C17.7172 7.65584 17.4858 7.42848 17.1969 7.28888ZM17.8997 7.98407C17.9337 8.0509 17.9631 8.12024 17.9872 8.19144C17.9628 8.12024 17.9337 8.0509 17.8997 7.98407Z" fill="black"/>
<path d="M15.6485 15.768H15.1353V15.6191H15.1356V14.833C15.3571 15.1481 15.5287 15.4639 15.6485 15.768Z" fill="black"/>
<path d="M15.8536 16.7363C15.8536 17.0162 15.715 17.1174 15.3373 17.1174H15.1353V15.7676H15.6481C15.784 16.1121 15.8536 16.4415 15.8536 16.7363Z" fill="black"/>
<path d="M17.217 16.8925C17.217 17.8875 16.5562 18.3719 15.1617 18.4134L15.1422 18.3937L15.136 18.3669L15.1354 17.6364V17.118H15.3374C15.7151 17.118 15.8537 17.0168 15.8537 16.737C15.8537 16.4421 15.7841 16.1127 15.6483 15.7682C15.5286 15.464 15.3569 15.1483 15.1351 14.8331V13.434V13.3725C14.4434 12.974 13.8427 12.4424 13.5015 11.7363C15.8726 13.0633 17.2173 15.2126 17.2173 16.8925H17.217Z" fill="black"/>
</svg>
