<svg width="20" height="20" viewBox="0 0 20 20" fill="none" xmlns="http://www.w3.org/2000/svg">
<g clip-path="url(#clip0_2760_6775)">
<path d="M3.36077 0H13.0393C13.8091 0 14.5089 0.314102 15.0167 0.821873C15.5245 1.32964 15.8386 2.02946 15.8386 2.79925V9.04223C15.8386 9.81202 15.5245 10.5118 15.0167 11.0196C14.5089 11.5274 13.8091 11.8415 13.0393 11.8415H8.19924L3.94829 15.4951C3.75137 15.6644 3.45354 15.6416 3.28428 15.4431C3.20128 15.3454 3.16385 15.225 3.17199 15.1062L3.39821 11.8399H3.36077C2.59098 11.8399 1.89117 11.5257 1.3834 11.018C0.875625 10.5118 0.561523 9.81202 0.561523 9.04223V2.79925C0.561523 2.02946 0.875625 1.32964 1.3834 0.821873C1.88954 0.314102 2.58935 0 3.36077 0ZM17.2122 4.55366C17.7606 4.65945 18.2521 4.92961 18.633 5.31044C19.1293 5.80682 19.4386 6.49198 19.4386 7.24713V13.4901C19.4386 14.2453 19.131 14.9304 18.633 15.4268C18.1366 15.9232 17.4514 16.2324 16.6963 16.2324H16.597L16.8281 19.5589C16.8346 19.6631 16.8037 19.7705 16.7304 19.8551C16.5823 20.0293 16.3203 20.0488 16.1478 19.9007L11.8806 16.125H6.2593L9.02763 13.3095H14.893C16.1722 13.3095 17.2203 12.263 17.2203 10.9822V4.73757C17.2187 4.67572 17.2171 4.61388 17.2122 4.55366ZM4.74087 7.10879C4.48047 7.10879 4.2689 6.89722 4.2689 6.63683C4.2689 6.37643 4.48047 6.16486 4.74087 6.16486H9.68024C9.94064 6.16486 10.1522 6.37643 10.1522 6.63683C10.1522 6.89722 9.94064 7.10879 9.68024 7.10879H4.74087ZM4.74087 4.77174C4.48047 4.77174 4.2689 4.56017 4.2689 4.29978C4.2689 4.03938 4.48047 3.82781 4.74087 3.82781H11.7422C12.0026 3.82781 12.2142 4.03938 12.2142 4.29978C12.2142 4.56017 12.0026 4.77174 11.7422 4.77174H4.74087ZM13.0377 0.943933H3.36077C2.85138 0.943933 2.38755 1.15225 2.05066 1.48914C1.71377 1.82602 1.50546 2.28822 1.50546 2.79925V9.04223C1.50546 9.55163 1.71377 10.0155 2.05066 10.3523C2.38755 10.6892 2.85138 10.8975 3.36077 10.8975H3.90435V10.8992L3.93527 10.9008C4.19404 10.9187 4.39096 11.1433 4.37306 11.4021L4.18916 14.0483L7.69473 11.0343C7.77936 10.9496 7.89653 10.8975 8.02673 10.8975H13.0377C13.5471 10.8975 14.0109 10.6892 14.3478 10.3523C14.6847 10.0155 14.893 9.55163 14.893 9.04223V2.79925C14.893 2.28985 14.6847 1.82602 14.3478 1.48914C14.0126 1.15225 13.5487 0.943933 13.0377 0.943933Z" fill="black"/>
</g>
<defs>
<clipPath id="clip0_2760_6775">
<rect width="20" height="20" fill="white"/>
</clipPath>
</defs>
</svg>
