<svg width="20" height="20" viewBox="0 0 20 20" fill="none" xmlns="http://www.w3.org/2000/svg">
<path d="M15.0002 9.16683H13.3335C13.0974 9.16683 12.8996 9.08683 12.7402 8.92683C12.5807 8.76683 12.5007 8.56905 12.5002 8.3335C12.4996 8.09794 12.5796 7.90016 12.7402 7.74016C12.9007 7.58016 13.0985 7.50016 13.3335 7.50016H15.0002V5.8335C15.0002 5.59738 15.0802 5.39961 15.2402 5.24016C15.4002 5.08072 15.5979 5.00072 15.8335 5.00016C16.0691 4.99961 16.2671 5.07961 16.4277 5.24016C16.5882 5.40072 16.6679 5.5985 16.6668 5.8335V7.50016H18.3335C18.5696 7.50016 18.7677 7.58016 18.9277 7.74016C19.0877 7.90016 19.1674 8.09794 19.1668 8.3335C19.1663 8.56905 19.0863 8.76711 18.9268 8.92766C18.7674 9.08822 18.5696 9.16794 18.3335 9.16683H16.6668V10.8335C16.6668 11.0696 16.5868 11.2677 16.4268 11.4277C16.2668 11.5877 16.0691 11.6674 15.8335 11.6668C15.5979 11.6663 15.4002 11.5863 15.2402 11.4268C15.0802 11.2674 15.0002 11.0696 15.0002 10.8335V9.16683ZM7.50016 10.0002C6.5835 10.0002 5.79877 9.67377 5.146 9.021C4.49322 8.36822 4.16683 7.5835 4.16683 6.66683C4.16683 5.75016 4.49322 4.96544 5.146 4.31266C5.79877 3.65989 6.5835 3.3335 7.50016 3.3335C8.41683 3.3335 9.20155 3.65989 9.85433 4.31266C10.5071 4.96544 10.8335 5.75016 10.8335 6.66683C10.8335 7.5835 10.5071 8.36822 9.85433 9.021C9.20155 9.67377 8.41683 10.0002 7.50016 10.0002ZM0.833496 15.0002V14.3335C0.833496 13.8613 0.955163 13.4274 1.1985 13.0318C1.44183 12.6363 1.76461 12.3341 2.16683 12.1252C3.02794 11.6946 3.90294 11.3718 4.79183 11.1568C5.68072 10.9418 6.5835 10.8341 7.50016 10.8335C8.41683 10.8329 9.31961 10.9407 10.2085 11.1568C11.0974 11.3729 11.9724 11.6957 12.8335 12.1252C13.2363 12.3335 13.5593 12.6357 13.8027 13.0318C14.046 13.4279 14.1674 13.8618 14.1668 14.3335V15.0002C14.1668 15.4585 14.0038 15.851 13.6777 16.1777C13.3516 16.5043 12.9591 16.6674 12.5002 16.6668H2.50016C2.04183 16.6668 1.64961 16.5038 1.3235 16.1777C0.997385 15.8516 0.834052 15.4591 0.833496 15.0002ZM2.50016 15.0002H12.5002V14.3335C12.5002 14.1807 12.4621 14.0418 12.386 13.9168C12.3099 13.7918 12.2091 13.6946 12.0835 13.6252C11.3335 13.2502 10.5766 12.9691 9.81266 12.7818C9.04877 12.5946 8.27794 12.5007 7.50016 12.5002C6.72238 12.4996 5.95155 12.5935 5.18766 12.7818C4.42377 12.9702 3.66683 13.2513 2.91683 13.6252C2.79183 13.6946 2.691 13.7918 2.61433 13.9168C2.53766 14.0418 2.49961 14.1807 2.50016 14.3335V15.0002ZM7.50016 8.3335C7.9585 8.3335 8.351 8.17044 8.67766 7.84433C9.00433 7.51822 9.16739 7.12572 9.16683 6.66683C9.16627 6.20794 9.00322 5.81572 8.67766 5.49016C8.35211 5.16461 7.95961 5.00127 7.50016 5.00016C7.04072 4.99905 6.6485 5.16238 6.3235 5.49016C5.9985 5.81794 5.83516 6.21016 5.8335 6.66683C5.83183 7.1235 5.99516 7.516 6.3235 7.84433C6.65183 8.17266 7.04405 8.33572 7.50016 8.3335Z" fill="black"/>
</svg>
