<svg width="28" height="29" viewBox="0 0 28 29" fill="none" xmlns="http://www.w3.org/2000/svg">
<mask id="mask0_12_2147" style="mask-type:luminance" maskUnits="userSpaceOnUse" x="0" y="0" width="28" height="29">
<rect y="0.199219" width="28" height="28" fill="white"/>
</mask>
<g mask="url(#mask0_12_2147)">
<path fill-rule="evenodd" clip-rule="evenodd" d="M25.4394 11.913H24.4997V11.8646H13.9997V16.5312H20.5931C19.6312 19.2478 17.0464 21.1979 13.9997 21.1979C10.1339 21.1979 6.99967 18.0637 6.99967 14.1979C6.99967 10.3322 10.1339 7.19792 13.9997 7.19792C15.7841 7.19792 17.4075 7.87108 18.6436 8.97067L21.9435 5.67075C19.8598 3.72883 17.0727 2.53125 13.9997 2.53125C7.55676 2.53125 2.33301 7.755 2.33301 14.1979C2.33301 20.6408 7.55676 25.8646 13.9997 25.8646C20.4426 25.8646 25.6663 20.6408 25.6663 14.1979C25.6663 13.4157 25.5858 12.6521 25.4394 11.913Z" fill="#FFC107"/>
<path fill-rule="evenodd" clip-rule="evenodd" d="M3.67871 8.76767L7.51179 11.5788C8.54896 9.01092 11.0608 7.19792 14.0002 7.19792C15.7846 7.19792 17.408 7.87108 18.6441 8.97067L21.944 5.67075C19.8604 3.72883 17.0732 2.53125 14.0002 2.53125C9.51905 2.53125 5.63288 5.06117 3.67871 8.76767Z" fill="#FF3D00"/>
<path fill-rule="evenodd" clip-rule="evenodd" d="M13.9995 25.8663C17.013 25.8663 19.7512 24.713 21.8214 22.8376L18.2106 19.7821C17.0393 20.6694 15.5833 21.1996 13.9995 21.1996C10.965 21.1996 8.38845 19.2647 7.41778 16.5645L3.61328 19.4957C5.54411 23.274 9.46528 25.8663 13.9995 25.8663Z" fill="#4CAF50"/>
<path fill-rule="evenodd" clip-rule="evenodd" d="M25.4398 11.9156H24.5V11.8672H14V16.5339H20.5934C20.1314 17.8388 19.292 18.964 18.2093 19.7836C18.2099 19.783 18.2105 19.783 18.2111 19.7824L21.8219 22.8379C21.5664 23.0701 25.6667 20.0339 25.6667 14.2005C25.6667 13.4183 25.5862 12.6547 25.4398 11.9156Z" fill="#1976D2"/>
</g>
</svg>
