<svg width="20" height="20" viewBox="0 0 20 20" fill="none" xmlns="http://www.w3.org/2000/svg">
<g clip-path="url(#clip0_1554_4750)">
<path d="M18.3346 9.99996C18.3346 5.39759 14.6037 1.66663 10.0013 1.66663C5.39893 1.66663 1.66797 5.39759 1.66797 9.99996C1.66797 14.6023 5.39893 18.3333 10.0013 18.3333" stroke="#AEAEAE" stroke-width="1.5" stroke-linecap="round" stroke-linejoin="round"/>
<path d="M10.832 1.70776C10.832 1.70776 13.332 4.99995 13.332 9.99995" stroke="#AEAEAE" stroke-width="1.5" stroke-linecap="round" stroke-linejoin="round"/>
<path d="M9.16797 18.2921C9.16797 18.2921 6.66797 15 6.66797 9.99995C6.66797 4.99995 9.16797 1.70776 9.16797 1.70776" stroke="#AEAEAE" stroke-width="1.5" stroke-linecap="round" stroke-linejoin="round"/>
<path d="M2.19141 12.9166H10.0001" stroke="#AEAEAE" stroke-width="1.5" stroke-linecap="round" stroke-linejoin="round"/>
<path d="M2.19141 7.08337H17.8087" stroke="#AEAEAE" stroke-width="1.5" stroke-linecap="round" stroke-linejoin="round"/>
<path fill-rule="evenodd" clip-rule="evenodd" d="M18.2326 14.9311C18.6441 15.1842 18.6188 15.8003 18.195 15.8483L16.0561 16.0908L15.0968 18.0177C14.9067 18.3996 14.3191 18.2126 14.222 17.7394L13.1759 12.6427C13.0938 12.2427 13.4533 11.991 13.8011 12.2049L18.2326 14.9311Z" stroke="#AEAEAE" stroke-width="1.5"/>
</g>
<defs>
<clipPath id="clip0_1554_4750">
<rect width="20" height="20" fill="white"/>
</clipPath>
</defs>
</svg>
