<svg width="24" height="24" viewBox="0 0 24 24" fill="none" xmlns="http://www.w3.org/2000/svg">
<path d="M22 12C22 6.47715 17.5228 2 12 2C6.47715 2 2 6.47715 2 12C2 17.5228 6.47715 22 12 22" stroke="#51C7DF" stroke-width="1.5" stroke-linecap="round" stroke-linejoin="round"/>
<path d="M13 2.04932C13 2.04932 16 5.99994 16 11.9999" stroke="#51C7DF" stroke-width="1.5" stroke-linecap="round" stroke-linejoin="round"/>
<path d="M11 21.9506C11 21.9506 8 17.9999 8 11.9999C8 5.99994 11 2.04932 11 2.04932" stroke="#51C7DF" stroke-width="1.5" stroke-linecap="round" stroke-linejoin="round"/>
<path d="M2.62891 15.5H11.9993" stroke="#51C7DF" stroke-width="1.5" stroke-linecap="round" stroke-linejoin="round"/>
<path d="M2.62891 8.5H21.3697" stroke="#51C7DF" stroke-width="1.5" stroke-linecap="round" stroke-linejoin="round"/>
<path fill-rule="evenodd" clip-rule="evenodd" d="M21.8791 17.9174C22.3729 18.2211 22.3426 18.9604 21.8339 19.0181L19.2674 19.309L18.1161 21.6213C17.888 22.0795 17.1829 21.8552 17.0664 21.2873L15.8111 15.1713C15.7126 14.6913 16.1439 14.3892 16.5613 14.646L21.8791 17.9174Z" stroke="#51C7DF" stroke-width="1.5"/>
</svg>
