<svg width="24" height="23" viewBox="0 0 24 23" fill="none" xmlns="http://www.w3.org/2000/svg">
<path d="M19.4628 2.02211C20.2464 2.63651 20.7864 3.62891 21.0072 4.66811L21.0852 4.69931L23.5392 5.83451C23.6763 5.89761 23.7925 5.99857 23.8741 6.12549C23.9557 6.2524 23.9994 6.4 24 6.55091V21.3913C23.9991 21.5146 23.9697 21.636 23.914 21.746C23.8584 21.856 23.778 21.9516 23.6791 22.0253C23.5803 22.099 23.4658 22.1488 23.3445 22.1708C23.2232 22.1928 23.0984 22.1864 22.98 22.1521L16.1772 20.2321L8.0892 22.4617C7.94331 22.502 7.78899 22.5004 7.644 22.4569L0.5688 20.3509C0.405265 20.3029 0.261588 20.2034 0.159114 20.0672C0.0566412 19.931 0.000839592 19.7653 0 19.5949L0 4.48811C0 3.96011 0.5136 3.58091 1.026 3.72971L7.8684 5.72291L11.346 4.65851C11.394 4.64411 11.4428 4.63411 11.4924 4.62851C11.6268 3.84131 12.0024 3.08531 12.6324 2.34851C13.38 1.47251 14.6916 0.958908 15.9696 0.897708C17.2956 0.834108 18.3084 1.11731 19.4616 2.02091M1.5996 5.54771V19.0057L7.4436 20.7445V7.24811L1.5996 5.54771ZM11.4504 6.28451L9.0432 7.02011V20.5549L15.1212 18.8821V14.9281C15.1212 14.4913 15.48 14.1373 15.9216 14.1373C16.3632 14.1373 16.7208 14.4913 16.7208 14.9293V18.7417L22.4004 20.3437V7.05371L21.0564 6.42971C21.034 6.56171 21.0048 6.69091 20.9688 6.81731C20.7088 7.7378 20.271 8.59842 19.68 9.35051L16.7076 13.0621C16.6293 13.1597 16.5294 13.2377 16.4157 13.2898C16.302 13.342 16.1777 13.3669 16.0527 13.3626C15.9277 13.3583 15.8054 13.3249 15.6955 13.265C15.5857 13.2051 15.4914 13.1205 15.42 13.0177L12.642 8.99411C12.1828 8.35491 11.8624 7.78051 11.6808 7.27091C11.5666 6.95197 11.4893 6.62102 11.4504 6.28451ZM16.0464 2.47931C15.1752 2.52131 14.28 2.87171 13.854 3.36971C13.3416 3.96971 13.0896 4.53131 13.0392 5.10011C12.9792 5.78531 13.02 6.26891 13.1904 6.74771C13.3164 7.10171 13.5672 7.55051 13.9548 8.09171L16.128 11.2381L18.42 8.37611C18.8827 7.78537 19.2255 7.10992 19.4292 6.38771C19.7172 5.37971 19.2828 3.89891 18.4692 3.26291C17.6352 2.60891 17.0052 2.43251 16.0476 2.47931M16.2132 3.31571C17.538 3.31571 18.6132 4.37771 18.6132 5.68811C18.6091 6.32082 18.354 6.92604 17.904 7.37085C17.454 7.81566 16.8459 8.0637 16.2132 8.06051C14.8884 8.06051 13.8132 6.99851 13.8132 5.68811C13.8132 4.37771 14.8884 3.31571 16.2132 3.31571ZM16.2132 4.89731C16.1087 4.89668 16.0051 4.91663 15.9084 4.95603C15.8116 4.99543 15.7235 5.0535 15.6492 5.12694C15.5749 5.20037 15.5158 5.28772 15.4752 5.38401C15.4346 5.48029 15.4134 5.58363 15.4128 5.68811C15.4128 6.12491 15.7716 6.47891 16.2132 6.47891C16.3177 6.47938 16.4212 6.45927 16.5179 6.41973C16.6146 6.38018 16.7026 6.32197 16.7768 6.24843C16.851 6.17489 16.91 6.08744 16.9505 5.9911C16.9909 5.89475 17.0119 5.79139 17.0124 5.68691C17.0108 5.47632 16.9258 5.27495 16.776 5.12694C16.6262 4.97893 16.4238 4.89635 16.2132 4.89731Z" fill="black"/>
</svg>
