<svg width="22" height="19" viewBox="0 0 22 19" fill="none" xmlns="http://www.w3.org/2000/svg">
<path d="M18.2 6.25049L13.98 3.95049C13.68 3.79049 13.32 3.79049 13.02 3.95049L8.8 6.25049C8.72062 6.29333 8.65432 6.35685 8.6081 6.43431C8.56189 6.51177 8.53749 6.60029 8.53749 6.69049C8.53749 6.78069 8.56189 6.86921 8.6081 6.94667C8.65432 7.02413 8.72062 7.08765 8.8 7.13049L13.02 9.43049C13.32 9.59049 13.68 9.59049 13.98 9.43049L18.2 7.13049C18.54 6.94049 18.54 6.44049 18.2 6.25049ZM20 0.690491H2C0.9 0.690491 0 1.59049 0 2.69049V4.69049C0 5.24049 0.45 5.69049 1 5.69049C1.55 5.69049 2 5.24049 2 4.69049V3.69049C2 3.14049 2.45 2.69049 3 2.69049H19C19.55 2.69049 20 3.14049 20 3.69049V15.6905C20 16.2405 19.55 16.6905 19 16.6905H14C13.45 16.6905 13 17.1405 13 17.6905C13 18.2405 13.45 18.6905 14 18.6905H20C21.1 18.6905 22 17.7905 22 16.6905V2.69049C22 1.59049 21.1 0.690491 20 0.690491ZM13.02 10.4305L10 8.78049V10.1905C10 10.5605 10.2 10.8905 10.52 11.0705L13.02 12.4305C13.32 12.5905 13.68 12.5905 13.98 12.4305L16.48 11.0705C16.8 10.8905 17 10.5505 17 10.1905V8.78049L13.98 10.4305C13.68 10.5905 13.32 10.5905 13.02 10.4305ZM0 15.6905V18.6905H3C3 17.0305 1.66 15.6905 0 15.6905ZM1.14 11.7805C0.54 11.6805 0 12.1705 0 12.7805C0 13.2705 0.36 13.6805 0.85 13.7605C2.93 14.1205 4.57 15.7605 4.93 17.8405C5.01 18.3305 5.42 18.6905 5.91 18.6905C6.52 18.6905 7 18.1505 6.91 17.5505C6.67224 16.1062 5.98772 14.7728 4.95271 13.7378C3.9177 12.7028 2.58428 12.0182 1.14 11.7805ZM1.1 7.74049C0.51 7.69049 0 8.15049 0 8.74049C0 9.25049 0.38 9.68049 0.88 9.73049C5.15 10.1405 8.55 13.5405 8.96 17.8105C9.01 18.3105 9.44 18.6805 9.95 18.6805C10.55 18.6805 11.01 18.1605 10.95 17.5705C10.42 12.3805 6.29 8.26049 1.1 7.74049Z" fill="black"/>
</svg>
