<svg width="20" height="20" viewBox="0 0 20 20" fill="none" xmlns="http://www.w3.org/2000/svg">
<path d="M15.8332 15.833H6.6665C6.20817 15.833 5.81595 15.67 5.48984 15.3438C5.16373 15.0177 5.00039 14.6252 4.99984 14.1663V2.49967C4.99984 2.04134 5.16317 1.64912 5.48984 1.32301C5.8165 0.996897 6.20873 0.833563 6.6665 0.833008H11.8123C12.0346 0.833008 12.2465 0.874674 12.4482 0.958008C12.6498 1.04134 12.8268 1.1594 12.979 1.31217L17.0207 5.35384C17.1734 5.50662 17.2915 5.68384 17.3748 5.88551C17.4582 6.08717 17.4998 6.29884 17.4998 6.52051V14.1663C17.4998 14.6247 17.3368 15.0172 17.0107 15.3438C16.6846 15.6705 16.2921 15.8336 15.8332 15.833ZM15.8332 6.66634H12.9165C12.5693 6.66634 12.2743 6.54495 12.0315 6.30217C11.7887 6.0594 11.6671 5.76412 11.6665 5.41634V2.49967H6.6665V14.1663H15.8332V6.66634ZM3.33317 19.1663C2.87484 19.1663 2.48262 19.0033 2.1565 18.6772C1.83039 18.3511 1.66706 17.9586 1.6665 17.4997V6.66634C1.6665 6.43023 1.7465 6.23245 1.9065 6.07301C2.0665 5.91356 2.26428 5.83356 2.49984 5.83301C2.73539 5.83245 2.93345 5.91245 3.094 6.07301C3.25456 6.23356 3.33428 6.43134 3.33317 6.66634V17.4997H11.6665C11.9026 17.4997 12.1007 17.5797 12.2607 17.7397C12.4207 17.8997 12.5004 18.0975 12.4998 18.333C12.4993 18.5686 12.4193 18.7666 12.2598 18.9272C12.1004 19.0877 11.9026 19.1675 11.6665 19.1663H3.33317Z" fill="black"/>
</svg>
