<svg width="24" height="24" viewBox="0 0 24 24" fill="none" xmlns="http://www.w3.org/2000/svg">
<path d="M20.6763 20.282C20.545 20.282 20.422 20.2574 20.3071 20.2082C20.1922 20.1589 20.0856 20.0851 19.9871 19.9866L17.7226 17.7221H7.87674C7.33522 17.7221 6.87181 17.5294 6.48651 17.1441C6.10121 16.7588 5.90823 16.2951 5.90757 15.7529V14.7683H16.738C17.2795 14.7683 17.7432 14.5757 18.1292 14.1904C18.5152 13.8051 18.7078 13.3413 18.7072 12.7992V5.90708H19.6917C20.2333 5.90708 20.697 6.10006 21.083 6.48602C21.4689 6.87197 21.6616 7.33538 21.6609 7.87625V19.2728C21.6609 19.5682 21.5624 19.8104 21.3655 19.9994C21.1686 20.1885 20.9389 20.2827 20.6763 20.282ZM3.9384 11.9869L5.09529 10.83H14.7688V3.93792H3.9384V11.9869ZM2.95382 15.3591C2.69127 15.3591 2.46153 15.2649 2.26461 15.0765C2.0677 14.8881 1.96924 14.6459 1.96924 14.3499V3.93792C1.96924 3.3964 2.16222 2.93299 2.54817 2.54768C2.93413 2.16238 3.39754 1.96941 3.9384 1.96875H14.7688C15.3103 1.96875 15.7741 2.16173 16.16 2.54768C16.546 2.93364 16.7386 3.39705 16.738 3.93792V10.83C16.738 11.3715 16.5453 11.8353 16.16 12.2212C15.7747 12.6072 15.311 12.7998 14.7688 12.7992H5.90757L3.64303 15.0637C3.54457 15.1622 3.43791 15.236 3.32304 15.2852C3.20817 15.3345 3.0851 15.3591 2.95382 15.3591Z" fill="black"/>
</svg>
