<svg width="28" height="21" viewBox="0 0 28 21" fill="none" xmlns="http://www.w3.org/2000/svg">
<path d="M15.718 12.4086H23.4496V9.83143H15.718V12.4086ZM15.718 8.11331H23.4496V5.53612H15.718V8.11331ZM3.69113 15.8449H13.9999V14.2341C13.9999 13.5421 13.4749 12.9217 12.4249 12.3728C11.375 11.824 10.1759 11.5496 8.82761 11.5496C7.47936 11.5496 6.28622 11.818 5.24818 12.3549C4.21015 12.8918 3.69113 13.5182 3.69113 14.2341V15.8449ZM8.85302 10.6905C9.5639 10.6905 10.1699 10.4374 10.671 9.9313C11.1721 9.42517 11.4227 8.81666 11.4227 8.10579C11.4227 7.39492 11.1696 6.78892 10.6635 6.2878C10.1574 5.78668 9.54887 5.53612 8.83799 5.53612C8.12712 5.53612 7.52112 5.78919 7.02 6.29532C6.51888 6.80145 6.26832 7.40995 6.26832 8.12082C6.26832 8.8317 6.52139 9.4377 7.02752 9.93882C7.53365 10.4399 8.14215 10.6905 8.85302 10.6905ZM2.83207 20.9992C2.12334 20.9992 1.51663 20.7468 1.01193 20.2418C0.507232 19.7369 0.254883 19.1298 0.254883 18.4206V2.94891C0.254883 2.2397 0.507232 1.63454 1.01193 1.13342C1.51663 0.632304 2.12334 0.381744 2.83207 0.381744H25.1677C25.8764 0.381744 26.4831 0.634212 26.9878 1.13915C27.4925 1.64409 27.7449 2.25116 27.7449 2.96036V18.4321C27.7449 19.1413 27.4925 19.7464 26.9878 20.2476C26.4831 20.7487 25.8764 20.9992 25.1677 20.9992H2.83207ZM2.83207 18.4221H25.1677V2.95893H2.83207V18.4221Z" fill="black"/>
</svg>
