<svg width="35" height="48" viewBox="0 0 35 48" fill="none" xmlns="http://www.w3.org/2000/svg">
<path d="M2.33336 24.1167C2.33336 24.8587 2.3878 25.6053 2.49669 26.3567C2.60247 27.1096 2.78292 27.8531 3.03803 28.5873C3.14225 28.9187 3.13058 29.236 3.00303 29.5393C2.87547 29.8427 2.66858 30.0558 2.38236 30.1787C2.08991 30.3109 1.79203 30.3179 1.48869 30.1997C1.18536 30.0814 0.980804 29.8559 0.875026 29.523C0.563915 28.6597 0.339915 27.7683 0.203026 26.849C0.0661371 25.9297 -0.00152934 25.0189 2.62173e-05 24.1167C2.62173e-05 19.2338 1.70336 15.0773 5.11003 11.6473C8.51669 8.21733 12.6467 6.50155 17.5 6.5H20.7364L16.66 2.426C16.4422 2.20822 16.3256 1.94067 16.31 1.62333C16.2945 1.306 16.4111 1.02289 16.66 0.773999C16.9089 0.52511 17.1842 0.400665 17.486 0.400665C17.7878 0.400665 18.0631 0.52511 18.312 0.773999L23.884 6.34833C24.262 6.72478 24.451 7.16422 24.451 7.66667C24.451 8.16911 24.2628 8.60933 23.8864 8.98733L18.312 14.5593C18.0942 14.7771 17.8267 14.8938 17.5094 14.9093C17.192 14.9249 16.9089 14.8082 16.66 14.5593C16.4111 14.3104 16.2867 14.0351 16.2867 13.7333C16.2867 13.4316 16.4111 13.1562 16.66 12.9073L20.7364 8.83333H17.5C13.2829 8.83333 9.70047 10.3166 6.75269 13.283C3.80491 16.2494 2.3318 19.8607 2.33336 24.1167ZM32.6667 23.8833C32.6667 23.1413 32.6122 22.3947 32.5034 21.6433C32.3976 20.8904 32.2171 20.1477 31.962 19.415C31.8578 19.0821 31.8702 18.764 31.9994 18.4607C32.1285 18.1573 32.3346 17.9442 32.6177 17.8213C32.9101 17.6891 33.201 17.6821 33.4904 17.8003C33.7781 17.9186 33.9749 18.1441 34.0807 18.477C34.3918 19.3419 34.6228 20.2332 34.7737 21.151C34.9246 22.0688 35 22.9796 35 23.8833C35 28.7662 33.2967 32.9227 29.89 36.3527C26.4834 39.7827 22.3534 41.4984 17.5 41.5H14.266L18.3377 45.574C18.557 45.7918 18.6737 46.0601 18.6877 46.379C18.7032 46.6948 18.5866 46.9771 18.3377 47.226C18.0904 47.4749 17.8158 47.5993 17.514 47.5993C17.2122 47.5993 16.9369 47.4749 16.688 47.226L11.116 41.6517C10.7365 41.2768 10.5467 40.8373 10.5467 40.3333C10.5467 39.8293 10.7349 39.3899 11.1114 39.015L16.6857 33.4407C16.9035 33.2229 17.171 33.1062 17.4884 33.0907C17.8057 33.0751 18.0888 33.1918 18.3377 33.4407C18.5866 33.6896 18.711 33.9649 18.711 34.2667C18.711 34.5684 18.5866 34.8438 18.3377 35.0927L14.266 39.1667H17.5C21.7187 39.1667 25.3011 37.6834 28.2474 34.717C31.1936 31.7506 32.6667 28.1393 32.6667 23.8833Z" fill="black"/>
</svg>
