<svg width="57" height="56" viewBox="0 0 57 56" fill="none" xmlns="http://www.w3.org/2000/svg">
<path d="M7.53619 39.7839C8.11038 39.3297 8.93978 39.4363 9.38637 40.0203C9.83297 40.6043 9.72815 41.448 9.15396 41.9022L3.18416 46.6162L3.13859 52.8227L10.3297 52.4148L14.308 45.9858C14.6954 45.36 15.5066 45.1746 16.1218 45.5686C16.737 45.9626 16.9193 46.7877 16.5319 47.4134L12.2163 54.3894C12.0021 54.7648 11.6102 55.0244 11.15 55.0522L1.88538 55.576C1.85804 55.576 1.83526 55.576 1.80791 55.576C1.08334 55.5714 0.495469 54.9734 0.500026 54.2364L0.559269 46.0553C0.527369 45.6242 0.705096 45.1839 1.06511 44.8965L7.53619 39.7839ZM18.856 24.9421C21.8592 15.8154 25.9013 9.34931 31.5931 5.27035C37.5037 1.04306 45.0958 -0.560709 55.044 0.17165C55.7321 0.222637 56.2561 0.797399 56.2698 1.48341C57.2314 12.441 55.1442 20.2095 50.6874 26.0962C46.3946 31.7558 39.9645 35.5844 31.9759 38.7966V49.49C31.9759 50.0138 31.6797 50.468 31.2468 50.6905L23.1169 55.7985C22.5017 56.1878 21.6905 55.9932 21.3077 55.3628C21.2075 55.1959 21.1437 55.0151 21.1209 54.8344C19.3208 40.8407 17.4069 40.1686 6.15994 36.2102C4.82016 35.7374 3.36644 35.2275 2.38667 34.8753C1.7031 34.6296 1.34309 33.8648 1.58462 33.1649C1.63474 33.0166 1.71221 32.8821 1.80336 32.7663L7.16251 24.993C7.43138 24.6037 7.8643 24.4044 8.30178 24.4229L18.856 24.9421ZM39.0896 11.9218C40.6207 11.9218 42.0061 12.5522 43.0087 13.572C44.0112 14.5917 44.631 16.0008 44.631 17.5582C44.631 19.1156 44.0112 20.5247 43.0087 21.5445C42.0061 22.5642 40.6207 23.1946 39.0896 23.1946C37.5584 23.1946 36.173 22.5642 35.1704 21.5445C34.1679 20.5247 33.5481 19.1156 33.5481 17.5582C33.5481 16.0008 34.1679 14.5917 35.1704 13.572C36.173 12.5522 37.5584 11.9218 39.0896 11.9218ZM41.7327 14.8698C41.0582 14.1838 40.124 13.7574 39.0896 13.7574C38.0596 13.7574 37.1254 14.1838 36.4464 14.8698C35.772 15.5558 35.3527 16.506 35.3527 17.5582C35.3527 18.6058 35.772 19.556 36.4464 20.2466C37.1209 20.9326 38.0551 21.3591 39.0896 21.3591C40.1195 21.3591 41.0537 20.9326 41.7327 20.2466C42.4071 19.5606 42.8264 18.6104 42.8264 17.5582C42.8264 16.506 42.4071 15.5558 41.7327 14.8698ZM33.1061 7.46279C27.7241 11.3193 23.9098 17.6324 21.0617 26.6664C20.9067 27.2643 20.3599 27.6954 19.7264 27.6629L8.8942 27.1252L4.89307 32.9331C5.74069 33.2344 6.39236 33.4662 7.01668 33.684C19.011 37.902 21.5037 38.7781 23.4541 52.4426L29.3374 48.7484V37.8881H29.3419C29.3419 37.3504 29.6655 36.8452 30.185 36.6413C38.1417 33.5264 44.4988 29.8739 48.6002 24.46C52.5148 19.2918 54.4105 12.4317 53.7315 2.77199C44.9682 2.28066 38.2738 3.76855 33.1061 7.46279Z" fill="black"/>
</svg>
