<svg width="28" height="28" viewBox="0 0 28 28" fill="none" xmlns="http://www.w3.org/2000/svg">
<path d="M14.0006 17.4313C15.8957 17.4313 17.4318 15.8951 17.4318 14C17.4318 12.1049 15.8957 10.5688 14.0006 10.5688C12.1055 10.5688 10.5693 12.1049 10.5693 14C10.5693 15.8951 12.1055 17.4313 14.0006 17.4313Z" stroke="black" stroke-width="1.5" stroke-linecap="round" stroke-linejoin="round"/>
<path d="M22.7181 12.1647L21.4626 9.13311L23.15 7.1375L20.8625 4.85L18.8777 6.54612L15.7817 5.27289L15.0697 2.5625H12.8345L12.1118 5.30879L9.08692 6.58388L7.1375 4.85L4.85 7.1375L6.51229 9.1835L5.27605 12.223L2.5625 12.8562V15.1437L5.30877 15.8935L6.58364 18.9178L4.85 20.8625L7.1375 23.15L9.18614 21.4805L12.1666 22.7066L12.8562 25.4375H15.1437L15.8351 22.7076L18.8668 21.4521C19.3721 21.8133 20.8625 23.15 20.8625 23.15L23.15 20.8625L21.4526 18.8602L22.7084 15.8277L25.4374 15.1177L25.4375 12.8562L22.7181 12.1647Z" stroke="black" stroke-width="1.5" stroke-linecap="round" stroke-linejoin="round"/>
</svg>
