<svg width="36" height="36" viewBox="0 0 36 36" fill="none" xmlns="http://www.w3.org/2000/svg">
<circle cx="18" cy="18" r="18" fill="#E2E6EC"/>
<path d="M12.9987 27.1666C12.5404 27.1666 12.1481 27.0036 11.822 26.6775C11.4959 26.3513 11.3326 25.9588 11.332 25.5V16.3333C11.332 15.875 11.4954 15.4827 11.822 15.1566C12.1487 14.8305 12.5409 14.6672 12.9987 14.6666H14.6654C14.9015 14.6666 15.0995 14.7466 15.2595 14.9066C15.4195 15.0666 15.4993 15.2644 15.4987 15.5C15.4981 15.7355 15.4181 15.9336 15.2587 16.0941C15.0993 16.2547 14.9015 16.3344 14.6654 16.3333H12.9987V25.5H22.9987V16.3333H21.332C21.0959 16.3333 20.8981 16.2533 20.7387 16.0933C20.5793 15.9333 20.4993 15.7355 20.4987 15.5C20.4981 15.2644 20.5781 15.0666 20.7387 14.9066C20.8993 14.7466 21.097 14.6666 21.332 14.6666H22.9987C23.457 14.6666 23.8495 14.83 24.1762 15.1566C24.5029 15.4833 24.6659 15.8755 24.6654 16.3333V25.5C24.6654 25.9583 24.5023 26.3508 24.1762 26.6775C23.8501 27.0041 23.4576 27.1672 22.9987 27.1666H12.9987ZM17.1654 12.0208L16.4154 12.7708C16.2487 12.9375 16.0543 13.0175 15.832 13.0108C15.6098 13.0041 15.4154 12.9172 15.2487 12.75C15.0959 12.5833 15.0162 12.3888 15.0095 12.1666C15.0029 11.9444 15.0826 11.75 15.2487 11.5833L17.4154 9.41663C17.582 9.24996 17.7765 9.16663 17.9987 9.16663C18.2209 9.16663 18.4154 9.24996 18.582 9.41663L20.7487 11.5833C20.9015 11.7361 20.9779 11.9272 20.9779 12.1566C20.9779 12.3861 20.9015 12.5838 20.7487 12.75C20.582 12.9166 20.3843 13 20.1554 13C19.9265 13 19.7284 12.9166 19.5612 12.75L18.832 12.0208V20.5C18.832 20.7361 18.752 20.9341 18.592 21.0941C18.432 21.2541 18.2343 21.3338 17.9987 21.3333C17.7631 21.3327 17.5654 21.2527 17.4054 21.0933C17.2454 20.9338 17.1654 20.7361 17.1654 20.5V12.0208Z" fill="black"/>
</svg>
