<svg width="20" height="20" viewBox="0 0 20 20" fill="none" xmlns="http://www.w3.org/2000/svg">
<path d="M4.9987 19.1666C4.54036 19.1666 4.14814 19.0036 3.82203 18.6775C3.49592 18.3513 3.33259 17.9588 3.33203 17.5V8.33329C3.33203 7.87496 3.49536 7.48274 3.82203 7.15663C4.1487 6.83051 4.54092 6.66718 4.9987 6.66663H6.66536C6.90148 6.66663 7.09953 6.74663 7.25953 6.90663C7.41953 7.06663 7.49925 7.2644 7.4987 7.49996C7.49814 7.73551 7.41814 7.93357 7.2587 8.09413C7.09925 8.25468 6.90148 8.3344 6.66536 8.33329H4.9987V17.5H14.9987V8.33329H13.332C13.0959 8.33329 12.8981 8.25329 12.7387 8.09329C12.5793 7.93329 12.4993 7.73551 12.4987 7.49996C12.4981 7.2644 12.5781 7.06663 12.7387 6.90663C12.8993 6.74663 13.097 6.66663 13.332 6.66663H14.9987C15.457 6.66663 15.8495 6.82996 16.1762 7.15663C16.5029 7.48329 16.6659 7.87551 16.6654 8.33329V17.5C16.6654 17.9583 16.5023 18.3508 16.1762 18.6775C15.8501 19.0041 15.4576 19.1672 14.9987 19.1666H4.9987ZM9.16536 4.02079L8.41536 4.77079C8.2487 4.93746 8.05425 5.01746 7.83203 5.01079C7.60981 5.00413 7.41536 4.91718 7.2487 4.74996C7.09592 4.58329 7.0162 4.38885 7.00953 4.16663C7.00286 3.9444 7.08259 3.74996 7.2487 3.58329L9.41536 1.41663C9.58203 1.24996 9.77648 1.16663 9.9987 1.16663C10.2209 1.16663 10.4154 1.24996 10.582 1.41663L12.7487 3.58329C12.9015 3.73607 12.9779 3.92718 12.9779 4.15663C12.9779 4.38607 12.9015 4.58385 12.7487 4.74996C12.582 4.91663 12.3843 4.99996 12.1554 4.99996C11.9265 4.99996 11.7284 4.91663 11.5612 4.74996L10.832 4.02079V12.5C10.832 12.7361 10.752 12.9341 10.592 13.0941C10.432 13.2541 10.2343 13.3338 9.9987 13.3333C9.76314 13.3327 9.56536 13.2527 9.40536 13.0933C9.24536 12.9338 9.16536 12.7361 9.16536 12.5V4.02079Z" fill="black"/>
</svg>
