<svg width="57" height="56" viewBox="0 0 57 56" fill="none" xmlns="http://www.w3.org/2000/svg">
<path fill-rule="evenodd" clip-rule="evenodd" d="M48.1875 38.0745L47.9414 29.0207L32.9707 33.3189C31.6217 33.6133 30.291 33.7537 28.9876 33.7582C27.5886 33.7627 26.2123 33.6133 24.8587 33.3189L10.558 28.9754V38.156C10.9681 42.9252 24.7357 44.3836 28.9603 44.5829C32.3464 44.7459 45.722 42.9886 47.4811 40.2485C47.8593 39.6506 48.0963 38.926 48.1875 38.0745ZM54.2532 22.5032V33.568H54.6041C54.8457 33.568 55.0416 33.7627 55.0416 34.0028V36.9784C55.0416 37.2139 54.8457 37.4132 54.6041 37.4132H54.2532V38.4549C54.6998 38.5365 55.0416 38.9305 55.0416 39.397C55.0416 39.9224 54.6041 40.3572 54.0755 40.3572H52.3483C51.8196 40.3572 51.3821 39.9269 51.3821 39.397C51.3821 38.9305 51.7239 38.5365 52.1705 38.4549V37.4132H51.8196C51.5826 37.4132 51.3821 37.2185 51.3821 36.9784V34.0028C51.3821 33.7627 51.5781 33.568 51.8196 33.568H52.1705V23.1509L33.9505 28.7761C30.651 29.5551 27.3516 29.6095 24.0521 28.7761L3.94081 22.8112L2.12246 22.2723C-0.142513 21.3528 0.42259 19.1924 2.53261 18.6942L25.278 11.9458C27.625 11.28 29.9675 11.1758 32.3145 11.9458L54.6497 18.6127C57.0787 19.2015 57.5572 21.4344 54.7317 22.3538L54.2532 22.5032Z" fill="black"/>
</svg>
