<svg width="58" height="29" viewBox="0 0 58 29" fill="none" xmlns="http://www.w3.org/2000/svg">
<path d="M29 14.6479C32.6095 14.6479 35.5519 11.432 35.5519 7.51904C35.5519 3.65065 32.625 0.587006 29 0.587006C25.4061 0.587006 22.4481 3.69622 22.4481 7.54908C22.4626 11.4475 25.405 14.6479 29 14.6479ZM11.5275 14.9803C14.6512 14.9803 17.2146 12.1735 17.2146 8.73083C17.2146 5.36476 14.6823 2.64911 11.5275 2.64911C8.40275 2.64911 5.82382 5.40929 5.83936 8.76086C5.85489 12.1891 8.40275 14.9803 11.5275 14.9803ZM46.488 14.9803C49.5972 14.9803 52.1606 12.1891 52.1606 8.76086C52.1762 5.40929 49.5972 2.64911 46.488 2.64911C43.3187 2.64911 40.7854 5.36372 40.7854 8.73083C40.7854 12.1735 43.3488 14.9803 46.488 14.9803ZM29 12.3569C26.7856 12.3569 24.8892 10.2336 24.8892 7.54908C24.8892 4.91008 26.7556 2.87801 29.001 2.87801C31.2599 2.87801 33.1107 4.88004 33.1107 7.51801C33.1107 10.2036 31.2444 12.3569 29 12.3569ZM11.5275 12.7214C9.67668 12.7214 8.09929 10.9462 8.09929 8.7619C8.09929 6.62418 9.66114 4.90904 11.5275 4.90904C13.4384 4.90904 14.9702 6.59311 14.9702 8.73186C14.9702 10.9462 13.3928 12.7214 11.5275 12.7214ZM46.488 12.7214C44.6072 12.7214 43.0298 10.9462 43.0298 8.73186C43.0298 6.59311 44.5616 4.91008 46.488 4.91008C48.3534 4.91008 49.9007 6.62419 49.9007 8.76294C49.9007 10.9462 48.3378 12.7214 46.488 12.7214ZM3.09368 28.8889H15.0002C14.2721 28.4798 13.7108 27.5694 13.8175 26.6445H2.71461C2.41114 26.6445 2.25993 26.5234 2.25993 26.2354C2.25993 22.4737 6.55193 18.9544 11.512 18.9544C13.4229 18.9544 15.137 19.4101 16.6077 20.2739C17.0954 19.6553 17.6732 19.1135 18.3218 18.6664C16.3653 17.377 14.0142 16.71 11.512 16.71C5.15682 16.71 0 21.321 0 26.3722C0 28.0552 1.03157 28.8889 3.09368 28.8889ZM54.9208 28.8889C56.9684 28.8889 58 28.0552 58 26.3722C58 21.321 52.8421 16.71 46.488 16.71C43.9857 16.71 41.6492 17.377 39.6782 18.6675C40.3608 19.1367 40.9211 19.668 41.4079 20.2739C42.863 19.4101 44.5916 18.9544 46.488 18.9544C51.4481 18.9544 55.7401 22.4737 55.7401 26.2354C55.7401 26.5234 55.6034 26.6445 55.2999 26.6445H44.197C44.2882 27.5694 43.7424 28.4798 43.0142 28.8889H54.9208ZM19.4745 28.8889H38.5255C41.0422 28.8889 42.2416 28.1308 42.2416 26.4623C42.2416 22.4882 37.2205 16.74 29 16.74C20.764 16.74 15.7429 22.4882 15.7429 26.4623C15.7429 28.1308 16.9422 28.8889 19.4745 28.8889ZM18.7464 26.6C18.3529 26.6 18.1861 26.4933 18.1861 26.1754C18.1861 23.6865 22.039 19.031 29 19.031C35.9465 19.031 39.7994 23.6865 39.7994 26.1743C39.7994 26.4933 39.6471 26.599 39.2536 26.599L18.7464 26.6Z" fill="black"/>
</svg>
