<svg width="57" height="44" viewBox="0 0 57 44" fill="none" xmlns="http://www.w3.org/2000/svg">
<path d="M46.2005 12.1187C45.7995 12.0783 45.5033 11.7238 45.5443 11.3245C45.5853 10.9296 45.9453 10.6379 46.3509 10.6783C47.2533 10.7726 48.1146 11.0463 48.903 11.5129C49.2858 11.7373 49.6458 12.0065 49.9876 12.3206C50.1426 11.9482 50.334 11.6027 50.5527 11.2796C51.0404 10.5706 51.6738 9.98733 52.4212 9.56106C52.7721 9.35915 53.2233 9.4803 53.4238 9.8258C53.6289 10.1713 53.5059 10.6155 53.1549 10.8129C52.599 11.127 52.1296 11.5623 51.7695 12.0873C51.4186 12.6033 51.168 13.209 51.0449 13.8866C51.0176 14.0795 50.9173 14.259 50.7441 14.3801C50.416 14.6135 49.9557 14.5372 49.7188 14.2141C49.2585 13.577 48.7253 13.0924 48.1465 12.7513C47.5495 12.3969 46.8932 12.1905 46.2005 12.1187ZM17.3574 17.4089V41.3741H20.1829L23.4733 37.8114H21.7279V35.6352H27.1328L21.0352 28.9809L22.6758 27.5271L26.3672 31.552V31.3949H35.4043C35.8008 31.3949 36.1517 31.6013 36.3477 31.9109L39.0182 35.6307H44.0358C44.3685 35.6307 44.6693 35.7743 44.8698 36.0076L50.3659 41.3741H56.5V43.5503H0.81901V41.3741H15.6393V17.4089H1.36133C0.88737 17.4089 0.5 17.032 0.5 16.5608C0.5 16.5339 0.5 16.507 0.504557 16.4756C0.541016 12.2488 2.33203 8.43033 5.20768 5.66184C8.04688 2.93821 11.9388 1.22866 16.2409 1.17033C16.3229 1.1434 16.4141 1.12994 16.5052 1.12994C16.5964 1.12994 16.6875 1.1434 16.7741 1.17033C21.0534 1.24661 24.918 2.95167 27.7435 5.66633C30.6374 8.45277 32.4329 12.3026 32.4466 16.5608C32.4466 17.0275 32.0638 17.4044 31.5898 17.4044V17.4089H17.3574ZM23.168 41.3786H47.2305L43.5801 37.8159H26.4583L23.168 41.3786ZM30.1087 35.6352H36.3112L34.8346 33.5756H28.222L30.1087 35.6352ZM38.7448 3.5664C38.2754 3.62473 37.847 3.30166 37.7832 2.8395C37.724 2.37734 38.0521 1.95555 38.5215 1.89274C40.0072 1.69979 41.4427 1.87479 42.7415 2.44464C43.5254 2.79014 44.25 3.27474 44.9017 3.9119C45.2572 3.12667 45.7402 2.43567 46.3327 1.85684C47.3125 0.901104 48.5749 0.25946 50.015 0.0126732C50.4844 -0.0680933 50.9264 0.245999 51.0085 0.703675C51.0905 1.16584 50.7715 1.60108 50.3066 1.68185C49.222 1.86581 48.2741 2.34593 47.5495 3.05488C46.8294 3.75485 46.319 4.69264 46.0957 5.80094H46.0911C46.0501 6.01183 45.9271 6.20926 45.7311 6.33938C45.3392 6.59963 44.806 6.50091 44.5417 6.11503C43.849 5.10993 42.9967 4.40996 42.0443 3.99266C41.0462 3.54396 39.9251 3.41384 38.7448 3.5664ZM26.5449 6.87782C25.3783 5.75607 24.0065 4.82276 22.4935 4.14522C23.0768 4.97532 23.569 5.92209 23.9701 6.96756C24.9043 9.39504 25.36 12.3789 25.4056 15.7173H30.7012C30.4733 12.2712 28.9284 9.17069 26.5449 6.87782ZM18.9935 3.07731C18.4603 2.98757 17.918 2.92475 17.3665 2.88886V15.7173H23.6921C23.651 12.5853 23.2272 9.80336 22.3659 7.56434C21.6003 5.56761 20.4883 4.01959 18.9935 3.07731ZM15.6439 2.88437C15.1016 2.91578 14.5638 2.97411 14.0397 3.05936C12.5267 4.00613 11.401 5.56761 10.6309 7.59126C9.77865 9.82131 9.35938 12.5988 9.31836 15.7128H15.6439V2.88437ZM10.5488 4.10484C8.99935 4.79135 7.5957 5.73363 6.40625 6.88231C4.02279 9.17518 2.47786 12.2757 2.25 15.7173H7.60938C7.65039 12.3969 8.10612 9.42197 9.03125 6.99897C9.43685 5.92209 9.94271 4.9484 10.5488 4.10484Z" fill="black"/>
</svg>
