<svg width="20" height="14" viewBox="0 0 20 14" fill="none" xmlns="http://www.w3.org/2000/svg">
<path d="M10.4167 6.9585C10.8194 6.51405 11.1286 6.00711 11.3442 5.43766C11.5597 4.86822 11.6672 4.27794 11.6667 3.66683C11.6661 3.05572 11.5586 2.46544 11.3442 1.896C11.1297 1.32655 10.8206 0.819607 10.4167 0.375163C11.25 0.486274 11.9444 0.854329 12.5 1.47933C13.0556 2.10433 13.3333 2.8335 13.3333 3.66683C13.3333 4.50016 13.0556 5.22933 12.5 5.85433C11.9444 6.47933 11.25 6.84738 10.4167 6.9585ZM14.5417 13.6668C14.6944 13.4168 14.8092 13.1496 14.8858 12.8652C14.9625 12.5807 15.0006 12.2924 15 12.0002V11.1668C15 10.6668 14.8889 10.191 14.6667 9.73933C14.4444 9.28766 14.1528 8.8885 13.7917 8.54183C14.5 8.79183 15.1564 9.11488 15.7608 9.511C16.3653 9.90711 16.6672 10.4591 16.6667 11.1668V12.0002C16.6667 12.4585 16.5036 12.851 16.1775 13.1777C15.8514 13.5043 15.4589 13.6674 15 13.6668H14.5417ZM16.6667 6.16683H15.8333C15.5972 6.16683 15.3994 6.08683 15.24 5.92683C15.0806 5.76683 15.0006 5.56905 15 5.3335C14.9994 5.09794 15.0794 4.90016 15.24 4.74016C15.4006 4.58016 15.5983 4.50016 15.8333 4.50016H16.6667V3.66683C16.6667 3.43072 16.7467 3.23294 16.9067 3.0735C17.0667 2.91405 17.2644 2.83405 17.5 2.8335C17.7356 2.83294 17.9336 2.91294 18.0942 3.0735C18.2547 3.23405 18.3344 3.43183 18.3333 3.66683V4.50016H19.1667C19.4028 4.50016 19.6008 4.58016 19.7608 4.74016C19.9208 4.90016 20.0006 5.09794 20 5.3335C19.9994 5.56905 19.9194 5.76711 19.76 5.92766C19.6006 6.08822 19.4028 6.16794 19.1667 6.16683H18.3333V7.00016C18.3333 7.23627 18.2533 7.43433 18.0933 7.59433C17.9333 7.75433 17.7356 7.83405 17.5 7.8335C17.2644 7.83294 17.0667 7.75294 16.9067 7.5935C16.7467 7.43405 16.6667 7.23627 16.6667 7.00016V6.16683ZM6.66667 7.00016C5.75 7.00016 4.96528 6.67377 4.3125 6.021C3.65972 5.36822 3.33333 4.5835 3.33333 3.66683C3.33333 2.75016 3.65972 1.96544 4.3125 1.31266C4.96528 0.659885 5.75 0.333496 6.66667 0.333496C7.58333 0.333496 8.36805 0.659885 9.02083 1.31266C9.67361 1.96544 10 2.75016 10 3.66683C10 4.5835 9.67361 5.36822 9.02083 6.021C8.36805 6.67377 7.58333 7.00016 6.66667 7.00016ZM0 12.0002V11.3335C0 10.8613 0.121667 10.4274 0.365 10.0318C0.608333 9.63627 0.931111 9.33405 1.33333 9.12516C2.19444 8.69461 3.06944 8.37183 3.95833 8.15683C4.84722 7.94183 5.75 7.83405 6.66667 7.8335C7.58333 7.83294 8.48611 7.94072 9.375 8.15683C10.2639 8.37294 11.1389 8.69572 12 9.12516C12.4028 9.3335 12.7258 9.63572 12.9692 10.0318C13.2125 10.4279 13.3339 10.8618 13.3333 11.3335V12.0002C13.3333 12.4585 13.1703 12.851 12.8442 13.1777C12.5181 13.5043 12.1256 13.6674 11.6667 13.6668H1.66667C1.20833 13.6668 0.816111 13.5038 0.49 13.1777C0.163889 12.8516 0.000555556 12.4591 0 12.0002ZM6.66667 5.3335C7.125 5.3335 7.5175 5.17044 7.84417 4.84433C8.17083 4.51822 8.33389 4.12572 8.33333 3.66683C8.33278 3.20794 8.16972 2.81572 7.84417 2.49016C7.51861 2.16461 7.12611 2.00127 6.66667 2.00016C6.20722 1.99905 5.815 2.16238 5.49 2.49016C5.165 2.81794 5.00167 3.21016 5 3.66683C4.99833 4.1235 5.16167 4.516 5.49 4.84433C5.81833 5.17266 6.21056 5.33572 6.66667 5.3335ZM1.66667 12.0002H11.6667V11.3335C11.6667 11.1807 11.6286 11.0418 11.5525 10.9168C11.4764 10.7918 11.3756 10.6946 11.25 10.6252C10.5 10.2502 9.74305 9.96905 8.97917 9.78183C8.21528 9.59461 7.44444 9.50072 6.66667 9.50016C5.88889 9.49961 5.11805 9.5935 4.35417 9.78183C3.59028 9.97016 2.83333 10.2513 2.08333 10.6252C1.95833 10.6946 1.8575 10.7918 1.78083 10.9168C1.70417 11.0418 1.66611 11.1807 1.66667 11.3335V12.0002Z" fill="black"/>
</svg>
