<svg xmlns="http://www.w3.org/2000/svg" xmlns:xlink="http://www.w3.org/1999/xlink" viewBox="0 0 500.72 604.08"><defs><style>.cls-1{fill:none;}.cls-2{fill:#221f1f;}.cls-3{fill:#fff;}.cls-4{fill:#e2e1e1;}.cls-5{clip-path:url(#clip-path);}.cls-6{clip-path:url(#clip-path-2);}.cls-7{fill:url(#radial-gradient);}.cls-8{fill:#bbb;}.cls-9{clip-path:url(#clip-path-3);}.cls-10{clip-path:url(#clip-path-4);}.cls-11{fill:url(#radial-gradient-2);}.cls-12{clip-path:url(#clip-path-5);}.cls-13{fill:url(#linear-gradient);}</style><clipPath id="clip-path"><rect class="cls-1" x="141.29" y="124.46" width="105.45" height="105.45"/></clipPath><clipPath id="clip-path-2"><path class="cls-1" d="M246.74,177.19A52.74,52.74,0,1,1,194,124.46a52.74,52.74,0,0,1,52.74,52.73h0"/></clipPath><radialGradient id="radial-gradient" cx="-1127.11" cy="1092.32" r="12.06" gradientTransform="translate(5073.28 -3698.01) scale(4.33)" gradientUnits="userSpaceOnUse"><stop offset="0" stop-color="#4c78bb"/><stop offset="0.13" stop-color="#4c78bb"/><stop offset="1"/></radialGradient><clipPath id="clip-path-3"><rect class="cls-1" x="283.72" y="124.46" width="105.45" height="105.45"/></clipPath><clipPath id="clip-path-4"><path class="cls-1" d="M389.18,177.19a52.74,52.74,0,1,1-52.74-52.73,52.74,52.74,0,0,1,52.74,52.73h0"/></clipPath><radialGradient id="radial-gradient-2" cx="-1095.56" cy="781.82" r="12.06" gradientTransform="matrix(4.33, 0, 0, -4.33, 5079.13, 3561.67)" xlink:href="#radial-gradient"/><clipPath id="clip-path-5"><path class="cls-1" d="M430.25,471.34a2.85,2.85,0,1,0,2.85-2.85,2.84,2.84,0,0,0-2.85,2.85h0"/></clipPath><linearGradient id="linear-gradient" x1="3702.15" y1="-1496.26" x2="3715.16" y2="-1496.26" gradientTransform="matrix(0.23, 0, 0, -0.23, -861.97, 122.7)" gradientUnits="userSpaceOnUse"><stop offset="0" stop-color="#0a1116"/><stop offset="1" stop-color="#082f44"/></linearGradient></defs><g id="Layer_2" data-name="Layer 2"><g id="Layer_1-2" data-name="Layer 1"><rect class="cls-1" width="500.72" height="603.93"/><rect class="cls-1" width="500.72" height="603.93"/><g id="Group_1760" data-name="Group 1760"><path id="Path_398" data-name="Path 398" class="cls-2" d="M59.27,351.88c69.91,19.15,86.45,13.79,98.9,32.55a42.66,42.66,0,0,1,7.31,27.25,40.58,40.58,0,0,1-11.38,23.76c-23.94,23.19-89.86-5.19-127.62-36.2-8.23-6.78-30.3-24.92-25.87-37.81a19.26,19.26,0,0,1,11.55-9.74,68.79,68.79,0,0,1,47.13.19"/><path id="Path_399" data-name="Path 399" class="cls-2" d="M500.72,247A107.43,107.43,0,0,1,393.29,354.39H142.14A107.75,107.75,0,0,1,34.71,247V191.15C35,85.71,120.42.31,225.87,0h83.7C415,.31,500.41,85.71,500.72,191.15Z"/><path id="Path_400" data-name="Path 400" class="cls-3" d="M427.42,236.78h0a44.91,44.91,0,0,1-19.88,4.6H127.89a44.94,44.94,0,0,1-19.88-4.6A36.77,36.77,0,0,1,86.7,199.09l.14-1.12a115.52,115.52,0,0,1,111.89-94.88c24.36-1.27,50-1.92,76.73-1.78q31.41.18,60.64,1.73a115.84,115.84,0,0,1,112.49,95l.15,1.12a36.78,36.78,0,0,1-21.32,37.68"/><path id="Path_401" data-name="Path 401" class="cls-2" d="M434.73,420.89v1.85a43.2,43.2,0,0,1-2.27,12.18,499.31,499.31,0,0,1-46.91,114.76c-2.81,4.34-5.73,8.48-8.87,12.57C372.56,567.69,368,573,363,578.45a81.86,81.86,0,0,1-33.49,19.49,137,137,0,0,1-49.16,5.87h-2.05a136.83,136.83,0,0,1-49.16-5.87,81.75,81.75,0,0,1-33.49-19.49c-30.69-33.39-42.51-61.16-69.45-143.53A42.94,42.94,0,0,1,124,423.43a44.13,44.13,0,0,1,0-4.88,49.87,49.87,0,0,1,11.67-28.33,64.58,64.58,0,0,1,50.28-23.5l93.44-.39L371.1,366a66.23,66.23,0,0,1,51.6,23.56,51.27,51.27,0,0,1,11.37,23.68c.2,1.16.37,2.43.46,3.55s.2,2.63.2,4"/><path id="Path_402" data-name="Path 402" class="cls-2" d="M372.2,504.2c-1.37-72.49-11.18-86.81,3.29-104.06a42.67,42.67,0,0,1,24.09-14.62,40.56,40.56,0,0,1,26,4.22c29,16.44,20.39,87.69,1.29,132.64-4.16,9.74-15.35,36.1-29,35.49a19.3,19.3,0,0,1-12.6-8.33,68.78,68.78,0,0,1-13.13-45.26"/><path id="Path_403" data-name="Path 403" class="cls-4" d="M385.55,549.76c-2.81,4.33-5.73,8.47-8.87,12.54-1-1-1.9-2.07-2.7-3A68.6,68.6,0,0,1,360.87,514c-1.36-72.49-11.18-86.82,3.29-104.06a45.41,45.41,0,0,1,11.25-9.75c-14.27,17.2-4.55,31.67-3.19,103.92a68.92,68.92,0,0,0,13.11,45.29,1.12,1.12,0,0,1,.22.26"/><path id="Path_404" data-name="Path 404" class="cls-4" d="M343,420.75l-16-11.67h0a8.78,8.78,0,0,0-10.33,0l-16.07,11.67a8.77,8.77,0,0,0-3.2,9.74l6.14,18.88a8.85,8.85,0,0,0,8.55,6.06h19.86a8.7,8.7,0,0,0,8.18-6.06l6.14-18.88a8.76,8.76,0,0,0-3.19-9.74m-40.15,3.19,16.08-11.67a4.86,4.86,0,0,1,5.7,0l16.08,11.67a4.87,4.87,0,0,1,1.75,5.43l-.46,1.44L325.91,420a7.32,7.32,0,0,0-8.21,0l-16.1,11-.61-1.61a4.89,4.89,0,0,1,1.78-5.43m21.92,0v27.72h-5.23V424l.39-.36a3.23,3.23,0,0,1,3.5-.71,3.3,3.3,0,0,1,1,.66Zm-17.44,24.36L302.92,435l12.42-8.33v25h-3.46a4.87,4.87,0,0,1-4.63-3.36m29.11,0a4.86,4.86,0,0,1-4.63,3.36h-2.92V426.52l12,8.23Z"/><g id="Group_1754" data-name="Group 1754"><g id="Group_1753" data-name="Group 1753"><g class="cls-5"><g id="Group_1752" data-name="Group 1752"><g id="Group_1751" data-name="Group 1751"><g class="cls-6"><g id="Group_1750-2" data-name="Group 1750-2"><rect id="Rectangle_1418" data-name="Rectangle 1418" class="cls-7" x="141.29" y="124.46" width="105.45" height="105.45"/></g></g></g></g></g></g></g><path id="Path_406" data-name="Path 406" class="cls-8" d="M231.86,177.19A37.86,37.86,0,1,1,194,139.34a37.86,37.86,0,0,1,37.86,37.85h0"/><path id="Path_407" data-name="Path 407" class="cls-2" d="M225.79,177.19a31.79,31.79,0,1,1-31.91-31.66h.25a31.67,31.67,0,0,1,31.66,31.66"/><path id="Path_408" data-name="Path 408" class="cls-3" d="M214.37,168.94a11.77,11.77,0,1,1-11.77-11.77,11.76,11.76,0,0,1,11.77,11.77h0"/><path id="Path_409" data-name="Path 409" class="cls-3" d="M194,201.68a4.71,4.71,0,1,1-4.7-4.7,4.71,4.71,0,0,1,4.7,4.7h0"/><path id="Path_410" data-name="Path 410" class="cls-3" d="M177.66,194.51a2.44,2.44,0,1,1-2.44-2.43h0a2.43,2.43,0,0,1,2.44,2.43"/><g id="Group_1759" data-name="Group 1759"><g id="Group_1758" data-name="Group 1758"><g class="cls-9"><g id="Group_1757" data-name="Group 1757"><g id="Group_1756" data-name="Group 1756"><g class="cls-10"><g id="Group_1755" data-name="Group 1755"><rect id="Rectangle_1420" data-name="Rectangle 1420" class="cls-11" x="283.72" y="124.46" width="105.45" height="105.45"/></g></g></g></g></g></g></g><path id="Path_412" data-name="Path 412" class="cls-8" d="M374.24,177.19a37.86,37.86,0,1,1-37.85-37.85,37.86,37.86,0,0,1,37.85,37.85h0"/><path id="Path_413" data-name="Path 413" class="cls-2" d="M368.28,177.19a31.79,31.79,0,1,1-31.92-31.66h.25a31.67,31.67,0,0,1,31.67,31.66h0"/><path id="Path_414" data-name="Path 414" class="cls-3" d="M356.83,168.94A11.77,11.77,0,1,1,345,157.17a11.76,11.76,0,0,1,11.79,11.77v0"/><path id="Path_415" data-name="Path 415" class="cls-3" d="M336.46,201.68a4.7,4.7,0,1,1-4.7-4.7,4.7,4.7,0,0,1,4.7,4.7h0"/><path id="Path_416" data-name="Path 416" class="cls-3" d="M320.12,194.51a2.44,2.44,0,1,1-2.44-2.43h0a2.44,2.44,0,0,1,2.44,2.43"/><path id="Path_417" data-name="Path 417" class="cls-8" d="M431.9,61.14a20.86,20.86,0,0,1-15.34,20.47c-7.8.85-14-7.12-20.47-15.35S375.9,37.34,381.48,31.45c7.31-7.77,49.86,8.7,50.47,29.69"/><path id="Path_418" data-name="Path 418" class="cls-8" d="M367.25,20.58A6.63,6.63,0,1,1,360.63,14a6.62,6.62,0,0,1,6.62,6.62h0"/><path id="Path_419" data-name="Path 419" class="cls-8" d="M431,184.65a268.17,268.17,0,0,0-56.73-54.88c-14-9.21-27.8-15.77-27-17.69a58.67,58.67,0,0,1,28.84,7.45A103.45,103.45,0,0,1,431,184.65"/><path id="Path_420" data-name="Path 420" class="cls-3" d="M324.57,264a10.75,10.75,0,0,1-9.74,9.43L245,280.19a10.77,10.77,0,0,1-11.4-7.31,49.11,49.11,0,0,1-1.51-6.67,2.44,2.44,0,0,1,2.1-2.66l88.13-8.5a2.3,2.3,0,0,1,2.44,2.14v.05a46.35,46.35,0,0,1-.2,6.87"/><path id="Path_421" data-name="Path 421" class="cls-4" d="M324.67,264a46.65,46.65,0,0,1-90.81,9.74,10.79,10.79,0,0,0,11.1,6.53l69.87-6.73a10.78,10.78,0,0,0,9.74-9.42"/><path id="Path_422" data-name="Path 422" class="cls-8" d="M426.45,443.82a119.8,119.8,0,0,0-4.88-25c-3.82-15-8.62-22.29-5.5-25.19,2-1.88,6-.61,6.92-.32,13.69,4.36,17.95,30.09,17.34,46.29-.36,9.74-2.75,20.85-6.38,21.34a4.12,4.12,0,0,1-3-.91,23,23,0,0,1-4.6-16.12"/></g><g id="Group_1763" data-name="Group 1763"><g class="cls-12"><g id="Group_1762" data-name="Group 1762"><rect id="Rectangle_1423" data-name="Rectangle 1423" class="cls-13" x="430.17" y="468.49" width="5.68" height="5.68"/></g></g></g></g></g></svg>