<svg xmlns="http://www.w3.org/2000/svg" viewBox="0 0 132.23 132.22"><defs><style>.cls-1{fill:#f39;}</style></defs><g id="Layer_2" data-name="Layer 2"><g id="Layer_1-2" data-name="Layer 1"><path id="comment-alt-lines" class="cls-1" d="M115.69,0H16.53A16.54,16.54,0,0,0,0,16.53V90.9a16.54,16.54,0,0,0,16.53,16.53H41.32v21.69a3.11,3.11,0,0,0,4.93,2.51l32.26-24.2H115.7A16.55,16.55,0,0,0,132.23,90.9V16.53A16.54,16.54,0,0,0,115.69,0ZM74.37,68.18a2.05,2.05,0,0,1-2.06,2H35.12a2.05,2.05,0,0,1-2.06-2h0V64.06A2.06,2.06,0,0,1,35.12,62H72.31a2.06,2.06,0,0,1,2.06,2.06h0Zm24.79-24.8a2.06,2.06,0,0,1-2.06,2.06h-62a2.06,2.06,0,0,1-2.06-2.06h0V39.27a2.06,2.06,0,0,1,2.06-2.06h62a2.06,2.06,0,0,1,2.06,2.06h0Z"/></g></g></svg>