<svg xmlns="http://www.w3.org/2000/svg" viewBox="0 0 135.61 120.6"><defs><style>.cls-1{fill:#707070;}</style></defs><g id="Layer_2" data-name="Layer 2"><g id="Layer_1-2" data-name="Layer 1"><path id="comments-alt" class="cls-1" d="M98,52.77V15A15.1,15.1,0,0,0,82.91,0H15A15.09,15.09,0,0,0,0,15V52.7a15.09,15.09,0,0,0,15,15V80.55a2.27,2.27,0,0,0,3.64,1.84L38.23,67.81H82.91A15,15,0,0,0,98,52.85Zm22.61-15h-15v15A22.66,22.66,0,0,1,82.91,75.38H45.23v15a15.08,15.08,0,0,0,15,15H89.9l19.51,14.74a2.29,2.29,0,0,0,3.2-.47,2.32,2.32,0,0,0,.45-1.38V105.52h7.54a15.08,15.08,0,0,0,15-15V52.77a15.08,15.08,0,0,0-15-15.09Z"/></g></g></svg>