<svg xmlns="http://www.w3.org/2000/svg" xmlns:xlink="http://www.w3.org/1999/xlink" viewBox="0 0 501.97 605.72"><defs><style>.cls-1{fill:none;}.cls-2{clip-path:url(#clip-path);}.cls-3{fill:#fff;}.cls-4{fill:#e5e5e5;}.cls-5{fill:#e2e1e2;}.cls-6{fill:#707070;}.cls-7{clip-path:url(#clip-path-3);}.cls-8{clip-path:url(#clip-path-4);}.cls-9{fill:url(#radial-gradient);}.cls-10{fill:#bcbcbc;}.cls-11{fill:#231f20;}.cls-12{clip-path:url(#clip-path-5);}.cls-13{clip-path:url(#clip-path-6);}.cls-14{fill:url(#radial-gradient-2);}.cls-15{clip-path:url(#clip-path-7);}.cls-16{fill:url(#linear-gradient);}</style><clipPath id="clip-path" transform="translate(-0.02)"><rect class="cls-1" width="501.99" height="605.46"/></clipPath><clipPath id="clip-path-3" transform="translate(-0.02)"><rect class="cls-1" x="141.64" y="124.78" width="105.72" height="105.72"/></clipPath><clipPath id="clip-path-4" transform="translate(-0.02)"><path class="cls-1" d="M247.36,177.65a52.87,52.87,0,1,1-52.87-52.87,52.87,52.87,0,0,1,52.87,52.87h0"/></clipPath><radialGradient id="radial-gradient" cx="-2090.24" cy="1072.67" r="11.1" gradientTransform="translate(10049.97 -4024.39) scale(4.72)" gradientUnits="userSpaceOnUse"><stop offset="0" stop-color="#3280fc"/><stop offset="0.13" stop-color="#3280fc"/><stop offset="1"/></radialGradient><clipPath id="clip-path-5" transform="translate(-0.02)"><rect class="cls-1" x="284.45" y="124.78" width="105.72" height="105.72"/></clipPath><clipPath id="clip-path-6" transform="translate(-0.02)"><path class="cls-1" d="M390.17,177.65a52.88,52.88,0,1,1-52.87-52.87,52.87,52.87,0,0,1,52.87,52.87h0"/></clipPath><radialGradient id="radial-gradient-2" cx="-2061.3" cy="788.44" r="11.1" gradientTransform="matrix(4.72, 0, 0, -4.72, 10056.33, 3895.13)" xlink:href="#radial-gradient"/><clipPath id="clip-path-7" transform="translate(-0.02)"><path class="cls-1" d="M431.31,472.52a2.85,2.85,0,1,0,2.85-2.84h0a2.85,2.85,0,0,0-2.85,2.84"/></clipPath><linearGradient id="linear-gradient" x1="6759.28" y1="-1294.25" x2="6771.26" y2="-1294.25" gradientTransform="matrix(0.25, 0, 0, -0.25, -1716.64, 143.78)" gradientUnits="userSpaceOnUse"><stop offset="0" stop-color="#030d14"/><stop offset="1" stop-color="#0b2f45"/></linearGradient></defs><g id="Layer_2" data-name="Layer 2"><g id="Layer_1-2" data-name="Layer 1"><g id="Group_3819" data-name="Group 3819"><g id="Group_1765" data-name="Group 1765"><g class="cls-2"><g id="Group_1764" data-name="Group 1764"><g id="Group_1761" data-name="Group 1761"><g class="cls-2"><g id="Group_1760" data-name="Group 1760"><path id="Path_398" data-name="Path 398" class="cls-3" d="M59.42,352.77c70.09,19.19,86.66,13.83,99.15,32.62a42.83,42.83,0,0,1,7.29,27.33,40.64,40.64,0,0,1-11.39,23.82c-24,23.25-90.1-5.21-127.94-36.31-8.26-6.72-30.39-25-25.92-37.89a19.28,19.28,0,0,1,11.57-9.75,68.92,68.92,0,0,1,47.24.18" transform="translate(-0.02)"/><path id="Path_399" data-name="Path 399" class="cls-3" d="M502,247.58A107.63,107.63,0,0,1,394.36,355.21H142.49A108,108,0,0,1,34.87,247.58V191.53C35.22,85.89,120.78.34,226.42,0h83.92C416.05.31,501.66,85.92,502,191.62Z" transform="translate(-0.02)"/><path id="Path_400" data-name="Path 400" class="cls-4" d="M428.51,237.34h0a45,45,0,0,1-19.93,4.59H128.3a45.08,45.08,0,0,1-20-4.59A36.87,36.87,0,0,1,87,199.56l.16-1.12a115.81,115.81,0,0,1,112.11-95.12c24.46-1.28,50.14-1.93,76.93-1.77q31.39.18,60.79,1.75A116.12,116.12,0,0,1,449.7,198.44l.15,1.12a36.85,36.85,0,0,1-21.34,37.78" transform="translate(-0.02)"/><path id="Path_401" data-name="Path 401" class="cls-3" d="M435.82,422v1.84a43.63,43.63,0,0,1-2.24,12.29,501.3,501.3,0,0,1-47.09,115.05c-2.8,4.32-5.74,8.49-9,12.6-4.15,5.45-8.68,10.76-13.7,16.25a82.27,82.27,0,0,1-33.63,19.58,137.29,137.29,0,0,1-49.33,5.87h-2a137.29,137.29,0,0,1-49.33-5.87A82.09,82.09,0,0,1,195.86,580c-30.77-33.47-42.61-61.32-69.62-143.9A43.16,43.16,0,0,1,124,424.56a47.43,47.43,0,0,1,0-4.77A50.1,50.1,0,0,1,135.7,391.4a64.8,64.8,0,0,1,50.4-23.57l93.68-.4,91.93-.36a66.37,66.37,0,0,1,51.73,23.61,51.39,51.39,0,0,1,11.41,23.75c.21,1.16.36,2.37.48,3.56s.2,2.63.2,4" transform="translate(-0.02)"/><path id="Path_402" data-name="Path 402" class="cls-3" d="M373.15,505.48c-1.37-72.67-11.21-87,3.29-104.33a42.9,42.9,0,0,1,24.18-14.71,40.67,40.67,0,0,1,26.05,4.22c29.15,16.48,20.45,87.9,1.3,133-4.17,9.82-15.38,36.21-29.15,35.58a19.34,19.34,0,0,1-12.62-8.34A68.91,68.91,0,0,1,373,505.51" transform="translate(-0.02)"/><path id="Path_403" data-name="Path 403" class="cls-5" d="M386.6,551.16c-2.8,4.33-5.74,8.5-9,12.58-1-1-1.9-2.07-2.71-3a68.82,68.82,0,0,1-13.14-45.38c-1.37-72.67-11.21-87,3.3-104.33a45,45,0,0,1,11.21-9.73C362,418.51,371.8,433,373.1,505.44a69.11,69.11,0,0,0,13.14,45.4,1.18,1.18,0,0,1,.23.27" transform="translate(-0.02)"/><path id="Path_404" data-name="Path 404" class="cls-6" d="M343.78,421.8l-16.1-11.7h0a8.79,8.79,0,0,0-10.36,0l-16.1,11.7a8.81,8.81,0,0,0-3.21,9.85l6.15,18.94a9,9,0,0,0,8.56,6.1h19.91a8.74,8.74,0,0,0,8.21-6.1L347,431.65a8.8,8.8,0,0,0-3.2-9.85M303.42,425l16.1-11.71a4.88,4.88,0,0,1,5.71,0L341.33,425a4.86,4.86,0,0,1,1.77,5.45l-.47,1.43L326.6,421a7.28,7.28,0,0,0-8.23,0l-16.14,11.05-.54-1.64a4.85,4.85,0,0,1,1.77-5.44m21.86,0v27.8h-5.27V425l.38-.36a3.35,3.35,0,0,1,1.08-.7,3.2,3.2,0,0,1,2.24,0,3.27,3.27,0,0,1,1,.65Zm-17.49,24.44L303.48,436l12.45-8.36V452.7h-3.48a4.86,4.86,0,0,1-4.64-3.36m29.15,0a4.86,4.86,0,0,1-4.64,3.36h-2.8V427.48l12,8.25Z" transform="translate(-0.02)"/><g id="Group_1754" data-name="Group 1754"><g id="Group_1753" data-name="Group 1753"><g class="cls-7"><g id="Group_1752" data-name="Group 1752"><g id="Group_1751" data-name="Group 1751"><g class="cls-8"><g id="Group_1750" data-name="Group 1750"><rect id="Rectangle_1418" data-name="Rectangle 1418" class="cls-9" x="141.62" y="124.78" width="105.72" height="105.72"/></g></g></g></g></g></g></g><path id="Path_406" data-name="Path 406" class="cls-10" d="M232.45,177.63a37.94,37.94,0,1,1-37.94-37.94,37.94,37.94,0,0,1,37.94,37.94h0" transform="translate(-0.02)"/><path id="Path_407" data-name="Path 407" class="cls-11" d="M226.37,177.63a31.86,31.86,0,1,1-31.86-31.86,31.86,31.86,0,0,1,31.86,31.86h0" transform="translate(-0.02)"/><path id="Path_408" data-name="Path 408" class="cls-3" d="M214.92,169.38a11.82,11.82,0,1,1-11.84-11.8h0a11.8,11.8,0,0,1,11.8,11.8h0" transform="translate(-0.02)"/><path id="Path_409" data-name="Path 409" class="cls-3" d="M194.49,202.07a4.71,4.71,0,1,1-4.71-4.71h0a4.71,4.71,0,0,1,4.71,4.71" transform="translate(-0.02)"/><path id="Path_410" data-name="Path 410" class="cls-3" d="M178.1,195a2.36,2.36,0,1,1-2.35-2.36h.11a2.24,2.24,0,0,1,2.24,2.24V195" transform="translate(-0.02)"/><g id="Group_1759" data-name="Group 1759"><g id="Group_1758" data-name="Group 1758"><g class="cls-12"><g id="Group_1757" data-name="Group 1757"><g id="Group_1756" data-name="Group 1756"><g class="cls-13"><g id="Group_1755" data-name="Group 1755"><rect id="Rectangle_1420" data-name="Rectangle 1420" class="cls-14" x="284.43" y="124.78" width="105.72" height="105.72"/></g></g></g></g></g></g></g><path id="Path_412" data-name="Path 412" class="cls-10" d="M375.28,177.63a37.94,37.94,0,1,1-37.94-37.94,37.94,37.94,0,0,1,37.94,37.94h0" transform="translate(-0.02)"/><path id="Path_413" data-name="Path 413" class="cls-11" d="M369.18,177.63a31.86,31.86,0,1,1-31.86-31.86h0a31.85,31.85,0,0,1,31.86,31.86" transform="translate(-0.02)"/><path id="Path_414" data-name="Path 414" class="cls-3" d="M357.72,169.38a11.82,11.82,0,1,1-11.84-11.8h0a11.82,11.82,0,0,1,11.81,11.8" transform="translate(-0.02)"/><path id="Path_415" data-name="Path 415" class="cls-3" d="M337.32,202.07a4.71,4.71,0,1,1-4.71-4.71h0a4.71,4.71,0,0,1,4.71,4.71" transform="translate(-0.02)"/><path id="Path_416" data-name="Path 416" class="cls-3" d="M320.93,195a2.36,2.36,0,1,1-2.36-2.36,2.25,2.25,0,0,1,2.36,2.12V195" transform="translate(-0.02)"/><path id="Path_417" data-name="Path 417" class="cls-10" d="M433,61.28A20.92,20.92,0,0,1,417.61,81.8c-7.82.85-14.06-7.13-20.51-15.39s-20.18-29-14.71-34.88c7.28-7.78,50,8.7,50.58,29.75" transform="translate(-0.02)"/><path id="Path_418" data-name="Path 418" class="cls-10" d="M368.19,20.63a6.73,6.73,0,1,1-6.72-6.73,6.72,6.72,0,0,1,6.72,6.73h0" transform="translate(-0.02)"/><path id="Path_419" data-name="Path 419" class="cls-10" d="M432.05,185.09a268.84,268.84,0,0,0-56.88-55c-14-9.24-27.87-15.69-27-17.71a58.82,58.82,0,0,1,28.9,7.46,103.72,103.72,0,0,1,55,65.27" transform="translate(-0.02)"/><path id="Path_420" data-name="Path 420" class="cls-3" d="M325.5,264.67a10.78,10.78,0,0,1-9.8,9.46l-70,6.73a10.78,10.78,0,0,1-11.44-7.4,48.12,48.12,0,0,1-1.5-6.73,2.24,2.24,0,0,1,1.95-2.49l.16,0,88.34-8.52a2.25,2.25,0,0,1,2.52,1.93c0,.11,0,.21,0,.31a46.63,46.63,0,0,1-.21,6.89" transform="translate(-0.02)"/><path id="Path_421" data-name="Path 421" class="cls-5" d="M325.48,264.63a46.78,46.78,0,0,1-91,9.64,10.81,10.81,0,0,0,11.21,6.54l70-6.72a10.82,10.82,0,0,0,9.8-9.46" transform="translate(-0.02)"/><path id="Path_422" data-name="Path 422" class="cls-10" d="M427.52,445a120,120,0,0,0-4.8-25.05c-3.83-15-8.63-22.42-5.51-25.25,2-1.88,6-.6,7-.33,13.74,4.48,17.94,30.15,17.4,46.28-.36,9.86-2.78,20.92-6.39,21.41a4.11,4.11,0,0,1-3-.9A23,23,0,0,1,427.54,445" transform="translate(-0.02)"/></g></g></g><g id="Group_1763" data-name="Group 1763"><g class="cls-15"><g id="Group_1762" data-name="Group 1762"><rect id="Rectangle_1423" data-name="Rectangle 1423" class="cls-16" x="431.23" y="469.68" width="5.7" height="5.7"/></g></g></g></g></g></g></g></g></g></svg>