<svg xmlns="http://www.w3.org/2000/svg" viewBox="0 0 142.55 142.55"><defs><style>.cls-1{fill:#fff;}.cls-2{fill:#9c3;}</style></defs><g id="Layer_2" data-name="Layer 2"><g id="Layer_1-2" data-name="Layer 1"><g id="Group_1770" data-name="Group 1770"><rect id="Rectangle_1410-2" data-name="Rectangle 1410-2" class="cls-1" width="142.55" height="142.55" rx="18.39"/><path id="comment-dots" class="cls-2" d="M71.43,35.84c-22.36,0-40.49,14.71-40.49,32.9a29.24,29.24,0,0,0,9,20.7,40.25,40.25,0,0,1-8.66,15.17,1.27,1.27,0,0,0,.91,2.14,36.16,36.16,0,0,0,22.24-8.13,48.35,48.35,0,0,0,17,3.07c22.37,0,40.5-14.72,40.5-32.91S93.81,35.84,71.43,35.84Zm-20.26,38a5.06,5.06,0,1,1,5.06-5.06h0A5.07,5.07,0,0,1,51.17,73.81Zm20.23,0a5.06,5.06,0,1,1,5.06-5.06h0a5.06,5.06,0,0,1-5,5.06Zm20.23,0a5.06,5.06,0,1,1,5.06-5.06h0a5.06,5.06,0,0,1-5,5.06Z"/></g></g></g></svg>