<svg xmlns="http://www.w3.org/2000/svg" viewBox="0 0 142.55 142.55"><defs><style>.cls-1{fill:#51c7df;}.cls-2{fill:#fff;}</style></defs><g id="Layer_2" data-name="Layer 2"><g id="Layer_1-2" data-name="Layer 1"><g id="Group_1768" data-name="Group 1768"><path id="Rectangle_192-2" data-name="Rectangle 192-2" class="cls-1" d="M71.27,0h0a71.27,71.27,0,0,1,71.28,71.27h0a71.28,71.28,0,0,1-71.28,71.28h0A71.27,71.27,0,0,1,0,71.27H0A71.27,71.27,0,0,1,71.27,0Z"/><g id="Group_1694" data-name="Group 1694"><path id="Path_358" data-name="Path 358" class="cls-2" d="M99.61,36.47a7,7,0,0,0-2.61-.8c-.23,0-.47,0-.7,0H51.58a7,7,0,0,0-6.95,6.95v3.47H42a1.27,1.27,0,0,0-1.27,1.27V53.7A1.27,1.27,0,0,0,42,55h2.63v4.8H42a1.27,1.27,0,0,0-1.27,1.27v6.38A1.27,1.27,0,0,0,42,68.71h2.63V73.5H42a1.27,1.27,0,0,0-1.27,1.27v6.38A1.27,1.27,0,0,0,42,82.43h2.63v4.79H42a1.27,1.27,0,0,0-1.27,1.27v6.38A1.27,1.27,0,0,0,42,96.15h2.63v4.16a7,7,0,0,0,6.95,7H96.3a5.47,5.47,0,0,0,.7,0,7,7,0,0,0,2.61-.81,6.94,6.94,0,0,0,3.64-6.11V42.59a7,7,0,0,0-3.64-6.11M91.35,50.34a1.37,1.37,0,0,0-1.09-.45,1.54,1.54,0,0,0-1.09.45l-5.09,5.12,0-17.28H96.39l0,17.31Z"/></g></g></g></g></svg>