<svg xmlns="http://www.w3.org/2000/svg" xmlns:xlink="http://www.w3.org/1999/xlink" width="27.461" height="27.764" viewBox="0 0 27.461 27.764">
  <defs>
    <linearGradient id="linear-gradient" x1="0.126" y1="0.165" x2="0.875" y2="0.835" gradientUnits="objectBoundingBox">
      <stop offset="0.24" stop-color="#ee3c96"/>
      <stop offset="0.77" stop-color="#52c7de"/>
    </linearGradient>
    <linearGradient id="linear-gradient-2" x1="-0.026" y1="0.196" x2="1.026" y2="0.92" gradientUnits="objectBoundingBox">
      <stop offset="0.24" stop-color="#ee3c96" stop-opacity="0.851"/>
      <stop offset="0.77" stop-color="#52c7de" stop-opacity="0.851"/>
    </linearGradient>
  </defs>
  <g id="Layer_1-2" transform="translate(0 0.01)">
    <path id="Path_2191" data-name="Path 2191" d="M25.487,13.874q0-.5-.042-.992a14.676,14.676,0,0,0,2.016-1.071A13.706,13.706,0,0,0,27,9.776a14.61,14.61,0,0,0-2.281-.092A11.72,11.72,0,0,0,23.856,7.9a14.655,14.655,0,0,0,1.35-1.838,13.9,13.9,0,0,0-1.3-1.632,14.634,14.634,0,0,0-2.093.907A11.86,11.86,0,0,0,20.259,4.1a14.656,14.656,0,0,0,.419-2.244A13.8,13.8,0,0,0,18.8.945a14.649,14.649,0,0,0-1.493,1.726,11.716,11.716,0,0,0-1.935-.44,14.693,14.693,0,0,0-.6-2.2Q14.258-.009,13.73-.01T12.686.029a14.563,14.563,0,0,0-.6,2.2,11.714,11.714,0,0,0-1.935.439A14.728,14.728,0,0,0,8.663.944a13.9,13.9,0,0,0-1.88.907A14.656,14.656,0,0,0,7.2,4.095a11.854,11.854,0,0,0-1.55,1.237,14.748,14.748,0,0,0-2.093-.908,13.9,13.9,0,0,0-1.3,1.632,14.635,14.635,0,0,0,1.35,1.838,11.682,11.682,0,0,0-.862,1.787,14.615,14.615,0,0,0-2.281.092A13.731,13.731,0,0,0,0,11.808,14.634,14.634,0,0,0,2.016,12.88c-.027.327-.042.657-.042.992s.014.664.042.991A14.676,14.676,0,0,0,0,15.934,13.742,13.742,0,0,0,.462,17.97a14.611,14.611,0,0,0,2.281.092,11.72,11.72,0,0,0,.862,1.787,14.656,14.656,0,0,0-1.35,1.838,13.9,13.9,0,0,0,1.3,1.632,14.731,14.731,0,0,0,2.093-.907A11.715,11.715,0,0,0,7.2,23.649a14.656,14.656,0,0,0-.419,2.244,13.8,13.8,0,0,0,1.88.907,14.649,14.649,0,0,0,1.493-1.726,11.716,11.716,0,0,0,1.935.44,14.693,14.693,0,0,0,.6,2.2q.517.038,1.044.039t1.044-.039a14.591,14.591,0,0,0,.6-2.2,11.715,11.715,0,0,0,1.935-.439A14.649,14.649,0,0,0,18.8,26.8a13.9,13.9,0,0,0,1.88-.907,14.656,14.656,0,0,0-.419-2.244,11.79,11.79,0,0,0,1.55-1.238,14.593,14.593,0,0,0,2.093.907,13.9,13.9,0,0,0,1.3-1.632,14.742,14.742,0,0,0-1.35-1.838,11.72,11.72,0,0,0,.862-1.787A14.6,14.6,0,0,0,27,17.97a13.731,13.731,0,0,0,.462-2.035,14.634,14.634,0,0,0-2.016-1.071q.041-.49.042-.992ZM13.73,23.81a9.935,9.935,0,1,1,9.935-9.935A9.936,9.936,0,0,1,13.73,23.81Z" transform="translate(0 0)" fill="url(#linear-gradient)"/>
    <rect id="Rectangle_2497" data-name="Rectangle 2497" width="9.327" height="15.256" transform="translate(9.022 6.246)" fill="rgba(0,0,0,0)"/>
    <path id="Path_2192" data-name="Path 2192" d="M157.516,87.79a.5.5,0,1,0-.738.432h.48a.5.5,0,0,0,.256-.432Z" transform="translate(-143.243 -79.895)" fill="none"/>
    <path id="Path_2193" data-name="Path 2193" d="M115.085,81.339H114.3a.453.453,0,0,0-.49-.466h-.56a1.159,1.159,0,0,0-2.316,0h-.56a.453.453,0,0,0-.49.466H109.1a1.491,1.491,0,0,0-1.673,1.692v8.584A1.487,1.487,0,0,0,109.1,93.3h5.982a1.487,1.487,0,0,0,1.673-1.688V83.031a1.49,1.49,0,0,0-1.673-1.692Zm-3.488-.432a.5.5,0,1,1,.739.432h-.48a.5.5,0,0,1-.258-.432Z" transform="translate(-98.319 -73.009)" fill="url(#linear-gradient-2)"/>
    <path id="Path_2194" data-name="Path 2194" d="M124.213,145.854a.765.765,0,0,1,1.06-1.1l1.316,1.265,2.618-3.326.094.071-.094-.072a.14.14,0,0,1,.025-.025.765.765,0,0,1,.542-.186h.009a.766.766,0,0,1,.713.805h0v.009a.768.768,0,0,1-.245.511l-3.143,3.825h0a.106.106,0,0,1-.02.02.766.766,0,0,1-1.035-.024l-1.843-1.773h0Z" transform="translate(-113.463 -130.402)" fill="#fff"/>
  </g>
</svg>
