<svg id="Layer_1-2" xmlns="http://www.w3.org/2000/svg" xmlns:xlink="http://www.w3.org/1999/xlink" width="27.456" height="27.76" viewBox="0 0 27.456 27.76">
  <defs>
    <linearGradient id="linear-gradient" x1="0.126" y1="0.165" x2="0.875" y2="0.835" gradientUnits="objectBoundingBox">
      <stop offset="0.24" stop-color="#ee3c96"/>
      <stop offset="0.77" stop-color="#52c7de"/>
    </linearGradient>
    <linearGradient id="linear-gradient-2" x1="0.041" y1="0.041" x2="0.958" y2="0.959" gradientUnits="objectBoundingBox">
      <stop offset="0.24" stop-color="#ee3c96" stop-opacity="0.851"/>
      <stop offset="0.77" stop-color="#52c7de" stop-opacity="0.851"/>
    </linearGradient>
    <linearGradient id="linear-gradient-3" x1="-0.169" y1="0.182" x2="0.796" y2="1.217" xlink:href="#linear-gradient-2"/>
  </defs>
  <path id="Path_2213" data-name="Path 2213" d="M25.482,13.871q0-.5-.042-.991a14.673,14.673,0,0,0,2.015-1.071,13.7,13.7,0,0,0-.462-2.035,14.608,14.608,0,0,0-2.281-.092A11.718,11.718,0,0,0,23.851,7.9,14.653,14.653,0,0,0,25.2,6.058a13.9,13.9,0,0,0-1.3-1.632,14.631,14.631,0,0,0-2.092.907,11.858,11.858,0,0,0-1.55-1.237,14.654,14.654,0,0,0,.419-2.243A13.8,13.8,0,0,0,18.795.945,14.646,14.646,0,0,0,17.3,2.671a11.713,11.713,0,0,0-1.935-.44,14.69,14.69,0,0,0-.6-2.2q-.517-.038-1.044-.039T12.684.029a14.561,14.561,0,0,0-.6,2.2,11.712,11.712,0,0,0-1.935.439A14.725,14.725,0,0,0,8.661.944a13.9,13.9,0,0,0-1.879.907A14.654,14.654,0,0,0,7.2,4.094a11.852,11.852,0,0,0-1.55,1.237,14.746,14.746,0,0,0-2.092-.908,13.9,13.9,0,0,0-1.3,1.632,14.632,14.632,0,0,0,1.35,1.838A11.679,11.679,0,0,0,2.744,9.68a14.612,14.612,0,0,0-2.281.092A13.728,13.728,0,0,0,0,11.806a14.631,14.631,0,0,0,2.015,1.071c-.027.327-.042.657-.042.991s.014.664.042.991A14.673,14.673,0,0,0,0,15.931a13.739,13.739,0,0,0,.462,2.036,14.608,14.608,0,0,0,2.281.092A11.718,11.718,0,0,0,3.6,19.845a14.653,14.653,0,0,0-1.349,1.838,13.9,13.9,0,0,0,1.3,1.632,14.728,14.728,0,0,0,2.092-.907A11.713,11.713,0,0,0,7.2,23.645a14.654,14.654,0,0,0-.419,2.243,13.8,13.8,0,0,0,1.879.907,14.646,14.646,0,0,0,1.493-1.726,11.713,11.713,0,0,0,1.935.44,14.69,14.69,0,0,0,.6,2.2q.517.038,1.044.039t1.044-.039a14.589,14.589,0,0,0,.6-2.2,11.712,11.712,0,0,0,1.935-.439A14.646,14.646,0,0,0,18.795,26.8a13.9,13.9,0,0,0,1.879-.907,14.654,14.654,0,0,0-.419-2.243,11.788,11.788,0,0,0,1.55-1.237,14.59,14.59,0,0,0,2.092.907,13.9,13.9,0,0,0,1.3-1.632,14.739,14.739,0,0,0-1.349-1.838,11.718,11.718,0,0,0,.862-1.787,14.6,14.6,0,0,0,2.28-.092,13.728,13.728,0,0,0,.462-2.035A14.631,14.631,0,0,0,25.44,14.86q.041-.49.042-.991ZM13.728,23.806a9.933,9.933,0,1,1,9.933-9.933,9.934,9.934,0,0,1-9.933,9.933Z" transform="translate(0 0.01)" fill="url(#linear-gradient)"/>
  <path id="Path_2214" data-name="Path 2214" d="M124.161,98.61h-6.309a1.376,1.376,0,0,0-1.561,1.545V106.5a1.376,1.376,0,0,0,1.561,1.545h6.309a1.379,1.379,0,0,0,1.566-1.545v-6.342A1.379,1.379,0,0,0,124.161,98.61Z" transform="translate(-106.427 -90.246)" fill="url(#linear-gradient-2)"/>
  <path id="Path_2215" data-name="Path 2215" d="M97.984,133.94a.894.894,0,0,1-1-1V126.05H96.17v6.93a1.583,1.583,0,0,0,1.8,1.777h7.257a2.917,2.917,0,0,0,.293-.015v-.834a1.392,1.392,0,0,1-.306.032Z" transform="translate(-88.013 -115.358)" fill="url(#linear-gradient-3)"/>
  <path id="Path_2216" data-name="Path 2216" d="M174.4,114.133c-.167,0-.273-.118-.273-.314v-4.566a.7.7,0,0,1,.775-.784h2.211a.7.7,0,0,1,.775.784v4.566c0,.2-.106.314-.269.314-.126,0-.2-.07-.412-.277l-1.175-1.171a.031.031,0,0,0-.049,0l-1.175,1.171c-.212.208-.286.277-.408.277Z" transform="translate(-159.361 -99.269)" fill="#fff"/>
</svg>
