<svg id="Layer_1-2" xmlns="http://www.w3.org/2000/svg" xmlns:xlink="http://www.w3.org/1999/xlink" width="27.456" height="27.76" viewBox="0 0 27.456 27.76">
  <defs>
    <linearGradient id="linear-gradient" x1="0.126" y1="0.165" x2="0.875" y2="0.835" gradientUnits="objectBoundingBox">
      <stop offset="0.24" stop-color="#ee3c96"/>
      <stop offset="0.77" stop-color="#52c7de"/>
    </linearGradient>
    <linearGradient id="linear-gradient-2" x1="-0.042" y1="0.036" x2="1.041" y2="0.965" gradientUnits="objectBoundingBox">
      <stop offset="0.24" stop-color="#ee3c96" stop-opacity="0"/>
      <stop offset="0.77" stop-color="#52c7de" stop-opacity="0"/>
    </linearGradient>
    <linearGradient id="linear-gradient-3" x1="0.026" y1="0.122" x2="0.905" y2="0.837" gradientUnits="objectBoundingBox">
      <stop offset="0.24" stop-color="#ee3c96" stop-opacity="0.851"/>
      <stop offset="0.77" stop-color="#52c7de" stop-opacity="0.851"/>
    </linearGradient>
  </defs>
  <path id="Path_2224" data-name="Path 2224" d="M25.482,13.871q0-.5-.042-.991a14.673,14.673,0,0,0,2.015-1.071,13.7,13.7,0,0,0-.462-2.035,14.608,14.608,0,0,0-2.281-.092A11.718,11.718,0,0,0,23.851,7.9,14.653,14.653,0,0,0,25.2,6.058a13.9,13.9,0,0,0-1.3-1.632,14.631,14.631,0,0,0-2.092.907,11.858,11.858,0,0,0-1.55-1.237,14.654,14.654,0,0,0,.419-2.243A13.8,13.8,0,0,0,18.795.945,14.646,14.646,0,0,0,17.3,2.671a11.713,11.713,0,0,0-1.935-.44,14.69,14.69,0,0,0-.6-2.2q-.517-.038-1.044-.039T12.684.029a14.561,14.561,0,0,0-.6,2.2,11.712,11.712,0,0,0-1.935.439A14.725,14.725,0,0,0,8.661.944a13.9,13.9,0,0,0-1.879.907A14.654,14.654,0,0,0,7.2,4.094a11.852,11.852,0,0,0-1.55,1.237,14.746,14.746,0,0,0-2.092-.908,13.9,13.9,0,0,0-1.3,1.632,14.632,14.632,0,0,0,1.35,1.838A11.679,11.679,0,0,0,2.744,9.68a14.612,14.612,0,0,0-2.281.092A13.728,13.728,0,0,0,0,11.806a14.631,14.631,0,0,0,2.015,1.071c-.027.327-.042.657-.042.991s.014.664.042.991A14.673,14.673,0,0,0,0,15.931a13.739,13.739,0,0,0,.462,2.036,14.608,14.608,0,0,0,2.281.092A11.718,11.718,0,0,0,3.6,19.845a14.653,14.653,0,0,0-1.349,1.838,13.9,13.9,0,0,0,1.3,1.632,14.728,14.728,0,0,0,2.092-.907A11.713,11.713,0,0,0,7.2,23.645a14.654,14.654,0,0,0-.419,2.243,13.8,13.8,0,0,0,1.879.907,14.646,14.646,0,0,0,1.493-1.726,11.713,11.713,0,0,0,1.935.44,14.69,14.69,0,0,0,.6,2.2q.517.038,1.044.039t1.044-.039a14.589,14.589,0,0,0,.6-2.2,11.712,11.712,0,0,0,1.935-.439A14.646,14.646,0,0,0,18.795,26.8a13.9,13.9,0,0,0,1.879-.907,14.654,14.654,0,0,0-.419-2.243,11.788,11.788,0,0,0,1.55-1.237,14.59,14.59,0,0,0,2.092.907,13.9,13.9,0,0,0,1.3-1.632,14.739,14.739,0,0,0-1.349-1.838,11.718,11.718,0,0,0,.862-1.787,14.6,14.6,0,0,0,2.28-.092,13.728,13.728,0,0,0,.462-2.035A14.631,14.631,0,0,0,25.44,14.86q.041-.49.042-.991ZM13.728,23.806a9.933,9.933,0,1,1,9.933-9.933,9.934,9.934,0,0,1-9.933,9.933Z" transform="translate(0 0.01)" fill="url(#linear-gradient)"/>
  <path id="Path_2225" data-name="Path 2225" d="M101.781,87.071a.408.408,0,0,1,.4.408v.991h2.1a1.448,1.448,0,0,1,.933.28l1.367,1.042c.528.4.528.794.012,1.175l-1.378,1.042a1.475,1.475,0,0,1-.938.284h-2.1v.941h3.91c.631,0,1,.28,1,.785V96.27c0,.5-.371.785-1,.785h-3.91v2.138h1.638a.406.406,0,0,1,0,.812H99.737a.406.406,0,1,1,0-.812h1.638V97.054H99.383a1.439,1.439,0,0,1-.938-.284l-1.378-1.037c-.522-.39-.516-.78.006-1.175l1.373-1.047a1.434,1.434,0,0,1,.933-.28h2v-.941h-3.81c-.631,0-1-.284-1-.785V89.254c0-.5.371-.785,1-.785h3.81v-.991a.409.409,0,0,1,.409-.408H96.21v12.99h11.143V87.071h-5.568Z" transform="translate(-88.05 -79.684)" fill="url(#linear-gradient-2)"/>
  <path id="Path_2226" data-name="Path 2226" d="M105.162,87.507V88.5h-3.81c-.631,0-1,.28-1,.785v2.253c0,.5.371.785,1,.785h3.81v.941h-2a1.437,1.437,0,0,0-.933.28l-1.373,1.047c-.522.394-.527.785-.006,1.175l1.378,1.037a1.434,1.434,0,0,0,.938.284h1.991v2.138h-1.638a.406.406,0,1,0,0,.812h4.088a.406.406,0,0,0,0-.812h-1.638V97.083h3.91c.631,0,1-.284,1-.785V94.046c0-.5-.371-.785-1-.785h-3.91v-.941h2.1a1.475,1.475,0,0,0,.938-.284L110.386,91c.516-.381.516-.771-.012-1.175l-1.367-1.042a1.445,1.445,0,0,0-.933-.28h-2.1v-.991a.408.408,0,0,0-.4-.408.412.412,0,0,0-.409.408Z" transform="translate(-91.839 -79.712)" fill="url(#linear-gradient-3)"/>
</svg>
