<svg id="Layer_1-2" xmlns="http://www.w3.org/2000/svg" xmlns:xlink="http://www.w3.org/1999/xlink" width="27.456" height="27.76" viewBox="0 0 27.456 27.76">
  <defs>
    <linearGradient id="linear-gradient" x1="0.126" y1="0.165" x2="0.875" y2="0.835" gradientUnits="objectBoundingBox">
      <stop offset="0.24" stop-color="#ee3c96"/>
      <stop offset="0.77" stop-color="#52c7de"/>
    </linearGradient>
    <linearGradient id="linear-gradient-2" x1="0.054" y1="0.313" x2="0.989" y2="0.782" gradientUnits="objectBoundingBox">
      <stop offset="0.29" stop-color="#e52d8c"/>
      <stop offset="0.8" stop-color="#53c6dd"/>
    </linearGradient>
    <linearGradient id="linear-gradient-3" x1="-2451.767" y1="926.155" x2="430.017" y2="-161.527" gradientUnits="objectBoundingBox">
      <stop offset="0.2" stop-color="#e52d8c"/>
      <stop offset="0.89" stop-color="#53c6dd"/>
    </linearGradient>
    <linearGradient id="linear-gradient-4" x1="0.053" y1="0.714" x2="1.004" y2="0.127" xlink:href="#linear-gradient-3"/>
    <linearGradient id="linear-gradient-5" x1="-3.927" y1="5.496" x2="2.695" y2="-1.618" xlink:href="#linear-gradient-3"/>
    <linearGradient id="linear-gradient-6" x1="-13.096" y1="4.018" x2="9.245" y2="-1.558" xlink:href="#linear-gradient-3"/>
    <linearGradient id="linear-gradient-7" x1="-34.116" y1="3.659" x2="18.926" y2="-1.156" xlink:href="#linear-gradient-3"/>
    <linearGradient id="linear-gradient-8" x1="-15.532" y1="4.249" x2="7.71" y2="-1.3" xlink:href="#linear-gradient-3"/>
    <linearGradient id="linear-gradient-9" x1="-0.711" y1="0.884" x2="5.949" y2="-1.192" xlink:href="#linear-gradient-3"/>
  </defs>
  <path id="Path_2261" data-name="Path 2261" d="M25.482,13.871q0-.5-.042-.991a14.673,14.673,0,0,0,2.015-1.071,13.7,13.7,0,0,0-.462-2.035,14.608,14.608,0,0,0-2.281-.092A11.718,11.718,0,0,0,23.851,7.9,14.653,14.653,0,0,0,25.2,6.058a13.9,13.9,0,0,0-1.3-1.632,14.631,14.631,0,0,0-2.092.907,11.858,11.858,0,0,0-1.55-1.237,14.654,14.654,0,0,0,.419-2.243A13.8,13.8,0,0,0,18.795.945,14.646,14.646,0,0,0,17.3,2.671a11.713,11.713,0,0,0-1.935-.44,14.69,14.69,0,0,0-.6-2.2q-.517-.038-1.044-.039T12.684.029a14.561,14.561,0,0,0-.6,2.2,11.712,11.712,0,0,0-1.935.439A14.725,14.725,0,0,0,8.661.944a13.9,13.9,0,0,0-1.879.907A14.654,14.654,0,0,0,7.2,4.094a11.852,11.852,0,0,0-1.55,1.237,14.746,14.746,0,0,0-2.092-.908,13.9,13.9,0,0,0-1.3,1.632,14.632,14.632,0,0,0,1.35,1.838A11.679,11.679,0,0,0,2.744,9.68a14.612,14.612,0,0,0-2.281.092A13.728,13.728,0,0,0,0,11.806a14.631,14.631,0,0,0,2.015,1.071c-.027.327-.042.657-.042.991s.014.664.042.991A14.673,14.673,0,0,0,0,15.931a13.739,13.739,0,0,0,.462,2.036,14.608,14.608,0,0,0,2.281.092A11.718,11.718,0,0,0,3.6,19.845a14.653,14.653,0,0,0-1.349,1.838,13.9,13.9,0,0,0,1.3,1.632,14.728,14.728,0,0,0,2.092-.907A11.713,11.713,0,0,0,7.2,23.645a14.654,14.654,0,0,0-.419,2.243,13.8,13.8,0,0,0,1.879.907,14.646,14.646,0,0,0,1.493-1.726,11.713,11.713,0,0,0,1.935.44,14.69,14.69,0,0,0,.6,2.2q.517.038,1.044.039t1.044-.039a14.589,14.589,0,0,0,.6-2.2,11.712,11.712,0,0,0,1.935-.439A14.646,14.646,0,0,0,18.795,26.8a13.9,13.9,0,0,0,1.879-.907,14.654,14.654,0,0,0-.419-2.243,11.788,11.788,0,0,0,1.55-1.237,14.59,14.59,0,0,0,2.092.907,13.9,13.9,0,0,0,1.3-1.632,14.739,14.739,0,0,0-1.349-1.838,11.718,11.718,0,0,0,.862-1.787,14.6,14.6,0,0,0,2.28-.092,13.728,13.728,0,0,0,.462-2.035A14.631,14.631,0,0,0,25.44,14.86q.041-.49.042-.991ZM13.728,23.806a9.933,9.933,0,1,1,9.933-9.933,9.934,9.934,0,0,1-9.933,9.933Z" transform="translate(0 0.01)" fill="url(#linear-gradient)"/>
  <path id="Path_2262" data-name="Path 2262" d="M87.163,179.855a1.1,1.1,0,0,1,0-.129,1.323,1.323,0,0,1,.308-.748,1.711,1.711,0,0,1,.409-.359,11.7,11.7,0,0,0-2.426-.654h0a1.816,1.816,0,0,0-1.245-.005.513.513,0,0,0-.305.257c-.117.34.466.819.684,1a5.032,5.032,0,0,0,2.711,1.18c-.025-.077-.052-.156-.078-.237a1.16,1.16,0,0,1-.059-.3Z" transform="translate(-76.774 -162.767)" fill="#53c6dd" style="mix-blend-mode: normal;isolation: isolate"/>
  <path id="Path_2263" data-name="Path 2263" d="M101.968,69.61h-2.21a5.063,5.063,0,0,0-5.048,5.048v1.474a2.845,2.845,0,0,0,2.837,2.837h6.632a2.837,2.837,0,0,0,2.837-2.837V74.658a5.063,5.063,0,0,0-5.048-5.048Zm1.9.831c.193-.205,1.317.23,1.333.785h0a.55.55,0,0,1-.405.54c-.206.023-.371-.187-.54-.405S103.72,70.6,103.867,70.441Zm-.55-.462a.174.174,0,0,1,.175.175h0a.175.175,0,1,1-.175-.175Zm-2.3,7.707a1.231,1.231,0,0,1-1.051-.847.285.285,0,0,0,.293.172l1.845-.177a.284.284,0,0,0,.257-.249l0,0a1.232,1.232,0,0,1-1.348,1.1Zm1.343-1.1,0,0a.285.285,0,0,1-.257.249l-1.845.178a.284.284,0,0,1-.3-.193,1.263,1.263,0,0,1-.04-.176.065.065,0,0,1,.055-.07l2.327-.225a.061.061,0,0,1,.064.057v0a1.3,1.3,0,0,1-.005.182Zm2.717-.72v0a1.174,1.174,0,0,1-.525.121H97.17a1.2,1.2,0,0,1-.525-.121.971.971,0,0,1-.563-.995l0-.03a3.051,3.051,0,0,1,2.955-2.505c.644-.033,1.321-.051,2.026-.047q.829.005,1.6.046a3.059,3.059,0,0,1,2.971,2.509l0,.03a.969.969,0,0,1-.563.995Z" transform="translate(-86.677 -63.705)" fill="url(#linear-gradient-2)" style="mix-blend-mode: normal;isolation: isolate"/>
  <path id="Path_2264" data-name="Path 2264" d="M120.378,103.708a3.058,3.058,0,0,0-2.971-2.509q-.772-.041-1.6-.046c-.706,0-1.383.014-2.026.047a3.051,3.051,0,0,0-2.955,2.505l0,.03a.969.969,0,0,0,.563.995,1.174,1.174,0,0,0,.525.121h7.386a1.2,1.2,0,0,0,.525-.121v0a.973.973,0,0,0,.563-.995l0-.03Zm-6.723.45a1,1,0,1,1,1-1A1,1,0,0,1,113.655,104.157Zm3.76,0a1,1,0,1,1,1-1A1,1,0,0,1,117.415,104.157Zm2.5-.8a7.061,7.061,0,0,0-1.5-1.449c-.369-.243-.734-.416-.712-.467a1.554,1.554,0,0,1,.762.2,2.732,2.732,0,0,1,1.449,1.72Z" transform="translate(-101.415 -92.573)" fill="#e2e1e2" style="mix-blend-mode: normal;isolation: isolate"/>
  <path id="Path_2265" data-name="Path 2265" d="M200.193,194.97l0,0Z" transform="translate(-183.211 -178.433)" fill="url(#linear-gradient-3)" style="mix-blend-mode: normal;isolation: isolate"/>
  <path id="Path_2266" data-name="Path 2266" d="M130.239,187.487c-.036-1.914-.3-2.293.087-2.748a1.2,1.2,0,0,1,.3-.257c-.016.02-.031.038-.044.058.014-.02.03-.04.047-.059a1.126,1.126,0,0,1,.636-.386,1.065,1.065,0,0,1,.567.057,1.749,1.749,0,0,0-1.319-.573l-2.423.009-2.468.01a1.7,1.7,0,0,0-.919.262.83.83,0,0,1,.186.206,1.13,1.13,0,0,1,.193.72,1.071,1.071,0,0,1-.3.628.926.926,0,0,1-.658.224,8.325,8.325,0,0,0,1.756,3.553,2.163,2.163,0,0,0,.885.515,3.638,3.638,0,0,0,1.3.155h.054a3.618,3.618,0,0,0,1.3-.155,2.163,2.163,0,0,0,.885-.515c.132-.144.252-.284.36-.427-.026-.027-.05-.054-.071-.079a1.81,1.81,0,0,1-.346-1.2Zm-.388-2.206-.162.5a.231.231,0,0,1-.216.16h-.524a.233.233,0,0,1-.226-.16l-.162-.5a.23.23,0,0,1,.084-.257l.425-.308a.232.232,0,0,1,.273,0l.424.308h0A.23.23,0,0,1,129.851,185.281Z" transform="translate(-113.593 -168.007)" fill="url(#linear-gradient-4)" style="mix-blend-mode: normal;isolation: isolate"/>
  <path id="Path_2267" data-name="Path 2267" d="M178.612,198.037l-.425-.308a.129.129,0,0,0-.15,0l-.425.308h0a.13.13,0,0,0-.047.144l.016.042.425-.292a.2.2,0,0,1,.217,0l.425.287.012-.038A.129.129,0,0,0,178.612,198.037Z" transform="translate(-162.498 -180.936)" fill="url(#linear-gradient-5)" style="mix-blend-mode: normal;isolation: isolate"/>
  <path id="Path_2268" data-name="Path 2268" d="M178.335,203.032a.129.129,0,0,0,.122.089h.092v-.662l-.328.22Z" transform="translate(-163.105 -185.288)" fill="url(#linear-gradient-6)" style="mix-blend-mode: normal;isolation: isolate"/>
  <path id="Path_2269" data-name="Path 2269" d="M183.483,201.221a.085.085,0,0,0-.064,0,.089.089,0,0,0-.028.019l-.01.009v.732h.138v-.732l-.008-.011A.07.07,0,0,0,183.483,201.221Z" transform="translate(-167.827 -184.148)" fill="url(#linear-gradient-7)" style="mix-blend-mode: normal;isolation: isolate"/>
  <path id="Path_2270" data-name="Path 2270" d="M186.29,203.085h.077a.127.127,0,0,0,.122-.089l.116-.359-.316-.217Z" transform="translate(-170.49 -185.251)" fill="url(#linear-gradient-8)" style="mix-blend-mode: normal;isolation: isolate"/>
  <path id="Path_2271" data-name="Path 2271" d="M123.275,188.434a1.067,1.067,0,0,0,.3-.628,1.125,1.125,0,0,0-.193-.72.847.847,0,0,0-.186-.206,1.7,1.7,0,0,0-.409.359,1.312,1.312,0,0,0-.308.748,1.091,1.091,0,0,0,0,.129,1.127,1.127,0,0,0,.059.3c.026.081.053.16.078.237a.932.932,0,0,0,.658-.224Z" transform="translate(-112.09 -171.029)" fill="#53c6dd" style="mix-blend-mode: normal;isolation: isolate"/>
  <path id="Path_2272" data-name="Path 2272" d="M123.275,188.434a1.067,1.067,0,0,0,.3-.628,1.125,1.125,0,0,0-.193-.72.847.847,0,0,0-.186-.206,1.7,1.7,0,0,0-.409.359,1.312,1.312,0,0,0-.308.748,1.091,1.091,0,0,0,0,.129,1.127,1.127,0,0,0,.059.3c.026.081.053.16.078.237a.932.932,0,0,0,.658-.224Z" transform="translate(-112.09 -171.029)" fill="url(#linear-gradient-9)" style="mix-blend-mode: normal;isolation: isolate"/>
  <path id="Path_2273" data-name="Path 2273" d="M199.921,189.6a1.09,1.09,0,0,0-.12-.055,1.075,1.075,0,0,0-.567-.057,1.126,1.126,0,0,0-.636.386c-.017.02-.032.04-.047.059l0,.005,0,0c-.3.429-.068.863-.034,2.678a1.822,1.822,0,0,0,.346,1.2.023.023,0,0,1,.006.007v0a.51.51,0,0,0,.327.213c.36.016.655-.68.765-.937.5-1.187.732-3.069-.034-3.5Zm.2,2.08a.076.076,0,0,1,.073.057v.037a.074.074,0,0,1-.066.056h-.013a.075.075,0,0,1-.069-.075h0a.076.076,0,0,1,.075-.075h0Zm.191-.762c-.009.257-.073.55-.169.563a.109.109,0,0,1-.079-.024.6.6,0,0,1-.121-.426l0,0a3.167,3.167,0,0,0-.129-.659c-.1-.4-.228-.589-.145-.665.053-.049.159-.016.182-.008C200.215,189.809,200.327,190.489,200.311,190.916Z" transform="translate(-181.567 -173.401)" fill="#53c6dd" style="mix-blend-mode: normal;isolation: isolate"/>
  <path id="Path_2274" data-name="Path 2274" d="M195.638,198.177a.032.032,0,0,0-.006-.007,1.822,1.822,0,0,1-.346-1.2c-.034-1.815-.268-2.249.034-2.678l0,0,0-.005c.014-.02.029-.038.044-.058a1.2,1.2,0,0,0-.3.257c-.382.455-.123.834-.087,2.748a1.811,1.811,0,0,0,.346,1.2c.021.025.045.053.071.079h0c.082-.107.159-.215.233-.33v0Z" transform="translate(-178.34 -177.756)" fill="#e2e1e1"/>
  <path id="Path_2275" data-name="Path 2275" d="M177.566,196.817h0l-.424-.308a.232.232,0,0,0-.273,0l-.425.308a.23.23,0,0,0-.084.257l.162.5a.234.234,0,0,0,.226.16h.524a.231.231,0,0,0,.216-.16l.162-.5A.23.23,0,0,0,177.566,196.817Zm-.73.818h-.092a.128.128,0,0,1-.122-.089l-.115-.353.328-.22v.662Zm.247,0h-.138V196.9l.01-.009a.1.1,0,0,1,.028-.019.085.085,0,0,1,.064,0,.1.1,0,0,1,.027.017l.008.011Zm.309-.089a.129.129,0,0,1-.122.089h-.077v-.665l.316.217Zm.16-.5-.012.038-.425-.287a.2.2,0,0,0-.217,0l-.425.292-.016-.042a.128.128,0,0,1,.047-.143h0l.425-.309a.129.129,0,0,1,.15,0l.425.308A.129.129,0,0,1,177.552,197.046Z" transform="translate(-161.392 -179.801)" fill="#fff"/>
  <path id="Path_2276" data-name="Path 2276" d="M133.52,113a1,1,0,1,0,1,1A1,1,0,0,0,133.52,113Zm0,1.842a.84.84,0,1,1-.007-1.679h.007a.84.84,0,0,1,0,1.679Z" transform="translate(-121.28 -103.415)" fill="#eff9fc"/>
  <path id="Path_2277" data-name="Path 2277" d="M135.253,114.93h-.007a.84.84,0,1,0,.007,0Zm-.5,1.358a.064.064,0,0,1,0-.129h0a.064.064,0,1,1,0,.129Zm.372.249a.124.124,0,1,1,.124-.124A.124.124,0,0,1,135.126,116.537Zm.662-.989a.31.31,0,1,1-.31-.31.311.311,0,0,1,.31.31Z" transform="translate(-123.01 -105.181)" fill="#221f1f"/>
  <path id="Path_2278" data-name="Path 2278" d="M143.64,118.55a.31.31,0,1,0,.31.31h0A.311.311,0,0,0,143.64,118.55Z" transform="translate(-131.174 -108.494)" fill="#fff"/>
  <circle id="Ellipse_412" data-name="Ellipse 412" cx="0.124" cy="0.124" r="0.124" transform="translate(11.992 11.107)" fill="#fff"/>
  <path id="Path_2279" data-name="Path 2279" d="M137.764,129.42h0a.064.064,0,1,0,.064.064A.064.064,0,0,0,137.764,129.42Z" transform="translate(-126.021 -118.443)" fill="#fff"/>
  <path id="Path_2280" data-name="Path 2280" d="M177.85,113a1,1,0,1,0,1,1A1,1,0,0,0,177.85,113Zm.842,1a.84.84,0,1,1-.843-.836h.007a.836.836,0,0,1,.836.836Z" transform="translate(-161.851 -103.415)" fill="#eff9fc"/>
  <path id="Path_2281" data-name="Path 2281" d="M179.613,114.93h-.007a.84.84,0,1,0,.843.836h0A.836.836,0,0,0,179.613,114.93Zm-.5,1.358a.064.064,0,1,1,.064-.064A.064.064,0,0,1,179.113,116.288Zm.371.249a.124.124,0,1,1,.124-.124A.124.124,0,0,1,179.485,116.537Zm.662-.989a.31.31,0,1,1-.31-.31.311.311,0,0,1,.31.31h0Z" transform="translate(-163.608 -105.181)" fill="#221f1f"/>
  <path id="Path_2282" data-name="Path 2282" d="M187.99,118.55a.31.31,0,1,0,.31.31h0a.31.31,0,0,0-.311-.31Z" transform="translate(-171.762 -108.494)" fill="#fff"/>
  <path id="Path_2283" data-name="Path 2283" d="M185.864,130.95a.124.124,0,1,0,.124.124A.124.124,0,0,0,185.864,130.95Z" transform="translate(-169.987 -119.843)" fill="#fff"/>
  <path id="Path_2284" data-name="Path 2284" d="M182.124,129.42a.064.064,0,1,0,.064.064A.064.064,0,0,0,182.124,129.42Z" transform="translate(-166.619 -118.443)" fill="#fff"/>
  <path id="Path_2285" data-name="Path 2285" d="M203.244,80.167a.551.551,0,0,0,.405-.54h0c-.016-.555-1.14-.99-1.333-.785-.148.156.216.7.386.919S203.038,80.189,203.244,80.167Z" transform="translate(-185.127 -72.107)" fill="#fff"/>
  <path id="Path_2286" data-name="Path 2286" d="M194.3,74.319a.174.174,0,0,0,.175-.175h0a.175.175,0,1,0-.175.175Z" transform="translate(-177.665 -67.695)" fill="#fff"/>
  <path id="Path_2287" data-name="Path 2287" d="M192.781,104.707a1.554,1.554,0,0,0-.762-.2c-.022.051.343.224.712.467a7.08,7.08,0,0,1,1.5,1.449h0A2.735,2.735,0,0,0,192.781,104.707Z" transform="translate(-175.733 -95.645)" fill="#221f1f"/>
  <path id="Path_2288" data-name="Path 2288" d="M158.6,149.086a.061.061,0,0,0-.064-.057l-2.327.225a.065.065,0,0,0-.055.07,1.269,1.269,0,0,0,.04.176.285.285,0,0,0,.3.193l1.845-.178a.284.284,0,0,0,.257-.249l0,0a1.3,1.3,0,0,0,.005-.182v0Z" transform="translate(-142.912 -136.388)" fill="#fff"/>
  <path id="Path_2289" data-name="Path 2289" d="M158.858,152.062l-1.845.177a.286.286,0,0,1-.293-.172,1.232,1.232,0,0,0,2.4-.257l0,0a.286.286,0,0,1-.257.249Z" transform="translate(-143.428 -138.934)"/>
  <path id="Path_2290" data-name="Path 2290" d="M213.356,191.892c-.024-.008-.129-.042-.182.008-.082.076.044.27.145.665a3.178,3.178,0,0,1,.129.659l0,0a.609.609,0,0,0,.121.426.111.111,0,0,0,.079.024c.1-.013.159-.306.169-.563C213.83,192.687,213.718,192.008,213.356,191.892Z" transform="translate(-195.07 -175.6)" fill="#fff"/>
  <path id="Path_2291" data-name="Path 2291" d="M217.861,215.565h0a.075.075,0,0,0,.069.075h.013a.074.074,0,0,0,.066-.056v-.037a.076.076,0,0,0-.073-.057h0a.076.076,0,0,0-.075.076Z" transform="translate(-199.382 -197.213)" fill="#fff"/>
</svg>
