<svg xmlns="http://www.w3.org/2000/svg" width="167.486" height="200.053" viewBox="0 0 167.486 200.053">
  <path id="my_story_icon" data-name="my story icon" d="M203.743-719.947a116.732,116.732,0,0,0-38.382-24.193A124.56,124.56,0,0,0,120-752.514V-854.866a122.437,122.437,0,0,1,45.128,8.491,119.035,119.035,0,0,1,38.615,24.541,119.035,119.035,0,0,1,38.615-24.541,122.437,122.437,0,0,1,45.128-8.491v102.353a124.274,124.274,0,0,0-45.477,8.374A117.03,117.03,0,0,0,203.743-719.947Zm0-24.193a134.465,134.465,0,0,1,31.171-17.446,136.567,136.567,0,0,1,33.962-8.607v-64.2A106.179,106.179,0,0,0,235.5-822.183a146.439,146.439,0,0,0-31.753,24.541,146.44,146.44,0,0,0-31.753-24.541A106.179,106.179,0,0,0,138.61-834.4v64.2a136.568,136.568,0,0,1,33.963,8.607A134.466,134.466,0,0,1,203.743-744.139Zm0-101.422a35.84,35.84,0,0,1-26.286-10.933,35.839,35.839,0,0,1-10.933-26.286,35.84,35.84,0,0,1,10.933-26.286A35.84,35.84,0,0,1,203.743-920a35.84,35.84,0,0,1,26.286,10.933,35.84,35.84,0,0,1,10.933,26.286,35.839,35.839,0,0,1-10.933,26.286A35.84,35.84,0,0,1,203.743-845.562Zm0-18.61a17.92,17.92,0,0,0,13.143-5.467,17.919,17.919,0,0,0,5.467-13.143,17.92,17.92,0,0,0-5.467-13.143,17.92,17.92,0,0,0-13.143-5.467,17.92,17.92,0,0,0-13.143,5.467,17.92,17.92,0,0,0-5.467,13.143,17.919,17.919,0,0,0,5.467,13.143A17.92,17.92,0,0,0,203.743-864.171ZM203.743-882.781ZM203.743-797.642Z" transform="translate(-120 920)" fill="rgba(255,255,255,0.5)"/>
</svg>
