<?xml version="1.0" encoding="UTF-8" standalone="no"?>
<svg
   xmlns:dc="http://purl.org/dc/elements/1.1/"
   xmlns:cc="http://creativecommons.org/ns#"
   xmlns:rdf="http://www.w3.org/1999/02/22-rdf-syntax-ns#"
   xmlns:svg="http://www.w3.org/2000/svg"
   xmlns="http://www.w3.org/2000/svg"
   viewBox="0 0 420.25333 420.25333"
   height="420.25333"
   width="420.25333"
   xml:space="preserve"
   id="svg2"
   version="1.1"><metadata
     id="metadata8"><rdf:RDF><cc:Work
         rdf:about=""><dc:format>image/svg+xml</dc:format><dc:type
           rdf:resource="http://purl.org/dc/dcmitype/StillImage" /></cc:Work></rdf:RDF></metadata><defs
     id="defs6"><linearGradient
       id="linearGradient28"
       spreadMethod="pad"
       gradientTransform="matrix(131.10001,-174.29999,174.29999,131.10001,84.339623,254.9893)"
       gradientUnits="userSpaceOnUse"
       y2="0"
       x2="1"
       y1="0"
       x1="0"><stop
         id="stop24"
         offset="0"
         style="stop-opacity:1;stop-color:#f2359d" /><stop
         id="stop26"
         offset="1"
         style="stop-opacity:1;stop-color:#51c7df" /></linearGradient><clipPath
       id="clipPath38"
       clipPathUnits="userSpaceOnUse"><path
         id="path36"
         d="M 0,315.19 H 315.19 V 0 H 0 Z" /></clipPath></defs><g
     transform="matrix(1.3333333,0,0,-1.3333333,0,420.25333)"
     id="g10"><g
       id="g12"><g
         id="g14"><g
           id="g20"><g
             id="g22"><path
               id="path30"
               style="fill:url(#linearGradient28);stroke:none"
               d="M 7.595,157.594 C 7.595,74.752 74.752,7.595 157.594,7.595 v 0 c 82.844,0 150.001,67.157 150.001,149.999 v 0 c 0,82.844 -67.157,150.001 -150.001,150.001 v 0 C 74.752,307.595 7.595,240.438 7.595,157.594" /></g></g></g></g><g
       id="g32"><g
         clip-path="url(#clipPath38)"
         id="g34"><g
           transform="translate(197.0199,198.7099)"
           id="g40"><path
             id="path42"
             style="fill:#ffffff;fill-opacity:1;fill-rule:nonzero;stroke:none"
             d="M 0,0 C -0.541,0.607 -1.328,0.936 -2.14,0.895 -2.94,0.896 -3.706,0.577 -4.27,0.01 l -10,-10.07 -0.07,33.955 H 9.905 l 0.06,-34 z m 16.23,27.24 c -1.585,0.862 -3.325,1.399 -5.12,1.58 -0.455,0.045 -0.92,0.075 -1.39,0.075 H -78.11 C -85.646,28.884 -91.752,22.776 -91.76,15.24 V 8.43 h -5.17 c -1.381,0 -2.5,-1.119 -2.5,-2.5 V -6.605 c 0,-1.381 1.119,-2.5 2.5,-2.5 h 5.165 v -9.425 h -5.165 c -1.381,0 -2.5,-1.119 -2.5,-2.5 v -12.54 c 0,-1.381 1.119,-2.5 2.5,-2.5 h 5.165 v -9.41 h -5.165 c -1.381,0 -2.5,-1.119 -2.5,-2.5 v -12.54 c 0,-1.381 1.119,-2.5 2.5,-2.5 h 5.165 v -9.42 h -5.165 c -1.381,0 -2.5,-1.119 -2.5,-2.5 v -12.53 c 0,-1.381 1.119,-2.5 2.5,-2.5 h 5.165 v -8.185 c 0.008,-7.536 6.114,-13.644 13.65,-13.655 H 9.72 c 0.47,0 0.935,0 1.39,0.07 1.792,0.184 3.531,0.721 5.115,1.58 1.157,0.631 2.217,1.424 3.15,2.355 2.569,2.555 4.01,6.032 4,9.655 V 15.235 c -0.009,5.007 -2.751,9.609 -7.15,12" /></g></g></g></g></svg>