<?xml version="1.0" encoding="UTF-8" standalone="no"?>
<svg
   xmlns:dc="http://purl.org/dc/elements/1.1/"
   xmlns:cc="http://creativecommons.org/ns#"
   xmlns:rdf="http://www.w3.org/1999/02/22-rdf-syntax-ns#"
   xmlns:svg="http://www.w3.org/2000/svg"
   xmlns="http://www.w3.org/2000/svg"
   viewBox="0 0 400 400"
   height="400"
   width="400"
   xml:space="preserve"
   id="svg2"
   version="1.1"><metadata
     id="metadata8"><rdf:RDF><cc:Work
         rdf:about=""><dc:format>image/svg+xml</dc:format><dc:type
           rdf:resource="http://purl.org/dc/dcmitype/StillImage" /></cc:Work></rdf:RDF></metadata><defs
     id="defs6"><linearGradient
       id="linearGradient28"
       spreadMethod="pad"
       gradientTransform="matrix(131.10001,-174.29999,174.29999,131.10001,76.744675,247.39436)"
       gradientUnits="userSpaceOnUse"
       y2="0"
       x2="1"
       y1="0"
       x1="0"><stop
         id="stop24"
         offset="0"
         style="stop-opacity:1;stop-color:#f2359d" /><stop
         id="stop26"
         offset="1"
         style="stop-opacity:1;stop-color:#51c7df" /></linearGradient><clipPath
       id="clipPath38"
       clipPathUnits="userSpaceOnUse"><path
         id="path36"
         d="M 0,300 H 300 V 0 H 0 Z" /></clipPath></defs><g
     transform="matrix(1.3333333,0,0,-1.3333333,0,400)"
     id="g10"><g
       id="g12"><g
         id="g14"><g
           id="g20"><g
             id="g22"><path
               id="path30"
               style="fill:url(#linearGradient28);stroke:none"
               d="M 150,300 C 67.157,300 0,232.843 0,150 v 0 C 0,67.157 67.157,0 150,0 v 0 c 82.843,0 150,67.157 150,150 v 0 c 0,82.843 -67.157,150 -150,150 z" /></g></g></g></g><g
       id="g32"><g
         clip-path="url(#clipPath38)"
         id="g34"><g
           transform="translate(178.965,170.2648)"
           id="g40"><path
             id="path42"
             style="fill:#ffffff;fill-opacity:1;fill-rule:nonzero;stroke:none"
             d="m 0,0 -17.64,-31.615 -1,-26.645 h 9.43 l -0.025,-0.685 -41.115,-7.905 -0.33,8.605 h 8.5 l -1,26.645 -17.645,31.615 c -0.44,0.804 -0.297,1.801 0.35,2.45 0.123,0.135 0.262,0.255 0.415,0.355 0,0 0.03,0.025 0.04,0.035 0.319,0.217 0.694,0.337 1.08,0.345 h 56.535 c 0.2,-0.01 0.397,-0.051 0.585,-0.12 0.348,0.009 0.692,-0.072 1,-0.235 C 0.187,2.286 0.55,1.017 -0.009,0.01 -0.011,0.006 -0.013,0.003 -0.015,0 m -9.53,-68.295 -40.445,-7.79 -0.21,5.465 40.84,7.865 z m -0.31,-9.35 -39.775,-7.66 -0.21,5.46 40.17,7.74 z M -10.24,-89.33 c -0.032,-0.086 -0.109,-0.147 -0.2,-0.16 h -38.81 c -0.104,0.016 -0.192,0.087 -0.23,0.185 v 0.235 l 39.5,7.615 z M -30.395,64.73 C -62.737,64.75 -88.971,38.548 -88.991,6.206 -89.004,-14.276 -78.313,-33.278 -60.8,-43.9 l 1.73,-43.285 c 0.254,-4.971 3.939,-9.092 8.85,-9.9 1.82,-5.445 10,-9.555 19.825,-9.555 9.825,0 17.895,4.05 19.79,9.44 5.394,0.299 9.682,4.642 9.91,10.04 l 1.5,43.745 C 28.182,-26.195 36.416,9.957 19.196,37.334 8.474,54.381 -10.256,64.723 -30.395,64.715" /></g><g
           transform="translate(157.17,139.3049)"
           id="g44"><path
             id="path46"
             style="fill:#ffffff;fill-opacity:1;fill-rule:nonzero;stroke:none"
             d="m 0,0 c 0.009,0.331 0.098,0.656 0.26,0.945 l 11.5,20.605 1.315,2.325 3.425,6.14 h -50.175 l 3.43,-6.15 1.285,-2.255 h -0.025 l 11.53,-20.66 c 0.161,-0.29 0.252,-0.613 0.265,-0.945 l 1.03,-27.305 h 15.135 z" /></g></g></g></g></svg>