<?xml version="1.0" encoding="UTF-8" standalone="no"?>
<svg
   xmlns:dc="http://purl.org/dc/elements/1.1/"
   xmlns:cc="http://creativecommons.org/ns#"
   xmlns:rdf="http://www.w3.org/1999/02/22-rdf-syntax-ns#"
   xmlns:svg="http://www.w3.org/2000/svg"
   xmlns="http://www.w3.org/2000/svg"
   viewBox="0 0 400 400"
   height="400"
   width="400"
   xml:space="preserve"
   id="svg2"
   version="1.1"><metadata
     id="metadata8"><rdf:RDF><cc:Work
         rdf:about=""><dc:format>image/svg+xml</dc:format><dc:type
           rdf:resource="http://purl.org/dc/dcmitype/StillImage" /></cc:Work></rdf:RDF></metadata><defs
     id="defs6"><linearGradient
       id="linearGradient28"
       spreadMethod="pad"
       gradientTransform="matrix(131.10001,-174.29999,174.29999,131.10001,76.744675,247.39436)"
       gradientUnits="userSpaceOnUse"
       y2="0"
       x2="1"
       y1="0"
       x1="0"><stop
         id="stop24"
         offset="0"
         style="stop-opacity:1;stop-color:#f2359d" /><stop
         id="stop26"
         offset="1"
         style="stop-opacity:1;stop-color:#51c7df" /></linearGradient><clipPath
       id="clipPath38"
       clipPathUnits="userSpaceOnUse"><path
         id="path36"
         d="M 0,300 H 300 V 0 H 0 Z" /></clipPath></defs><g
     transform="matrix(1.3333333,0,0,-1.3333333,0,400)"
     id="g10"><g
       id="g12"><g
         id="g14"><g
           id="g20"><g
             id="g22"><path
               id="path30"
               style="fill:url(#linearGradient28);stroke:none"
               d="M 150,300 C 67.157,300 0,232.843 0,150 v 0 C 0,67.157 67.157,0 150,0 v 0 c 82.843,0 150,67.157 150,150 v 0 c 0,82.843 -67.157,150 -150,150 z" /></g></g></g></g><g
       id="g32"><g
         clip-path="url(#clipPath38)"
         id="g34"><g
           transform="translate(168.225,186.685)"
           id="g40"><path
             id="path42"
             style="fill:#ffffff;fill-opacity:1;fill-rule:nonzero;stroke:none"
             d="m 0,0 -42.26,-42.26 c -0.594,-0.787 -0.437,-1.906 0.35,-2.5 0.636,-0.48 1.514,-0.48 2.15,0 L 2.495,-2.505 c 0.594,0.787 0.437,1.906 -0.35,2.5 -0.636,0.48 -1.514,0.48 -2.15,0" /></g><g
           transform="translate(162.865,159.2349)"
           id="g44"><path
             id="path46"
             style="fill:#ffffff;fill-opacity:1;fill-rule:nonzero;stroke:none"
             d="m 0,0 -21.5,-21.5 c -0.34,-0.565 -0.158,-1.3 0.408,-1.64 0.379,-0.228 0.853,-0.228 1.232,0 l 21.5,21.5 C 1.98,-1.075 1.798,-0.34 1.232,0 0.853,0.228 0.379,0.228 0,0" /></g><g
           transform="translate(203.045,89.2097)"
           id="g48"><path
             id="path50"
             style="fill:#ffffff;fill-opacity:1;fill-rule:nonzero;stroke:none"
             d="M 0,0 H -109.385 V 130.605 H 0.005 Z m -54.695,-21.255 c -4.694,0 -8.5,3.806 -8.5,8.5 0,4.694 3.806,8.5 8.5,8.5 4.694,0 8.5,-3.805 8.5,-8.5 0,-4.694 -3.806,-8.5 -8.5,-8.5 v 0 m -11.5,160.66 c 0.828,0 1.5,-0.671 1.5,-1.5 0,-0.828 -0.672,-1.5 -1.5,-1.5 -0.828,0 -1.5,0.672 -1.5,1.5 0,0.829 0.672,1.5 1.5,1.5 m 5.85,0.22 h 13.135 c 0.946,-0.051 1.671,-0.859 1.62,-1.805 -0.048,-0.874 -0.746,-1.572 -1.62,-1.62 h -13.135 c -0.946,0.052 -1.671,0.86 -1.62,1.805 0.048,0.875 0.746,1.573 1.62,1.62 m 6.57,7.225 c 1.052,0 1.905,-0.853 1.905,-1.905 0,-1.052 -0.853,-1.905 -1.905,-1.905 -1.05,0 -1.902,0.85 -1.905,1.9 0,1.053 0.852,1.908 1.905,1.91 m -61,3.94 c -4.567,0 -8.27,-3.702 -8.27,-8.27 V -19.33 c 0,-4.567 3.703,-8.269 8.27,-8.269 H 5.395 c 4.565,-0.003 8.267,3.695 8.27,8.259 v 0.01 161.85 c 0,4.568 -3.703,8.27 -8.27,8.27 z" /></g></g></g></g></svg>