<?xml version="1.0" encoding="utf-8"?>
<!-- Generator: Adobe Illustrator 28.1.0, SVG Export Plug-In . SVG Version: 6.00 Build 0)  -->
<svg version="1.1" id="Layer_1" xmlns="http://www.w3.org/2000/svg" xmlns:xlink="http://www.w3.org/1999/xlink" x="0px" y="0px"
	 viewBox="0 0 1080 588.8" style="enable-background:new 0 0 1080 588.8;" xml:space="preserve">
<style type="text/css">
	.st0{clip-path:url(#SVGID_00000092416744683348676320000009359039867849151397_);}
	.st1{fill:#F8F7F7;}
	.st2{fill:#80C5DC;}
	.st3{fill:#A7CA45;}
	.st4{fill:#CDCDCD;}
	.st5{fill:#DB3694;}
	.st6{fill:none;}
	.st7{fill:#333D3D;}
	.st8{font-family:'Montserrat-SemiBold';}
	.st9{font-size:13px;}
	.st10{font-family:'Montserrat-Regular';}
	.st11{font-size:11px;}
	.st12{font-size:20px;}
	.st13{clip-path:url(#SVGID_00000052797667453834638500000009307964885975324564_);}
	.st14{clip-path:url(#SVGID_00000130638743742370698990000013192802697275330490_);}
	.st15{font-size:14px;}
	.st16{clip-path:url(#SVGID_00000011718607740977565160000014646707161659488905_);}
	.st17{clip-path:url(#SVGID_00000141443236514353821000000015030187517963620013_);}
	.st18{clip-path:url(#SVGID_00000170264072992737547000000006588365289209444262_);}
	.st19{clip-path:url(#SVGID_00000133494680072956376240000018173936841484919448_);}
	.st20{clip-path:url(#SVGID_00000087408055183285777320000003685956477480591489_);}
	.st21{clip-path:url(#SVGID_00000008833420909173224380000002644357861545996185_);}
</style>
<g>
	<defs>
		<rect id="SVGID_1_" x="93.8" y="107.4" width="876.7" height="469.6"/>
	</defs>
	<clipPath id="SVGID_00000002373170052575561300000010339267630351881903_">
		<use xlink:href="#SVGID_1_"  style="overflow:visible;"/>
	</clipPath>
	
		<g id="Group_4129" transform="translate(38.317 19.239)" style="clip-path:url(#SVGID_00000002373170052575561300000010339267630351881903_);">
		<path id="Path_1825" class="st1" d="M261.8,308.5h-175c-11.2,0-20.3-9.1-20.3-20.3V120.1c0-11.2,9.1-20.3,20.3-20.3c0,0,0,0,0,0
			h175c11.2,0,20.3,9.1,20.3,20.3v168.1C282.2,299.4,273.1,308.5,261.8,308.5"/>
		<path id="Path_1826" class="st1" d="M474.5,308.5h-175c-11.2,0-20.3-9.1-20.3-20.3V120.1c0-11.2,9.1-20.3,20.3-20.3h175
			c11.2,0,20.3,9.1,20.3,20.3v168.1C494.8,299.4,485.7,308.5,474.5,308.5C474.5,308.5,474.5,308.5,474.5,308.5"/>
		<path id="Path_1827" class="st1" d="M689.9,308.5h-175c-11.2,0-20.3-9.1-20.3-20.3V120.1c0-11.2,9.1-20.3,20.3-20.3h175
			c11.2,0,20.3,9.1,20.3,20.3v168.1C710.2,299.4,701.1,308.5,689.9,308.5C689.9,308.5,689.9,308.5,689.9,308.5"/>
		<path id="Path_1828" class="st1" d="M904.1,308.5h-175c-11.2,0-20.3-9.1-20.3-20.3V120.1c0-11.2,9.1-20.3,20.3-20.3h175
			c11.2,0,20.3,9.1,20.3,20.3v168.1C924.4,299.4,915.3,308.5,904.1,308.5C904.1,308.5,904.1,308.5,904.1,308.5"/>
		<path id="Path_1829" class="st2" d="M172.3,308.5h-2.9v38.2c0,7.6-6.1,13.7-13.7,13.7h-52.1c-14.9,0-27,12.1-27,27v61.7h2.9v-61.7
			c0-13.3,10.8-24.2,24.2-24.2h52.1c9.1,0,16.5-7.4,16.6-16.5L172.3,308.5z"/>
		<path id="Path_1830" class="st2" d="M73.1,449.1c0,2.8,2.2,5,5,5c2.8,0,5-2.2,5-5s-2.2-5-5-5c0,0,0,0,0,0
			C75.3,444.1,73.1,446.3,73.1,449.1L73.1,449.1"/>
		<path id="Path_1831" class="st3" d="M597.7,308.5h-2.9v35.8c0,7.6-6.1,13.7-13.7,13.7h-52.1c-14.9,0-27,12.1-27,27v121.1
			c0,14.9,12.1,27,27,27h134.4c14.9,0,27-12.1,27-27v-57.7h-2.9v57.7c0,13.3-10.8,24.2-24.2,24.2H529.1c-13.3,0-24.2-10.8-24.2-24.2
			V385c0-13.3,10.8-24.2,24.2-24.2h52.1c9.1,0,16.5-7.4,16.5-16.6L597.7,308.5z"/>
		<path id="Path_1832" class="st3" d="M684.1,446.7c0,2.8,2.3,5,5,5s5-2.3,5-5s-2.3-5-5-5S684.1,443.9,684.1,446.7L684.1,446.7"/>
		<path id="Path_1833" class="st4" d="M876.5,353.1h-67.2v2.9h67.2c13.3,0,24.2,10.8,24.2,24.2v63.5h2.9v-63.5
			C903.6,365.2,891.5,353.1,876.5,353.1"/>
		<path id="Path_1834" class="st4" d="M809.3,353.1h-67.2c-14.9,0-27,12.1-27,27v123.4c0,14.9,12.1,27,27,27h134.4
			c14.9,0,27-12.1,27-27v-59.9h-2.9v59.9c0,13.3-10.8,24.2-24.2,24.2H742.1c-13.3,0-24.2-10.8-24.2-24.2V380.1
			c0-13.3,10.8-24.2,24.2-24.2h67.2L809.3,353.1z"/>
		<path id="Path_1835" class="st4" d="M805.9,354.5c0,2.8,2.3,5,5,5s5-2.3,5-5s-2.3-5-5-5S805.9,351.7,805.9,354.5L805.9,354.5"/>
		<rect id="Rectangle_2474" x="809.5" y="308.5" class="st4" width="2.9" height="46"/>
		<path id="Path_1836" class="st5" d="M389.6,308.5h-2.9v32.6c0,7.6-6.1,13.7-13.7,13.7h-52.1c-14.9,0-27,12.1-27,27V491
			c0,14.9,12.1,27,27,27h67.2v-2.9h-67.2c-13.3,0-24.2-10.8-24.2-24.2V381.8c0-13.3,10.8-24.2,24.2-24.2H373
			c9.1,0,16.5-7.4,16.5-16.5L389.6,308.5z"/>
		<path id="Path_1837" class="st5" d="M386,516.8c0,2.8,2.3,5,5,5s5-2.3,5-5c0-2.8-2.3-5-5-5S386,514,386,516.8L386,516.8"/>
		<path id="Path_1838" class="st1" d="M238.8,320.5H107.5c-28.7,0-52-19.9-52-44.4v-71.7H77V276c0,14.4,13.7,26.1,30.5,26.1h131.3
			c16.8,0,30.5-11.7,30.5-26.1v-71.7h21.5V276C290.8,300.5,267.5,320.5,238.8,320.5"/>
		<path id="Path_1839" class="st1" d="M504.6,204.3h-21.5v-71.7c0-14.4-13.7-26.1-30.5-26.1H321.3c-16.8,0-30.5,11.7-30.5,26.1v71.7
			h-21.5v-71.7c0-24.5,23.3-44.4,52-44.4h131.3c28.7,0,52,19.9,52,44.4V204.3z"/>
		<path id="Path_1840" class="st1" d="M666.4,320.5H535.1c-28.7,0-52-19.9-52-44.4v-71.7h21.5V276c0,14.4,13.7,26.1,30.5,26.1h131.3
			c16.8,0,30.5-11.7,30.5-26.1v-71.7h21.5V276C718.4,300.5,695.1,320.5,666.4,320.5"/>
		<path id="Path_1841" class="st1" d="M932.2,204.3h-21.5v-71.7c0-14.4-13.7-26.1-30.5-26.1H748.9c-16.8,0-30.5,11.7-30.5,26.1v71.7
			h-21.5v-71.7c0-24.5,23.3-44.4,52-44.4h131.3c28.7,0,52,19.9,52,44.4V204.3z"/>
	</g>
</g>
<g transform="matrix(1, 0, 0, 1, 0, 0)">
	<path id="Path_1842-2" class="st4" d="M985.2,162.8h-14.7v132.5c0,24.5-23.3,44.4-52,44.4H787.2c-28.7,0-52-19.9-52-44.4v-71.7
		h21.5v71.7c0,14.4,13.7,26,30.5,26h131.3c16.8,0,30.5-11.7,30.5-26V162.8h-17.2l26.7-46.2L985.2,162.8z"/>
</g>
<g transform="matrix(1, 0, 0, 1, 0, 0)">
	<path id="Path_1843-2" class="st3" d="M756.7,216.5v-64.6c0-24.5-23.3-44.4-52-44.4H573.4c-28.7,0-52,19.9-52,44.4v71.7h21.5v-71.7
		c0-14.4,13.7-26.1,30.5-26.1h131.3c16.8,0,30.5,11.7,30.5,26.1v64.6h-16.7l26.7,46.2l26.7-46.2L756.7,216.5z"/>
</g>
<g transform="matrix(1, 0, 0, 1, 0, 0)">
	<path id="Path_1844-2" class="st5" d="M558.9,227.8l-26.7-46.2l-26.7,46.2h16v67.5c0,14.4-13.7,26.1-30.5,26.1H359.6
		c-16.8,0-30.5-11.7-30.5-26.1v-71.7h-21.5v71.7c0,24.5,23.3,44.4,52,44.4h131.3c28.7,0,52-19.9,52-44.4v-67.5L558.9,227.8z"/>
</g>
<g transform="matrix(1, 0, 0, 1, 0, 0)">
	<path id="Path_1845-2" class="st2" d="M329.1,216.5v-64.6c0-24.5-23.3-44.4-52-44.4H145.8c-28.7,0-52,19.9-52,44.4v188.3h21.5
		V151.8c0-14.4,13.7-26.1,30.5-26.1h131.3c16.8,0,30.5,11.7,30.5,26.1v64.6h-16.9l26.7,46.2l26.7-46.2L329.1,216.5z"/>
</g>
<rect id="Rectangle_2476" x="55.5" y="88.2" class="st6" width="968" height="252.2"/>
<text transform="matrix(1 0 0 1 134.0465 417.1923)" class="st7 st8 st9">SOLVE AN INDUSTRY </text>
<text transform="matrix(1 0 0 1 134.0465 434.1923)" class="st7 st8 st9">PROBLEM</text>
<text transform="matrix(1 0 0 1 352.0465 417.1923)" class="st7 st8 st9">APPLY FOR AN </text>
<text transform="matrix(1 0 0 1 352.0465 434.1923)" class="st7 st8 st9">IMMERSION </text>
<text transform="matrix(1 0 0 1 352.0465 451.1923)" class="st7 st8 st9">EXPERIENCE</text>
<text transform="matrix(1 0 0 1 558.8495 417.1923)" class="st7 st8 st9">APPLY FOR AN </text>
<text transform="matrix(1 0 0 1 558.8495 434.1923)" class="st7 st8 st9">INTERNSHIP</text>
<text transform="matrix(1 0 0 1 771.9205 417.1923)" class="st7 st8 st9">APPLY FOR ENTRY </text>
<text transform="matrix(1 0 0 1 771.9205 434.1923)" class="st7 st8 st9">LEVEL EMPLOYMENT</text>
<text transform="matrix(1 0 0 1 134.0465 449.3523)" class="st7 st10 st11">No prerequisite</text>
<text transform="matrix(1 0 0 1 352.0465 468.3523)" class="st7 st10 st11">Prerequisites: Solve an </text>
<text transform="matrix(1 0 0 1 352.0465 483.3523)" class="st7 st10 st11">Industry Problem, </text>
<text transform="matrix(1 0 0 1 352.0465 498.3523)" class="st7 st10 st11">Complete Who Am I </text>
<text transform="matrix(1 0 0 1 352.0465 513.3522)" class="st7 st10 st11">section of My Portfolio</text>
<text transform="matrix(1 0 0 1 558.8495 452.3523)" class="st7 st10 st11">Prerequisites: Immersion </text>
<text transform="matrix(1 0 0 1 558.8495 467.3523)" class="st7 st10 st11">Experience, Earn LTS </text>
<text transform="matrix(1 0 0 1 558.8495 482.3523)" class="st7 st10 st11">Market-Ready </text>
<text transform="matrix(1 0 0 1 558.8495 497.3523)" class="st7 st10 st11">Certification 1, Complete </text>
<text transform="matrix(1 0 0 1 558.8495 512.3522)" class="st7 st10 st11">Industry-Specific </text>
<text transform="matrix(1 0 0 1 558.8495 527.3522)" class="st7 st10 st11">Microcredential</text>
<text transform="matrix(1 0 0 1 771.9205 452.3523)" class="st7 st10 st11">Prerequisites: Immersion </text>
<text transform="matrix(1 0 0 1 771.9205 467.3523)" class="st7 st10 st11">Experience, Earn LTS </text>
<text transform="matrix(1 0 0 1 771.9205 482.3523)" class="st7 st10 st11">Market-Ready </text>
<text transform="matrix(1 0 0 1 771.9205 497.3523)" class="st7 st10 st11">Certifications 1 &amp; 2, </text>
<text transform="matrix(1 0 0 1 771.9205 512.3522)" class="st7 st10 st11">Complete Industry-</text>
<text transform="matrix(1 0 0 1 771.9205 527.3522)" class="st7 st10 st11">Specific Microcredential</text>
<text transform="matrix(1 0 0 1 177.1565 183.1923)" class="st7 st10 st12">STEP 1</text>
<g id="Component_1161_2" transform="translate(115.545 114)">
	<g>
		<defs>
			<rect id="SVGID_00000047741138506952154550000012780943188652254650_" x="55.5" y="88.2" width="80.1" height="80.1"/>
		</defs>
		<clipPath id="SVGID_00000132065475970745024250000010007520477553970081_">
			<use xlink:href="#SVGID_00000047741138506952154550000012780943188652254650_"  style="overflow:visible;"/>
		</clipPath>
		<g id="Group_4132" style="clip-path:url(#SVGID_00000132065475970745024250000010007520477553970081_);">
			<g id="Group_4131" transform="translate(0 0)">
				<g>
					<defs>
						<rect id="SVGID_00000026867612440081704310000008518628574478966411_" x="55.5" y="88.2" width="80.1" height="80.1"/>
					</defs>
					<clipPath id="SVGID_00000175305497733707959670000015017555350834314646_">
						<use xlink:href="#SVGID_00000026867612440081704310000008518628574478966411_"  style="overflow:visible;"/>
					</clipPath>
					<g id="Group_4130" style="clip-path:url(#SVGID_00000175305497733707959670000015017555350834314646_);">
						<g id="Rectangle_2477">
							
								<image style="overflow:visible;enable-background:new    ;" width="474" height="474" id="image" xlink:href="2FEB9F7F288B1119.png"  transform="matrix(0.1689 0 0 0.1689 55.5015 88.1923)">
							</image>
						</g>
					</g>
				</g>
			</g>
		</g>
	</g>
	<text transform="matrix(1 0 0 1 71.5755 133.1923)" class="st7 st8 st15">START</text>
</g>
<g id="Component_1161_3" transform="translate(328.481 114)">
	<g>
		<defs>
			<rect id="SVGID_00000173883815154763727220000007489173862200268212_" x="55.5" y="88.2" width="80.1" height="80.1"/>
		</defs>
		<clipPath id="SVGID_00000137812072884590003480000007006769034668992430_">
			<use xlink:href="#SVGID_00000173883815154763727220000007489173862200268212_"  style="overflow:visible;"/>
		</clipPath>
		<g id="Group_4132-2" style="clip-path:url(#SVGID_00000137812072884590003480000007006769034668992430_);">
			<g id="Group_4131-2" transform="translate(0 0)">
				<g>
					<defs>
						<rect id="SVGID_00000065763866904207686620000015747454721416730242_" x="55.5" y="88.2" width="80.1" height="80.1"/>
					</defs>
					<clipPath id="SVGID_00000098199567727289476090000012807308491273032120_">
						<use xlink:href="#SVGID_00000065763866904207686620000015747454721416730242_"  style="overflow:visible;"/>
					</clipPath>
					<g id="Group_4130-2" style="clip-path:url(#SVGID_00000098199567727289476090000012807308491273032120_);">
						<g id="Rectangle_2477-2">
							
								<image style="overflow:visible;enable-background:new    ;" width="474" height="474" id="image_00000052079639094415310690000012385735739185047999_" xlink:href="2FEB9F7F288B111B.png"  transform="matrix(0.1689 0 0 0.1689 55.5015 88.1923)">
							</image>
						</g>
					</g>
				</g>
			</g>
		</g>
	</g>
	<text transform="matrix(1 0 0 1 71.5755 133.1923)" class="st7 st8 st15">START</text>
</g>
<g id="Component_1161_4" transform="translate(543.481 114)">
	<g>
		<defs>
			<rect id="SVGID_00000152226538246430108000000017140470632758062233_" x="55.5" y="88.2" width="80.1" height="80.1"/>
		</defs>
		<clipPath id="SVGID_00000112627848847105389630000005575596621363418497_">
			<use xlink:href="#SVGID_00000152226538246430108000000017140470632758062233_"  style="overflow:visible;"/>
		</clipPath>
		<g id="Group_4132-3" style="clip-path:url(#SVGID_00000112627848847105389630000005575596621363418497_);">
			<g id="Group_4131-3" transform="translate(0 0)">
				<g>
					<defs>
						<rect id="SVGID_00000018939254951830130880000018200206985178663046_" x="55.5" y="88.2" width="80.1" height="80.1"/>
					</defs>
					<clipPath id="SVGID_00000147195595587899861970000015549636169011461541_">
						<use xlink:href="#SVGID_00000018939254951830130880000018200206985178663046_"  style="overflow:visible;"/>
					</clipPath>
					<g id="Group_4130-3" style="clip-path:url(#SVGID_00000147195595587899861970000015549636169011461541_);">
						<g id="Rectangle_2477-3">
							
								<image style="overflow:visible;enable-background:new    ;" width="474" height="474" id="image_00000114777591791943941570000010225205430252577452_" xlink:href="2FEB9F7F288B111E.png"  transform="matrix(0.1689 0 0 0.1689 55.5015 88.1923)">
							</image>
						</g>
					</g>
				</g>
			</g>
		</g>
	</g>
	<text transform="matrix(1 0 0 1 71.5754 133.1923)" class="st7 st8 st15">START</text>
</g>
<g id="Component_1161_5" transform="translate(757.513 114)">
	<g>
		<defs>
			<rect id="SVGID_00000069387357950527812880000006657589026011560085_" x="55.5" y="88.2" width="80.1" height="80.1"/>
		</defs>
		<clipPath id="SVGID_00000114782657304400895670000006177607751793316252_">
			<use xlink:href="#SVGID_00000069387357950527812880000006657589026011560085_"  style="overflow:visible;"/>
		</clipPath>
		<g id="Group_4132-4" style="clip-path:url(#SVGID_00000114782657304400895670000006177607751793316252_);">
			<g id="Group_4131-4" transform="translate(0 0)">
				<g>
					<defs>
						<rect id="SVGID_00000096737963066665567680000007493140126064428725_" x="55.5" y="88.2" width="80.1" height="80.1"/>
					</defs>
					<clipPath id="SVGID_00000097495834832592634130000014604527085056876471_">
						<use xlink:href="#SVGID_00000096737963066665567680000007493140126064428725_"  style="overflow:visible;"/>
					</clipPath>
					<g id="Group_4130-4" style="clip-path:url(#SVGID_00000097495834832592634130000014604527085056876471_);">
						<g id="Rectangle_2477-4">
							
								<image style="overflow:visible;enable-background:new    ;" width="474" height="474" id="image_00000070821614499155870170000009002579001025341598_" xlink:href="2FEB9F7F288B111F.png"  transform="matrix(0.1689 0 0 0.1689 55.5015 88.1923)">
							</image>
						</g>
					</g>
				</g>
			</g>
		</g>
	</g>
	<text transform="matrix(1 0 0 1 71.5754 133.1923)" class="st7 st8 st15">START</text>
</g>
<text transform="matrix(1 0 0 1 389.0865 183.1923)" class="st7 st10 st12">STEP 2</text>
<text transform="matrix(1 0 0 1 603.1265 183.1923)" class="st7 st10 st12">STEP 3</text>
<text transform="matrix(1 0 0 1 816.1564 183.1923)" class="st7 st10 st12">STEP 4</text>
</svg>
